<?xml version="1.0" encoding="UTF-8" standalone="no"?>
<svg xmlns="http://www.w3.org/2000/svg"
     xmlns:xlink="http://www.w3.org/1999/xlink"
     width="576px" height="432px" viewBox="0 0 576 432">
<title>glps_renderer figure</title>
<desc>
Creator: GL2PS 1.3.9, (C) 1999-2015 C. Geuzaine
For: Octave
CreationDate: Tue May  9 15:48:50 2017
</desc>
<defs>
</defs>
<g shape-rendering="crispEdges">
<polygon fill="#ffffff" points="72.8,373.8 506.8,373.8 72.8,31.5"/>
<polygon fill="#ffffff" points="506.8,373.8 506.8,31.5 72.8,31.5"/>
<polyline fill="none" stroke="#000000" stroke-width="0.5" stroke-dasharray="16,0" points="72.8,373.8 506.8,373.8"/>
<polyline fill="none" stroke="#000000" stroke-width="0.5" stroke-dasharray="16,0" points="72.8,31.5 506.8,31.5"/>
<polyline fill="none" stroke="#000000" stroke-width="0.5" stroke-dasharray="16,0" points="72.8,373.8 72.8,31.5"/>
<polyline fill="none" stroke="#000000" stroke-width="0.5" stroke-dasharray="16,0" points="506.8,373.8 506.8,31.5"/>
<polyline fill="none" stroke="#000000" stroke-width="0.5" stroke-dasharray="16,0" points="72.8,373.8 72.8,369.456"/>
<polyline fill="none" stroke="#000000" stroke-width="0.5" stroke-dasharray="16,0" points="72.8,31.5 72.8,35.8438"/>
<polyline fill="none" stroke="#000000" stroke-width="0.5" stroke-dasharray="16,0" points="159.6,373.8 159.6,369.456"/>
<polyline fill="none" stroke="#000000" stroke-width="0.5" stroke-dasharray="16,0" points="159.6,31.5 159.6,35.8438"/>
<polyline fill="none" stroke="#000000" stroke-width="0.5" stroke-dasharray="16,0" points="246.4,373.8 246.4,369.456"/>
<polyline fill="none" stroke="#000000" stroke-width="0.5" stroke-dasharray="16,0" points="246.4,31.5 246.4,35.8438"/>
<polyline fill="none" stroke="#000000" stroke-width="0.5" stroke-dasharray="16,0" points="333.2,373.8 333.2,369.456"/>
<polyline fill="none" stroke="#000000" stroke-width="0.5" stroke-dasharray="16,0" points="333.2,31.5 333.2,35.8438"/>
<polyline fill="none" stroke="#000000" stroke-width="0.5" stroke-dasharray="16,0" points="420,373.8 420,369.456"/>
<polyline fill="none" stroke="#000000" stroke-width="0.5" stroke-dasharray="16,0" points="420,31.5 420,35.8438"/>
<polyline fill="none" stroke="#000000" stroke-width="0.5" stroke-dasharray="16,0" points="506.8,373.8 506.8,369.456"/>
<polyline fill="none" stroke="#000000" stroke-width="0.5" stroke-dasharray="16,0" points="506.8,31.5 506.8,35.8438"/>
<text fill="#000000" x="72.8" y="378.804" font-size="10" text-anchor="middle" baseline-shift="-10" font-family="Helvetica">0</text>
<text fill="#000000" x="159.6" y="378.804" font-size="10" text-anchor="middle" baseline-shift="-10" font-family="Helvetica">0.2</text>
<text fill="#000000" x="246.4" y="378.804" font-size="10" text-anchor="middle" baseline-shift="-10" font-family="Helvetica">0.4</text>
<text fill="#000000" x="333.2" y="378.804" font-size="10" text-anchor="middle" baseline-shift="-10" font-family="Helvetica">0.6</text>
<text fill="#000000" x="420" y="378.804" font-size="10" text-anchor="middle" baseline-shift="-10" font-family="Helvetica">0.8</text>
<text fill="#000000" x="506.8" y="378.804" font-size="10" text-anchor="middle" baseline-shift="-10" font-family="Helvetica">1</text>
<polyline fill="none" stroke="#000000" stroke-width="0.5" stroke-dasharray="16,0" points="72.8,373.8 77.14,373.8"/>
<polyline fill="none" stroke="#000000" stroke-width="0.5" stroke-dasharray="16,0" points="506.8,373.8 502.46,373.8"/>
<polyline fill="none" stroke="#000000" stroke-width="0.5" stroke-dasharray="16,0" points="72.8,288.225 77.14,288.225"/>
<polyline fill="none" stroke="#000000" stroke-width="0.5" stroke-dasharray="16,0" points="506.8,288.225 502.46,288.225"/>
<polyline fill="none" stroke="#000000" stroke-width="0.5" stroke-dasharray="16,0" points="72.8,202.65 77.14,202.65"/>
<polyline fill="none" stroke="#000000" stroke-width="0.5" stroke-dasharray="16,0" points="506.8,202.65 502.46,202.65"/>
<polyline fill="none" stroke="#000000" stroke-width="0.5" stroke-dasharray="16,0" points="72.8,117.075 77.14,117.075"/>
<polyline fill="none" stroke="#000000" stroke-width="0.5" stroke-dasharray="16,0" points="506.8,117.075 502.46,117.075"/>
<polyline fill="none" stroke="#000000" stroke-width="0.5" stroke-dasharray="16,0" points="72.8,31.5 77.14,31.5"/>
<polyline fill="none" stroke="#000000" stroke-width="0.5" stroke-dasharray="16,0" points="506.8,31.5 502.46,31.5"/>
<text fill="#000000" x="67.8" y="373.8" font-size="10" text-anchor="end" baseline-shift="-5" font-family="Helvetica">0</text>
<text fill="#000000" x="67.8" y="288.225" font-size="10" text-anchor="end" baseline-shift="-5" font-family="Helvetica">0.5</text>
<text fill="#000000" x="67.8" y="202.65" font-size="10" text-anchor="end" baseline-shift="-5" font-family="Helvetica">1</text>
<text fill="#000000" x="67.8" y="117.075" font-size="10" text-anchor="end" baseline-shift="-5" font-family="Helvetica">1.5</text>
<text fill="#000000" x="67.8" y="31.5" font-size="10" text-anchor="end" baseline-shift="-5" font-family="Helvetica">2</text>
<polyline fill="none" stroke="#0000ff" stroke-width="0.5" points="74.2236,346.954 78.5909,339.227 82.9581,331.376 87.3253,323.935 91.6925,317.388 96.0597,312.115 100.427,308.366 104.794,306.237 109.161,305.663 113.529,306.424 117.896,308.198 122.263,310.61 126.63,313.285 130.997,315.859 135.365,317.977 139.732,319.297 144.099,319.514 148.466,318.414 152.833,315.917 157.201,312.099 161.568,307.178 165.935,301.469 170.302,295.332 174.67,289.13 179.037,283.194 183.404,277.803 187.771,273.147 192.138,269.298 196.506,266.194 200.873,263.647 205.24,261.406 209.607,259.223 213.974,256.915 218.342,254.383 222.709,251.57 227.076,248.396 231.443,244.699 235.811,240.225 240.178,234.667 244.545,227.743 248.912,219.289 253.279,209.356 257.647,198.281 262.014,186.683 266.381,175.359 270.748,165.099 275.115,156.49 279.483,149.801 283.85,144.99 288.217,141.783 292.584,139.776 296.952,138.52 301.319,137.594 305.686,136.662 310.053,135.513 314.42,134.06 318.788,132.278 323.155,130.134 327.522,127.558 331.889,124.467 336.256,120.827 340.624,116.699 344.991,112.247 349.358,107.695 353.725,103.282 358.092,99.2167 362.46,95.6581 366.827,92.7089 371.194,90.4444 375.561,88.9696 379.929,88.4708 384.296,89.2114 388.663,91.4404 393.03,95.2465 397.397,100.432 401.765,106.487 406.132,112.685 410.499,118.293 414.866,122.81 419.233,126.168 423.601,128.771 427.968,131.353 432.335,134.666 436.702,139.163 441.07,144.833 445.437,151.25 449.804,157.824 454.171,164.075 458.538,169.818 462.906,175.2 467.273,180.612 471.64,186.564 476.007,193.586 480.374,202.169 484.742,212.736 489.109,225.604 493.476,240.891 497.843,258.388 502.211,277.459 506.578,297.044"/>
</g>
</svg>
