<?xml version="1.0" encoding="UTF-8" standalone="no"?>
<svg xmlns="http://www.w3.org/2000/svg"
     xmlns:xlink="http://www.w3.org/1999/xlink"
     width="560px" height="420px" viewBox="0 0 560 420">
<title>glps_renderer figure</title>
<desc>
Creator: GL2PS 1.3.9, (C) 1999-2015 C. Geuzaine
For: Octave
CreationDate: Tue May  9 15:48:49 2017
</desc>
<defs>
</defs>
<g shape-rendering="crispEdges">
<polygon fill="#ffffff" points="98.0089,373.8 460.667,373.8 98.0089,31.5"/>
<polygon fill="#ffffff" points="460.667,373.8 460.667,31.5 98.0089,31.5"/>
<polygon fill="#ffffff" points="2.66733,373.8 68.6742,373.8 2.66733,305.463"/>
<polygon fill="#ffffff" points="68.6742,373.8 68.6742,305.463 2.66733,305.463"/>
<polyline fill="none" stroke="#000000" stroke-width="0.5" stroke-dasharray="16,0" points="98.0089,373.8 460.667,373.8"/>
<polyline fill="none" stroke="#000000" stroke-width="0.5" stroke-dasharray="16,0" points="98.0089,31.5 460.667,31.5"/>
<polyline fill="none" stroke="#000000" stroke-width="0.5" stroke-dasharray="16,0" points="98.0089,373.8 98.0089,31.5"/>
<polyline fill="none" stroke="#000000" stroke-width="0.5" stroke-dasharray="16,0" points="460.667,373.8 460.667,31.5"/>
<polyline fill="none" stroke="#000000" stroke-width="0.5" stroke-dasharray="16,0" points="98.0089,373.8 98.0089,370.17"/>
<polyline fill="none" stroke="#000000" stroke-width="0.5" stroke-dasharray="16,0" points="98.0089,31.5 98.0089,35.1298"/>
<polyline fill="none" stroke="#000000" stroke-width="0.5" stroke-dasharray="16,0" points="158.452,373.8 158.452,370.17"/>
<polyline fill="none" stroke="#000000" stroke-width="0.5" stroke-dasharray="16,0" points="158.452,31.5 158.452,35.1298"/>
<polyline fill="none" stroke="#000000" stroke-width="0.5" stroke-dasharray="16,0" points="218.895,373.8 218.895,370.17"/>
<polyline fill="none" stroke="#000000" stroke-width="0.5" stroke-dasharray="16,0" points="218.895,31.5 218.895,35.1298"/>
<polyline fill="none" stroke="#000000" stroke-width="0.5" stroke-dasharray="16,0" points="279.338,373.8 279.338,370.17"/>
<polyline fill="none" stroke="#000000" stroke-width="0.5" stroke-dasharray="16,0" points="279.338,31.5 279.338,35.1298"/>
<polyline fill="none" stroke="#000000" stroke-width="0.5" stroke-dasharray="16,0" points="339.781,373.8 339.781,370.17"/>
<polyline fill="none" stroke="#000000" stroke-width="0.5" stroke-dasharray="16,0" points="339.781,31.5 339.781,35.1298"/>
<polyline fill="none" stroke="#000000" stroke-width="0.5" stroke-dasharray="16,0" points="400.224,373.8 400.224,370.17"/>
<polyline fill="none" stroke="#000000" stroke-width="0.5" stroke-dasharray="16,0" points="400.224,31.5 400.224,35.1298"/>
<polyline fill="none" stroke="#000000" stroke-width="0.5" stroke-dasharray="16,0" points="460.667,373.8 460.667,370.17"/>
<polyline fill="none" stroke="#000000" stroke-width="0.5" stroke-dasharray="16,0" points="460.667,31.5 460.667,35.1298"/>
<text fill="#000000" x="98.0089" y="378.804" font-size="10" text-anchor="middle" baseline-shift="-10" font-family="Helvetica">0</text>
<text fill="#000000" x="158.452" y="378.804" font-size="10" text-anchor="middle" baseline-shift="-10" font-family="Helvetica">100</text>
<text fill="#000000" x="218.895" y="378.804" font-size="10" text-anchor="middle" baseline-shift="-10" font-family="Helvetica">200</text>
<text fill="#000000" x="279.338" y="378.804" font-size="10" text-anchor="middle" baseline-shift="-10" font-family="Helvetica">300</text>
<text fill="#000000" x="339.781" y="378.804" font-size="10" text-anchor="middle" baseline-shift="-10" font-family="Helvetica">400</text>
<text fill="#000000" x="400.224" y="378.804" font-size="10" text-anchor="middle" baseline-shift="-10" font-family="Helvetica">500</text>
<text fill="#000000" x="460.667" y="378.804" font-size="10" text-anchor="middle" baseline-shift="-10" font-family="Helvetica">600</text>
<polyline fill="none" stroke="#000000" stroke-width="0.5" stroke-dasharray="16,0" points="98.0089,373.8 101.632,373.8"/>
<polyline fill="none" stroke="#000000" stroke-width="0.5" stroke-dasharray="16,0" points="460.667,373.8 457.044,373.8"/>
<polyline fill="none" stroke="#000000" stroke-width="0.5" stroke-dasharray="16,0" points="98.0089,288.225 101.632,288.225"/>
<polyline fill="none" stroke="#000000" stroke-width="0.5" stroke-dasharray="16,0" points="460.667,288.225 457.044,288.225"/>
<polyline fill="none" stroke="#000000" stroke-width="0.5" stroke-dasharray="16,0" points="98.0089,202.65 101.632,202.65"/>
<polyline fill="none" stroke="#000000" stroke-width="0.5" stroke-dasharray="16,0" points="460.667,202.65 457.044,202.65"/>
<polyline fill="none" stroke="#000000" stroke-width="0.5" stroke-dasharray="16,0" points="98.0089,117.075 101.632,117.075"/>
<polyline fill="none" stroke="#000000" stroke-width="0.5" stroke-dasharray="16,0" points="460.667,117.075 457.044,117.075"/>
<polyline fill="none" stroke="#000000" stroke-width="0.5" stroke-dasharray="16,0" points="98.0089,31.5 101.632,31.5"/>
<polyline fill="none" stroke="#000000" stroke-width="0.5" stroke-dasharray="16,0" points="460.667,31.5 457.044,31.5"/>
<text fill="#000000" x="93.0136" y="373.8" font-size="10" text-anchor="end" baseline-shift="-5" font-family="Helvetica">-1</text>
<text fill="#000000" x="93.0136" y="288.225" font-size="10" text-anchor="end" baseline-shift="-5" font-family="Helvetica">-0.5</text>
<text fill="#000000" x="93.0136" y="202.65" font-size="10" text-anchor="end" baseline-shift="-5" font-family="Helvetica">0</text>
<text fill="#000000" x="93.0136" y="117.075" font-size="10" text-anchor="end" baseline-shift="-5" font-family="Helvetica">0.5</text>
<text fill="#000000" x="93.0136" y="31.5" font-size="10" text-anchor="end" baseline-shift="-5" font-family="Helvetica">1</text>
<polyline fill="none" stroke="#0000ff" stroke-width="0.5" points="98.6133,245.746 99.2177,245.746 99.8222,245.746 100.427,245.746 101.031,245.746 101.635,245.746 102.24,245.746 102.844,245.746 103.449,245.746 104.053,245.746 104.658,267.897 105.262,267.897 105.866,267.897 106.471,280.735 107.075,280.735 107.68,280.735 108.284,280.735 108.889,290.572 109.493,287.449 110.098,287.449 110.702,287.449 111.306,287.449 111.911,302.881 112.515,302.881 113.12,302.881 113.724,302.881 114.329,302.881 114.933,302.881 115.537,302.881 116.142,302.881 116.746,302.881 117.351,302.881 117.955,302.881 118.56,302.881 119.164,302.881 119.768,302.881 120.373,285.192 120.977,285.192 121.582,285.192 122.186,285.192 122.791,285.192 123.395,289.807 123.999,289.807 124.604,289.807 125.208,289.807 125.813,289.807 126.417,289.807 127.022,289.807 127.626,289.807 128.23,289.807 128.835,289.807 129.439,289.807 130.044,289.807 130.648,289.807 131.253,289.807 131.857,289.807 132.461,289.807 133.066,289.807 133.67,289.807 134.275,289.807 134.879,289.807 135.484,289.807 136.088,289.807 136.692,289.807 137.297,292.926 137.901,269.603 138.506,289.279 139.11,311.632 139.715,311.632 140.319,311.632 140.923,302.082 141.528,302.082 142.132,315.323 142.737,315.323 143.341,315.323 143.946,315.323 144.55,290.069 145.154,290.069 145.759,296.502 146.363,309.398 146.968,309.398 147.572,299.735 148.177,299.735 148.781,323.894 149.385,323.894 149.99,323.894 150.594,322.509 151.199,322.509 151.803,322.509 152.408,316.575 153.012,316.575 153.617,316.575 154.221,313.19 154.825,326.646 155.43,326.646 156.034,326.646 156.639,323.648 157.243,323.648 157.848,323.648 158.452,323.648 159.056,323.648 159.661,323.648 160.265,323.648 160.87,323.648 161.474,334.429 162.079,329.147 162.683,329.147 163.287,329.147 163.892,334.837 164.496,334.837 165.101,334.837 165.705,334.837 166.31,331.78 166.914,331.78 167.518,331.78 168.123,331.78 168.727,313.382 169.332,313.382 169.936,336.471 170.541,336.471 171.145,336.471 171.749,327.504 172.354,327.504 172.958,327.504 173.563,327.504 174.167,327.504 174.772,327.504 175.376,327.504 175.98,327.504 176.585,327.504 177.189,327.504 177.794,327.504 178.398,327.504 179.003,327.504 179.607,327.504 180.211,327.504 180.816,327.504 181.42,327.504 182.025,327.504 182.629,327.504 183.234,331.112 183.838,327.318 184.442,325.397 185.047,325.397 185.651,325.397 186.256,325.397 186.86,325.397 187.465,325.397 188.069,325.397 188.673,325.397 189.278,325.397 189.882,325.397 190.487,311.038 191.091,306.663 191.696,324.117 192.3,324.117 192.905,324.117 193.509,311.928 194.113,311.928 194.718,307.261 195.322,308.151 195.927,308.151 196.531,314.248 197.136,314.248 197.74,314.248 198.344,314.248 198.949,313.665 199.553,313.665 200.158,313.665 200.762,313.665 201.367,313.665 201.971,313.665 202.575,326.489 203.18,327.565 203.784,327.565 204.389,327.565 204.993,327.565 205.598,327.565 206.202,327.565 206.806,327.565 207.411,327.565 208.015,327.565 208.62,327.565 209.224,327.565 209.829,327.565 210.433,327.565 211.037,327.565 211.642,327.565 212.246,327.565 212.851,327.565 213.455,327.565 214.06,327.565 214.664,327.565 215.268,333.417 215.873,333.417 216.477,333.417 217.082,331.444 217.686,331.444 218.291,331.444 218.895,331.444 219.499,331.444 220.104,311.592 220.708,311.592 221.313,311.592 221.917,311.592 222.522,311.592 223.126,301.556 223.73,301.556 224.335,301.556 224.939,314.11 225.544,314.11 226.148,302.064 226.753,302.064 227.357,302.064 227.961,302.064 228.566,314.895 229.17,314.895 229.775,314.895 230.379,314.895 230.984,314.895 231.588,314.895 232.193,333.266 232.797,333.266 233.401,333.266 234.006,337.563 234.61,337.563 235.215,337.563 235.819,337.563 236.424,337.563 237.028,337.563 237.632,337.563 238.237,337.563 238.841,337.563 239.446,337.563 240.05,337.563 240.655,342.587 241.259,342.587 241.863,342.587 242.468,342.587 243.072,342.587 243.677,342.587 244.281,342.587 244.886,342.587 245.49,342.587 246.094,342.587 246.699,342.587 247.303,342.587 247.908,342.587 248.512,342.587 249.117,342.587 249.721,342.587 250.325,342.587 250.93,342.587 251.534,342.587 252.139,342.587 252.743,342.587 253.348,350.533 253.952,350.533 254.556,350.533 255.161,350.533 255.765,350.533 256.37,350.533 256.974,350.533 257.579,350.533 258.183,324.956 258.787,324.956 259.392,327.572 259.996,305.608 260.601,305.608 261.205,310.825 261.81,310.825 262.414,310.825 263.018,310.825 263.623,310.825 264.227,306.963 264.832,306.963 265.436,306.963 266.041,306.963 266.645,306.963 267.249,306.963 267.854,306.963 268.458,306.963 269.063,306.963 269.667,290.324 270.272,292.981 270.876,283.854 271.48,283.854 272.085,283.854 272.689,283.854 273.294,280.667 273.898,280.667 274.503,280.667 275.107,280.667 275.712,296.783 276.316,296.783 276.92,303.927 277.525,279.744 278.129,279.744 278.734,279.744 279.338,279.744 279.943,279.744 280.547,295.848 281.151,295.848 281.756,295.848 282.36,295.848 282.965,295.848 283.569,289.308 284.174,289.308 284.778,301.515 285.382,301.515 285.987,323.661 286.591,323.661 287.196,306.668 287.8,306.668 288.405,306.668 289.009,306.668 289.613,306.668 290.218,291.005 290.822,291.005 291.427,291.005 292.031,291.005 292.636,299.506 293.24,299.506 293.844,299.506 294.449,299.506 295.053,299.506 295.658,299.506 296.262,299.506 296.867,296.897 297.471,316.223 298.075,316.223 298.68,316.223 299.284,316.223 299.889,316.223 300.493,316.223 301.098,316.223 301.702,296.465 302.306,296.465 302.911,296.465 303.515,296.465 304.12,296.465 304.724,298.007 305.329,298.007 305.933,296.352 306.537,321.484 307.142,321.484 307.746,321.484 308.351,321.484 308.955,321.484 309.56,321.484 310.164,321.484 310.768,321.484 311.373,321.484 311.977,321.484 312.582,321.484 313.186,314.236 313.791,314.236 314.395,318.963 315,329.351 315.604,315.179 316.208,315.179 316.813,315.179 317.417,306.748 318.022,306.748 318.626,313.034 319.231,313.034 319.835,313.034 320.439,313.034 321.044,313.034 321.648,313.034 322.253,313.034 322.857,313.034 323.462,313.034 324.066,313.034 324.67,300.895 325.275,281.642 325.879,289.513 326.484,267.735 327.088,291.777 327.693,291.777 328.297,307.931 328.901,299.722 329.506,299.722 330.11,299.722 330.715,299.722 331.319,299.722 331.924,299.722 332.528,299.722 333.132,323.262 333.737,323.262 334.341,301.733 334.946,301.733 335.55,307.125 336.155,307.125 336.759,307.125 337.363,307.125 337.968,307.125 338.572,307.125 339.177,307.125 339.781,307.125 340.386,307.125 340.99,307.125 341.594,307.125 342.199,307.125 342.803,307.125 343.408,292.972 344.012,292.597 344.617,292.597 345.221,299.572 345.826,299.572 346.43,306.881 347.034,306.881 347.639,306.881 348.243,306.881 348.848,319.304 349.452,319.304 350.056,319.304 350.661,319.304 351.265,319.304 351.87,324.647 352.474,324.647 353.079,324.647 353.683,324.647 354.288,324.647 354.892,324.647 355.496,324.647 356.101,324.647 356.705,309.529 357.31,309.529 357.914,309.529 358.519,324.43 359.123,324.43 359.727,304.993 360.332,304.993 360.936,304.993 361.541,304.993 362.145,299.223 362.75,299.223 363.354,317.808 363.958,335.815 364.563,335.339 365.167,335.339 365.772,321.246 366.376,325.712 366.981,325.712 367.585,325.712 368.189,325.712 368.794,325.712 369.398,325.712 370.003,325.712 370.607,325.712 371.212,325.712 371.816,325.712 372.42,347.544 373.025,347.544 373.629,347.544 374.234,347.544 374.838,347.544 375.443,364.22 376.047,364.22 376.651,350.301 377.256,350.301 377.86,332.739 378.465,332.739 379.069,332.739 379.674,332.739 380.278,336.218 380.882,336.218 381.487,336.218 382.091,336.218 382.696,336.218 383.3,336.218 383.905,325.17 384.509,325.17 385.113,325.17 385.718,325.17 386.322,303.501 386.927,303.501 387.531,303.501 388.136,312.465 388.74,312.465 389.344,312.465 389.949,312.465 390.553,312.465 391.158,312.465 391.762,312.465 392.367,312.465 392.971,312.465 393.576,312.465 394.18,312.465 394.784,312.465 395.389,312.465 395.993,312.465 396.598,312.465 397.202,312.465 397.807,312.465 398.411,312.465 399.015,312.465 399.62,312.465 400.224,312.465 400.829,312.465"/>
<polyline fill="none" stroke="#007f00" stroke-width="0.5" points="98.6133,132.194 99.2177,132.194 99.8222,132.194 100.427,132.194 101.031,132.194 101.635,132.194 102.24,132.194 102.844,132.194 103.449,132.194 104.053,132.194 104.658,118.443 105.262,118.443 105.866,118.443 106.471,126.528 107.075,126.528 107.68,126.528 108.284,126.528 108.889,112.21 109.493,119.94 110.098,119.94 110.702,119.94 111.306,119.94 111.911,103.401 112.515,103.401 113.12,103.401 113.724,103.401 114.329,103.401 114.933,103.401 115.537,103.401 116.142,103.401 116.746,103.401 117.351,103.401 117.955,103.401 118.56,103.401 119.164,103.401 119.768,103.401 120.373,75.4233 120.977,75.4233 121.582,75.4233 122.186,75.4233 122.791,75.4233 123.395,86.049 123.999,86.049 124.604,86.049 125.208,86.049 125.813,86.049 126.417,86.049 127.022,86.049 127.626,86.049 128.23,86.049 128.835,86.049 129.439,86.049 130.044,86.049 130.648,86.049 131.253,86.049 131.857,86.049 132.461,86.049 133.066,86.049 133.67,86.049 134.275,86.049 134.879,86.049 135.484,86.049 136.088,86.049 136.692,86.049 137.297,117.075 137.901,119.923 138.506,89.4041 139.11,83.1046 139.715,83.1046 140.319,83.1046 140.923,78.0952 141.528,78.0952 142.132,62.2845 142.737,62.2845 143.341,62.2845 143.946,62.2845 144.55,73.569 145.154,73.569 145.759,81.3074 146.363,69.2997 146.968,69.2997 147.572,69.0714 148.177,69.0714 148.781,44.9195 149.385,44.9195 149.99,44.9195 150.594,60.0424 151.199,60.0424 151.803,60.0424 152.408,80.0636 153.012,80.0636 153.617,80.0636 154.221,65.039 154.825,87.9162 155.43,87.9162 156.034,87.9162 156.639,59.0143 157.243,59.0143 157.848,59.0143 158.452,59.0143 159.056,59.0143 159.661,59.0143 160.265,59.0143 160.87,59.0143 161.474,44.377 162.079,57.7407 162.683,57.7407 163.287,57.7407 163.892,66.6625 164.496,66.6625 165.101,66.6625 165.705,66.6625 166.31,32.6662 166.914,32.6662 167.518,32.6662 168.123,32.6662 168.727,50.3567 169.332,50.3567 169.936,40.4089 170.541,40.4089 171.145,40.4089 171.749,69.7207 172.354,69.7207 172.958,69.7207 173.563,69.7207 174.167,69.7207 174.772,69.7207 175.376,69.7207 175.98,69.7207 176.585,69.7207 177.189,69.7207 177.794,69.7207 178.398,69.7207 179.003,69.7207 179.607,69.7207 180.211,69.7207 180.816,69.7207 181.42,69.7207 182.025,69.7207 182.629,69.7207 183.234,67.5676 183.838,87.897 184.442,90.224 185.047,90.224 185.651,90.224 186.256,90.224 186.86,90.224 187.465,90.224 188.069,90.224 188.673,90.224 189.278,90.224 189.882,90.224 190.487,77.6629 191.091,60.7191 191.696,76.5766 192.3,76.5766 192.905,76.5766 193.509,96.6486 194.113,96.6486 194.718,67.8812 195.322,58.7018 195.927,58.7018 196.531,38.2945 197.136,38.2945 197.74,38.2945 198.344,38.2945 198.949,68.0527 199.553,68.0527 200.158,68.0527 200.762,68.0527 201.367,68.0527 201.971,68.0527 202.575,57.9188 203.18,60.6401 203.784,60.6401 204.389,60.6401 204.993,60.6401 205.598,60.6401 206.202,60.6401 206.806,60.6401 207.411,60.6401 208.015,60.6401 208.62,60.6401 209.224,60.6401 209.829,60.6401 210.433,60.6401 211.037,60.6401 211.642,60.6401 212.246,60.6401 212.851,60.6401 213.455,60.6401 214.06,60.6401 214.664,60.6401 215.268,39.9027 215.873,39.9027 216.477,39.9027 217.082,45.3372 217.686,45.3372 218.291,45.3372 218.895,45.3372 219.499,45.3372 220.104,61.4307 220.708,61.4307 221.313,61.4307 221.917,61.4307 222.522,61.4307 223.126,63.1734 223.73,63.1734 224.335,63.1734 224.939,54.2819 225.544,54.2819 226.148,73.0235 226.753,73.0235 227.357,73.0235 227.961,73.0235 228.566,86.5044 229.17,86.5044 229.775,86.5044 230.379,86.5044 230.984,86.5044 231.588,86.5044 232.193,120.179 232.797,120.179 233.401,120.179 234.006,106.313 234.61,106.313 235.215,106.313 235.819,106.313 236.424,106.313 237.028,106.313 237.632,106.313 238.237,106.313 238.841,106.313 239.446,106.313 240.05,106.313 240.655,87.5861 241.259,87.5861 241.863,87.5861 242.468,87.5861 243.072,87.5861 243.677,87.5861 244.281,87.5861 244.886,87.5861 245.49,87.5861 246.094,87.5861 246.699,87.5861 247.303,87.5861 247.908,87.5861 248.512,87.5861 249.117,87.5861 249.721,87.5861 250.325,87.5861 250.93,87.5861 251.534,87.5861 252.139,87.5861 252.743,87.5861 253.348,57.7236 253.952,57.7236 254.556,57.7236 255.161,57.7236 255.765,57.7236 256.37,57.7236 256.974,57.7236 257.579,57.7236 258.183,40.9034 258.787,40.9034 259.392,49.811 259.996,51.3109 260.601,51.3109 261.205,85.2878 261.81,85.2878 262.414,85.2878 263.018,85.2878 263.623,85.2878 264.227,95.512 264.832,95.512 265.436,95.512 266.041,95.512 266.645,95.512 267.249,95.512 267.854,95.512 268.458,95.512 269.063,95.512 269.667,84.7574 270.272,108.636 270.876,116.817 271.48,116.817 272.085,116.817 272.689,116.817 273.294,122.359 273.898,122.359 274.503,122.359 275.107,122.359 275.712,110.867 276.316,110.867 276.92,106.342 277.525,116.927 278.129,116.927 278.734,116.927 279.338,116.927 279.943,116.927 280.547,93.7165 281.151,93.7165 281.756,93.7165 282.36,93.7165 282.965,93.7165 283.569,107.927 284.174,107.927 284.778,89.2958 285.382,89.2958 285.987,72.9471 286.591,72.9471 287.196,83.8318 287.8,83.8318 288.405,83.8318 289.009,83.8318 289.613,83.8318 290.218,112.571 290.822,112.571 291.427,112.571 292.031,112.571 292.636,134.787 293.24,134.787 293.844,134.787 294.449,134.787 295.053,134.787 295.658,134.787 296.262,134.787 296.867,112.195 297.471,117.811 298.075,117.811 298.68,117.811 299.284,117.811 299.889,117.811 300.493,117.811 301.098,117.811 301.702,118.539 302.306,118.539 302.911,118.539 303.515,118.539 304.12,118.539 304.724,102.183 305.329,102.183 305.933,68.0942 306.537,81.9983 307.142,81.9983 307.746,81.9983 308.351,81.9983 308.955,81.9983 309.56,81.9983 310.164,81.9983 310.768,81.9983 311.373,81.9983 311.977,81.9983 312.582,81.9983 313.186,106.258 313.791,106.258 314.395,92.0153 315,75.2953 315.604,99.4806 316.208,99.4806 316.813,99.4806 317.417,112.453 318.022,112.453 318.626,119.699 319.231,119.699 319.835,119.699 320.439,119.699 321.044,119.699 321.648,119.699 322.253,119.699 322.857,119.699 323.462,119.699 324.066,119.699 324.67,121.818 325.275,146.206 325.879,143.793 326.484,132.161 327.088,122.157 327.693,122.157 328.297,127.91 328.901,116.116 329.506,116.116 330.11,116.116 330.715,116.116 331.319,116.116 331.924,116.116 332.528,116.116 333.132,114.056 333.737,114.056 334.341,143.017 334.946,143.017 335.55,114.476 336.155,114.476 336.759,114.476 337.363,114.476 337.968,114.476 338.572,114.476 339.177,114.476 339.781,114.476 340.386,114.476 340.99,114.476 341.594,114.476 342.199,114.476 342.803,114.476 343.408,118.599 344.012,116.834 344.617,116.834 345.221,87.1071 345.826,87.1071 346.43,100.284 347.034,100.284 347.639,100.284 348.243,100.284 348.848,97.8513 349.452,97.8513 350.056,97.8513 350.661,97.8513 351.265,97.8513 351.87,115.977 352.474,115.977 353.079,115.977 353.683,115.977 354.288,115.977 354.892,115.977 355.496,115.977 356.101,115.977 356.705,100.546 357.31,100.546 357.914,100.546 358.519,88.0395 359.123,88.0395 359.727,81.6929 360.332,81.6929 360.936,81.6929 361.541,81.6929 362.145,92.9013 362.75,92.9013 363.354,80.0473 363.958,65.4957 364.563,59.8586 365.167,59.8586 365.772,58.9611 366.376,42.3095 366.981,42.3095 367.585,42.3095 368.189,42.3095 368.794,42.3095 369.398,42.3095 370.003,42.3095 370.607,42.3095 371.212,42.3095 371.816,42.3095 372.42,47.8097 373.025,47.8097 373.629,47.8097 374.234,47.8097 374.838,47.8097 375.443,41.1185 376.047,41.1185 376.651,35.8932 377.256,35.8932 377.86,64.9528 378.465,64.9528 379.069,64.9528 379.674,64.9528 380.278,67.8217 380.882,67.8217 381.487,67.8217 382.091,67.8217 382.696,67.8217 383.3,67.8217 383.905,101.151 384.509,101.151 385.113,101.151 385.718,101.151 386.322,94.1673 386.927,94.1673 387.531,94.1673 388.136,61.0973 388.74,61.0973 389.344,61.0973 389.949,61.0973 390.553,61.0973 391.158,61.0973 391.762,61.0973 392.367,61.0973 392.971,61.0973 393.576,61.0973 394.18,61.0973 394.784,61.0973 395.389,61.0973 395.993,61.0973 396.598,61.0973 397.202,61.0973 397.807,61.0973 398.411,61.0973 399.015,61.0973 399.62,61.0973 400.224,61.0973 400.829,61.0973"/>
<polyline fill="none" stroke="#ff0000" stroke-width="0.5" points="98.6133,122.232 99.2177,122.232 99.8222,122.232 100.427,122.232 101.031,122.232 101.635,122.232 102.24,122.232 102.844,122.232 103.449,122.232 104.053,122.232 104.658,143.191 105.262,143.191 105.866,143.191 106.471,147.019 107.075,147.019 107.68,147.019 108.284,147.019 108.889,133.932 109.493,135.322 110.098,135.322 110.702,135.322 111.306,135.322 111.911,133.064 112.515,133.064 113.12,133.064 113.724,133.064 114.329,133.064 114.933,133.064 115.537,133.064 116.142,133.064 116.746,133.064 117.351,133.064 117.955,133.064 118.56,133.064 119.164,133.064 119.768,133.064 120.373,139.912 120.977,139.912 121.582,139.912 122.186,139.912 122.791,139.912 123.395,119.106 123.999,119.106 124.604,119.106 125.208,119.106 125.813,119.106 126.417,119.106 127.022,119.106 127.626,119.106 128.23,119.106 128.835,119.106 129.439,119.106 130.044,119.106 130.648,119.106 131.253,119.106 131.857,119.106 132.461,119.106 133.066,119.106 133.67,119.106 134.275,119.106 134.879,119.106 135.484,119.106 136.088,119.106 136.692,119.106 137.297,152.252 137.901,157.914 138.506,157.072 139.11,123.261 139.715,123.261 140.319,123.261 140.923,134.529 141.528,134.529 142.132,117.465 142.737,117.465 143.341,117.465 143.946,117.465 144.55,147.237 145.154,147.237 145.759,169.332 146.363,167.486 146.968,167.486 147.572,133.47 148.177,133.47 148.781,139.712 149.385,139.712 149.99,139.712 150.594,144.205 151.199,144.205 151.803,144.205 152.408,168.408 153.012,168.408 153.617,168.408 154.221,164.937 154.825,170.315 155.43,170.315 156.034,170.315 156.639,157.228 157.243,157.228 157.848,157.228 158.452,157.228 159.056,157.228 159.661,157.228 160.265,157.228 160.87,157.228 161.474,165.665 162.079,159.749 162.683,159.749 163.287,159.749 163.892,172.795 164.496,172.795 165.101,172.795 165.705,172.795 166.31,143.339 166.914,143.339 167.518,143.339 168.123,143.339 168.727,167.69 169.332,167.69 169.936,163.476 170.541,163.476 171.145,163.476 171.749,178.768 172.354,178.768 172.958,178.768 173.563,178.768 174.167,178.768 174.772,178.768 175.376,178.768 175.98,178.768 176.585,178.768 177.189,178.768 177.794,178.768 178.398,178.768 179.003,178.768 179.607,178.768 180.211,178.768 180.816,178.768 181.42,178.768 182.025,178.768 182.629,178.768 183.234,182.8 183.838,165.621 184.442,165.645 185.047,165.645 185.651,165.645 186.256,165.645 186.86,165.645 187.465,165.645 188.069,165.645 188.673,165.645 189.278,165.645 189.882,165.645 190.487,140.332 191.091,133.804 191.696,119.526 192.3,119.526 192.905,119.526 193.509,147.174 194.113,147.174 194.718,135.058 195.322,135.084 195.927,135.084 196.531,125.567 197.136,125.567 197.74,125.567 198.344,125.567 198.949,145.538 199.553,145.538 200.158,145.538 200.762,145.538 201.367,145.538 201.971,145.538 202.575,142.503 203.18,129.228 203.784,129.228 204.389,129.228 204.993,129.228 205.598,129.228 206.202,129.228 206.806,129.228 207.411,129.228 208.015,129.228 208.62,129.228 209.224,129.228 209.829,129.228 210.433,129.228 211.037,129.228 211.642,129.228 212.246,129.228 212.851,129.228 213.455,129.228 214.06,129.228 214.664,129.228 215.268,159.716 215.873,159.716 216.477,159.716 217.082,154.277 217.686,154.277 218.291,154.277 218.895,154.277 219.499,154.277 220.104,133.098 220.708,133.098 221.313,133.098 221.917,133.098 222.522,133.098 223.126,117.974 223.73,117.974 224.335,117.974 224.939,143.987 225.544,143.987 226.148,161.926 226.753,161.926 227.357,161.926 227.961,161.926 228.566,192.859 229.17,192.859 229.775,192.859 230.379,192.859 230.984,192.859 231.588,192.859 232.193,198.086 232.797,198.086 233.401,198.086 234.006,181.489 234.61,181.489 235.215,181.489 235.819,181.489 236.424,181.489 237.028,181.489 237.632,181.489 238.237,181.489 238.841,181.489 239.446,181.489 240.05,181.489 240.655,165.765 241.259,165.765 241.863,165.765 242.468,165.765 243.072,165.765 243.677,165.765 244.281,165.765 244.886,165.765 245.49,165.765 246.094,165.765 246.699,165.765 247.303,165.765 247.908,165.765 248.512,165.765 249.117,165.765 249.721,165.765 250.325,165.765 250.93,165.765 251.534,165.765 252.139,165.765 252.743,165.765 253.348,190.352 253.952,190.352 254.556,190.352 255.161,190.352 255.765,190.352 256.37,190.352 256.974,190.352 257.579,190.352 258.183,165.41 258.787,165.41 259.392,138.105 259.996,123.652 260.601,123.652 261.205,145.371 261.81,145.371 262.414,145.371 263.018,145.371 263.623,145.371 264.227,155.862 264.832,155.862 265.436,155.862 266.041,155.862 266.645,155.862 267.249,155.862 267.854,155.862 268.458,155.862 269.063,155.862 269.667,139.184 270.272,126.187 270.876,150.358 271.48,150.358 272.085,150.358 272.689,150.358 273.294,156.123 273.898,156.123 274.503,156.123 275.107,156.123 275.712,159.028 276.316,159.028 276.92,144.597 277.525,137.698 278.129,137.698 278.734,137.698 279.338,137.698 279.943,137.698 280.547,167.974 281.151,167.974 281.756,167.974 282.36,167.974 282.965,167.974 283.569,176.546 284.174,176.546 284.778,181.021 285.382,181.021 285.987,156.394 286.591,156.394 287.196,177.879 287.8,177.879 288.405,177.879 289.009,177.879 289.613,177.879 290.218,161.273 290.822,161.273 291.427,161.273 292.031,161.273 292.636,175.059 293.24,175.059 293.844,175.059 294.449,175.059 295.053,175.059 295.658,175.059 296.262,175.059 296.867,165.302 297.471,193.031 298.075,193.031 298.68,193.031 299.284,193.031 299.889,193.031 300.493,193.031 301.098,193.031 301.702,197.836 302.306,197.836 302.911,197.836 303.515,197.836 304.12,197.836 304.724,190.073 305.329,190.073 305.933,167.723 306.537,178.762 307.142,178.762 307.746,178.762 308.351,178.762 308.955,178.762 309.56,178.762 310.164,178.762 310.768,178.762 311.373,178.762 311.977,178.762 312.582,178.762 313.186,189.358 313.791,189.358 314.395,168.332 315,165.579 315.604,176.921 316.208,176.921 316.813,176.921 317.417,174.991 318.022,174.991 318.626,188.272 319.231,188.272 319.835,188.272 320.439,188.272 321.044,188.272 321.648,188.272 322.253,188.272 322.857,188.272 323.462,188.272 324.066,188.272 324.67,158.614 325.275,179.116 325.879,171.018 326.484,160.669 327.088,166.303 327.693,166.303 328.297,195.61 328.901,200.679 329.506,200.679 330.11,200.679 330.715,200.679 331.319,200.679 331.924,200.679 332.528,200.679 333.132,184.97 333.737,184.97 334.341,193.352 334.946,193.352 335.55,178.974 336.155,178.974 336.759,178.974 337.363,178.974 337.968,178.974 338.572,178.974 339.177,178.974 339.781,178.974 340.386,178.974 340.99,178.974 341.594,178.974 342.199,178.974 342.803,178.974 343.408,173.899 344.012,149.645 344.617,149.645 345.221,165.26 345.826,165.26 346.43,177.644 347.034,177.644 347.639,177.644 348.243,177.644 348.848,175.833 349.452,175.833 350.056,175.833 350.661,175.833 351.265,175.833 351.87,171.621 352.474,171.621 353.079,171.621 353.683,171.621 354.288,171.621 354.892,171.621 355.496,171.621 356.101,171.621 356.705,140.202 357.31,140.202 357.914,140.202 358.519,147.207 359.123,147.207 359.727,167.19 360.332,167.19 360.936,167.19 361.541,167.19 362.145,149.508 362.75,149.508 363.354,175.751 363.958,199.565 364.563,196.119 365.167,196.119 365.772,197.439 366.376,178.781 366.981,178.781 367.585,178.781 368.189,178.781 368.794,178.781 369.398,178.781 370.003,178.781 370.607,178.781 371.212,178.781 371.816,178.781 372.42,176.384 373.025,176.384 373.629,176.384 374.234,176.384 374.838,176.384 375.443,170.183 376.047,170.183 376.651,139.691 377.256,139.691 377.86,156.097 378.465,156.097 379.069,156.097 379.674,156.097 380.278,122.026 380.882,122.026 381.487,122.026 382.091,122.026 382.696,122.026 383.3,122.026 383.905,153.901 384.509,153.901 385.113,153.901 385.718,153.901 386.322,154.285 386.927,154.285 387.531,154.285 388.136,134.38 388.74,134.38 389.344,134.38 389.949,134.38 390.553,134.38 391.158,134.38 391.762,134.38 392.367,134.38 392.971,134.38 393.576,134.38 394.18,134.38 394.784,134.38 395.389,134.38 395.993,134.38 396.598,134.38 397.202,134.38 397.807,134.38 398.411,134.38 399.015,134.38 399.62,134.38 400.224,134.38 400.829,134.38"/>
<polyline fill="none" stroke="#00bfbf" stroke-width="0.5" points="98.6133,198.486 99.2177,198.486 99.8222,198.486 100.427,198.486 101.031,198.486 101.635,198.486 102.24,198.486 102.844,198.486 103.449,198.486 104.053,198.486 104.658,188.306 105.262,188.306 105.866,188.306 106.471,191.856 107.075,191.856 107.68,191.856 108.284,191.856 108.889,191.17 109.493,201.615 110.098,201.615 110.702,201.615 111.306,201.615 111.911,200.366 112.515,200.366 113.12,200.366 113.724,200.366 114.329,200.366 114.933,200.366 115.537,200.366 116.142,200.366 116.746,200.366 117.351,200.366 117.955,200.366 118.56,200.366 119.164,200.366 119.768,200.366 120.373,199.664 120.977,199.664 121.582,199.664 122.186,199.664 122.791,199.664 123.395,190.914 123.999,190.914 124.604,190.914 125.208,190.914 125.813,190.914 126.417,190.914 127.022,190.914 127.626,190.914 128.23,190.914 128.835,190.914 129.439,190.914 130.044,190.914 130.648,190.914 131.253,190.914 131.857,190.914 132.461,190.914 133.066,190.914 133.67,190.914 134.275,190.914 134.879,190.914 135.484,190.914 136.088,190.914 136.692,190.914 137.297,160.777 137.901,142.732 138.506,164.238 139.11,184.846 139.715,184.846 140.319,184.846 140.923,157.025 141.528,157.025 142.132,165.926 142.737,165.926 143.341,165.926 143.946,165.926 144.55,162.303 145.154,162.303 145.759,167.113 146.363,183.043 146.968,183.043 147.572,200.309 148.177,200.309 148.781,190.302 149.385,190.302 149.99,190.302 150.594,177.624 151.199,177.624 151.803,177.624 152.408,153.013 153.012,153.013 153.617,153.013 154.221,175.922 154.825,157.121 155.43,157.121 156.034,157.121 156.639,190.946 157.243,190.946 157.848,190.946 158.452,190.946 159.056,190.946 159.661,190.946 160.265,190.946 160.87,190.946 161.474,185.195 162.079,156.4 162.683,156.4 163.287,156.4 163.892,142.721 164.496,142.721 165.101,142.721 165.705,142.721 166.31,147.174 166.914,147.174 167.518,147.174 168.123,147.174 168.727,154.545 169.332,154.545 169.936,141.403 170.541,141.403 171.145,141.403 171.749,146.087 172.354,146.087 172.958,146.087 173.563,146.087 174.167,146.087 174.772,146.087 175.376,146.087 175.98,146.087 176.585,146.087 177.189,146.087 177.794,146.087 178.398,146.087 179.003,146.087 179.607,146.087 180.211,146.087 180.816,146.087 181.42,146.087 182.025,146.087 182.629,146.087 183.234,163.623 183.838,177.243 184.442,173.94 185.047,173.94 185.651,173.94 186.256,173.94 186.86,173.94 187.465,173.94 188.069,173.94 188.673,173.94 189.278,173.94 189.882,173.94 190.487,143.549 191.091,171.435 191.696,192.695 192.3,192.695 192.905,192.695 193.509,165.789 194.113,165.789 194.718,187.098 195.322,174.648 195.927,174.648 196.531,173.236 197.136,173.236 197.74,173.236 198.344,173.236 198.949,190.35 199.553,190.35 200.158,190.35 200.762,190.35 201.367,190.35 201.971,190.35 202.575,166.949 203.18,189.194 203.784,189.194 204.389,189.194 204.993,189.194 205.598,189.194 206.202,189.194 206.806,189.194 207.411,189.194 208.015,189.194 208.62,189.194 209.224,189.194 209.829,189.194 210.433,189.194 211.037,189.194 211.642,189.194 212.246,189.194 212.851,189.194 213.455,189.194 214.06,189.194 214.664,189.194 215.268,184.55 215.873,184.55 216.477,184.55 217.082,157.091 217.686,157.091 218.291,157.091 218.895,157.091 219.499,157.091 220.104,159.023 220.708,159.023 221.313,159.023 221.917,159.023 222.522,159.023 223.126,133.993 223.73,133.993 224.335,133.993 224.939,124.007 225.544,124.007 226.148,137.391 226.753,137.391 227.357,137.391 227.961,137.391 228.566,170.162 229.17,170.162 229.775,170.162 230.379,170.162 230.984,170.162 231.588,170.162 232.193,194.724 232.797,194.724 233.401,194.724 234.006,195.243 234.61,195.243 235.215,195.243 235.819,195.243 236.424,195.243 237.028,195.243 237.632,195.243 238.237,195.243 238.841,195.243 239.446,195.243 240.05,195.243 240.655,195.684 241.259,195.684 241.863,195.684 242.468,195.684 243.072,195.684 243.677,195.684 244.281,195.684 244.886,195.684 245.49,195.684 246.094,195.684 246.699,195.684 247.303,195.684 247.908,195.684 248.512,195.684 249.117,195.684 249.721,195.684 250.325,195.684 250.93,195.684 251.534,195.684 252.139,195.684 252.743,195.684 253.348,166.899 253.952,166.899 254.556,166.899 255.161,166.899 255.765,166.899 256.37,166.899 256.974,166.899 257.579,166.899 258.183,135.444 258.787,135.444 259.392,158.028 259.996,183.62 260.601,183.62 261.205,200.64 261.81,200.64 262.414,200.64 263.018,200.64 263.623,200.64 264.227,188.042 264.832,188.042 265.436,188.042 266.041,188.042 266.645,188.042 267.249,188.042 267.854,188.042 268.458,188.042 269.063,188.042 269.667,156.662 270.272,138.087 270.876,126.409 271.48,126.409 272.085,126.409 272.689,126.409 273.294,155.901 273.898,155.901 274.503,155.901 275.107,155.901 275.712,156.847 276.316,156.847 276.92,181.54 277.525,177.879 278.129,177.879 278.734,177.879 279.338,177.879 279.943,177.879 280.547,193.523 281.151,193.523 281.756,193.523 282.36,193.523 282.965,193.523 283.569,171.162 284.174,171.162 284.778,178.128 285.382,178.128 285.987,187.908 286.591,187.908 287.196,181.211 287.8,181.211 288.405,181.211 289.009,181.211 289.613,181.211 290.218,193.501 290.822,193.501 291.427,193.501 292.031,193.501 292.636,197.714 293.24,197.714 293.844,197.714 294.449,197.714 295.053,197.714 295.658,197.714 296.262,197.714 296.867,186.318 297.471,162.141 298.075,162.141 298.68,162.141 299.284,162.141 299.889,162.141 300.493,162.141 301.098,162.141 301.702,178.473 302.306,178.473 302.911,178.473 303.515,178.473 304.12,178.473 304.724,148.985 305.329,148.985 305.933,174.383 306.537,148.364 307.142,148.364 307.746,148.364 308.351,148.364 308.955,148.364 309.56,148.364 310.164,148.364 310.768,148.364 311.373,148.364 311.977,148.364 312.582,148.364 313.186,175.594 313.791,175.594 314.395,166.918 315,167.015 315.604,197.197 316.208,197.197 316.813,197.197 317.417,176.168 318.022,176.168 318.626,181.72 319.231,181.72 319.835,181.72 320.439,181.72 321.044,181.72 321.648,181.72 322.253,181.72 322.857,181.72 323.462,181.72 324.066,181.72 324.67,175.218 325.275,141.559 325.879,137.012 326.484,151.448 327.088,173.389 327.693,173.389 328.297,168.846 328.901,185.655 329.506,185.655 330.11,185.655 330.715,185.655 331.319,185.655 331.924,185.655 332.528,185.655 333.132,176.292 333.737,176.292 334.341,162.114 334.946,162.114 335.55,184.981 336.155,184.981 336.759,184.981 337.363,184.981 337.968,184.981 338.572,184.981 339.177,184.981 339.781,184.981 340.386,184.981 340.99,184.981 341.594,184.981 342.199,184.981 342.803,184.981 343.408,162.841 344.012,136.537 344.617,136.537 345.221,160.514 345.826,160.514 346.43,174.636 347.034,174.636 347.639,174.636 348.243,174.636 348.848,156.073 349.452,156.073 350.056,156.073 350.661,156.073 351.265,156.073 351.87,169.101 352.474,169.101 353.079,169.101 353.683,169.101 354.288,169.101 354.892,169.101 355.496,169.101 356.101,169.101 356.705,157.211 357.31,157.211 357.914,157.211 358.519,168.901 359.123,168.901 359.727,185.985 360.332,185.985 360.936,185.985 361.541,185.985 362.145,173.919 362.75,173.919 363.354,173.538 363.958,176.139 364.563,158.416 365.167,158.416 365.772,156.755 366.376,145.905 366.981,145.905 367.585,145.905 368.189,145.905 368.794,145.905 369.398,145.905 370.003,145.905 370.607,145.905 371.212,145.905 371.816,145.905 372.42,150.166 373.025,150.166 373.629,150.166 374.234,150.166 374.838,150.166 375.443,159.088 376.047,159.088 376.651,136.048 377.256,136.048 377.86,154.603 378.465,154.603 379.069,154.603 379.674,154.603 380.278,132.604 380.882,132.604 381.487,132.604 382.091,132.604 382.696,132.604 383.3,132.604 383.905,124.601 384.509,124.601 385.113,124.601 385.718,124.601 386.322,135.993 386.927,135.993 387.531,135.993 388.136,128.827 388.74,128.827 389.344,128.827 389.949,128.827 390.553,128.827 391.158,128.827 391.762,128.827 392.367,128.827 392.971,128.827 393.576,128.827 394.18,128.827 394.784,128.827 395.389,128.827 395.993,128.827 396.598,128.827 397.202,128.827 397.807,128.827 398.411,128.827 399.015,128.827 399.62,128.827 400.224,128.827 400.829,128.827"/>
<polyline fill="none" stroke="#bf00bf" stroke-width="0.5" points="98.6133,50.1047 99.2177,50.1047 99.8222,50.1047 100.427,50.1047 101.031,50.1047 101.635,50.1047 102.24,50.1047 102.844,50.1047 103.449,50.1047 104.053,50.1047 104.658,34.0815 105.262,34.0815 105.866,34.0815 106.471,47.037 107.075,47.037 107.68,47.037 108.284,47.037 108.889,40.9094 109.493,65.4036 110.098,65.4036 110.702,65.4036 111.306,65.4036 111.911,66.3232 112.515,66.3232 113.12,66.3232 113.724,66.3232 114.329,66.3232 114.933,66.3232 115.537,66.3232 116.142,66.3232 116.746,66.3232 117.351,66.3232 117.955,66.3232 118.56,66.3232 119.164,66.3232 119.768,66.3232 120.373,75.877 120.977,75.877 121.582,75.877 122.186,75.877 122.791,75.877 123.395,69.3181 123.999,69.3181 124.604,69.3181 125.208,69.3181 125.813,69.3181 126.417,69.3181 127.022,69.3181 127.626,69.3181 128.23,69.3181 128.835,69.3181 129.439,69.3181 130.044,69.3181 130.648,69.3181 131.253,69.3181 131.857,69.3181 132.461,69.3181 133.066,69.3181 133.67,69.3181 134.275,69.3181 134.879,69.3181 135.484,69.3181 136.088,69.3181 136.692,69.3181 137.297,96.0995 137.901,71.5188 138.506,90.4601 139.11,92.5223 139.715,92.5223 140.319,92.5223 140.923,59.7409 141.528,59.7409 142.132,87.8464 142.737,87.8464 143.341,87.8464 143.946,87.8464 144.55,83.2981 145.154,83.2981 145.759,43.1389 146.363,66.5932 146.968,66.5932 147.572,106.29 148.177,106.29 148.781,100.319 149.385,100.319 149.99,100.319 150.594,68.257 151.199,68.257 151.803,68.257 152.408,58.4073 153.012,58.4073 153.617,58.4073 154.221,41.6997 154.825,47.1691 155.43,47.1691 156.034,47.1691 156.639,78.506 157.243,78.506 157.848,78.506 158.452,78.506 159.056,78.506 159.661,78.506 160.265,78.506 160.87,78.506 161.474,53.8799 162.079,66.7446 162.683,66.7446 163.287,66.7446 163.892,81.9312 164.496,81.9312 165.101,81.9312 165.705,81.9312 166.31,66.2952 166.914,66.2952 167.518,66.2952 168.123,66.2952 168.727,47.2419 169.332,47.2419 169.936,83.4312 170.541,83.4312 171.145,83.4312 171.749,119.93 172.354,119.93 172.958,119.93 173.563,119.93 174.167,119.93 174.772,119.93 175.376,119.93 175.98,119.93 176.585,119.93 177.189,119.93 177.794,119.93 178.398,119.93 179.003,119.93 179.607,119.93 180.211,119.93 180.816,119.93 181.42,119.93 182.025,119.93 182.629,119.93 183.234,88.1596 183.838,46.5788 184.442,66.8453 185.047,66.8453 185.651,66.8453 186.256,66.8453 186.86,66.8453 187.465,66.8453 188.069,66.8453 188.673,66.8453 189.278,66.8453 189.882,66.8453 190.487,107.018 191.091,144.746 191.696,135.62 192.3,135.62 192.905,135.62 193.509,93.7674 194.113,93.7674 194.718,121.748 195.322,114.315 195.927,114.315 196.531,127.487 197.136,127.487 197.74,127.487 198.344,127.487 198.949,161.124 199.553,161.124 200.158,161.124 200.762,161.124 201.367,161.124 201.971,161.124 202.575,122.479 203.18,135.505 203.784,135.505 204.389,135.505 204.993,135.505 205.598,135.505 206.202,135.505 206.806,135.505 207.411,135.505 208.015,135.505 208.62,135.505 209.224,135.505 209.829,135.505 210.433,135.505 211.037,135.505 211.642,135.505 212.246,135.505 212.851,135.505 213.455,135.505 214.06,135.505 214.664,135.505 215.268,98.7451 215.873,98.7451 216.477,98.7451 217.082,100.054 217.686,100.054 218.291,100.054 218.895,100.054 219.499,100.054 220.104,62.5332 220.708,62.5332 221.313,62.5332 221.917,62.5332 222.522,62.5332 223.126,87.9069 223.73,87.9069 224.335,87.9069 224.939,59.3419 225.544,59.3419 226.148,48.2695 226.753,48.2695 227.357,48.2695 227.961,48.2695 228.566,52.367 229.17,52.367 229.775,52.367 230.379,52.367 230.984,52.367 231.588,52.367 232.193,57.3708 232.797,57.3708 233.401,57.3708 234.006,50.7724 234.61,50.7724 235.215,50.7724 235.819,50.7724 236.424,50.7724 237.028,50.7724 237.632,50.7724 238.237,50.7724 238.841,50.7724 239.446,50.7724 240.05,50.7724 240.655,47.1489 241.259,47.1489 241.863,47.1489 242.468,47.1489 243.072,47.1489 243.677,47.1489 244.281,47.1489 244.886,47.1489 245.49,47.1489 246.094,47.1489 246.699,47.1489 247.303,47.1489 247.908,47.1489 248.512,47.1489 249.117,47.1489 249.721,47.1489 250.325,47.1489 250.93,47.1489 251.534,47.1489 252.139,47.1489 252.743,47.1489 253.348,43.6825 253.952,43.6825 254.556,43.6825 255.161,43.6825 255.765,43.6825 256.37,43.6825 256.974,43.6825 257.579,43.6825 258.183,39.2717 258.787,39.2717 259.392,51.7819 259.996,31.8587 260.601,31.8587 261.205,34.1935 261.81,34.1935 262.414,34.1935 263.018,34.1935 263.623,34.1935 264.227,39.3473 264.832,39.3473 265.436,39.3473 266.041,39.3473 266.645,39.3473 267.249,39.3473 267.854,39.3473 268.458,39.3473 269.063,39.3473 269.667,47.5977 270.272,39.0433 270.876,80.2767 271.48,80.2767 272.085,80.2767 272.689,80.2767 273.294,63.79 273.898,63.79 274.503,63.79 275.107,63.79 275.712,34.9144 276.316,34.9144 276.92,63.3443 277.525,59.2392 278.129,59.2392 278.734,59.2392 279.338,59.2392 279.943,59.2392 280.547,42.9557 281.151,42.9557 281.756,42.9557 282.36,42.9557 282.965,42.9557 283.569,70.0224 284.174,70.0224 284.778,56.6772 285.382,56.6772 285.987,59.4542 286.591,59.4542 287.196,59.2172 287.8,59.2172 288.405,59.2172 289.009,59.2172 289.613,59.2172 290.218,44.5395 290.822,44.5395 291.427,44.5395 292.031,44.5395 292.636,63.2919 293.24,63.2919 293.844,63.2919 294.449,63.2919 295.053,63.2919 295.658,63.2919 296.262,63.2919 296.867,55.2795 297.471,41.6298 298.075,41.6298 298.68,41.6298 299.284,41.6298 299.889,41.6298 300.493,41.6298 301.098,41.6298 301.702,61.933 302.306,61.933 302.911,61.933 303.515,61.933 304.12,61.933 304.724,53.3416 305.329,53.3416 305.933,89.889 306.537,119.389 307.142,119.389 307.746,119.389 308.351,119.389 308.955,119.389 309.56,119.389 310.164,119.389 310.768,119.389 311.373,119.389 311.977,119.389 312.582,119.389 313.186,111.712 313.791,111.712 314.395,73.4519 315,86.3086 315.604,51.3881 316.208,51.3881 316.813,51.3881 317.417,38.9477 318.022,38.9477 318.626,35.3553 319.231,35.3553 319.835,35.3553 320.439,35.3553 321.044,35.3553 321.648,35.3553 322.253,35.3553 322.857,35.3553 323.462,35.3553 324.066,35.3553 324.67,50.7069 325.275,90.4109 325.879,95.197 326.484,60.0559 327.088,76.7724 327.693,76.7724 328.297,74.6683 328.901,38.0046 329.506,38.0046 330.11,38.0046 330.715,38.0046 331.319,38.0046 331.924,38.0046 332.528,38.0046 333.132,40.3058 333.737,40.3058 334.341,77.1823 334.946,77.1823 335.55,81.8891 336.155,81.8891 336.759,81.8891 337.363,81.8891 337.968,81.8891 338.572,81.8891 339.177,81.8891 339.781,81.8891 340.386,81.8891 340.99,81.8891 341.594,81.8891 342.199,81.8891 342.803,81.8891 343.408,91.9192 344.012,76.5295 344.617,76.5295 345.221,85.019 345.826,85.019 346.43,73.5261 347.034,73.5261 347.639,73.5261 348.243,73.5261 348.848,81.4277 349.452,81.4277 350.056,81.4277 350.661,81.4277 351.265,81.4277 351.87,61.1083 352.474,61.1083 353.079,61.1083 353.683,61.1083 354.288,61.1083 354.892,61.1083 355.496,61.1083 356.101,61.1083 356.705,87.924 357.31,87.924 357.914,87.924 358.519,62.1361 359.123,62.1361 359.727,70.6963 360.332,70.6963 360.936,70.6963 361.541,70.6963 362.145,67.6077 362.75,67.6077 363.354,31.8827 363.958,37.8446 364.563,72.6459 365.167,72.6459 365.772,51.6554 366.376,31.8101 366.981,31.8101 367.585,31.8101 368.189,31.8101 368.794,31.8101 369.398,31.8101 370.003,31.8101 370.607,31.8101 371.212,31.8101 371.816,31.8101 372.42,69.7479 373.025,69.7479 373.629,69.7479 374.234,69.7479 374.838,69.7479 375.443,33.7236 376.047,33.7236 376.651,67.8467 377.256,67.8467 377.86,75.2541 378.465,75.2541 379.069,75.2541 379.674,75.2541 380.278,49.7063 380.882,49.7063 381.487,49.7063 382.091,49.7063 382.696,49.7063 383.3,49.7063 383.905,69.22 384.509,69.22 385.113,69.22 385.718,69.22 386.322,105.557 386.927,105.557 387.531,105.557 388.136,147.823 388.74,147.823 389.344,147.823 389.949,147.823 390.553,147.823 391.158,147.823 391.762,147.823 392.367,147.823 392.971,147.823 393.576,147.823 394.18,147.823 394.784,147.823 395.389,147.823 395.993,147.823 396.598,147.823 397.202,147.823 397.807,147.823 398.411,147.823 399.015,147.823 399.62,147.823 400.224,147.823 400.829,147.823"/>
<polyline fill="none" stroke="#000000" stroke-width="0.5" stroke-dasharray="16,0" points="2.66733,373.8 68.6742,373.8"/>
<polyline fill="none" stroke="#000000" stroke-width="0.5" stroke-dasharray="16,0" points="2.66733,305.463 68.6742,305.463"/>
<polyline fill="none" stroke="#000000" stroke-width="0.5" stroke-dasharray="16,0" points="2.66733,373.8 2.66733,305.463"/>
<polyline fill="none" stroke="#000000" stroke-width="0.5" stroke-dasharray="16,0" points="68.6742,373.8 68.6742,305.463"/>
<text fill="#000000" x="28.0069" y="312.297" font-size="10" text-anchor="start" baseline-shift="-5" font-family="Helvetica">const10</text>
<text fill="#000000" x="28.0069" y="325.964" font-size="10" text-anchor="start" baseline-shift="-5" font-family="Helvetica">bq</text>
<text fill="#000000" x="28.0069" y="339.632" font-size="10" text-anchor="start" baseline-shift="-5" font-family="Helvetica">bL</text>
<text fill="#000000" x="28.0069" y="353.299" font-size="10" text-anchor="start" baseline-shift="-5" font-family="Helvetica">bF</text>
<text fill="#000000" x="28.0069" y="366.966" font-size="10" text-anchor="start" baseline-shift="-5" font-family="Helvetica">sig</text>
<polyline fill="none" stroke="#0000ff" stroke-width="0.5" points="5.33466,312.297 25.3396,312.297"/>
<polyline fill="none" stroke="#007f00" stroke-width="0.5" points="5.33466,325.964 25.3396,325.964"/>
<polyline fill="none" stroke="#ff0000" stroke-width="0.5" points="5.33466,339.632 25.3396,339.632"/>
<polyline fill="none" stroke="#00bfbf" stroke-width="0.5" points="5.33466,353.299 25.3396,353.299"/>
<polyline fill="none" stroke="#bf00bf" stroke-width="0.5" points="5.33466,366.966 25.3396,366.966"/>
</g>
</svg>
