<?xml version="1.0" encoding="utf-8"?>
<svg xmlns="http://www.w3.org/2000/svg" xmlns:xlink="http://www.w3.org/1999/xlink" width="600" height="400" viewBox="0 0 600 400">
<defs>
  <clipPath id="clip00">
    <rect x="0" y="0" width="600" height="400"/>
  </clipPath>
</defs>
<polygon clip-path="url(#clip00)" points="
0,400 600,400 600,0 0,0 
  " fill="#ffffff" fill-opacity="1"/>
<defs>
  <clipPath id="clip01">
    <rect x="120" y="0" width="421" height="400"/>
  </clipPath>
</defs>
<polygon clip-path="url(#clip00)" points="
39.3701,376.378 592.126,376.378 592.126,7.87402 39.3701,7.87402 
  " fill="#ffffff" fill-opacity="1"/>
<defs>
  <clipPath id="clip02">
    <rect x="39" y="7" width="554" height="370"/>
  </clipPath>
</defs>
<polyline clip-path="url(#clip02)" style="stroke:#000000; stroke-width:1; stroke-opacity:0.5; fill:none" stroke-dasharray="1, 2" points="
  123.032,370.85 123.032,13.4016 
  "/>
<polyline clip-path="url(#clip02)" style="stroke:#000000; stroke-width:1; stroke-opacity:0.5; fill:none" stroke-dasharray="1, 2" points="
  236.394,370.85 236.394,13.4016 
  "/>
<polyline clip-path="url(#clip02)" style="stroke:#000000; stroke-width:1; stroke-opacity:0.5; fill:none" stroke-dasharray="1, 2" points="
  349.757,370.85 349.757,13.4016 
  "/>
<polyline clip-path="url(#clip02)" style="stroke:#000000; stroke-width:1; stroke-opacity:0.5; fill:none" stroke-dasharray="1, 2" points="
  463.119,370.85 463.119,13.4016 
  "/>
<polyline clip-path="url(#clip02)" style="stroke:#000000; stroke-width:1; stroke-opacity:0.5; fill:none" stroke-dasharray="1, 2" points="
  576.482,370.85 576.482,13.4016 
  "/>
<polyline clip-path="url(#clip02)" style="stroke:#000000; stroke-width:1; stroke-opacity:0.5; fill:none" stroke-dasharray="1, 2" points="
  47.6614,376.378 583.835,376.378 
  "/>
<polyline clip-path="url(#clip02)" style="stroke:#000000; stroke-width:1; stroke-opacity:0.5; fill:none" stroke-dasharray="1, 2" points="
  47.6614,268.628 583.835,268.628 
  "/>
<polyline clip-path="url(#clip02)" style="stroke:#000000; stroke-width:1; stroke-opacity:0.5; fill:none" stroke-dasharray="1, 2" points="
  47.6614,160.879 583.835,160.879 
  "/>
<polyline clip-path="url(#clip02)" style="stroke:#000000; stroke-width:1; stroke-opacity:0.5; fill:none" stroke-dasharray="1, 2" points="
  47.6614,53.1289 583.835,53.1289 
  "/>
<polyline clip-path="url(#clip00)" style="stroke:#000000; stroke-width:1; stroke-opacity:1; fill:none" points="
  39.3701,376.378 592.126,376.378 
  "/>
<polyline clip-path="url(#clip00)" style="stroke:#000000; stroke-width:1; stroke-opacity:1; fill:none" points="
  123.032,376.378 123.032,370.85 
  "/>
<polyline clip-path="url(#clip00)" style="stroke:#000000; stroke-width:1; stroke-opacity:1; fill:none" points="
  236.394,376.378 236.394,370.85 
  "/>
<polyline clip-path="url(#clip00)" style="stroke:#000000; stroke-width:1; stroke-opacity:1; fill:none" points="
  349.757,376.378 349.757,370.85 
  "/>
<polyline clip-path="url(#clip00)" style="stroke:#000000; stroke-width:1; stroke-opacity:1; fill:none" points="
  463.119,376.378 463.119,370.85 
  "/>
<polyline clip-path="url(#clip00)" style="stroke:#000000; stroke-width:1; stroke-opacity:1; fill:none" points="
  576.482,376.378 576.482,370.85 
  "/>
<polyline clip-path="url(#clip00)" style="stroke:#000000; stroke-width:1; stroke-opacity:1; fill:none" points="
  39.3701,376.378 39.3701,7.87402 
  "/>
<polyline clip-path="url(#clip00)" style="stroke:#000000; stroke-width:1; stroke-opacity:1; fill:none" points="
  39.3701,376.378 47.6614,376.378 
  "/>
<polyline clip-path="url(#clip00)" style="stroke:#000000; stroke-width:1; stroke-opacity:1; fill:none" points="
  39.3701,268.628 47.6614,268.628 
  "/>
<polyline clip-path="url(#clip00)" style="stroke:#000000; stroke-width:1; stroke-opacity:1; fill:none" points="
  39.3701,160.879 47.6614,160.879 
  "/>
<polyline clip-path="url(#clip00)" style="stroke:#000000; stroke-width:1; stroke-opacity:1; fill:none" points="
  39.3701,53.1289 47.6614,53.1289 
  "/>
<g clip-path="url(#clip00)">
<text style="fill:#000000; fill-opacity:1; font-family:Arial,Helvetica Neue,Helvetica,sans-serif; font-size:12; text-anchor:middle;" transform="rotate(0, 123.032, 390.178)" x="123.032" y="390.178">0.0</text>
</g>
<g clip-path="url(#clip00)">
<text style="fill:#000000; fill-opacity:1; font-family:Arial,Helvetica Neue,Helvetica,sans-serif; font-size:12; text-anchor:middle;" transform="rotate(0, 236.394, 390.178)" x="236.394" y="390.178">0.1</text>
</g>
<g clip-path="url(#clip00)">
<text style="fill:#000000; fill-opacity:1; font-family:Arial,Helvetica Neue,Helvetica,sans-serif; font-size:12; text-anchor:middle;" transform="rotate(0, 349.757, 390.178)" x="349.757" y="390.178">0.2</text>
</g>
<g clip-path="url(#clip00)">
<text style="fill:#000000; fill-opacity:1; font-family:Arial,Helvetica Neue,Helvetica,sans-serif; font-size:12; text-anchor:middle;" transform="rotate(0, 463.119, 390.178)" x="463.119" y="390.178">0.3</text>
</g>
<g clip-path="url(#clip00)">
<text style="fill:#000000; fill-opacity:1; font-family:Arial,Helvetica Neue,Helvetica,sans-serif; font-size:12; text-anchor:middle;" transform="rotate(0, 576.482, 390.178)" x="576.482" y="390.178">0.4</text>
</g>
<g clip-path="url(#clip00)">
<text style="fill:#000000; fill-opacity:1; font-family:Arial,Helvetica Neue,Helvetica,sans-serif; font-size:12; text-anchor:end;" transform="rotate(0, 33.3701, 380.878)" x="33.3701" y="380.878">0</text>
</g>
<g clip-path="url(#clip00)">
<text style="fill:#000000; fill-opacity:1; font-family:Arial,Helvetica Neue,Helvetica,sans-serif; font-size:12; text-anchor:end;" transform="rotate(0, 33.3701, 273.128)" x="33.3701" y="273.128">500</text>
</g>
<g clip-path="url(#clip00)">
<text style="fill:#000000; fill-opacity:1; font-family:Arial,Helvetica Neue,Helvetica,sans-serif; font-size:12; text-anchor:end;" transform="rotate(0, 33.3701, 165.379)" x="33.3701" y="165.379">1000</text>
</g>
<g clip-path="url(#clip00)">
<text style="fill:#000000; fill-opacity:1; font-family:Arial,Helvetica Neue,Helvetica,sans-serif; font-size:12; text-anchor:end;" transform="rotate(0, 33.3701, 57.6289)" x="33.3701" y="57.6289">1500</text>
</g>
<polygon clip-path="url(#clip02)" points="
55.0141,375.947 55.0141,376.378 77.6866,376.378 77.6866,375.947 55.0141,375.947 55.0141,375.947 
  " fill="#009af9" fill-opacity="1"/>
<polyline clip-path="url(#clip02)" style="stroke:#000000; stroke-width:1; stroke-opacity:1; fill:none" points="
  55.0141,375.947 55.0141,376.378 77.6866,376.378 77.6866,375.947 55.0141,375.947 
  "/>
<polygon clip-path="url(#clip02)" points="
77.6866,376.162 77.6866,376.378 100.359,376.378 100.359,376.162 77.6866,376.162 77.6866,376.162 
  " fill="#009af9" fill-opacity="1"/>
<polyline clip-path="url(#clip02)" style="stroke:#000000; stroke-width:1; stroke-opacity:1; fill:none" points="
  77.6866,376.162 77.6866,376.378 100.359,376.378 100.359,376.162 77.6866,376.162 
  "/>
<polygon clip-path="url(#clip02)" points="
100.359,375.731 100.359,376.378 123.032,376.378 123.032,375.731 100.359,375.731 100.359,375.731 
  " fill="#009af9" fill-opacity="1"/>
<polyline clip-path="url(#clip02)" style="stroke:#000000; stroke-width:1; stroke-opacity:1; fill:none" points="
  100.359,375.731 100.359,376.378 123.032,376.378 123.032,375.731 100.359,375.731 
  "/>
<polygon clip-path="url(#clip02)" points="
123.032,374.007 123.032,376.378 145.704,376.378 145.704,374.007 123.032,374.007 123.032,374.007 
  " fill="#009af9" fill-opacity="1"/>
<polyline clip-path="url(#clip02)" style="stroke:#000000; stroke-width:1; stroke-opacity:1; fill:none" points="
  123.032,374.007 123.032,376.378 145.704,376.378 145.704,374.007 123.032,374.007 
  "/>
<polygon clip-path="url(#clip02)" points="
145.704,371.637 145.704,376.378 168.377,376.378 168.377,371.637 145.704,371.637 145.704,371.637 
  " fill="#009af9" fill-opacity="1"/>
<polyline clip-path="url(#clip02)" style="stroke:#000000; stroke-width:1; stroke-opacity:1; fill:none" points="
  145.704,371.637 145.704,376.378 168.377,376.378 168.377,371.637 145.704,371.637 
  "/>
<polygon clip-path="url(#clip02)" points="
168.377,363.017 168.377,376.378 191.049,376.378 191.049,363.017 168.377,363.017 168.377,363.017 
  " fill="#009af9" fill-opacity="1"/>
<polyline clip-path="url(#clip02)" style="stroke:#000000; stroke-width:1; stroke-opacity:1; fill:none" points="
  168.377,363.017 168.377,376.378 191.049,376.378 191.049,363.017 168.377,363.017 
  "/>
<polygon clip-path="url(#clip02)" points="
191.049,347.501 191.049,376.378 213.722,376.378 213.722,347.501 191.049,347.501 191.049,347.501 
  " fill="#009af9" fill-opacity="1"/>
<polyline clip-path="url(#clip02)" style="stroke:#000000; stroke-width:1; stroke-opacity:1; fill:none" points="
  191.049,347.501 191.049,376.378 213.722,376.378 213.722,347.501 191.049,347.501 
  "/>
<polygon clip-path="url(#clip02)" points="
213.722,306.125 213.722,376.378 236.394,376.378 236.394,306.125 213.722,306.125 213.722,306.125 
  " fill="#009af9" fill-opacity="1"/>
<polyline clip-path="url(#clip02)" style="stroke:#000000; stroke-width:1; stroke-opacity:1; fill:none" points="
  213.722,306.125 213.722,376.378 236.394,376.378 236.394,306.125 213.722,306.125 
  "/>
<polygon clip-path="url(#clip02)" points="
236.394,261.086 236.394,376.378 259.067,376.378 259.067,261.086 236.394,261.086 236.394,261.086 
  " fill="#009af9" fill-opacity="1"/>
<polyline clip-path="url(#clip02)" style="stroke:#000000; stroke-width:1; stroke-opacity:1; fill:none" points="
  236.394,261.086 236.394,376.378 259.067,376.378 259.067,261.086 236.394,261.086 
  "/>
<polygon clip-path="url(#clip02)" points="
259.067,160.017 259.067,376.378 281.739,376.378 281.739,160.017 259.067,160.017 259.067,160.017 
  " fill="#009af9" fill-opacity="1"/>
<polyline clip-path="url(#clip02)" style="stroke:#000000; stroke-width:1; stroke-opacity:1; fill:none" points="
  259.067,160.017 259.067,376.378 281.739,376.378 281.739,160.017 259.067,160.017 
  "/>
<polygon clip-path="url(#clip02)" points="
281.739,75.1098 281.739,376.378 304.412,376.378 304.412,75.1098 281.739,75.1098 281.739,75.1098 
  " fill="#009af9" fill-opacity="1"/>
<polyline clip-path="url(#clip02)" style="stroke:#000000; stroke-width:1; stroke-opacity:1; fill:none" points="
  281.739,75.1098 281.739,376.378 304.412,376.378 304.412,75.1098 281.739,75.1098 
  "/>
<polygon clip-path="url(#clip02)" points="
304.412,7.87402 304.412,376.378 327.084,376.378 327.084,7.87402 304.412,7.87402 304.412,7.87402 
  " fill="#009af9" fill-opacity="1"/>
<polyline clip-path="url(#clip02)" style="stroke:#000000; stroke-width:1; stroke-opacity:1; fill:none" points="
  304.412,7.87402 304.412,376.378 327.084,376.378 327.084,7.87402 304.412,7.87402 
  "/>
<polygon clip-path="url(#clip02)" points="
327.084,24.4675 327.084,376.378 349.757,376.378 349.757,24.4675 327.084,24.4675 327.084,24.4675 
  " fill="#009af9" fill-opacity="1"/>
<polyline clip-path="url(#clip02)" style="stroke:#000000; stroke-width:1; stroke-opacity:1; fill:none" points="
  327.084,24.4675 327.084,376.378 349.757,376.378 349.757,24.4675 327.084,24.4675 
  "/>
<polygon clip-path="url(#clip02)" points="
349.757,101.185 349.757,376.378 372.429,376.378 372.429,101.185 349.757,101.185 349.757,101.185 
  " fill="#009af9" fill-opacity="1"/>
<polyline clip-path="url(#clip02)" style="stroke:#000000; stroke-width:1; stroke-opacity:1; fill:none" points="
  349.757,101.185 349.757,376.378 372.429,376.378 372.429,101.185 349.757,101.185 
  "/>
<polygon clip-path="url(#clip02)" points="
372.429,187.6 372.429,376.378 395.102,376.378 395.102,187.6 372.429,187.6 372.429,187.6 
  " fill="#009af9" fill-opacity="1"/>
<polyline clip-path="url(#clip02)" style="stroke:#000000; stroke-width:1; stroke-opacity:1; fill:none" points="
  372.429,187.6 372.429,376.378 395.102,376.378 395.102,187.6 372.429,187.6 
  "/>
<polygon clip-path="url(#clip02)" points="
395.102,267.766 395.102,376.378 417.774,376.378 417.774,267.766 395.102,267.766 395.102,267.766 
  " fill="#009af9" fill-opacity="1"/>
<polyline clip-path="url(#clip02)" style="stroke:#000000; stroke-width:1; stroke-opacity:1; fill:none" points="
  395.102,267.766 395.102,376.378 417.774,376.378 417.774,267.766 395.102,267.766 
  "/>
<polygon clip-path="url(#clip02)" points="
417.774,319.055 417.774,376.378 440.447,376.378 440.447,319.055 417.774,319.055 417.774,319.055 
  " fill="#009af9" fill-opacity="1"/>
<polyline clip-path="url(#clip02)" style="stroke:#000000; stroke-width:1; stroke-opacity:1; fill:none" points="
  417.774,319.055 417.774,376.378 440.447,376.378 440.447,319.055 417.774,319.055 
  "/>
<polygon clip-path="url(#clip02)" points="
440.447,349.225 440.447,376.378 463.119,376.378 463.119,349.225 440.447,349.225 440.447,349.225 
  " fill="#009af9" fill-opacity="1"/>
<polyline clip-path="url(#clip02)" style="stroke:#000000; stroke-width:1; stroke-opacity:1; fill:none" points="
  440.447,349.225 440.447,376.378 463.119,376.378 463.119,349.225 440.447,349.225 
  "/>
<polygon clip-path="url(#clip02)" points="
463.119,362.586 463.119,376.378 485.792,376.378 485.792,362.586 463.119,362.586 463.119,362.586 
  " fill="#009af9" fill-opacity="1"/>
<polyline clip-path="url(#clip02)" style="stroke:#000000; stroke-width:1; stroke-opacity:1; fill:none" points="
  463.119,362.586 463.119,376.378 485.792,376.378 485.792,362.586 463.119,362.586 
  "/>
<polygon clip-path="url(#clip02)" points="
485.792,372.068 485.792,376.378 508.464,376.378 508.464,372.068 485.792,372.068 485.792,372.068 
  " fill="#009af9" fill-opacity="1"/>
<polyline clip-path="url(#clip02)" style="stroke:#000000; stroke-width:1; stroke-opacity:1; fill:none" points="
  485.792,372.068 485.792,376.378 508.464,376.378 508.464,372.068 485.792,372.068 
  "/>
<polygon clip-path="url(#clip02)" points="
508.464,372.714 508.464,376.378 531.137,376.378 531.137,372.714 508.464,372.714 508.464,372.714 
  " fill="#009af9" fill-opacity="1"/>
<polyline clip-path="url(#clip02)" style="stroke:#000000; stroke-width:1; stroke-opacity:1; fill:none" points="
  508.464,372.714 508.464,376.378 531.137,376.378 531.137,372.714 508.464,372.714 
  "/>
<polygon clip-path="url(#clip02)" points="
531.137,375.085 531.137,376.378 553.809,376.378 553.809,375.085 531.137,375.085 531.137,375.085 
  " fill="#009af9" fill-opacity="1"/>
<polyline clip-path="url(#clip02)" style="stroke:#000000; stroke-width:1; stroke-opacity:1; fill:none" points="
  531.137,375.085 531.137,376.378 553.809,376.378 553.809,375.085 531.137,375.085 
  "/>
<polygon clip-path="url(#clip02)" points="
553.809,375.731 553.809,376.378 576.482,376.378 576.482,375.731 553.809,375.731 553.809,375.731 
  " fill="#009af9" fill-opacity="1"/>
<polyline clip-path="url(#clip02)" style="stroke:#000000; stroke-width:1; stroke-opacity:1; fill:none" points="
  553.809,375.731 553.809,376.378 576.482,376.378 576.482,375.731 553.809,375.731 
  "/>
</svg>
