<?xml version="1.0" encoding="utf-8"?>
<svg xmlns="http://www.w3.org/2000/svg" xmlns:xlink="http://www.w3.org/1999/xlink" width="600" height="400" viewBox="0 0 600 400">
<defs>
  <clipPath id="clip00">
    <rect x="0" y="0" width="600" height="400"/>
  </clipPath>
</defs>
<polygon clip-path="url(#clip00)" points="
0,400 600,400 600,0 0,0 
  " fill="#ffffff" fill-opacity="1"/>
<defs>
  <clipPath id="clip01">
    <rect x="120" y="0" width="421" height="400"/>
  </clipPath>
</defs>
<polygon clip-path="url(#clip00)" points="
39.3701,376.378 592.126,376.378 592.126,7.87402 39.3701,7.87402 
  " fill="#ffffff" fill-opacity="1"/>
<defs>
  <clipPath id="clip02">
    <rect x="39" y="7" width="554" height="370"/>
  </clipPath>
</defs>
<polyline clip-path="url(#clip02)" style="stroke:#000000; stroke-width:1; stroke-opacity:0.5; fill:none" stroke-dasharray="1, 2" points="
  55.0141,370.85 55.0141,13.4016 
  "/>
<polyline clip-path="url(#clip02)" style="stroke:#000000; stroke-width:1; stroke-opacity:0.5; fill:none" stroke-dasharray="1, 2" points="
  272.292,370.85 272.292,13.4016 
  "/>
<polyline clip-path="url(#clip02)" style="stroke:#000000; stroke-width:1; stroke-opacity:0.5; fill:none" stroke-dasharray="1, 2" points="
  489.571,370.85 489.571,13.4016 
  "/>
<polyline clip-path="url(#clip02)" style="stroke:#000000; stroke-width:1; stroke-opacity:0.5; fill:none" stroke-dasharray="1, 2" points="
  47.6614,376.378 583.835,376.378 
  "/>
<polyline clip-path="url(#clip02)" style="stroke:#000000; stroke-width:1; stroke-opacity:0.5; fill:none" stroke-dasharray="1, 2" points="
  47.6614,236.581 583.835,236.581 
  "/>
<polyline clip-path="url(#clip02)" style="stroke:#000000; stroke-width:1; stroke-opacity:0.5; fill:none" stroke-dasharray="1, 2" points="
  47.6614,96.7847 583.835,96.7847 
  "/>
<polyline clip-path="url(#clip00)" style="stroke:#000000; stroke-width:1; stroke-opacity:1; fill:none" points="
  39.3701,376.378 592.126,376.378 
  "/>
<polyline clip-path="url(#clip00)" style="stroke:#000000; stroke-width:1; stroke-opacity:1; fill:none" points="
  55.0141,376.378 55.0141,370.85 
  "/>
<polyline clip-path="url(#clip00)" style="stroke:#000000; stroke-width:1; stroke-opacity:1; fill:none" points="
  272.292,376.378 272.292,370.85 
  "/>
<polyline clip-path="url(#clip00)" style="stroke:#000000; stroke-width:1; stroke-opacity:1; fill:none" points="
  489.571,376.378 489.571,370.85 
  "/>
<polyline clip-path="url(#clip00)" style="stroke:#000000; stroke-width:1; stroke-opacity:1; fill:none" points="
  39.3701,376.378 39.3701,7.87402 
  "/>
<polyline clip-path="url(#clip00)" style="stroke:#000000; stroke-width:1; stroke-opacity:1; fill:none" points="
  39.3701,376.378 47.6614,376.378 
  "/>
<polyline clip-path="url(#clip00)" style="stroke:#000000; stroke-width:1; stroke-opacity:1; fill:none" points="
  39.3701,236.581 47.6614,236.581 
  "/>
<polyline clip-path="url(#clip00)" style="stroke:#000000; stroke-width:1; stroke-opacity:1; fill:none" points="
  39.3701,96.7847 47.6614,96.7847 
  "/>
<g clip-path="url(#clip00)">
<text style="fill:#000000; fill-opacity:1; font-family:Arial,Helvetica Neue,Helvetica,sans-serif; font-size:12; text-anchor:middle;" transform="rotate(0, 55.0141, 390.178)" x="55.0141" y="390.178">-0.5</text>
</g>
<g clip-path="url(#clip00)">
<text style="fill:#000000; fill-opacity:1; font-family:Arial,Helvetica Neue,Helvetica,sans-serif; font-size:12; text-anchor:middle;" transform="rotate(0, 272.292, 390.178)" x="272.292" y="390.178">0.0</text>
</g>
<g clip-path="url(#clip00)">
<text style="fill:#000000; fill-opacity:1; font-family:Arial,Helvetica Neue,Helvetica,sans-serif; font-size:12; text-anchor:middle;" transform="rotate(0, 489.571, 390.178)" x="489.571" y="390.178">0.5</text>
</g>
<g clip-path="url(#clip00)">
<text style="fill:#000000; fill-opacity:1; font-family:Arial,Helvetica Neue,Helvetica,sans-serif; font-size:12; text-anchor:end;" transform="rotate(0, 33.3701, 380.878)" x="33.3701" y="380.878">0</text>
</g>
<g clip-path="url(#clip00)">
<text style="fill:#000000; fill-opacity:1; font-family:Arial,Helvetica Neue,Helvetica,sans-serif; font-size:12; text-anchor:end;" transform="rotate(0, 33.3701, 241.081)" x="33.3701" y="241.081">1000</text>
</g>
<g clip-path="url(#clip00)">
<text style="fill:#000000; fill-opacity:1; font-family:Arial,Helvetica Neue,Helvetica,sans-serif; font-size:12; text-anchor:end;" transform="rotate(0, 33.3701, 101.285)" x="33.3701" y="101.285">2000</text>
</g>
<polygon clip-path="url(#clip02)" points="
55.0141,376.238 55.0141,376.378 76.7419,376.378 76.7419,376.238 55.0141,376.238 55.0141,376.238 
  " fill="#009af9" fill-opacity="1"/>
<polyline clip-path="url(#clip02)" style="stroke:#000000; stroke-width:1; stroke-opacity:1; fill:none" points="
  55.0141,376.238 55.0141,376.378 76.7419,376.378 76.7419,376.238 55.0141,376.238 
  "/>
<polygon clip-path="url(#clip02)" points="
76.7419,376.238 76.7419,376.378 98.4698,376.378 98.4698,376.238 76.7419,376.238 76.7419,376.238 
  " fill="#009af9" fill-opacity="1"/>
<polyline clip-path="url(#clip02)" style="stroke:#000000; stroke-width:1; stroke-opacity:1; fill:none" points="
  76.7419,376.238 76.7419,376.378 98.4698,376.378 98.4698,376.238 76.7419,376.238 
  "/>
<polygon clip-path="url(#clip02)" points="
98.4698,376.238 98.4698,376.378 120.198,376.378 120.198,376.238 98.4698,376.238 98.4698,376.238 
  " fill="#009af9" fill-opacity="1"/>
<polyline clip-path="url(#clip02)" style="stroke:#000000; stroke-width:1; stroke-opacity:1; fill:none" points="
  98.4698,376.238 98.4698,376.378 120.198,376.378 120.198,376.238 98.4698,376.238 
  "/>
<polygon clip-path="url(#clip02)" points="
120.198,376.098 120.198,376.378 141.925,376.378 141.925,376.098 120.198,376.098 120.198,376.098 
  " fill="#009af9" fill-opacity="1"/>
<polyline clip-path="url(#clip02)" style="stroke:#000000; stroke-width:1; stroke-opacity:1; fill:none" points="
  120.198,376.098 120.198,376.378 141.925,376.378 141.925,376.098 120.198,376.098 
  "/>
<polygon clip-path="url(#clip02)" points="
141.925,375.679 141.925,376.378 163.653,376.378 163.653,375.679 141.925,375.679 141.925,375.679 
  " fill="#009af9" fill-opacity="1"/>
<polyline clip-path="url(#clip02)" style="stroke:#000000; stroke-width:1; stroke-opacity:1; fill:none" points="
  141.925,375.679 141.925,376.378 163.653,376.378 163.653,375.679 141.925,375.679 
  "/>
<polygon clip-path="url(#clip02)" points="
163.653,375.959 163.653,376.378 185.381,376.378 185.381,375.959 163.653,375.959 163.653,375.959 
  " fill="#009af9" fill-opacity="1"/>
<polyline clip-path="url(#clip02)" style="stroke:#000000; stroke-width:1; stroke-opacity:1; fill:none" points="
  163.653,375.959 163.653,376.378 185.381,376.378 185.381,375.959 163.653,375.959 
  "/>
<polygon clip-path="url(#clip02)" points="
185.381,374.001 185.381,376.378 207.109,376.378 207.109,374.001 185.381,374.001 185.381,374.001 
  " fill="#009af9" fill-opacity="1"/>
<polyline clip-path="url(#clip02)" style="stroke:#000000; stroke-width:1; stroke-opacity:1; fill:none" points="
  185.381,374.001 185.381,376.378 207.109,376.378 207.109,374.001 185.381,374.001 
  "/>
<polygon clip-path="url(#clip02)" points="
207.109,368.689 207.109,376.378 228.837,376.378 228.837,368.689 207.109,368.689 207.109,368.689 
  " fill="#009af9" fill-opacity="1"/>
<polyline clip-path="url(#clip02)" style="stroke:#000000; stroke-width:1; stroke-opacity:1; fill:none" points="
  207.109,368.689 207.109,376.378 228.837,376.378 228.837,368.689 207.109,368.689 
  "/>
<polygon clip-path="url(#clip02)" points="
228.837,361.699 228.837,376.378 250.565,376.378 250.565,361.699 228.837,361.699 228.837,361.699 
  " fill="#009af9" fill-opacity="1"/>
<polyline clip-path="url(#clip02)" style="stroke:#000000; stroke-width:1; stroke-opacity:1; fill:none" points="
  228.837,361.699 228.837,376.378 250.565,376.378 250.565,361.699 228.837,361.699 
  "/>
<polygon clip-path="url(#clip02)" points="
250.565,341.848 250.565,376.378 272.292,376.378 272.292,341.848 250.565,341.848 250.565,341.848 
  " fill="#009af9" fill-opacity="1"/>
<polyline clip-path="url(#clip02)" style="stroke:#000000; stroke-width:1; stroke-opacity:1; fill:none" points="
  250.565,341.848 250.565,376.378 272.292,376.378 272.292,341.848 250.565,341.848 
  "/>
<polygon clip-path="url(#clip02)" points="
272.292,287.747 272.292,376.378 294.02,376.378 294.02,287.747 272.292,287.747 272.292,287.747 
  " fill="#009af9" fill-opacity="1"/>
<polyline clip-path="url(#clip02)" style="stroke:#000000; stroke-width:1; stroke-opacity:1; fill:none" points="
  272.292,287.747 272.292,376.378 294.02,376.378 294.02,287.747 272.292,287.747 
  "/>
<polygon clip-path="url(#clip02)" points="
294.02,192.545 294.02,376.378 315.748,376.378 315.748,192.545 294.02,192.545 294.02,192.545 
  " fill="#009af9" fill-opacity="1"/>
<polyline clip-path="url(#clip02)" style="stroke:#000000; stroke-width:1; stroke-opacity:1; fill:none" points="
  294.02,192.545 294.02,376.378 315.748,376.378 315.748,192.545 294.02,192.545 
  "/>
<polygon clip-path="url(#clip02)" points="
315.748,45.0599 315.748,376.378 337.476,376.378 337.476,45.0599 315.748,45.0599 315.748,45.0599 
  " fill="#009af9" fill-opacity="1"/>
<polyline clip-path="url(#clip02)" style="stroke:#000000; stroke-width:1; stroke-opacity:1; fill:none" points="
  315.748,45.0599 315.748,376.378 337.476,376.378 337.476,45.0599 315.748,45.0599 
  "/>
<polygon clip-path="url(#clip02)" points="
337.476,7.87402 337.476,376.378 359.204,376.378 359.204,7.87402 337.476,7.87402 337.476,7.87402 
  " fill="#009af9" fill-opacity="1"/>
<polyline clip-path="url(#clip02)" style="stroke:#000000; stroke-width:1; stroke-opacity:1; fill:none" points="
  337.476,7.87402 337.476,376.378 359.204,376.378 359.204,7.87402 337.476,7.87402 
  "/>
<polygon clip-path="url(#clip02)" points="
359.204,152.843 359.204,376.378 380.932,376.378 380.932,152.843 359.204,152.843 359.204,152.843 
  " fill="#009af9" fill-opacity="1"/>
<polyline clip-path="url(#clip02)" style="stroke:#000000; stroke-width:1; stroke-opacity:1; fill:none" points="
  359.204,152.843 359.204,376.378 380.932,376.378 380.932,152.843 359.204,152.843 
  "/>
<polygon clip-path="url(#clip02)" points="
380.932,284.532 380.932,376.378 402.659,376.378 402.659,284.532 380.932,284.532 380.932,284.532 
  " fill="#009af9" fill-opacity="1"/>
<polyline clip-path="url(#clip02)" style="stroke:#000000; stroke-width:1; stroke-opacity:1; fill:none" points="
  380.932,284.532 380.932,376.378 402.659,376.378 402.659,284.532 380.932,284.532 
  "/>
<polygon clip-path="url(#clip02)" points="
402.659,342.407 402.659,376.378 424.387,376.378 424.387,342.407 402.659,342.407 402.659,342.407 
  " fill="#009af9" fill-opacity="1"/>
<polyline clip-path="url(#clip02)" style="stroke:#000000; stroke-width:1; stroke-opacity:1; fill:none" points="
  402.659,342.407 402.659,376.378 424.387,376.378 424.387,342.407 402.659,342.407 
  "/>
<polygon clip-path="url(#clip02)" points="
424.387,367.85 424.387,376.378 446.115,376.378 446.115,367.85 424.387,367.85 424.387,367.85 
  " fill="#009af9" fill-opacity="1"/>
<polyline clip-path="url(#clip02)" style="stroke:#000000; stroke-width:1; stroke-opacity:1; fill:none" points="
  424.387,367.85 424.387,376.378 446.115,376.378 446.115,367.85 424.387,367.85 
  "/>
<polygon clip-path="url(#clip02)" points="
446.115,371.904 446.115,376.378 467.843,376.378 467.843,371.904 446.115,371.904 446.115,371.904 
  " fill="#009af9" fill-opacity="1"/>
<polyline clip-path="url(#clip02)" style="stroke:#000000; stroke-width:1; stroke-opacity:1; fill:none" points="
  446.115,371.904 446.115,376.378 467.843,376.378 467.843,371.904 446.115,371.904 
  "/>
<polygon clip-path="url(#clip02)" points="
467.843,375.12 467.843,376.378 489.571,376.378 489.571,375.12 467.843,375.12 467.843,375.12 
  " fill="#009af9" fill-opacity="1"/>
<polyline clip-path="url(#clip02)" style="stroke:#000000; stroke-width:1; stroke-opacity:1; fill:none" points="
  467.843,375.12 467.843,376.378 489.571,376.378 489.571,375.12 467.843,375.12 
  "/>
<polygon clip-path="url(#clip02)" points="
489.571,375.959 489.571,376.378 511.298,376.378 511.298,375.959 489.571,375.959 489.571,375.959 
  " fill="#009af9" fill-opacity="1"/>
<polyline clip-path="url(#clip02)" style="stroke:#000000; stroke-width:1; stroke-opacity:1; fill:none" points="
  489.571,375.959 489.571,376.378 511.298,376.378 511.298,375.959 489.571,375.959 
  "/>
<polygon clip-path="url(#clip02)" points="
511.298,376.238 511.298,376.378 533.026,376.378 533.026,376.238 511.298,376.238 511.298,376.238 
  " fill="#009af9" fill-opacity="1"/>
<polyline clip-path="url(#clip02)" style="stroke:#000000; stroke-width:1; stroke-opacity:1; fill:none" points="
  511.298,376.238 511.298,376.378 533.026,376.378 533.026,376.238 511.298,376.238 
  "/>
<polygon clip-path="url(#clip02)" points="
533.026,376.238 533.026,376.378 554.754,376.378 554.754,376.238 533.026,376.238 533.026,376.238 
  " fill="#009af9" fill-opacity="1"/>
<polyline clip-path="url(#clip02)" style="stroke:#000000; stroke-width:1; stroke-opacity:1; fill:none" points="
  533.026,376.238 533.026,376.378 554.754,376.378 554.754,376.238 533.026,376.238 
  "/>
<polygon clip-path="url(#clip02)" points="
554.754,376.098 554.754,376.378 576.482,376.378 576.482,376.098 554.754,376.098 554.754,376.098 
  " fill="#009af9" fill-opacity="1"/>
<polyline clip-path="url(#clip02)" style="stroke:#000000; stroke-width:1; stroke-opacity:1; fill:none" points="
  554.754,376.098 554.754,376.378 576.482,376.378 576.482,376.098 554.754,376.098 
  "/>
</svg>
