<?xml version="1.0" encoding="utf-8"?>
<svg xmlns="http://www.w3.org/2000/svg" xmlns:xlink="http://www.w3.org/1999/xlink" width="600" height="400" viewBox="0 0 600 400">
<defs>
  <clipPath id="clip00">
    <rect x="0" y="0" width="600" height="400"/>
  </clipPath>
</defs>
<polygon clip-path="url(#clip00)" points="
0,400 600,400 600,0 0,0 
  " fill="#ffffff" fill-opacity="1"/>
<defs>
  <clipPath id="clip01">
    <rect x="120" y="0" width="421" height="400"/>
  </clipPath>
</defs>
<polygon clip-path="url(#clip00)" points="
39.3701,376.378 592.126,376.378 592.126,7.87402 39.3701,7.87402 
  " fill="#ffffff" fill-opacity="1"/>
<defs>
  <clipPath id="clip02">
    <rect x="39" y="7" width="554" height="370"/>
  </clipPath>
</defs>
<polyline clip-path="url(#clip02)" style="stroke:#000000; stroke-width:1; stroke-opacity:0.5; fill:none" stroke-dasharray="1, 2" points="
  112.955,370.85 112.955,13.4016 
  "/>
<polyline clip-path="url(#clip02)" style="stroke:#000000; stroke-width:1; stroke-opacity:0.5; fill:none" stroke-dasharray="1, 2" points="
  209.523,370.85 209.523,13.4016 
  "/>
<polyline clip-path="url(#clip02)" style="stroke:#000000; stroke-width:1; stroke-opacity:0.5; fill:none" stroke-dasharray="1, 2" points="
  306.091,370.85 306.091,13.4016 
  "/>
<polyline clip-path="url(#clip02)" style="stroke:#000000; stroke-width:1; stroke-opacity:0.5; fill:none" stroke-dasharray="1, 2" points="
  402.659,370.85 402.659,13.4016 
  "/>
<polyline clip-path="url(#clip02)" style="stroke:#000000; stroke-width:1; stroke-opacity:0.5; fill:none" stroke-dasharray="1, 2" points="
  499.227,370.85 499.227,13.4016 
  "/>
<polyline clip-path="url(#clip02)" style="stroke:#000000; stroke-width:1; stroke-opacity:0.5; fill:none" stroke-dasharray="1, 2" points="
  47.6614,376.378 583.835,376.378 
  "/>
<polyline clip-path="url(#clip02)" style="stroke:#000000; stroke-width:1; stroke-opacity:0.5; fill:none" stroke-dasharray="1, 2" points="
  47.6614,309.377 583.835,309.377 
  "/>
<polyline clip-path="url(#clip02)" style="stroke:#000000; stroke-width:1; stroke-opacity:0.5; fill:none" stroke-dasharray="1, 2" points="
  47.6614,242.377 583.835,242.377 
  "/>
<polyline clip-path="url(#clip02)" style="stroke:#000000; stroke-width:1; stroke-opacity:0.5; fill:none" stroke-dasharray="1, 2" points="
  47.6614,175.376 583.835,175.376 
  "/>
<polyline clip-path="url(#clip02)" style="stroke:#000000; stroke-width:1; stroke-opacity:0.5; fill:none" stroke-dasharray="1, 2" points="
  47.6614,108.375 583.835,108.375 
  "/>
<polyline clip-path="url(#clip02)" style="stroke:#000000; stroke-width:1; stroke-opacity:0.5; fill:none" stroke-dasharray="1, 2" points="
  47.6614,41.3744 583.835,41.3744 
  "/>
<polyline clip-path="url(#clip00)" style="stroke:#000000; stroke-width:1; stroke-opacity:1; fill:none" points="
  39.3701,376.378 592.126,376.378 
  "/>
<polyline clip-path="url(#clip00)" style="stroke:#000000; stroke-width:1; stroke-opacity:1; fill:none" points="
  112.955,376.378 112.955,370.85 
  "/>
<polyline clip-path="url(#clip00)" style="stroke:#000000; stroke-width:1; stroke-opacity:1; fill:none" points="
  209.523,376.378 209.523,370.85 
  "/>
<polyline clip-path="url(#clip00)" style="stroke:#000000; stroke-width:1; stroke-opacity:1; fill:none" points="
  306.091,376.378 306.091,370.85 
  "/>
<polyline clip-path="url(#clip00)" style="stroke:#000000; stroke-width:1; stroke-opacity:1; fill:none" points="
  402.659,376.378 402.659,370.85 
  "/>
<polyline clip-path="url(#clip00)" style="stroke:#000000; stroke-width:1; stroke-opacity:1; fill:none" points="
  499.227,376.378 499.227,370.85 
  "/>
<polyline clip-path="url(#clip00)" style="stroke:#000000; stroke-width:1; stroke-opacity:1; fill:none" points="
  39.3701,376.378 39.3701,7.87402 
  "/>
<polyline clip-path="url(#clip00)" style="stroke:#000000; stroke-width:1; stroke-opacity:1; fill:none" points="
  39.3701,376.378 47.6614,376.378 
  "/>
<polyline clip-path="url(#clip00)" style="stroke:#000000; stroke-width:1; stroke-opacity:1; fill:none" points="
  39.3701,309.377 47.6614,309.377 
  "/>
<polyline clip-path="url(#clip00)" style="stroke:#000000; stroke-width:1; stroke-opacity:1; fill:none" points="
  39.3701,242.377 47.6614,242.377 
  "/>
<polyline clip-path="url(#clip00)" style="stroke:#000000; stroke-width:1; stroke-opacity:1; fill:none" points="
  39.3701,175.376 47.6614,175.376 
  "/>
<polyline clip-path="url(#clip00)" style="stroke:#000000; stroke-width:1; stroke-opacity:1; fill:none" points="
  39.3701,108.375 47.6614,108.375 
  "/>
<polyline clip-path="url(#clip00)" style="stroke:#000000; stroke-width:1; stroke-opacity:1; fill:none" points="
  39.3701,41.3744 47.6614,41.3744 
  "/>
<g clip-path="url(#clip00)">
<text style="fill:#000000; fill-opacity:1; font-family:Arial,Helvetica Neue,Helvetica,sans-serif; font-size:12; text-anchor:middle;" transform="rotate(0, 112.955, 390.178)" x="112.955" y="390.178">-2</text>
</g>
<g clip-path="url(#clip00)">
<text style="fill:#000000; fill-opacity:1; font-family:Arial,Helvetica Neue,Helvetica,sans-serif; font-size:12; text-anchor:middle;" transform="rotate(0, 209.523, 390.178)" x="209.523" y="390.178">-1</text>
</g>
<g clip-path="url(#clip00)">
<text style="fill:#000000; fill-opacity:1; font-family:Arial,Helvetica Neue,Helvetica,sans-serif; font-size:12; text-anchor:middle;" transform="rotate(0, 306.091, 390.178)" x="306.091" y="390.178">0</text>
</g>
<g clip-path="url(#clip00)">
<text style="fill:#000000; fill-opacity:1; font-family:Arial,Helvetica Neue,Helvetica,sans-serif; font-size:12; text-anchor:middle;" transform="rotate(0, 402.659, 390.178)" x="402.659" y="390.178">1</text>
</g>
<g clip-path="url(#clip00)">
<text style="fill:#000000; fill-opacity:1; font-family:Arial,Helvetica Neue,Helvetica,sans-serif; font-size:12; text-anchor:middle;" transform="rotate(0, 499.227, 390.178)" x="499.227" y="390.178">2</text>
</g>
<g clip-path="url(#clip00)">
<text style="fill:#000000; fill-opacity:1; font-family:Arial,Helvetica Neue,Helvetica,sans-serif; font-size:12; text-anchor:end;" transform="rotate(0, 33.3701, 380.878)" x="33.3701" y="380.878">0</text>
</g>
<g clip-path="url(#clip00)">
<text style="fill:#000000; fill-opacity:1; font-family:Arial,Helvetica Neue,Helvetica,sans-serif; font-size:12; text-anchor:end;" transform="rotate(0, 33.3701, 313.877)" x="33.3701" y="313.877">20</text>
</g>
<g clip-path="url(#clip00)">
<text style="fill:#000000; fill-opacity:1; font-family:Arial,Helvetica Neue,Helvetica,sans-serif; font-size:12; text-anchor:end;" transform="rotate(0, 33.3701, 246.877)" x="33.3701" y="246.877">40</text>
</g>
<g clip-path="url(#clip00)">
<text style="fill:#000000; fill-opacity:1; font-family:Arial,Helvetica Neue,Helvetica,sans-serif; font-size:12; text-anchor:end;" transform="rotate(0, 33.3701, 179.876)" x="33.3701" y="179.876">60</text>
</g>
<g clip-path="url(#clip00)">
<text style="fill:#000000; fill-opacity:1; font-family:Arial,Helvetica Neue,Helvetica,sans-serif; font-size:12; text-anchor:end;" transform="rotate(0, 33.3701, 112.875)" x="33.3701" y="112.875">80</text>
</g>
<g clip-path="url(#clip00)">
<text style="fill:#000000; fill-opacity:1; font-family:Arial,Helvetica Neue,Helvetica,sans-serif; font-size:12; text-anchor:end;" transform="rotate(0, 33.3701, 45.8744)" x="33.3701" y="45.8744">100</text>
</g>
<polygon clip-path="url(#clip02)" points="
55.0141,373.028 55.0141,376.378 74.3277,376.378 74.3277,373.028 55.0141,373.028 55.0141,373.028 
  " fill="#009af9" fill-opacity="1"/>
<polyline clip-path="url(#clip02)" style="stroke:#000000; stroke-width:1; stroke-opacity:1; fill:none" points="
  55.0141,373.028 55.0141,376.378 74.3277,376.378 74.3277,373.028 55.0141,373.028 
  "/>
<polygon clip-path="url(#clip02)" points="
74.3277,373.028 74.3277,376.378 93.6414,376.378 93.6414,373.028 74.3277,373.028 74.3277,373.028 
  " fill="#009af9" fill-opacity="1"/>
<polyline clip-path="url(#clip02)" style="stroke:#000000; stroke-width:1; stroke-opacity:1; fill:none" points="
  74.3277,373.028 74.3277,376.378 93.6414,376.378 93.6414,373.028 74.3277,373.028 
  "/>
<polygon clip-path="url(#clip02)" points="
93.6414,373.028 93.6414,376.378 112.955,376.378 112.955,373.028 93.6414,373.028 93.6414,373.028 
  " fill="#009af9" fill-opacity="1"/>
<polyline clip-path="url(#clip02)" style="stroke:#000000; stroke-width:1; stroke-opacity:1; fill:none" points="
  93.6414,373.028 93.6414,376.378 112.955,376.378 112.955,373.028 93.6414,373.028 
  "/>
<polygon clip-path="url(#clip02)" points="
112.955,359.628 112.955,376.378 132.269,376.378 132.269,359.628 112.955,359.628 112.955,359.628 
  " fill="#009af9" fill-opacity="1"/>
<polyline clip-path="url(#clip02)" style="stroke:#000000; stroke-width:1; stroke-opacity:1; fill:none" points="
  112.955,359.628 112.955,376.378 132.269,376.378 132.269,359.628 112.955,359.628 
  "/>
<polygon clip-path="url(#clip02)" points="
132.269,362.978 132.269,376.378 151.582,376.378 151.582,362.978 132.269,362.978 132.269,362.978 
  " fill="#009af9" fill-opacity="1"/>
<polyline clip-path="url(#clip02)" style="stroke:#000000; stroke-width:1; stroke-opacity:1; fill:none" points="
  132.269,362.978 132.269,376.378 151.582,376.378 151.582,362.978 132.269,362.978 
  "/>
<polygon clip-path="url(#clip02)" points="
151.582,339.528 151.582,376.378 170.896,376.378 170.896,339.528 151.582,339.528 151.582,339.528 
  " fill="#009af9" fill-opacity="1"/>
<polyline clip-path="url(#clip02)" style="stroke:#000000; stroke-width:1; stroke-opacity:1; fill:none" points="
  151.582,339.528 151.582,376.378 170.896,376.378 170.896,339.528 151.582,339.528 
  "/>
<polygon clip-path="url(#clip02)" points="
170.896,292.627 170.896,376.378 190.209,376.378 190.209,292.627 170.896,292.627 170.896,292.627 
  " fill="#009af9" fill-opacity="1"/>
<polyline clip-path="url(#clip02)" style="stroke:#000000; stroke-width:1; stroke-opacity:1; fill:none" points="
  170.896,292.627 170.896,376.378 190.209,376.378 190.209,292.627 170.896,292.627 
  "/>
<polygon clip-path="url(#clip02)" points="
190.209,269.177 190.209,376.378 209.523,376.378 209.523,269.177 190.209,269.177 190.209,269.177 
  " fill="#009af9" fill-opacity="1"/>
<polyline clip-path="url(#clip02)" style="stroke:#000000; stroke-width:1; stroke-opacity:1; fill:none" points="
  190.209,269.177 190.209,376.378 209.523,376.378 209.523,269.177 190.209,269.177 
  "/>
<polygon clip-path="url(#clip02)" points="
209.523,175.376 209.523,376.378 228.837,376.378 228.837,175.376 209.523,175.376 209.523,175.376 
  " fill="#009af9" fill-opacity="1"/>
<polyline clip-path="url(#clip02)" style="stroke:#000000; stroke-width:1; stroke-opacity:1; fill:none" points="
  209.523,175.376 209.523,376.378 228.837,376.378 228.837,175.376 209.523,175.376 
  "/>
<polygon clip-path="url(#clip02)" points="
228.837,151.926 228.837,376.378 248.15,376.378 248.15,151.926 228.837,151.926 228.837,151.926 
  " fill="#009af9" fill-opacity="1"/>
<polyline clip-path="url(#clip02)" style="stroke:#000000; stroke-width:1; stroke-opacity:1; fill:none" points="
  228.837,151.926 228.837,376.378 248.15,376.378 248.15,151.926 228.837,151.926 
  "/>
<polygon clip-path="url(#clip02)" points="
248.15,98.325 248.15,376.378 267.464,376.378 267.464,98.325 248.15,98.325 248.15,98.325 
  " fill="#009af9" fill-opacity="1"/>
<polyline clip-path="url(#clip02)" style="stroke:#000000; stroke-width:1; stroke-opacity:1; fill:none" points="
  248.15,98.325 248.15,376.378 267.464,376.378 267.464,98.325 248.15,98.325 
  "/>
<polygon clip-path="url(#clip02)" points="
267.464,81.5748 267.464,376.378 286.778,376.378 286.778,81.5748 267.464,81.5748 267.464,81.5748 
  " fill="#009af9" fill-opacity="1"/>
<polyline clip-path="url(#clip02)" style="stroke:#000000; stroke-width:1; stroke-opacity:1; fill:none" points="
  267.464,81.5748 267.464,376.378 286.778,376.378 286.778,81.5748 267.464,81.5748 
  "/>
<polygon clip-path="url(#clip02)" points="
286.778,11.2241 286.778,376.378 306.091,376.378 306.091,11.2241 286.778,11.2241 286.778,11.2241 
  " fill="#009af9" fill-opacity="1"/>
<polyline clip-path="url(#clip02)" style="stroke:#000000; stroke-width:1; stroke-opacity:1; fill:none" points="
  286.778,11.2241 286.778,376.378 306.091,376.378 306.091,11.2241 286.778,11.2241 
  "/>
<polygon clip-path="url(#clip02)" points="
306.091,27.9742 306.091,376.378 325.405,376.378 325.405,27.9742 306.091,27.9742 306.091,27.9742 
  " fill="#009af9" fill-opacity="1"/>
<polyline clip-path="url(#clip02)" style="stroke:#000000; stroke-width:1; stroke-opacity:1; fill:none" points="
  306.091,27.9742 306.091,376.378 325.405,376.378 325.405,27.9742 306.091,27.9742 
  "/>
<polygon clip-path="url(#clip02)" points="
325.405,7.87402 325.405,376.378 344.718,376.378 344.718,7.87402 325.405,7.87402 325.405,7.87402 
  " fill="#009af9" fill-opacity="1"/>
<polyline clip-path="url(#clip02)" style="stroke:#000000; stroke-width:1; stroke-opacity:1; fill:none" points="
  325.405,7.87402 325.405,376.378 344.718,376.378 344.718,7.87402 325.405,7.87402 
  "/>
<polygon clip-path="url(#clip02)" points="
344.718,31.3243 344.718,376.378 364.032,376.378 364.032,31.3243 344.718,31.3243 344.718,31.3243 
  " fill="#009af9" fill-opacity="1"/>
<polyline clip-path="url(#clip02)" style="stroke:#000000; stroke-width:1; stroke-opacity:1; fill:none" points="
  344.718,31.3243 344.718,376.378 364.032,376.378 364.032,31.3243 344.718,31.3243 
  "/>
<polygon clip-path="url(#clip02)" points="
364.032,185.426 364.032,376.378 383.346,376.378 383.346,185.426 364.032,185.426 364.032,185.426 
  " fill="#009af9" fill-opacity="1"/>
<polyline clip-path="url(#clip02)" style="stroke:#000000; stroke-width:1; stroke-opacity:1; fill:none" points="
  364.032,185.426 364.032,376.378 383.346,376.378 383.346,185.426 364.032,185.426 
  "/>
<polygon clip-path="url(#clip02)" points="
383.346,195.476 383.346,376.378 402.659,376.378 402.659,195.476 383.346,195.476 383.346,195.476 
  " fill="#009af9" fill-opacity="1"/>
<polyline clip-path="url(#clip02)" style="stroke:#000000; stroke-width:1; stroke-opacity:1; fill:none" points="
  383.346,195.476 383.346,376.378 402.659,376.378 402.659,195.476 383.346,195.476 
  "/>
<polygon clip-path="url(#clip02)" points="
402.659,272.527 402.659,376.378 421.973,376.378 421.973,272.527 402.659,272.527 402.659,272.527 
  " fill="#009af9" fill-opacity="1"/>
<polyline clip-path="url(#clip02)" style="stroke:#000000; stroke-width:1; stroke-opacity:1; fill:none" points="
  402.659,272.527 402.659,376.378 421.973,376.378 421.973,272.527 402.659,272.527 
  "/>
<polygon clip-path="url(#clip02)" points="
421.973,302.677 421.973,376.378 441.287,376.378 441.287,302.677 421.973,302.677 421.973,302.677 
  " fill="#009af9" fill-opacity="1"/>
<polyline clip-path="url(#clip02)" style="stroke:#000000; stroke-width:1; stroke-opacity:1; fill:none" points="
  421.973,302.677 421.973,376.378 441.287,376.378 441.287,302.677 421.973,302.677 
  "/>
<polygon clip-path="url(#clip02)" points="
441.287,322.777 441.287,376.378 460.6,376.378 460.6,322.777 441.287,322.777 441.287,322.777 
  " fill="#009af9" fill-opacity="1"/>
<polyline clip-path="url(#clip02)" style="stroke:#000000; stroke-width:1; stroke-opacity:1; fill:none" points="
  441.287,322.777 441.287,376.378 460.6,376.378 460.6,322.777 441.287,322.777 
  "/>
<polygon clip-path="url(#clip02)" points="
460.6,356.278 460.6,376.378 479.914,376.378 479.914,356.278 460.6,356.278 460.6,356.278 
  " fill="#009af9" fill-opacity="1"/>
<polyline clip-path="url(#clip02)" style="stroke:#000000; stroke-width:1; stroke-opacity:1; fill:none" points="
  460.6,356.278 460.6,376.378 479.914,376.378 479.914,356.278 460.6,356.278 
  "/>
<polygon clip-path="url(#clip02)" points="
479.914,359.628 479.914,376.378 499.227,376.378 499.227,359.628 479.914,359.628 479.914,359.628 
  " fill="#009af9" fill-opacity="1"/>
<polyline clip-path="url(#clip02)" style="stroke:#000000; stroke-width:1; stroke-opacity:1; fill:none" points="
  479.914,359.628 479.914,376.378 499.227,376.378 499.227,359.628 479.914,359.628 
  "/>
<polygon clip-path="url(#clip02)" points="
499.227,366.328 499.227,376.378 518.541,376.378 518.541,366.328 499.227,366.328 499.227,366.328 
  " fill="#009af9" fill-opacity="1"/>
<polyline clip-path="url(#clip02)" style="stroke:#000000; stroke-width:1; stroke-opacity:1; fill:none" points="
  499.227,366.328 499.227,376.378 518.541,376.378 518.541,366.328 499.227,366.328 
  "/>
<polygon clip-path="url(#clip02)" points="
518.541,373.028 518.541,376.378 537.855,376.378 537.855,373.028 518.541,373.028 518.541,373.028 
  " fill="#009af9" fill-opacity="1"/>
<polyline clip-path="url(#clip02)" style="stroke:#000000; stroke-width:1; stroke-opacity:1; fill:none" points="
  518.541,373.028 518.541,376.378 537.855,376.378 537.855,373.028 518.541,373.028 
  "/>
<polygon clip-path="url(#clip02)" points="
537.855,376.378 537.855,376.378 557.168,376.378 557.168,376.378 537.855,376.378 537.855,376.378 
  " fill="#009af9" fill-opacity="1"/>
<polyline clip-path="url(#clip02)" style="stroke:#000000; stroke-width:1; stroke-opacity:1; fill:none" points="
  537.855,376.378 537.855,376.378 557.168,376.378 537.855,376.378 
  "/>
<polygon clip-path="url(#clip02)" points="
557.168,373.028 557.168,376.378 576.482,376.378 576.482,373.028 557.168,373.028 557.168,373.028 
  " fill="#009af9" fill-opacity="1"/>
<polyline clip-path="url(#clip02)" style="stroke:#000000; stroke-width:1; stroke-opacity:1; fill:none" points="
  557.168,373.028 557.168,376.378 576.482,376.378 576.482,373.028 557.168,373.028 
  "/>
</svg>
