<?xml version="1.0" encoding="utf-8"?>
<svg xmlns="http://www.w3.org/2000/svg" xmlns:xlink="http://www.w3.org/1999/xlink" width="600" height="400" viewBox="0 0 600 400">
<defs>
  <clipPath id="clip2600">
    <rect x="0" y="0" width="600" height="400"/>
  </clipPath>
</defs>
<polygon clip-path="url(#clip2600)" points="
0,400 600,400 600,0 0,0 
  " fill="#ffffff" fill-opacity="1"/>
<defs>
  <clipPath id="clip2601">
    <rect x="120" y="0" width="421" height="400"/>
  </clipPath>
</defs>
<polygon clip-path="url(#clip2600)" points="
32.4745,375.869 580.315,375.869 580.315,11.811 32.4745,11.811 
  " fill="#ffffff" fill-opacity="1"/>
<defs>
  <clipPath id="clip2602">
    <rect x="32" y="11" width="549" height="365"/>
  </clipPath>
</defs>
<polyline clip-path="url(#clip2602)" style="stroke:#000000; stroke-width:0.5; stroke-opacity:0.1; fill:none" points="
  124.206,375.869 124.206,11.811 
  "/>
<polyline clip-path="url(#clip2602)" style="stroke:#000000; stroke-width:0.5; stroke-opacity:0.1; fill:none" points="
  219.431,375.869 219.431,11.811 
  "/>
<polyline clip-path="url(#clip2602)" style="stroke:#000000; stroke-width:0.5; stroke-opacity:0.1; fill:none" points="
  314.655,375.869 314.655,11.811 
  "/>
<polyline clip-path="url(#clip2602)" style="stroke:#000000; stroke-width:0.5; stroke-opacity:0.1; fill:none" points="
  409.879,375.869 409.879,11.811 
  "/>
<polyline clip-path="url(#clip2602)" style="stroke:#000000; stroke-width:0.5; stroke-opacity:0.1; fill:none" points="
  505.103,375.869 505.103,11.811 
  "/>
<polyline clip-path="url(#clip2602)" style="stroke:#000000; stroke-width:0.5; stroke-opacity:0.1; fill:none" points="
  32.4745,375.869 580.315,375.869 
  "/>
<polyline clip-path="url(#clip2602)" style="stroke:#000000; stroke-width:0.5; stroke-opacity:0.1; fill:none" points="
  32.4745,304.893 580.315,304.893 
  "/>
<polyline clip-path="url(#clip2602)" style="stroke:#000000; stroke-width:0.5; stroke-opacity:0.1; fill:none" points="
  32.4745,233.918 580.315,233.918 
  "/>
<polyline clip-path="url(#clip2602)" style="stroke:#000000; stroke-width:0.5; stroke-opacity:0.1; fill:none" points="
  32.4745,162.943 580.315,162.943 
  "/>
<polyline clip-path="url(#clip2602)" style="stroke:#000000; stroke-width:0.5; stroke-opacity:0.1; fill:none" points="
  32.4745,91.9674 580.315,91.9674 
  "/>
<polyline clip-path="url(#clip2602)" style="stroke:#000000; stroke-width:0.5; stroke-opacity:0.1; fill:none" points="
  32.4745,20.9921 580.315,20.9921 
  "/>
<polyline clip-path="url(#clip2600)" style="stroke:#000000; stroke-width:1; stroke-opacity:1; fill:none" points="
  32.4745,375.869 580.315,375.869 
  "/>
<polyline clip-path="url(#clip2600)" style="stroke:#000000; stroke-width:1; stroke-opacity:1; fill:none" points="
  32.4745,375.869 32.4745,11.811 
  "/>
<polyline clip-path="url(#clip2600)" style="stroke:#000000; stroke-width:1; stroke-opacity:1; fill:none" points="
  124.206,375.869 124.206,370.408 
  "/>
<polyline clip-path="url(#clip2600)" style="stroke:#000000; stroke-width:1; stroke-opacity:1; fill:none" points="
  219.431,375.869 219.431,370.408 
  "/>
<polyline clip-path="url(#clip2600)" style="stroke:#000000; stroke-width:1; stroke-opacity:1; fill:none" points="
  314.655,375.869 314.655,370.408 
  "/>
<polyline clip-path="url(#clip2600)" style="stroke:#000000; stroke-width:1; stroke-opacity:1; fill:none" points="
  409.879,375.869 409.879,370.408 
  "/>
<polyline clip-path="url(#clip2600)" style="stroke:#000000; stroke-width:1; stroke-opacity:1; fill:none" points="
  505.103,375.869 505.103,370.408 
  "/>
<polyline clip-path="url(#clip2600)" style="stroke:#000000; stroke-width:1; stroke-opacity:1; fill:none" points="
  32.4745,375.869 40.6921,375.869 
  "/>
<polyline clip-path="url(#clip2600)" style="stroke:#000000; stroke-width:1; stroke-opacity:1; fill:none" points="
  32.4745,304.893 40.6921,304.893 
  "/>
<polyline clip-path="url(#clip2600)" style="stroke:#000000; stroke-width:1; stroke-opacity:1; fill:none" points="
  32.4745,233.918 40.6921,233.918 
  "/>
<polyline clip-path="url(#clip2600)" style="stroke:#000000; stroke-width:1; stroke-opacity:1; fill:none" points="
  32.4745,162.943 40.6921,162.943 
  "/>
<polyline clip-path="url(#clip2600)" style="stroke:#000000; stroke-width:1; stroke-opacity:1; fill:none" points="
  32.4745,91.9674 40.6921,91.9674 
  "/>
<polyline clip-path="url(#clip2600)" style="stroke:#000000; stroke-width:1; stroke-opacity:1; fill:none" points="
  32.4745,20.9921 40.6921,20.9921 
  "/>
<g clip-path="url(#clip2600)">
<text style="fill:#000000; fill-opacity:1; font-family:Arial,Helvetica Neue,Helvetica,sans-serif; font-size:12; text-anchor:middle;" transform="rotate(0, 124.206, 389.669)" x="124.206" y="389.669">1.50</text>
</g>
<g clip-path="url(#clip2600)">
<text style="fill:#000000; fill-opacity:1; font-family:Arial,Helvetica Neue,Helvetica,sans-serif; font-size:12; text-anchor:middle;" transform="rotate(0, 219.431, 389.669)" x="219.431" y="389.669">1.75</text>
</g>
<g clip-path="url(#clip2600)">
<text style="fill:#000000; fill-opacity:1; font-family:Arial,Helvetica Neue,Helvetica,sans-serif; font-size:12; text-anchor:middle;" transform="rotate(0, 314.655, 389.669)" x="314.655" y="389.669">2.00</text>
</g>
<g clip-path="url(#clip2600)">
<text style="fill:#000000; fill-opacity:1; font-family:Arial,Helvetica Neue,Helvetica,sans-serif; font-size:12; text-anchor:middle;" transform="rotate(0, 409.879, 389.669)" x="409.879" y="389.669">2.25</text>
</g>
<g clip-path="url(#clip2600)">
<text style="fill:#000000; fill-opacity:1; font-family:Arial,Helvetica Neue,Helvetica,sans-serif; font-size:12; text-anchor:middle;" transform="rotate(0, 505.103, 389.669)" x="505.103" y="389.669">2.50</text>
</g>
<g clip-path="url(#clip2600)">
<text style="fill:#000000; fill-opacity:1; font-family:Arial,Helvetica Neue,Helvetica,sans-serif; font-size:12; text-anchor:end;" transform="rotate(0, 26.4745, 380.369)" x="26.4745" y="380.369">0.0</text>
</g>
<g clip-path="url(#clip2600)">
<text style="fill:#000000; fill-opacity:1; font-family:Arial,Helvetica Neue,Helvetica,sans-serif; font-size:12; text-anchor:end;" transform="rotate(0, 26.4745, 309.393)" x="26.4745" y="309.393">0.5</text>
</g>
<g clip-path="url(#clip2600)">
<text style="fill:#000000; fill-opacity:1; font-family:Arial,Helvetica Neue,Helvetica,sans-serif; font-size:12; text-anchor:end;" transform="rotate(0, 26.4745, 238.418)" x="26.4745" y="238.418">1.0</text>
</g>
<g clip-path="url(#clip2600)">
<text style="fill:#000000; fill-opacity:1; font-family:Arial,Helvetica Neue,Helvetica,sans-serif; font-size:12; text-anchor:end;" transform="rotate(0, 26.4745, 167.443)" x="26.4745" y="167.443">1.5</text>
</g>
<g clip-path="url(#clip2600)">
<text style="fill:#000000; fill-opacity:1; font-family:Arial,Helvetica Neue,Helvetica,sans-serif; font-size:12; text-anchor:end;" transform="rotate(0, 26.4745, 96.4674)" x="26.4745" y="96.4674">2.0</text>
</g>
<g clip-path="url(#clip2600)">
<text style="fill:#000000; fill-opacity:1; font-family:Arial,Helvetica Neue,Helvetica,sans-serif; font-size:12; text-anchor:end;" transform="rotate(0, 26.4745, 25.4921)" x="26.4745" y="25.4921">2.5</text>
</g>
<polygon clip-path="url(#clip2602)" points="
32.4745,375.398 33.878,375.298 35.2814,375.199 36.6849,375.107 38.0884,375.027 39.4918,374.963 40.8953,374.917 42.2988,374.888 43.7023,374.87 45.1057,374.858 
  46.5092,374.841 47.9127,374.81 49.3161,374.754 50.7196,374.665 52.1231,374.535 53.5266,374.358 54.93,374.134 56.3335,373.864 57.737,373.557 59.1404,373.226 
  60.5439,372.888 61.9474,372.56 63.3508,372.261 64.7543,372.002 66.1578,371.789 67.5613,371.617 68.9647,371.474 70.3682,371.345 71.7717,371.208 73.1751,371.047 
  74.5786,370.853 75.9821,370.622 77.3856,370.364 78.789,370.091 80.1925,369.823 81.596,369.575 82.9994,369.362 84.4029,369.191 85.8064,369.059 87.2099,368.96 
  88.6133,368.881 90.0168,368.807 91.4203,368.72 92.8237,368.609 94.2272,368.464 95.6307,368.285 97.0341,368.077 98.4376,367.85 99.8411,367.619 101.245,367.396 
  102.648,367.192 104.051,367.009 105.455,366.844 106.858,366.686 108.262,366.518 109.665,366.318 111.069,366.064 112.472,365.728 113.876,365.284 115.279,364.704 
  116.683,363.961 118.086,363.033 119.49,361.902 120.893,360.561 122.297,359.014 123.7,357.278 125.104,355.385 126.507,353.375 127.911,351.295 129.314,349.189 
  130.717,347.099 132.121,345.053 133.524,343.067 134.928,341.145 136.331,339.279 137.735,337.455 139.138,335.658 140.542,333.874 141.945,332.098 143.349,330.333 
  144.752,328.59 146.156,326.886 147.559,325.244 148.963,323.691 150.366,322.255 151.77,320.967 153.173,319.857 154.576,318.952 155.98,318.265 157.383,317.792 
  158.787,317.502 160.19,317.337 161.594,317.216 162.997,317.043 164.401,316.726 165.804,316.188 167.208,315.386 168.611,314.312 170.015,312.996 171.418,311.489 
  171.418,375.869 170.015,375.869 168.611,375.869 167.208,375.869 165.804,375.869 164.401,375.869 162.997,375.869 161.594,375.869 160.19,375.869 158.787,375.869 
  157.383,375.869 155.98,375.869 154.576,375.869 153.173,375.869 151.77,375.869 150.366,375.869 148.963,375.869 147.559,375.869 146.156,375.869 144.752,375.869 
  143.349,375.869 141.945,375.869 140.542,375.869 139.138,375.869 137.735,375.869 136.331,375.869 134.928,375.869 133.524,375.869 132.121,375.869 130.717,375.869 
  129.314,375.869 127.911,375.869 126.507,375.869 125.104,375.869 123.7,375.869 122.297,375.869 120.893,375.869 119.49,375.869 118.086,375.869 116.683,375.869 
  115.279,375.869 113.876,375.869 112.472,375.869 111.069,375.869 109.665,375.869 108.262,375.869 106.858,375.869 105.455,375.869 104.051,375.869 102.648,375.869 
  101.245,375.869 99.8411,375.869 98.4376,375.869 97.0341,375.869 95.6307,375.869 94.2272,375.869 92.8237,375.869 91.4203,375.869 90.0168,375.869 88.6133,375.869 
  87.2099,375.869 85.8064,375.869 84.4029,375.869 82.9994,375.869 81.596,375.869 80.1925,375.869 78.789,375.869 77.3856,375.869 75.9821,375.869 74.5786,375.869 
  73.1751,375.869 71.7717,375.869 70.3682,375.869 68.9647,375.869 67.5613,375.869 66.1578,375.869 64.7543,375.869 63.3508,375.869 61.9474,375.869 60.5439,375.869 
  59.1404,375.869 57.737,375.869 56.3335,375.869 54.93,375.869 53.5266,375.869 52.1231,375.869 50.7196,375.869 49.3161,375.869 47.9127,375.869 46.5092,375.869 
  45.1057,375.869 43.7023,375.869 42.2988,375.869 40.8953,375.869 39.4918,375.869 38.0884,375.869 36.6849,375.869 35.2814,375.869 33.878,375.869 32.4745,375.869 
  
  " fill="#ffa500" fill-opacity="0.5"/>
<polyline clip-path="url(#clip2602)" style="stroke:#ffa500; stroke-width:1; stroke-opacity:1; fill:none" points="
  32.4745,375.398 33.878,375.298 35.2814,375.199 36.6849,375.107 38.0884,375.027 39.4918,374.963 40.8953,374.917 42.2988,374.888 43.7023,374.87 45.1057,374.858 
  46.5092,374.841 47.9127,374.81 49.3161,374.754 50.7196,374.665 52.1231,374.535 53.5266,374.358 54.93,374.134 56.3335,373.864 57.737,373.557 59.1404,373.226 
  60.5439,372.888 61.9474,372.56 63.3508,372.261 64.7543,372.002 66.1578,371.789 67.5613,371.617 68.9647,371.474 70.3682,371.345 71.7717,371.208 73.1751,371.047 
  74.5786,370.853 75.9821,370.622 77.3856,370.364 78.789,370.091 80.1925,369.823 81.596,369.575 82.9994,369.362 84.4029,369.191 85.8064,369.059 87.2099,368.96 
  88.6133,368.881 90.0168,368.807 91.4203,368.72 92.8237,368.609 94.2272,368.464 95.6307,368.285 97.0341,368.077 98.4376,367.85 99.8411,367.619 101.245,367.396 
  102.648,367.192 104.051,367.009 105.455,366.844 106.858,366.686 108.262,366.518 109.665,366.318 111.069,366.064 112.472,365.728 113.876,365.284 115.279,364.704 
  116.683,363.961 118.086,363.033 119.49,361.902 120.893,360.561 122.297,359.014 123.7,357.278 125.104,355.385 126.507,353.375 127.911,351.295 129.314,349.189 
  130.717,347.099 132.121,345.053 133.524,343.067 134.928,341.145 136.331,339.279 137.735,337.455 139.138,335.658 140.542,333.874 141.945,332.098 143.349,330.333 
  144.752,328.59 146.156,326.886 147.559,325.244 148.963,323.691 150.366,322.255 151.77,320.967 153.173,319.857 154.576,318.952 155.98,318.265 157.383,317.792 
  158.787,317.502 160.19,317.337 161.594,317.216 162.997,317.043 164.401,316.726 165.804,316.188 167.208,315.386 168.611,314.312 170.015,312.996 171.418,311.489 
  
  "/>
<polygon clip-path="url(#clip2602)" points="
171.418,311.489 173.698,308.781 175.978,305.878 178.258,302.738 180.538,299.154 182.819,294.939 185.099,290.111 187.379,284.949 189.659,279.863 191.939,275.173 
  194.219,270.956 196.499,267.033 198.779,263.099 201.059,258.877 203.339,254.233 205.619,249.192 207.899,243.867 210.179,238.371 212.46,232.773 214.74,227.129 
  217.02,221.535 219.3,216.152 221.58,211.156 223.86,206.653 226.14,202.592 228.42,198.741 230.7,194.724 232.98,190.128 235.26,184.623 237.54,178.071 
  239.821,170.568 242.101,162.413 244.381,154.019 246.661,145.79 248.941,138.017 251.221,130.81 253.501,124.091 255.781,117.627 258.061,111.113 260.341,104.275 
  262.621,96.9689 264.901,89.2349 267.182,81.2894 269.462,73.4523 271.742,66.0372 274.022,59.2302 276.302,52.9998 278.582,47.0981 280.862,41.2 283.142,35.1313 
  285.422,29.0346 287.702,23.3355 289.982,18.5275 292.262,14.9487 294.543,12.7146 296.823,11.811 299.103,12.2154 301.383,13.928 303.663,16.9125 305.943,21.021 
  308.223,25.9758 310.503,31.4282 312.783,37.0839 315.063,42.8458 317.343,48.8844 319.623,55.5573 321.904,63.1875 324.184,71.8273 326.464,81.1657 328.744,90.6453 
  331.024,99.7183 333.304,108.095 335.584,115.857 337.864,123.386 340.144,131.155 342.424,139.49 344.704,148.418 346.984,157.652 349.265,166.692 351.545,174.984 
  353.825,182.069 356.105,187.71 358.385,191.965 360.665,195.196 362.945,197.99 365.225,201.006 367.505,204.781 369.785,209.588 372.065,215.399 374.345,221.994 
  376.626,229.146 378.906,236.754 381.186,244.839 383.466,253.406 385.746,262.307 388.026,271.213 390.306,279.705 392.586,287.396 394.866,294.006 397.146,299.406 
  397.146,375.869 394.866,375.869 392.586,375.869 390.306,375.869 388.026,375.869 385.746,375.869 383.466,375.869 381.186,375.869 378.906,375.869 376.626,375.869 
  374.345,375.869 372.065,375.869 369.785,375.869 367.505,375.869 365.225,375.869 362.945,375.869 360.665,375.869 358.385,375.869 356.105,375.869 353.825,375.869 
  351.545,375.869 349.265,375.869 346.984,375.869 344.704,375.869 342.424,375.869 340.144,375.869 337.864,375.869 335.584,375.869 333.304,375.869 331.024,375.869 
  328.744,375.869 326.464,375.869 324.184,375.869 321.904,375.869 319.623,375.869 317.343,375.869 315.063,375.869 312.783,375.869 310.503,375.869 308.223,375.869 
  305.943,375.869 303.663,375.869 301.383,375.869 299.103,375.869 296.823,375.869 294.543,375.869 292.262,375.869 289.982,375.869 287.702,375.869 285.422,375.869 
  283.142,375.869 280.862,375.869 278.582,375.869 276.302,375.869 274.022,375.869 271.742,375.869 269.462,375.869 267.182,375.869 264.901,375.869 262.621,375.869 
  260.341,375.869 258.061,375.869 255.781,375.869 253.501,375.869 251.221,375.869 248.941,375.869 246.661,375.869 244.381,375.869 242.101,375.869 239.821,375.869 
  237.54,375.869 235.26,375.869 232.98,375.869 230.7,375.869 228.42,375.869 226.14,375.869 223.86,375.869 221.58,375.869 219.3,375.869 217.02,375.869 
  214.74,375.869 212.46,375.869 210.179,375.869 207.899,375.869 205.619,375.869 203.339,375.869 201.059,375.869 198.779,375.869 196.499,375.869 194.219,375.869 
  191.939,375.869 189.659,375.869 187.379,375.869 185.099,375.869 182.819,375.869 180.538,375.869 178.258,375.869 175.978,375.869 173.698,375.869 171.418,375.869 
  
  " fill="#008000" fill-opacity="0.5"/>
<polyline clip-path="url(#clip2602)" style="stroke:#008000; stroke-width:1; stroke-opacity:1; fill:none" points="
  171.418,311.489 173.698,308.781 175.978,305.878 178.258,302.738 180.538,299.154 182.819,294.939 185.099,290.111 187.379,284.949 189.659,279.863 191.939,275.173 
  194.219,270.956 196.499,267.033 198.779,263.099 201.059,258.877 203.339,254.233 205.619,249.192 207.899,243.867 210.179,238.371 212.46,232.773 214.74,227.129 
  217.02,221.535 219.3,216.152 221.58,211.156 223.86,206.653 226.14,202.592 228.42,198.741 230.7,194.724 232.98,190.128 235.26,184.623 237.54,178.071 
  239.821,170.568 242.101,162.413 244.381,154.019 246.661,145.79 248.941,138.017 251.221,130.81 253.501,124.091 255.781,117.627 258.061,111.113 260.341,104.275 
  262.621,96.9689 264.901,89.2349 267.182,81.2894 269.462,73.4523 271.742,66.0372 274.022,59.2302 276.302,52.9998 278.582,47.0981 280.862,41.2 283.142,35.1313 
  285.422,29.0346 287.702,23.3355 289.982,18.5275 292.262,14.9487 294.543,12.7146 296.823,11.811 299.103,12.2154 301.383,13.928 303.663,16.9125 305.943,21.021 
  308.223,25.9758 310.503,31.4282 312.783,37.0839 315.063,42.8458 317.343,48.8844 319.623,55.5573 321.904,63.1875 324.184,71.8273 326.464,81.1657 328.744,90.6453 
  331.024,99.7183 333.304,108.095 335.584,115.857 337.864,123.386 340.144,131.155 342.424,139.49 344.704,148.418 346.984,157.652 349.265,166.692 351.545,174.984 
  353.825,182.069 356.105,187.71 358.385,191.965 360.665,195.196 362.945,197.99 365.225,201.006 367.505,204.781 369.785,209.588 372.065,215.399 374.345,221.994 
  376.626,229.146 378.906,236.754 381.186,244.839 383.466,253.406 385.746,262.307 388.026,271.213 390.306,279.705 392.586,287.396 394.866,294.006 397.146,299.406 
  
  "/>
<polygon clip-path="url(#clip2602)" points="
397.146,299.406 398.996,302.929 400.847,305.818 402.697,308.287 404.547,310.6 406.397,313.013 408.247,315.714 410.098,318.78 411.948,322.168 413.798,325.737 
  415.648,329.301 417.498,332.677 419.349,335.729 421.199,338.391 423.049,340.671 424.899,342.63 426.749,344.352 428.6,345.921 430.45,347.384 432.3,348.749 
  434.15,349.982 436,351.021 437.85,351.808 439.701,352.31 441.551,352.544 443.401,352.581 445.251,352.539 447.101,352.556 448.952,352.761 450.802,353.25 
  452.652,354.064 454.502,355.189 456.352,356.562 458.203,358.089 460.053,359.665 461.903,361.201 463.753,362.634 465.603,363.936 467.453,365.103 469.304,366.148 
  471.154,367.082 473.004,367.914 474.854,368.64 476.704,369.249 478.555,369.734 480.405,370.098 482.255,370.361 484.105,370.555 485.955,370.722 487.806,370.902 
  489.656,371.12 491.506,371.388 493.356,371.705 495.206,372.055 497.056,372.416 498.907,372.764 500.757,373.074 502.607,373.325 504.457,373.508 506.307,373.625 
  508.158,373.69 510.008,373.725 511.858,373.755 513.708,373.801 515.558,373.876 517.409,373.983 519.259,374.116 521.109,374.262 522.959,374.404 524.809,374.528 
  526.659,374.623 528.51,374.691 530.36,374.739 532.21,374.782 534.06,374.836 535.91,374.91 537.761,375.005 539.611,375.111 541.461,375.212 543.311,375.291 
  545.161,375.337 547.012,375.347 548.862,375.324 550.712,375.274 552.562,375.208 554.412,375.132 556.263,375.053 558.113,374.976 559.963,374.906 561.813,374.845 
  563.663,374.795 565.513,374.759 567.364,374.741 569.214,374.742 571.064,374.77 572.914,374.826 574.764,374.914 576.615,375.029 578.465,375.162 580.315,375.303 
  580.315,375.869 578.465,375.869 576.615,375.869 574.764,375.869 572.914,375.869 571.064,375.869 569.214,375.869 567.364,375.869 565.513,375.869 563.663,375.869 
  561.813,375.869 559.963,375.869 558.113,375.869 556.263,375.869 554.412,375.869 552.562,375.869 550.712,375.869 548.862,375.869 547.012,375.869 545.161,375.869 
  543.311,375.869 541.461,375.869 539.611,375.869 537.761,375.869 535.91,375.869 534.06,375.869 532.21,375.869 530.36,375.869 528.51,375.869 526.659,375.869 
  524.809,375.869 522.959,375.869 521.109,375.869 519.259,375.869 517.409,375.869 515.558,375.869 513.708,375.869 511.858,375.869 510.008,375.869 508.158,375.869 
  506.307,375.869 504.457,375.869 502.607,375.869 500.757,375.869 498.907,375.869 497.056,375.869 495.206,375.869 493.356,375.869 491.506,375.869 489.656,375.869 
  487.806,375.869 485.955,375.869 484.105,375.869 482.255,375.869 480.405,375.869 478.555,375.869 476.704,375.869 474.854,375.869 473.004,375.869 471.154,375.869 
  469.304,375.869 467.453,375.869 465.603,375.869 463.753,375.869 461.903,375.869 460.053,375.869 458.203,375.869 456.352,375.869 454.502,375.869 452.652,375.869 
  450.802,375.869 448.952,375.869 447.101,375.869 445.251,375.869 443.401,375.869 441.551,375.869 439.701,375.869 437.85,375.869 436,375.869 434.15,375.869 
  432.3,375.869 430.45,375.869 428.6,375.869 426.749,375.869 424.899,375.869 423.049,375.869 421.199,375.869 419.349,375.869 417.498,375.869 415.648,375.869 
  413.798,375.869 411.948,375.869 410.098,375.869 408.247,375.869 406.397,375.869 404.547,375.869 402.697,375.869 400.847,375.869 398.996,375.869 397.146,375.869 
  
  " fill="#ffa500" fill-opacity="0.5"/>
<polyline clip-path="url(#clip2602)" style="stroke:#ffa500; stroke-width:1; stroke-opacity:1; fill:none" points="
  397.146,299.406 398.996,302.929 400.847,305.818 402.697,308.287 404.547,310.6 406.397,313.013 408.247,315.714 410.098,318.78 411.948,322.168 413.798,325.737 
  415.648,329.301 417.498,332.677 419.349,335.729 421.199,338.391 423.049,340.671 424.899,342.63 426.749,344.352 428.6,345.921 430.45,347.384 432.3,348.749 
  434.15,349.982 436,351.021 437.85,351.808 439.701,352.31 441.551,352.544 443.401,352.581 445.251,352.539 447.101,352.556 448.952,352.761 450.802,353.25 
  452.652,354.064 454.502,355.189 456.352,356.562 458.203,358.089 460.053,359.665 461.903,361.201 463.753,362.634 465.603,363.936 467.453,365.103 469.304,366.148 
  471.154,367.082 473.004,367.914 474.854,368.64 476.704,369.249 478.555,369.734 480.405,370.098 482.255,370.361 484.105,370.555 485.955,370.722 487.806,370.902 
  489.656,371.12 491.506,371.388 493.356,371.705 495.206,372.055 497.056,372.416 498.907,372.764 500.757,373.074 502.607,373.325 504.457,373.508 506.307,373.625 
  508.158,373.69 510.008,373.725 511.858,373.755 513.708,373.801 515.558,373.876 517.409,373.983 519.259,374.116 521.109,374.262 522.959,374.404 524.809,374.528 
  526.659,374.623 528.51,374.691 530.36,374.739 532.21,374.782 534.06,374.836 535.91,374.91 537.761,375.005 539.611,375.111 541.461,375.212 543.311,375.291 
  545.161,375.337 547.012,375.347 548.862,375.324 550.712,375.274 552.562,375.208 554.412,375.132 556.263,375.053 558.113,374.976 559.963,374.906 561.813,374.845 
  563.663,374.795 565.513,374.759 567.364,374.741 569.214,374.742 571.064,374.77 572.914,374.826 574.764,374.914 576.615,375.029 578.465,375.162 580.315,375.303 
  
  "/>
<polyline clip-path="url(#clip2602)" style="stroke:#0000ff; stroke-width:1; stroke-opacity:1; fill:none" points="
  290.265,375.869 290.265,18.0135 
  "/>
<polyline clip-path="url(#clip2602)" style="stroke:#000000; stroke-width:1; stroke-opacity:1; fill:none" points="
  292.902,375.869 292.902,14.1863 
  "/>
<polygon clip-path="url(#clip2600)" points="
376.566,123.411 562.315,123.411 562.315,32.691 376.566,32.691 
  " fill="#ffffff" fill-opacity="1"/>
<polyline clip-path="url(#clip2600)" style="stroke:#000000; stroke-width:1; stroke-opacity:1; fill:none" points="
  376.566,123.411 562.315,123.411 562.315,32.691 376.566,32.691 376.566,123.411 
  "/>
<polygon clip-path="url(#clip2600)" points="
382.566,53.859 418.566,53.859 418.566,41.763 382.566,41.763 382.566,53.859 
  " fill="#ffa500" fill-opacity="0.5"/>
<polyline clip-path="url(#clip2600)" style="stroke:#ffa500; stroke-width:1; stroke-opacity:1; fill:none" points="
  382.566,41.763 418.566,41.763 
  "/>
<g clip-path="url(#clip2600)">
<text style="fill:#000000; fill-opacity:1; font-family:Arial,Helvetica Neue,Helvetica,sans-serif; font-size:12; text-anchor:start;" transform="rotate(0, 424.566, 52.311)" x="424.566" y="52.311">q05</text>
</g>
<polygon clip-path="url(#clip2600)" points="
382.566,68.979 418.566,68.979 418.566,56.883 382.566,56.883 382.566,68.979 
  " fill="#008000" fill-opacity="0.5"/>
<polyline clip-path="url(#clip2600)" style="stroke:#008000; stroke-width:1; stroke-opacity:1; fill:none" points="
  382.566,56.883 418.566,56.883 
  "/>
<g clip-path="url(#clip2600)">
<text style="fill:#000000; fill-opacity:1; font-family:Arial,Helvetica Neue,Helvetica,sans-serif; font-size:12; text-anchor:start;" transform="rotate(0, 424.566, 67.431)" x="424.566" y="67.431">90% acceptance region</text>
</g>
<polygon clip-path="url(#clip2600)" points="
382.566,84.099 418.566,84.099 418.566,72.003 382.566,72.003 382.566,84.099 
  " fill="#ffa500" fill-opacity="0.5"/>
<polyline clip-path="url(#clip2600)" style="stroke:#ffa500; stroke-width:1; stroke-opacity:1; fill:none" points="
  382.566,72.003 418.566,72.003 
  "/>
<g clip-path="url(#clip2600)">
<text style="fill:#000000; fill-opacity:1; font-family:Arial,Helvetica Neue,Helvetica,sans-serif; font-size:12; text-anchor:start;" transform="rotate(0, 424.566, 82.551)" x="424.566" y="82.551">q95</text>
</g>
<polyline clip-path="url(#clip2600)" style="stroke:#0000ff; stroke-width:1; stroke-opacity:1; fill:none" points="
  382.566,93.171 418.566,93.171 
  "/>
<g clip-path="url(#clip2600)">
<text style="fill:#000000; fill-opacity:1; font-family:Arial,Helvetica Neue,Helvetica,sans-serif; font-size:12; text-anchor:start;" transform="rotate(0, 424.566, 97.671)" x="424.566" y="97.671">mean</text>
</g>
<polyline clip-path="url(#clip2600)" style="stroke:#000000; stroke-width:1; stroke-opacity:1; fill:none" points="
  382.566,108.291 418.566,108.291 
  "/>
<g clip-path="url(#clip2600)">
<text style="fill:#000000; fill-opacity:1; font-family:Arial,Helvetica Neue,Helvetica,sans-serif; font-size:12; text-anchor:start;" transform="rotate(0, 424.566, 112.791)" x="424.566" y="112.791">median</text>
</g>
</svg>
