<?xml version="1.0" encoding="utf-8" standalone="no"?>
<!DOCTYPE svg PUBLIC "-//W3C//DTD SVG 1.1//EN"
  "http://www.w3.org/Graphics/SVG/1.1/DTD/svg11.dtd">
<!-- Created with matplotlib (http://matplotlib.org/) -->
<svg height="288pt" version="1.1" viewBox="0 0 432 288" width="432pt" xmlns="http://www.w3.org/2000/svg" xmlns:xlink="http://www.w3.org/1999/xlink">
 <defs>
  <style type="text/css">
*{stroke-linecap:butt;stroke-linejoin:round;}
  </style>
 </defs>
 <g id="figure_1">
  <g id="patch_1">
   <path d="M 0 288 
L 432 288 
L 432 0 
L 0 0 
z
" style="fill:#ffffff;"/>
  </g>
  <g id="axes_1">
   <g id="patch_2">
    <path d="M 15.154646 275.905354 
L 429.165354 275.905354 
L 429.165354 4.274646 
L 15.154646 4.274646 
z
" style="fill:#ffffff;"/>
   </g>
   <g id="matplotlib.axis_1">
    <g id="xtick_1">
     <g id="line2d_1">
      <path clip-path="url(#p88e226ef09)" d="M 26.87193 275.905354 
L 26.87193 4.274646 
" style="fill:none;opacity:0.1;stroke:#000000;stroke-linecap:square;stroke-width:0.5;"/>
     </g>
     <g id="line2d_2">
      <defs>
       <path d="M 0 0 
L 0 -3.5 
" id="m0ab23799aa" style="stroke:#000000;stroke-width:0.8;"/>
      </defs>
      <g>
       <use style="stroke:#000000;stroke-width:0.8;" x="26.87193" xlink:href="#m0ab23799aa" y="275.905354"/>
      </g>
     </g>
     <g id="text_1">
      <!-- 1.90 -->
      <defs>
       <path d="M 12.40625 8.296875 
L 28.515625 8.296875 
L 28.515625 63.921875 
L 10.984375 60.40625 
L 10.984375 69.390625 
L 28.421875 72.90625 
L 38.28125 72.90625 
L 38.28125 8.296875 
L 54.390625 8.296875 
L 54.390625 0 
L 12.40625 0 
z
" id="DejaVuSans-31"/>
       <path d="M 10.6875 12.40625 
L 21 12.40625 
L 21 0 
L 10.6875 0 
z
" id="DejaVuSans-2e"/>
       <path d="M 10.984375 1.515625 
L 10.984375 10.5 
Q 14.703125 8.734375 18.5 7.8125 
Q 22.3125 6.890625 25.984375 6.890625 
Q 35.75 6.890625 40.890625 13.453125 
Q 46.046875 20.015625 46.78125 33.40625 
Q 43.953125 29.203125 39.59375 26.953125 
Q 35.25 24.703125 29.984375 24.703125 
Q 19.046875 24.703125 12.671875 31.3125 
Q 6.296875 37.9375 6.296875 49.421875 
Q 6.296875 60.640625 12.9375 67.421875 
Q 19.578125 74.21875 30.609375 74.21875 
Q 43.265625 74.21875 49.921875 64.515625 
Q 56.59375 54.828125 56.59375 36.375 
Q 56.59375 19.140625 48.40625 8.859375 
Q 40.234375 -1.421875 26.421875 -1.421875 
Q 22.703125 -1.421875 18.890625 -0.6875 
Q 15.09375 0.046875 10.984375 1.515625 
z
M 30.609375 32.421875 
Q 37.25 32.421875 41.125 36.953125 
Q 45.015625 41.5 45.015625 49.421875 
Q 45.015625 57.28125 41.125 61.84375 
Q 37.25 66.40625 30.609375 66.40625 
Q 23.96875 66.40625 20.09375 61.84375 
Q 16.21875 57.28125 16.21875 49.421875 
Q 16.21875 41.5 20.09375 36.953125 
Q 23.96875 32.421875 30.609375 32.421875 
z
" id="DejaVuSans-39"/>
       <path d="M 31.78125 66.40625 
Q 24.171875 66.40625 20.328125 58.90625 
Q 16.5 51.421875 16.5 36.375 
Q 16.5 21.390625 20.328125 13.890625 
Q 24.171875 6.390625 31.78125 6.390625 
Q 39.453125 6.390625 43.28125 13.890625 
Q 47.125 21.390625 47.125 36.375 
Q 47.125 51.421875 43.28125 58.90625 
Q 39.453125 66.40625 31.78125 66.40625 
z
M 31.78125 74.21875 
Q 44.046875 74.21875 50.515625 64.515625 
Q 56.984375 54.828125 56.984375 36.375 
Q 56.984375 17.96875 50.515625 8.265625 
Q 44.046875 -1.421875 31.78125 -1.421875 
Q 19.53125 -1.421875 13.0625 8.265625 
Q 6.59375 17.96875 6.59375 36.375 
Q 6.59375 54.828125 13.0625 64.515625 
Q 19.53125 74.21875 31.78125 74.21875 
z
" id="DejaVuSans-30"/>
      </defs>
      <g transform="translate(17.96568 285.484104)scale(0.08 -0.08)">
       <use xlink:href="#DejaVuSans-31"/>
       <use x="63.623047" xlink:href="#DejaVuSans-2e"/>
       <use x="95.410156" xlink:href="#DejaVuSans-39"/>
       <use x="159.033203" xlink:href="#DejaVuSans-30"/>
      </g>
     </g>
    </g>
    <g id="xtick_2">
     <g id="line2d_3">
      <path clip-path="url(#p88e226ef09)" d="M 115.639234 275.905354 
L 115.639234 4.274646 
" style="fill:none;opacity:0.1;stroke:#000000;stroke-linecap:square;stroke-width:0.5;"/>
     </g>
     <g id="line2d_4">
      <g>
       <use style="stroke:#000000;stroke-width:0.8;" x="115.639234" xlink:href="#m0ab23799aa" y="275.905354"/>
      </g>
     </g>
     <g id="text_2">
      <!-- 1.95 -->
      <defs>
       <path d="M 10.796875 72.90625 
L 49.515625 72.90625 
L 49.515625 64.59375 
L 19.828125 64.59375 
L 19.828125 46.734375 
Q 21.96875 47.46875 24.109375 47.828125 
Q 26.265625 48.1875 28.421875 48.1875 
Q 40.625 48.1875 47.75 41.5 
Q 54.890625 34.8125 54.890625 23.390625 
Q 54.890625 11.625 47.5625 5.09375 
Q 40.234375 -1.421875 26.90625 -1.421875 
Q 22.3125 -1.421875 17.546875 -0.640625 
Q 12.796875 0.140625 7.71875 1.703125 
L 7.71875 11.625 
Q 12.109375 9.234375 16.796875 8.0625 
Q 21.484375 6.890625 26.703125 6.890625 
Q 35.15625 6.890625 40.078125 11.328125 
Q 45.015625 15.765625 45.015625 23.390625 
Q 45.015625 31 40.078125 35.4375 
Q 35.15625 39.890625 26.703125 39.890625 
Q 22.75 39.890625 18.8125 39.015625 
Q 14.890625 38.140625 10.796875 36.28125 
z
" id="DejaVuSans-35"/>
      </defs>
      <g transform="translate(106.732984 285.484104)scale(0.08 -0.08)">
       <use xlink:href="#DejaVuSans-31"/>
       <use x="63.623047" xlink:href="#DejaVuSans-2e"/>
       <use x="95.410156" xlink:href="#DejaVuSans-39"/>
       <use x="159.033203" xlink:href="#DejaVuSans-35"/>
      </g>
     </g>
    </g>
    <g id="xtick_3">
     <g id="line2d_5">
      <path clip-path="url(#p88e226ef09)" d="M 204.406539 275.905354 
L 204.406539 4.274646 
" style="fill:none;opacity:0.1;stroke:#000000;stroke-linecap:square;stroke-width:0.5;"/>
     </g>
     <g id="line2d_6">
      <g>
       <use style="stroke:#000000;stroke-width:0.8;" x="204.406539" xlink:href="#m0ab23799aa" y="275.905354"/>
      </g>
     </g>
     <g id="text_3">
      <!-- 2.00 -->
      <defs>
       <path d="M 19.1875 8.296875 
L 53.609375 8.296875 
L 53.609375 0 
L 7.328125 0 
L 7.328125 8.296875 
Q 12.9375 14.109375 22.625 23.890625 
Q 32.328125 33.6875 34.8125 36.53125 
Q 39.546875 41.84375 41.421875 45.53125 
Q 43.3125 49.21875 43.3125 52.78125 
Q 43.3125 58.59375 39.234375 62.25 
Q 35.15625 65.921875 28.609375 65.921875 
Q 23.96875 65.921875 18.8125 64.3125 
Q 13.671875 62.703125 7.8125 59.421875 
L 7.8125 69.390625 
Q 13.765625 71.78125 18.9375 73 
Q 24.125 74.21875 28.421875 74.21875 
Q 39.75 74.21875 46.484375 68.546875 
Q 53.21875 62.890625 53.21875 53.421875 
Q 53.21875 48.921875 51.53125 44.890625 
Q 49.859375 40.875 45.40625 35.40625 
Q 44.1875 33.984375 37.640625 27.21875 
Q 31.109375 20.453125 19.1875 8.296875 
z
" id="DejaVuSans-32"/>
      </defs>
      <g transform="translate(195.500289 285.484104)scale(0.08 -0.08)">
       <use xlink:href="#DejaVuSans-32"/>
       <use x="63.623047" xlink:href="#DejaVuSans-2e"/>
       <use x="95.410156" xlink:href="#DejaVuSans-30"/>
       <use x="159.033203" xlink:href="#DejaVuSans-30"/>
      </g>
     </g>
    </g>
    <g id="xtick_4">
     <g id="line2d_7">
      <path clip-path="url(#p88e226ef09)" d="M 293.173844 275.905354 
L 293.173844 4.274646 
" style="fill:none;opacity:0.1;stroke:#000000;stroke-linecap:square;stroke-width:0.5;"/>
     </g>
     <g id="line2d_8">
      <g>
       <use style="stroke:#000000;stroke-width:0.8;" x="293.173844" xlink:href="#m0ab23799aa" y="275.905354"/>
      </g>
     </g>
     <g id="text_4">
      <!-- 2.05 -->
      <g transform="translate(284.267594 285.484104)scale(0.08 -0.08)">
       <use xlink:href="#DejaVuSans-32"/>
       <use x="63.623047" xlink:href="#DejaVuSans-2e"/>
       <use x="95.410156" xlink:href="#DejaVuSans-30"/>
       <use x="159.033203" xlink:href="#DejaVuSans-35"/>
      </g>
     </g>
    </g>
    <g id="xtick_5">
     <g id="line2d_9">
      <path clip-path="url(#p88e226ef09)" d="M 381.941148 275.905354 
L 381.941148 4.274646 
" style="fill:none;opacity:0.1;stroke:#000000;stroke-linecap:square;stroke-width:0.5;"/>
     </g>
     <g id="line2d_10">
      <g>
       <use style="stroke:#000000;stroke-width:0.8;" x="381.941148" xlink:href="#m0ab23799aa" y="275.905354"/>
      </g>
     </g>
     <g id="text_5">
      <!-- 2.10 -->
      <g transform="translate(373.034898 285.484104)scale(0.08 -0.08)">
       <use xlink:href="#DejaVuSans-32"/>
       <use x="63.623047" xlink:href="#DejaVuSans-2e"/>
       <use x="95.410156" xlink:href="#DejaVuSans-31"/>
       <use x="159.033203" xlink:href="#DejaVuSans-30"/>
      </g>
     </g>
    </g>
   </g>
   <g id="matplotlib.axis_2">
    <g id="ytick_1">
     <g id="line2d_11">
      <path clip-path="url(#p88e226ef09)" d="M 15.154646 275.905354 
L 429.165354 275.905354 
" style="fill:none;opacity:0.1;stroke:#000000;stroke-linecap:square;stroke-width:0.5;"/>
     </g>
     <g id="line2d_12">
      <defs>
       <path d="M 0 0 
L 3.5 0 
" id="m51147f3e42" style="stroke:#000000;stroke-width:0.8;"/>
      </defs>
      <g>
       <use style="stroke:#000000;stroke-width:0.8;" x="15.154646" xlink:href="#m51147f3e42" y="275.905354"/>
      </g>
     </g>
     <g id="text_6">
      <!-- 0 -->
      <g transform="translate(6.564646 278.944729)scale(0.08 -0.08)">
       <use xlink:href="#DejaVuSans-30"/>
      </g>
     </g>
    </g>
    <g id="ytick_2">
     <g id="line2d_13">
      <path clip-path="url(#p88e226ef09)" d="M 15.154646 185.361785 
L 429.165354 185.361785 
" style="fill:none;opacity:0.1;stroke:#000000;stroke-linecap:square;stroke-width:0.5;"/>
     </g>
     <g id="line2d_14">
      <g>
       <use style="stroke:#000000;stroke-width:0.8;" x="15.154646" xlink:href="#m51147f3e42" y="185.361785"/>
      </g>
     </g>
     <g id="text_7">
      <!-- 25 -->
      <g transform="translate(1.474646 188.40116)scale(0.08 -0.08)">
       <use xlink:href="#DejaVuSans-32"/>
       <use x="63.623047" xlink:href="#DejaVuSans-35"/>
      </g>
     </g>
    </g>
    <g id="ytick_3">
     <g id="line2d_15">
      <path clip-path="url(#p88e226ef09)" d="M 15.154646 94.818215 
L 429.165354 94.818215 
" style="fill:none;opacity:0.1;stroke:#000000;stroke-linecap:square;stroke-width:0.5;"/>
     </g>
     <g id="line2d_16">
      <g>
       <use style="stroke:#000000;stroke-width:0.8;" x="15.154646" xlink:href="#m51147f3e42" y="94.818215"/>
      </g>
     </g>
     <g id="text_8">
      <!-- 50 -->
      <g transform="translate(1.474646 97.85759)scale(0.08 -0.08)">
       <use xlink:href="#DejaVuSans-35"/>
       <use x="63.623047" xlink:href="#DejaVuSans-30"/>
      </g>
     </g>
    </g>
    <g id="ytick_4">
     <g id="line2d_17">
      <path clip-path="url(#p88e226ef09)" d="M 15.154646 4.274646 
L 429.165354 4.274646 
" style="fill:none;opacity:0.1;stroke:#000000;stroke-linecap:square;stroke-width:0.5;"/>
     </g>
     <g id="line2d_18">
      <g>
       <use style="stroke:#000000;stroke-width:0.8;" x="15.154646" xlink:href="#m51147f3e42" y="4.274646"/>
      </g>
     </g>
     <g id="text_9">
      <!-- 75 -->
      <defs>
       <path d="M 8.203125 72.90625 
L 55.078125 72.90625 
L 55.078125 68.703125 
L 28.609375 0 
L 18.3125 0 
L 43.21875 64.59375 
L 8.203125 64.59375 
z
" id="DejaVuSans-37"/>
      </defs>
      <g transform="translate(1.474646 7.314021)scale(0.08 -0.08)">
       <use xlink:href="#DejaVuSans-37"/>
       <use x="63.623047" xlink:href="#DejaVuSans-35"/>
      </g>
     </g>
    </g>
   </g>
   <g id="patch_3">
    <path clip-path="url(#p88e226ef09)" d="M 26.87193 265.040126 
L 26.87193 275.905354 
L 35.74866 275.905354 
L 35.74866 265.040126 
L 26.87193 265.040126 
" style="fill:#009afa;stroke:#000000;stroke-linejoin:miter;"/>
   </g>
   <g id="patch_4">
    <path clip-path="url(#p88e226ef09)" d="M 35.74866 268.661869 
L 35.74866 275.905354 
L 44.625391 275.905354 
L 44.625391 268.661869 
L 35.74866 268.661869 
" style="fill:#009afa;stroke:#000000;stroke-linejoin:miter;"/>
   </g>
   <g id="patch_5">
    <path clip-path="url(#p88e226ef09)" d="M 44.625391 275.905354 
L 44.625391 275.905354 
L 53.502121 275.905354 
L 53.502121 275.905354 
L 44.625391 275.905354 
" style="fill:#009afa;stroke:#000000;stroke-linejoin:miter;"/>
   </g>
   <g id="patch_6">
    <path clip-path="url(#p88e226ef09)" d="M 53.502121 265.040126 
L 53.502121 275.905354 
L 62.378852 275.905354 
L 62.378852 265.040126 
L 53.502121 265.040126 
" style="fill:#009afa;stroke:#000000;stroke-linejoin:miter;"/>
   </g>
   <g id="patch_7">
    <path clip-path="url(#p88e226ef09)" d="M 62.378852 254.174898 
L 62.378852 275.905354 
L 71.255582 275.905354 
L 71.255582 254.174898 
L 62.378852 254.174898 
" style="fill:#009afa;stroke:#000000;stroke-linejoin:miter;"/>
   </g>
   <g id="patch_8">
    <path clip-path="url(#p88e226ef09)" d="M 71.255582 265.040126 
L 71.255582 275.905354 
L 80.132313 275.905354 
L 80.132313 265.040126 
L 71.255582 265.040126 
" style="fill:#009afa;stroke:#000000;stroke-linejoin:miter;"/>
   </g>
   <g id="patch_9">
    <path clip-path="url(#p88e226ef09)" d="M 80.132313 236.066184 
L 80.132313 275.905354 
L 89.009043 275.905354 
L 89.009043 236.066184 
L 80.132313 236.066184 
" style="fill:#009afa;stroke:#000000;stroke-linejoin:miter;"/>
   </g>
   <g id="patch_10">
    <path clip-path="url(#p88e226ef09)" d="M 89.009043 257.79664 
L 89.009043 275.905354 
L 97.885774 275.905354 
L 97.885774 257.79664 
L 89.009043 257.79664 
" style="fill:#009afa;stroke:#000000;stroke-linejoin:miter;"/>
   </g>
   <g id="patch_11">
    <path clip-path="url(#p88e226ef09)" d="M 97.885774 239.687927 
L 97.885774 275.905354 
L 106.762504 275.905354 
L 106.762504 239.687927 
L 97.885774 239.687927 
" style="fill:#009afa;stroke:#000000;stroke-linejoin:miter;"/>
   </g>
   <g id="patch_12">
    <path clip-path="url(#p88e226ef09)" d="M 106.762504 207.092241 
L 106.762504 275.905354 
L 115.639234 275.905354 
L 115.639234 207.092241 
L 106.762504 207.092241 
" style="fill:#009afa;stroke:#000000;stroke-linejoin:miter;"/>
   </g>
   <g id="patch_13">
    <path clip-path="url(#p88e226ef09)" d="M 115.639234 207.092241 
L 115.639234 275.905354 
L 124.515965 275.905354 
L 124.515965 207.092241 
L 115.639234 207.092241 
" style="fill:#009afa;stroke:#000000;stroke-linejoin:miter;"/>
   </g>
   <g id="patch_14">
    <path clip-path="url(#p88e226ef09)" d="M 124.515965 185.361785 
L 124.515965 275.905354 
L 133.392695 275.905354 
L 133.392695 185.361785 
L 124.515965 185.361785 
" style="fill:#009afa;stroke:#000000;stroke-linejoin:miter;"/>
   </g>
   <g id="patch_15">
    <path clip-path="url(#p88e226ef09)" d="M 133.392695 160.009585 
L 133.392695 275.905354 
L 142.269426 275.905354 
L 142.269426 160.009585 
L 133.392695 160.009585 
" style="fill:#009afa;stroke:#000000;stroke-linejoin:miter;"/>
   </g>
   <g id="patch_16">
    <path clip-path="url(#p88e226ef09)" d="M 142.269426 156.387843 
L 142.269426 275.905354 
L 151.146156 275.905354 
L 151.146156 156.387843 
L 142.269426 156.387843 
" style="fill:#009afa;stroke:#000000;stroke-linejoin:miter;"/>
   </g>
   <g id="patch_17">
    <path clip-path="url(#p88e226ef09)" d="M 151.146156 83.952987 
L 151.146156 275.905354 
L 160.022887 275.905354 
L 160.022887 83.952987 
L 151.146156 83.952987 
" style="fill:#009afa;stroke:#000000;stroke-linejoin:miter;"/>
   </g>
   <g id="patch_18">
    <path clip-path="url(#p88e226ef09)" d="M 160.022887 102.061701 
L 160.022887 275.905354 
L 168.899617 275.905354 
L 168.899617 102.061701 
L 160.022887 102.061701 
" style="fill:#009afa;stroke:#000000;stroke-linejoin:miter;"/>
   </g>
   <g id="patch_19">
    <path clip-path="url(#p88e226ef09)" d="M 168.899617 76.709501 
L 168.899617 275.905354 
L 177.776348 275.905354 
L 177.776348 76.709501 
L 168.899617 76.709501 
" style="fill:#009afa;stroke:#000000;stroke-linejoin:miter;"/>
   </g>
   <g id="patch_20">
    <path clip-path="url(#p88e226ef09)" d="M 177.776348 40.492073 
L 177.776348 275.905354 
L 186.653078 275.905354 
L 186.653078 40.492073 
L 177.776348 40.492073 
" style="fill:#009afa;stroke:#000000;stroke-linejoin:miter;"/>
   </g>
   <g id="patch_21">
    <path clip-path="url(#p88e226ef09)" d="M 186.653078 83.952987 
L 186.653078 275.905354 
L 195.529809 275.905354 
L 195.529809 83.952987 
L 186.653078 83.952987 
" style="fill:#009afa;stroke:#000000;stroke-linejoin:miter;"/>
   </g>
   <g id="patch_22">
    <path clip-path="url(#p88e226ef09)" d="M 195.529809 4.274646 
L 195.529809 275.905354 
L 204.406539 275.905354 
L 204.406539 4.274646 
L 195.529809 4.274646 
" style="fill:#009afa;stroke:#000000;stroke-linejoin:miter;"/>
   </g>
   <g id="patch_23">
    <path clip-path="url(#p88e226ef09)" d="M 204.406539 73.087759 
L 204.406539 275.905354 
L 213.28327 275.905354 
L 213.28327 73.087759 
L 204.406539 73.087759 
" style="fill:#009afa;stroke:#000000;stroke-linejoin:miter;"/>
   </g>
   <g id="patch_24">
    <path clip-path="url(#p88e226ef09)" d="M 213.28327 83.952987 
L 213.28327 275.905354 
L 222.16 275.905354 
L 222.16 83.952987 
L 213.28327 83.952987 
" style="fill:#009afa;stroke:#000000;stroke-linejoin:miter;"/>
   </g>
   <g id="patch_25">
    <path clip-path="url(#p88e226ef09)" d="M 222.16 36.870331 
L 222.16 275.905354 
L 231.03673 275.905354 
L 231.03673 36.870331 
L 222.16 36.870331 
" style="fill:#009afa;stroke:#000000;stroke-linejoin:miter;"/>
   </g>
   <g id="patch_26">
    <path clip-path="url(#p88e226ef09)" d="M 231.03673 69.466016 
L 231.03673 275.905354 
L 239.913461 275.905354 
L 239.913461 69.466016 
L 231.03673 69.466016 
" style="fill:#009afa;stroke:#000000;stroke-linejoin:miter;"/>
   </g>
   <g id="patch_27">
    <path clip-path="url(#p88e226ef09)" d="M 239.913461 127.4139 
L 239.913461 275.905354 
L 248.790191 275.905354 
L 248.790191 127.4139 
L 239.913461 127.4139 
" style="fill:#009afa;stroke:#000000;stroke-linejoin:miter;"/>
   </g>
   <g id="patch_28">
    <path clip-path="url(#p88e226ef09)" d="M 248.790191 109.305186 
L 248.790191 275.905354 
L 257.666922 275.905354 
L 257.666922 109.305186 
L 248.790191 109.305186 
" style="fill:#009afa;stroke:#000000;stroke-linejoin:miter;"/>
   </g>
   <g id="patch_29">
    <path clip-path="url(#p88e226ef09)" d="M 257.666922 149.144357 
L 257.666922 275.905354 
L 266.543652 275.905354 
L 266.543652 149.144357 
L 257.666922 149.144357 
" style="fill:#009afa;stroke:#000000;stroke-linejoin:miter;"/>
   </g>
   <g id="patch_30">
    <path clip-path="url(#p88e226ef09)" d="M 266.543652 188.983528 
L 266.543652 275.905354 
L 275.420383 275.905354 
L 275.420383 188.983528 
L 266.543652 188.983528 
" style="fill:#009afa;stroke:#000000;stroke-linejoin:miter;"/>
   </g>
   <g id="patch_31">
    <path clip-path="url(#p88e226ef09)" d="M 275.420383 170.874814 
L 275.420383 275.905354 
L 284.297113 275.905354 
L 284.297113 170.874814 
L 275.420383 170.874814 
" style="fill:#009afa;stroke:#000000;stroke-linejoin:miter;"/>
   </g>
   <g id="patch_32">
    <path clip-path="url(#p88e226ef09)" d="M 284.297113 188.983528 
L 284.297113 275.905354 
L 293.173844 275.905354 
L 293.173844 188.983528 
L 284.297113 188.983528 
" style="fill:#009afa;stroke:#000000;stroke-linejoin:miter;"/>
   </g>
   <g id="patch_33">
    <path clip-path="url(#p88e226ef09)" d="M 293.173844 210.713984 
L 293.173844 275.905354 
L 302.050574 275.905354 
L 302.050574 210.713984 
L 293.173844 210.713984 
" style="fill:#009afa;stroke:#000000;stroke-linejoin:miter;"/>
   </g>
   <g id="patch_34">
    <path clip-path="url(#p88e226ef09)" d="M 302.050574 250.553155 
L 302.050574 275.905354 
L 310.927305 275.905354 
L 310.927305 250.553155 
L 302.050574 250.553155 
" style="fill:#009afa;stroke:#000000;stroke-linejoin:miter;"/>
   </g>
   <g id="patch_35">
    <path clip-path="url(#p88e226ef09)" d="M 310.927305 246.931412 
L 310.927305 275.905354 
L 319.804035 275.905354 
L 319.804035 246.931412 
L 310.927305 246.931412 
" style="fill:#009afa;stroke:#000000;stroke-linejoin:miter;"/>
   </g>
   <g id="patch_36">
    <path clip-path="url(#p88e226ef09)" d="M 319.804035 261.418383 
L 319.804035 275.905354 
L 328.680766 275.905354 
L 328.680766 261.418383 
L 319.804035 261.418383 
" style="fill:#009afa;stroke:#000000;stroke-linejoin:miter;"/>
   </g>
   <g id="patch_37">
    <path clip-path="url(#p88e226ef09)" d="M 328.680766 265.040126 
L 328.680766 275.905354 
L 337.557496 275.905354 
L 337.557496 265.040126 
L 328.680766 265.040126 
" style="fill:#009afa;stroke:#000000;stroke-linejoin:miter;"/>
   </g>
   <g id="patch_38">
    <path clip-path="url(#p88e226ef09)" d="M 337.557496 261.418383 
L 337.557496 275.905354 
L 346.434226 275.905354 
L 346.434226 261.418383 
L 337.557496 261.418383 
" style="fill:#009afa;stroke:#000000;stroke-linejoin:miter;"/>
   </g>
   <g id="patch_39">
    <path clip-path="url(#p88e226ef09)" d="M 346.434226 272.283612 
L 346.434226 275.905354 
L 355.310957 275.905354 
L 355.310957 272.283612 
L 346.434226 272.283612 
" style="fill:#009afa;stroke:#000000;stroke-linejoin:miter;"/>
   </g>
   <g id="patch_40">
    <path clip-path="url(#p88e226ef09)" d="M 355.310957 268.661869 
L 355.310957 275.905354 
L 364.187687 275.905354 
L 364.187687 268.661869 
L 355.310957 268.661869 
" style="fill:#009afa;stroke:#000000;stroke-linejoin:miter;"/>
   </g>
   <g id="patch_41">
    <path clip-path="url(#p88e226ef09)" d="M 364.187687 272.283612 
L 364.187687 275.905354 
L 373.064418 275.905354 
L 373.064418 272.283612 
L 364.187687 272.283612 
" style="fill:#009afa;stroke:#000000;stroke-linejoin:miter;"/>
   </g>
   <g id="patch_42">
    <path clip-path="url(#p88e226ef09)" d="M 373.064418 275.905354 
L 373.064418 275.905354 
L 381.941148 275.905354 
L 381.941148 275.905354 
L 373.064418 275.905354 
" style="fill:#009afa;stroke:#000000;stroke-linejoin:miter;"/>
   </g>
   <g id="patch_43">
    <path clip-path="url(#p88e226ef09)" d="M 381.941148 275.905354 
L 381.941148 275.905354 
L 390.817879 275.905354 
L 390.817879 275.905354 
L 381.941148 275.905354 
" style="fill:#009afa;stroke:#000000;stroke-linejoin:miter;"/>
   </g>
   <g id="patch_44">
    <path clip-path="url(#p88e226ef09)" d="M 390.817879 275.905354 
L 390.817879 275.905354 
L 399.694609 275.905354 
L 399.694609 275.905354 
L 390.817879 275.905354 
" style="fill:#009afa;stroke:#000000;stroke-linejoin:miter;"/>
   </g>
   <g id="patch_45">
    <path clip-path="url(#p88e226ef09)" d="M 399.694609 275.905354 
L 399.694609 275.905354 
L 408.57134 275.905354 
L 408.57134 275.905354 
L 399.694609 275.905354 
" style="fill:#009afa;stroke:#000000;stroke-linejoin:miter;"/>
   </g>
   <g id="patch_46">
    <path clip-path="url(#p88e226ef09)" d="M 408.57134 272.283612 
L 408.57134 275.905354 
L 417.44807 275.905354 
L 417.44807 272.283612 
L 408.57134 272.283612 
" style="fill:#009afa;stroke:#000000;stroke-linejoin:miter;"/>
   </g>
   <g id="patch_47">
    <path d="M 15.154646 275.905354 
L 15.154646 4.274646 
" style="fill:none;stroke:#000000;stroke-linecap:square;stroke-linejoin:miter;stroke-width:0.8;"/>
   </g>
   <g id="patch_48">
    <path d="M 15.154646 275.905354 
L 429.165354 275.905354 
" style="fill:none;stroke:#000000;stroke-linecap:square;stroke-linejoin:miter;stroke-width:0.8;"/>
   </g>
   <g id="legend_1">
    <g id="patch_49">
     <path d="M 388.140354 22.417146 
L 423.565354 22.417146 
Q 425.165354 22.417146 425.165354 20.817146 
L 425.165354 9.874646 
Q 425.165354 8.274646 423.565354 8.274646 
L 388.140354 8.274646 
Q 386.540354 8.274646 386.540354 9.874646 
L 386.540354 20.817146 
Q 386.540354 22.417146 388.140354 22.417146 
z
" style="fill:#ffffff;opacity:0.8;stroke:#000000;stroke-linejoin:miter;"/>
    </g>
    <g id="patch_50">
     <path d="M 389.740354 17.553396 
L 405.740354 17.553396 
L 405.740354 11.953396 
L 389.740354 11.953396 
z
" style="fill:#009afa;stroke:#000000;stroke-linejoin:miter;"/>
    </g>
    <g id="text_10">
     <!-- y1 -->
     <defs>
      <path d="M 32.171875 -5.078125 
Q 28.375 -14.84375 24.75 -17.8125 
Q 21.140625 -20.796875 15.09375 -20.796875 
L 7.90625 -20.796875 
L 7.90625 -13.28125 
L 13.1875 -13.28125 
Q 16.890625 -13.28125 18.9375 -11.515625 
Q 21 -9.765625 23.484375 -3.21875 
L 25.09375 0.875 
L 2.984375 54.6875 
L 12.5 54.6875 
L 29.59375 11.921875 
L 46.6875 54.6875 
L 56.203125 54.6875 
z
" id="DejaVuSans-79"/>
     </defs>
     <g transform="translate(412.140354 17.553396)scale(0.08 -0.08)">
      <use xlink:href="#DejaVuSans-79"/>
      <use x="59.179688" xlink:href="#DejaVuSans-31"/>
     </g>
    </g>
   </g>
  </g>
 </g>
 <defs>
  <clipPath id="p88e226ef09">
   <rect height="271.630709" width="414.010709" x="15.154646" y="4.274646"/>
  </clipPath>
 </defs>
</svg>
