<?xml version="1.0" encoding="utf-8" standalone="no"?>
<!DOCTYPE svg PUBLIC "-//W3C//DTD SVG 1.1//EN"
  "http://www.w3.org/Graphics/SVG/1.1/DTD/svg11.dtd">
<!-- Created with matplotlib (http://matplotlib.org/) -->
<svg height="288pt" version="1.1" viewBox="0 0 432 288" width="432pt" xmlns="http://www.w3.org/2000/svg" xmlns:xlink="http://www.w3.org/1999/xlink">
 <defs>
  <style type="text/css">
*{stroke-linecap:butt;stroke-linejoin:round;}
  </style>
 </defs>
 <g id="figure_1">
  <g id="patch_1">
   <path d="M 0 288 
L 432 288 
L 432 0 
L 0 0 
z
" style="fill:#ffffff;"/>
  </g>
  <g id="axes_1">
   <g id="patch_2">
    <path d="M 17.574646 273.485354 
L 429.165354 273.485354 
L 429.165354 2.834646 
L 17.574646 2.834646 
z
" style="fill:#ffffff;"/>
   </g>
   <g id="matplotlib.axis_1">
    <g id="xtick_1">
     <g id="line2d_1">
      <path clip-path="url(#p08f1a9227e)" d="M 46.873127 273.485354 
L 46.873127 2.834646 
" style="fill:none;stroke:#000000;stroke-dasharray:0.8,1.32;stroke-dashoffset:0;stroke-width:0.8;"/>
     </g>
     <g id="line2d_2">
      <defs>
       <path d="M 0 0 
L 0 3.5 
" id="md18f49ea3f" style="stroke:#000000;stroke-width:0.8;"/>
      </defs>
      <g>
       <use style="stroke:#000000;stroke-width:0.8;" x="46.873127" xlink:href="#md18f49ea3f" y="273.485354"/>
      </g>
     </g>
     <g id="text_1">
      <!-- 1.9 -->
      <defs>
       <path d="M 12.40625 8.296875 
L 28.515625 8.296875 
L 28.515625 63.921875 
L 10.984375 60.40625 
L 10.984375 69.390625 
L 28.421875 72.90625 
L 38.28125 72.90625 
L 38.28125 8.296875 
L 54.390625 8.296875 
L 54.390625 0 
L 12.40625 0 
z
" id="DejaVuSans-31"/>
       <path d="M 10.6875 12.40625 
L 21 12.40625 
L 21 0 
L 10.6875 0 
z
" id="DejaVuSans-2e"/>
       <path d="M 10.984375 1.515625 
L 10.984375 10.5 
Q 14.703125 8.734375 18.5 7.8125 
Q 22.3125 6.890625 25.984375 6.890625 
Q 35.75 6.890625 40.890625 13.453125 
Q 46.046875 20.015625 46.78125 33.40625 
Q 43.953125 29.203125 39.59375 26.953125 
Q 35.25 24.703125 29.984375 24.703125 
Q 19.046875 24.703125 12.671875 31.3125 
Q 6.296875 37.9375 6.296875 49.421875 
Q 6.296875 60.640625 12.9375 67.421875 
Q 19.578125 74.21875 30.609375 74.21875 
Q 43.265625 74.21875 49.921875 64.515625 
Q 56.59375 54.828125 56.59375 36.375 
Q 56.59375 19.140625 48.40625 8.859375 
Q 40.234375 -1.421875 26.421875 -1.421875 
Q 22.703125 -1.421875 18.890625 -0.6875 
Q 15.09375 0.046875 10.984375 1.515625 
z
M 30.609375 32.421875 
Q 37.25 32.421875 41.125 36.953125 
Q 45.015625 41.5 45.015625 49.421875 
Q 45.015625 57.28125 41.125 61.84375 
Q 37.25 66.40625 30.609375 66.40625 
Q 23.96875 66.40625 20.09375 61.84375 
Q 16.21875 57.28125 16.21875 49.421875 
Q 16.21875 41.5 20.09375 36.953125 
Q 23.96875 32.421875 30.609375 32.421875 
z
" id="DejaVuSans-39"/>
      </defs>
      <g transform="translate(40.511877 286.564104)scale(0.08 -0.08)">
       <use xlink:href="#DejaVuSans-31"/>
       <use x="63.623047" xlink:href="#DejaVuSans-2e"/>
       <use x="95.410156" xlink:href="#DejaVuSans-39"/>
      </g>
     </g>
    </g>
    <g id="xtick_2">
     <g id="line2d_3">
      <path clip-path="url(#p08f1a9227e)" d="M 223.37 273.485354 
L 223.37 2.834646 
" style="fill:none;stroke:#000000;stroke-dasharray:0.8,1.32;stroke-dashoffset:0;stroke-width:0.8;"/>
     </g>
     <g id="line2d_4">
      <g>
       <use style="stroke:#000000;stroke-width:0.8;" x="223.37" xlink:href="#md18f49ea3f" y="273.485354"/>
      </g>
     </g>
     <g id="text_2">
      <!-- 2.0 -->
      <defs>
       <path d="M 19.1875 8.296875 
L 53.609375 8.296875 
L 53.609375 0 
L 7.328125 0 
L 7.328125 8.296875 
Q 12.9375 14.109375 22.625 23.890625 
Q 32.328125 33.6875 34.8125 36.53125 
Q 39.546875 41.84375 41.421875 45.53125 
Q 43.3125 49.21875 43.3125 52.78125 
Q 43.3125 58.59375 39.234375 62.25 
Q 35.15625 65.921875 28.609375 65.921875 
Q 23.96875 65.921875 18.8125 64.3125 
Q 13.671875 62.703125 7.8125 59.421875 
L 7.8125 69.390625 
Q 13.765625 71.78125 18.9375 73 
Q 24.125 74.21875 28.421875 74.21875 
Q 39.75 74.21875 46.484375 68.546875 
Q 53.21875 62.890625 53.21875 53.421875 
Q 53.21875 48.921875 51.53125 44.890625 
Q 49.859375 40.875 45.40625 35.40625 
Q 44.1875 33.984375 37.640625 27.21875 
Q 31.109375 20.453125 19.1875 8.296875 
z
" id="DejaVuSans-32"/>
       <path d="M 31.78125 66.40625 
Q 24.171875 66.40625 20.328125 58.90625 
Q 16.5 51.421875 16.5 36.375 
Q 16.5 21.390625 20.328125 13.890625 
Q 24.171875 6.390625 31.78125 6.390625 
Q 39.453125 6.390625 43.28125 13.890625 
Q 47.125 21.390625 47.125 36.375 
Q 47.125 51.421875 43.28125 58.90625 
Q 39.453125 66.40625 31.78125 66.40625 
z
M 31.78125 74.21875 
Q 44.046875 74.21875 50.515625 64.515625 
Q 56.984375 54.828125 56.984375 36.375 
Q 56.984375 17.96875 50.515625 8.265625 
Q 44.046875 -1.421875 31.78125 -1.421875 
Q 19.53125 -1.421875 13.0625 8.265625 
Q 6.59375 17.96875 6.59375 36.375 
Q 6.59375 54.828125 13.0625 64.515625 
Q 19.53125 74.21875 31.78125 74.21875 
z
" id="DejaVuSans-30"/>
      </defs>
      <g transform="translate(217.00875 286.564104)scale(0.08 -0.08)">
       <use xlink:href="#DejaVuSans-32"/>
       <use x="63.623047" xlink:href="#DejaVuSans-2e"/>
       <use x="95.410156" xlink:href="#DejaVuSans-30"/>
      </g>
     </g>
    </g>
    <g id="xtick_3">
     <g id="line2d_5">
      <path clip-path="url(#p08f1a9227e)" d="M 399.866873 273.485354 
L 399.866873 2.834646 
" style="fill:none;stroke:#000000;stroke-dasharray:0.8,1.32;stroke-dashoffset:0;stroke-width:0.8;"/>
     </g>
     <g id="line2d_6">
      <g>
       <use style="stroke:#000000;stroke-width:0.8;" x="399.866873" xlink:href="#md18f49ea3f" y="273.485354"/>
      </g>
     </g>
     <g id="text_3">
      <!-- 2.1 -->
      <g transform="translate(393.505623 286.564104)scale(0.08 -0.08)">
       <use xlink:href="#DejaVuSans-32"/>
       <use x="63.623047" xlink:href="#DejaVuSans-2e"/>
       <use x="95.410156" xlink:href="#DejaVuSans-31"/>
      </g>
     </g>
    </g>
   </g>
   <g id="matplotlib.axis_2">
    <g id="ytick_1">
     <g id="line2d_7">
      <path clip-path="url(#p08f1a9227e)" d="M 17.574646 273.485354 
L 429.165354 273.485354 
" style="fill:none;stroke:#000000;stroke-dasharray:0.8,1.32;stroke-dashoffset:0;stroke-width:0.8;"/>
     </g>
     <g id="line2d_8">
      <defs>
       <path d="M 0 0 
L -3.5 0 
" id="m36a6bc0563" style="stroke:#000000;stroke-width:0.8;"/>
      </defs>
      <g>
       <use style="stroke:#000000;stroke-width:0.8;" x="17.574646" xlink:href="#m36a6bc0563" y="273.485354"/>
      </g>
     </g>
     <g id="text_4">
      <!-- 0 -->
      <g transform="translate(5.484646 276.524729)scale(0.08 -0.08)">
       <use xlink:href="#DejaVuSans-30"/>
      </g>
     </g>
    </g>
    <g id="ytick_2">
     <g id="line2d_9">
      <path clip-path="url(#p08f1a9227e)" d="M 17.574646 187.564494 
L 429.165354 187.564494 
" style="fill:none;stroke:#000000;stroke-dasharray:0.8,1.32;stroke-dashoffset:0;stroke-width:0.8;"/>
     </g>
     <g id="line2d_10">
      <g>
       <use style="stroke:#000000;stroke-width:0.8;" x="17.574646" xlink:href="#m36a6bc0563" y="187.564494"/>
      </g>
     </g>
     <g id="text_5">
      <!-- 20 -->
      <g transform="translate(0.394646 190.603869)scale(0.08 -0.08)">
       <use xlink:href="#DejaVuSans-32"/>
       <use x="63.623047" xlink:href="#DejaVuSans-30"/>
      </g>
     </g>
    </g>
    <g id="ytick_3">
     <g id="line2d_11">
      <path clip-path="url(#p08f1a9227e)" d="M 17.574646 101.643635 
L 429.165354 101.643635 
" style="fill:none;stroke:#000000;stroke-dasharray:0.8,1.32;stroke-dashoffset:0;stroke-width:0.8;"/>
     </g>
     <g id="line2d_12">
      <g>
       <use style="stroke:#000000;stroke-width:0.8;" x="17.574646" xlink:href="#m36a6bc0563" y="101.643635"/>
      </g>
     </g>
     <g id="text_6">
      <!-- 40 -->
      <defs>
       <path d="M 37.796875 64.3125 
L 12.890625 25.390625 
L 37.796875 25.390625 
z
M 35.203125 72.90625 
L 47.609375 72.90625 
L 47.609375 25.390625 
L 58.015625 25.390625 
L 58.015625 17.1875 
L 47.609375 17.1875 
L 47.609375 0 
L 37.796875 0 
L 37.796875 17.1875 
L 4.890625 17.1875 
L 4.890625 26.703125 
z
" id="DejaVuSans-34"/>
      </defs>
      <g transform="translate(0.394646 104.68301)scale(0.08 -0.08)">
       <use xlink:href="#DejaVuSans-34"/>
       <use x="63.623047" xlink:href="#DejaVuSans-30"/>
      </g>
     </g>
    </g>
    <g id="ytick_4">
     <g id="line2d_13">
      <path clip-path="url(#p08f1a9227e)" d="M 17.574646 15.722775 
L 429.165354 15.722775 
" style="fill:none;stroke:#000000;stroke-dasharray:0.8,1.32;stroke-dashoffset:0;stroke-width:0.8;"/>
     </g>
     <g id="line2d_14">
      <g>
       <use style="stroke:#000000;stroke-width:0.8;" x="17.574646" xlink:href="#m36a6bc0563" y="15.722775"/>
      </g>
     </g>
     <g id="text_7">
      <!-- 60 -->
      <defs>
       <path d="M 33.015625 40.375 
Q 26.375 40.375 22.484375 35.828125 
Q 18.609375 31.296875 18.609375 23.390625 
Q 18.609375 15.53125 22.484375 10.953125 
Q 26.375 6.390625 33.015625 6.390625 
Q 39.65625 6.390625 43.53125 10.953125 
Q 47.40625 15.53125 47.40625 23.390625 
Q 47.40625 31.296875 43.53125 35.828125 
Q 39.65625 40.375 33.015625 40.375 
z
M 52.59375 71.296875 
L 52.59375 62.3125 
Q 48.875 64.0625 45.09375 64.984375 
Q 41.3125 65.921875 37.59375 65.921875 
Q 27.828125 65.921875 22.671875 59.328125 
Q 17.53125 52.734375 16.796875 39.40625 
Q 19.671875 43.65625 24.015625 45.921875 
Q 28.375 48.1875 33.59375 48.1875 
Q 44.578125 48.1875 50.953125 41.515625 
Q 57.328125 34.859375 57.328125 23.390625 
Q 57.328125 12.15625 50.6875 5.359375 
Q 44.046875 -1.421875 33.015625 -1.421875 
Q 20.359375 -1.421875 13.671875 8.265625 
Q 6.984375 17.96875 6.984375 36.375 
Q 6.984375 53.65625 15.1875 63.9375 
Q 23.390625 74.21875 37.203125 74.21875 
Q 40.921875 74.21875 44.703125 73.484375 
Q 48.484375 72.75 52.59375 71.296875 
z
" id="DejaVuSans-36"/>
      </defs>
      <g transform="translate(0.394646 18.76215)scale(0.08 -0.08)">
       <use xlink:href="#DejaVuSans-36"/>
       <use x="63.623047" xlink:href="#DejaVuSans-30"/>
      </g>
     </g>
    </g>
   </g>
   <g id="patch_3">
    <path clip-path="url(#p08f1a9227e)" d="M 29.223439 269.189311 
L 29.223439 273.485354 
L 38.048283 273.485354 
L 38.048283 269.189311 
L 29.223439 269.189311 
" style="fill:#009afa;stroke:#000000;stroke-linejoin:miter;"/>
   </g>
   <g id="patch_4">
    <path clip-path="url(#p08f1a9227e)" d="M 38.048283 273.485354 
L 38.048283 273.485354 
L 46.873127 273.485354 
L 46.873127 273.485354 
L 38.048283 273.485354 
" style="fill:#009afa;stroke:#000000;stroke-linejoin:miter;"/>
   </g>
   <g id="patch_5">
    <path clip-path="url(#p08f1a9227e)" d="M 46.873127 273.485354 
L 46.873127 273.485354 
L 55.69797 273.485354 
L 55.69797 273.485354 
L 46.873127 273.485354 
" style="fill:#009afa;stroke:#000000;stroke-linejoin:miter;"/>
   </g>
   <g id="patch_6">
    <path clip-path="url(#p08f1a9227e)" d="M 55.69797 269.189311 
L 55.69797 273.485354 
L 64.522814 273.485354 
L 64.522814 269.189311 
L 55.69797 269.189311 
" style="fill:#009afa;stroke:#000000;stroke-linejoin:miter;"/>
   </g>
   <g id="patch_7">
    <path clip-path="url(#p08f1a9227e)" d="M 64.522814 260.597225 
L 64.522814 273.485354 
L 73.347658 273.485354 
L 73.347658 260.597225 
L 64.522814 260.597225 
" style="fill:#009afa;stroke:#000000;stroke-linejoin:miter;"/>
   </g>
   <g id="patch_8">
    <path clip-path="url(#p08f1a9227e)" d="M 73.347658 247.709096 
L 73.347658 273.485354 
L 82.172501 273.485354 
L 82.172501 247.709096 
L 73.347658 247.709096 
" style="fill:#009afa;stroke:#000000;stroke-linejoin:miter;"/>
   </g>
   <g id="patch_9">
    <path clip-path="url(#p08f1a9227e)" d="M 82.172501 252.005139 
L 82.172501 273.485354 
L 90.997345 273.485354 
L 90.997345 252.005139 
L 82.172501 252.005139 
" style="fill:#009afa;stroke:#000000;stroke-linejoin:miter;"/>
   </g>
   <g id="patch_10">
    <path clip-path="url(#p08f1a9227e)" d="M 90.997345 256.301182 
L 90.997345 273.485354 
L 99.822189 273.485354 
L 99.822189 256.301182 
L 90.997345 256.301182 
" style="fill:#009afa;stroke:#000000;stroke-linejoin:miter;"/>
   </g>
   <g id="patch_11">
    <path clip-path="url(#p08f1a9227e)" d="M 99.822189 243.413053 
L 99.822189 273.485354 
L 108.647032 273.485354 
L 108.647032 243.413053 
L 99.822189 243.413053 
" style="fill:#009afa;stroke:#000000;stroke-linejoin:miter;"/>
   </g>
   <g id="patch_12">
    <path clip-path="url(#p08f1a9227e)" d="M 108.647032 247.709096 
L 108.647032 273.485354 
L 117.471876 273.485354 
L 117.471876 247.709096 
L 108.647032 247.709096 
" style="fill:#009afa;stroke:#000000;stroke-linejoin:miter;"/>
   </g>
   <g id="patch_13">
    <path clip-path="url(#p08f1a9227e)" d="M 117.471876 221.932838 
L 117.471876 273.485354 
L 126.29672 273.485354 
L 126.29672 221.932838 
L 117.471876 221.932838 
" style="fill:#009afa;stroke:#000000;stroke-linejoin:miter;"/>
   </g>
   <g id="patch_14">
    <path clip-path="url(#p08f1a9227e)" d="M 126.29672 213.340752 
L 126.29672 273.485354 
L 135.121563 273.485354 
L 135.121563 213.340752 
L 126.29672 213.340752 
" style="fill:#009afa;stroke:#000000;stroke-linejoin:miter;"/>
   </g>
   <g id="patch_15">
    <path clip-path="url(#p08f1a9227e)" d="M 135.121563 183.268451 
L 135.121563 273.485354 
L 143.946407 273.485354 
L 143.946407 183.268451 
L 135.121563 183.268451 
" style="fill:#009afa;stroke:#000000;stroke-linejoin:miter;"/>
   </g>
   <g id="patch_16">
    <path clip-path="url(#p08f1a9227e)" d="M 143.946407 136.011979 
L 143.946407 273.485354 
L 152.771251 273.485354 
L 152.771251 136.011979 
L 143.946407 136.011979 
" style="fill:#009afa;stroke:#000000;stroke-linejoin:miter;"/>
   </g>
   <g id="patch_17">
    <path clip-path="url(#p08f1a9227e)" d="M 152.771251 136.011979 
L 152.771251 273.485354 
L 161.596094 273.485354 
L 161.596094 136.011979 
L 152.771251 136.011979 
" style="fill:#009afa;stroke:#000000;stroke-linejoin:miter;"/>
   </g>
   <g id="patch_18">
    <path clip-path="url(#p08f1a9227e)" d="M 161.596094 105.939678 
L 161.596094 273.485354 
L 170.420938 273.485354 
L 170.420938 105.939678 
L 161.596094 105.939678 
" style="fill:#009afa;stroke:#000000;stroke-linejoin:miter;"/>
   </g>
   <g id="patch_19">
    <path clip-path="url(#p08f1a9227e)" d="M 170.420938 148.900107 
L 170.420938 273.485354 
L 179.245782 273.485354 
L 179.245782 148.900107 
L 170.420938 148.900107 
" style="fill:#009afa;stroke:#000000;stroke-linejoin:miter;"/>
   </g>
   <g id="patch_20">
    <path clip-path="url(#p08f1a9227e)" d="M 179.245782 58.683205 
L 179.245782 273.485354 
L 188.070625 273.485354 
L 188.070625 58.683205 
L 179.245782 58.683205 
" style="fill:#009afa;stroke:#000000;stroke-linejoin:miter;"/>
   </g>
   <g id="patch_21">
    <path clip-path="url(#p08f1a9227e)" d="M 188.070625 71.571334 
L 188.070625 273.485354 
L 196.895469 273.485354 
L 196.895469 71.571334 
L 188.070625 71.571334 
" style="fill:#009afa;stroke:#000000;stroke-linejoin:miter;"/>
   </g>
   <g id="patch_22">
    <path clip-path="url(#p08f1a9227e)" d="M 196.895469 20.018818 
L 196.895469 273.485354 
L 205.720313 273.485354 
L 205.720313 20.018818 
L 196.895469 20.018818 
" style="fill:#009afa;stroke:#000000;stroke-linejoin:miter;"/>
   </g>
   <g id="patch_23">
    <path clip-path="url(#p08f1a9227e)" d="M 205.720313 11.426732 
L 205.720313 273.485354 
L 214.545156 273.485354 
L 214.545156 11.426732 
L 205.720313 11.426732 
" style="fill:#009afa;stroke:#000000;stroke-linejoin:miter;"/>
   </g>
   <g id="patch_24">
    <path clip-path="url(#p08f1a9227e)" d="M 214.545156 2.834646 
L 214.545156 273.485354 
L 223.37 273.485354 
L 223.37 2.834646 
L 214.545156 2.834646 
" style="fill:#009afa;stroke:#000000;stroke-linejoin:miter;"/>
   </g>
   <g id="patch_25">
    <path clip-path="url(#p08f1a9227e)" d="M 223.37 11.426732 
L 223.37 273.485354 
L 232.194844 273.485354 
L 232.194844 11.426732 
L 223.37 11.426732 
" style="fill:#009afa;stroke:#000000;stroke-linejoin:miter;"/>
   </g>
   <g id="patch_26">
    <path clip-path="url(#p08f1a9227e)" d="M 232.194844 7.130689 
L 232.194844 273.485354 
L 241.019687 273.485354 
L 241.019687 7.130689 
L 232.194844 7.130689 
" style="fill:#009afa;stroke:#000000;stroke-linejoin:miter;"/>
   </g>
   <g id="patch_27">
    <path clip-path="url(#p08f1a9227e)" d="M 241.019687 71.571334 
L 241.019687 273.485354 
L 249.844531 273.485354 
L 249.844531 71.571334 
L 241.019687 71.571334 
" style="fill:#009afa;stroke:#000000;stroke-linejoin:miter;"/>
   </g>
   <g id="patch_28">
    <path clip-path="url(#p08f1a9227e)" d="M 249.844531 28.610904 
L 249.844531 273.485354 
L 258.669375 273.485354 
L 258.669375 28.610904 
L 249.844531 28.610904 
" style="fill:#009afa;stroke:#000000;stroke-linejoin:miter;"/>
   </g>
   <g id="patch_29">
    <path clip-path="url(#p08f1a9227e)" d="M 258.669375 58.683205 
L 258.669375 273.485354 
L 267.494218 273.485354 
L 267.494218 58.683205 
L 258.669375 58.683205 
" style="fill:#009afa;stroke:#000000;stroke-linejoin:miter;"/>
   </g>
   <g id="patch_30">
    <path clip-path="url(#p08f1a9227e)" d="M 267.494218 80.16342 
L 267.494218 273.485354 
L 276.319062 273.485354 
L 276.319062 80.16342 
L 267.494218 80.16342 
" style="fill:#009afa;stroke:#000000;stroke-linejoin:miter;"/>
   </g>
   <g id="patch_31">
    <path clip-path="url(#p08f1a9227e)" d="M 276.319062 114.531764 
L 276.319062 273.485354 
L 285.143906 273.485354 
L 285.143906 114.531764 
L 276.319062 114.531764 
" style="fill:#009afa;stroke:#000000;stroke-linejoin:miter;"/>
   </g>
   <g id="patch_32">
    <path clip-path="url(#p08f1a9227e)" d="M 285.143906 105.939678 
L 285.143906 273.485354 
L 293.968749 273.485354 
L 293.968749 105.939678 
L 285.143906 105.939678 
" style="fill:#009afa;stroke:#000000;stroke-linejoin:miter;"/>
   </g>
   <g id="patch_33">
    <path clip-path="url(#p08f1a9227e)" d="M 293.968749 136.011979 
L 293.968749 273.485354 
L 302.793593 273.485354 
L 302.793593 136.011979 
L 293.968749 136.011979 
" style="fill:#009afa;stroke:#000000;stroke-linejoin:miter;"/>
   </g>
   <g id="patch_34">
    <path clip-path="url(#p08f1a9227e)" d="M 302.793593 187.564494 
L 302.793593 273.485354 
L 311.618437 273.485354 
L 311.618437 187.564494 
L 302.793593 187.564494 
" style="fill:#009afa;stroke:#000000;stroke-linejoin:miter;"/>
   </g>
   <g id="patch_35">
    <path clip-path="url(#p08f1a9227e)" d="M 311.618437 187.564494 
L 311.618437 273.485354 
L 320.44328 273.485354 
L 320.44328 187.564494 
L 311.618437 187.564494 
" style="fill:#009afa;stroke:#000000;stroke-linejoin:miter;"/>
   </g>
   <g id="patch_36">
    <path clip-path="url(#p08f1a9227e)" d="M 320.44328 213.340752 
L 320.44328 273.485354 
L 329.268124 273.485354 
L 329.268124 213.340752 
L 320.44328 213.340752 
" style="fill:#009afa;stroke:#000000;stroke-linejoin:miter;"/>
   </g>
   <g id="patch_37">
    <path clip-path="url(#p08f1a9227e)" d="M 329.268124 247.709096 
L 329.268124 273.485354 
L 338.092968 273.485354 
L 338.092968 247.709096 
L 329.268124 247.709096 
" style="fill:#009afa;stroke:#000000;stroke-linejoin:miter;"/>
   </g>
   <g id="patch_38">
    <path clip-path="url(#p08f1a9227e)" d="M 338.092968 256.301182 
L 338.092968 273.485354 
L 346.917811 273.485354 
L 346.917811 256.301182 
L 338.092968 256.301182 
" style="fill:#009afa;stroke:#000000;stroke-linejoin:miter;"/>
   </g>
   <g id="patch_39">
    <path clip-path="url(#p08f1a9227e)" d="M 346.917811 230.524924 
L 346.917811 273.485354 
L 355.742655 273.485354 
L 355.742655 230.524924 
L 346.917811 230.524924 
" style="fill:#009afa;stroke:#000000;stroke-linejoin:miter;"/>
   </g>
   <g id="patch_40">
    <path clip-path="url(#p08f1a9227e)" d="M 355.742655 264.893268 
L 355.742655 273.485354 
L 364.567499 273.485354 
L 364.567499 264.893268 
L 355.742655 264.893268 
" style="fill:#009afa;stroke:#000000;stroke-linejoin:miter;"/>
   </g>
   <g id="patch_41">
    <path clip-path="url(#p08f1a9227e)" d="M 364.567499 273.485354 
L 364.567499 273.485354 
L 373.392342 273.485354 
L 373.392342 273.485354 
L 364.567499 273.485354 
" style="fill:#009afa;stroke:#000000;stroke-linejoin:miter;"/>
   </g>
   <g id="patch_42">
    <path clip-path="url(#p08f1a9227e)" d="M 373.392342 273.485354 
L 373.392342 273.485354 
L 382.217186 273.485354 
L 382.217186 273.485354 
L 373.392342 273.485354 
" style="fill:#009afa;stroke:#000000;stroke-linejoin:miter;"/>
   </g>
   <g id="patch_43">
    <path clip-path="url(#p08f1a9227e)" d="M 382.217186 269.189311 
L 382.217186 273.485354 
L 391.04203 273.485354 
L 391.04203 269.189311 
L 382.217186 269.189311 
" style="fill:#009afa;stroke:#000000;stroke-linejoin:miter;"/>
   </g>
   <g id="patch_44">
    <path clip-path="url(#p08f1a9227e)" d="M 391.04203 273.485354 
L 391.04203 273.485354 
L 399.866873 273.485354 
L 399.866873 273.485354 
L 391.04203 273.485354 
" style="fill:#009afa;stroke:#000000;stroke-linejoin:miter;"/>
   </g>
   <g id="patch_45">
    <path clip-path="url(#p08f1a9227e)" d="M 399.866873 273.485354 
L 399.866873 273.485354 
L 408.691717 273.485354 
L 408.691717 273.485354 
L 399.866873 273.485354 
" style="fill:#009afa;stroke:#000000;stroke-linejoin:miter;"/>
   </g>
   <g id="patch_46">
    <path clip-path="url(#p08f1a9227e)" d="M 408.691717 269.189311 
L 408.691717 273.485354 
L 417.516561 273.485354 
L 417.516561 269.189311 
L 408.691717 269.189311 
" style="fill:#009afa;stroke:#000000;stroke-linejoin:miter;"/>
   </g>
   <g id="patch_47">
    <path d="M 17.574646 273.485354 
L 17.574646 2.834646 
" style="fill:none;stroke:#000000;stroke-linecap:square;stroke-linejoin:miter;stroke-width:0.8;"/>
   </g>
   <g id="patch_48">
    <path d="M 429.165354 273.485354 
L 429.165354 2.834646 
" style="fill:none;stroke:#000000;stroke-linecap:square;stroke-linejoin:miter;stroke-width:0.8;"/>
   </g>
   <g id="patch_49">
    <path d="M 17.574646 273.485354 
L 429.165354 273.485354 
" style="fill:none;stroke:#000000;stroke-linecap:square;stroke-linejoin:miter;stroke-width:0.8;"/>
   </g>
   <g id="patch_50">
    <path d="M 17.574646 2.834646 
L 429.165354 2.834646 
" style="fill:none;stroke:#000000;stroke-linecap:square;stroke-linejoin:miter;stroke-width:0.8;"/>
   </g>
   <g id="legend_1">
    <g id="patch_51">
     <path d="M 388.140354 20.977146 
L 423.565354 20.977146 
Q 425.165354 20.977146 425.165354 19.377146 
L 425.165354 8.434646 
Q 425.165354 6.834646 423.565354 6.834646 
L 388.140354 6.834646 
Q 386.540354 6.834646 386.540354 8.434646 
L 386.540354 19.377146 
Q 386.540354 20.977146 388.140354 20.977146 
z
" style="fill:#ffffff;opacity:0.8;stroke:#000000;stroke-linejoin:miter;"/>
    </g>
    <g id="line2d_15">
     <path d="M 389.740354 13.313396 
L 405.740354 13.313396 
" style="fill:none;stroke:#009afa;stroke-linecap:square;stroke-width:4;"/>
    </g>
    <g id="line2d_16"/>
    <g id="text_8">
     <!-- y1 -->
     <defs>
      <path d="M 32.171875 -5.078125 
Q 28.375 -14.84375 24.75 -17.8125 
Q 21.140625 -20.796875 15.09375 -20.796875 
L 7.90625 -20.796875 
L 7.90625 -13.28125 
L 13.1875 -13.28125 
Q 16.890625 -13.28125 18.9375 -11.515625 
Q 21 -9.765625 23.484375 -3.21875 
L 25.09375 0.875 
L 2.984375 54.6875 
L 12.5 54.6875 
L 29.59375 11.921875 
L 46.6875 54.6875 
L 56.203125 54.6875 
z
" id="DejaVuSans-79"/>
     </defs>
     <g transform="translate(412.140354 16.113396)scale(0.08 -0.08)">
      <use xlink:href="#DejaVuSans-79"/>
      <use x="59.179688" xlink:href="#DejaVuSans-31"/>
     </g>
    </g>
   </g>
  </g>
 </g>
 <defs>
  <clipPath id="p08f1a9227e">
   <rect height="270.650709" width="411.590709" x="17.574646" y="2.834646"/>
  </clipPath>
 </defs>
</svg>
