<?xml version="1.0" encoding="utf-8" standalone="no"?>
<!DOCTYPE svg PUBLIC "-//W3C//DTD SVG 1.1//EN"
  "http://www.w3.org/Graphics/SVG/1.1/DTD/svg11.dtd">
<!-- Created with matplotlib (http://matplotlib.org/) -->
<svg height="288pt" version="1.1" viewBox="0 0 432 288" width="432pt" xmlns="http://www.w3.org/2000/svg" xmlns:xlink="http://www.w3.org/1999/xlink">
 <defs>
  <style type="text/css">
*{stroke-linecap:butt;stroke-linejoin:round;}
  </style>
 </defs>
 <g id="figure_1">
  <g id="patch_1">
   <path d="M 0 288 
L 432 288 
L 432 0 
L 0 0 
z
" style="fill:#ffffff;"/>
  </g>
  <g id="axes_1">
   <g id="patch_2">
    <path d="M 17.574646 273.485354 
L 429.165354 273.485354 
L 429.165354 2.834646 
L 17.574646 2.834646 
z
" style="fill:#ffffff;"/>
   </g>
   <g id="matplotlib.axis_1">
    <g id="xtick_1">
     <g id="line2d_1">
      <path clip-path="url(#p1e36586926)" d="M 141.9537 273.485354 
L 141.9537 2.834646 
" style="fill:none;stroke:#000000;stroke-dasharray:0.8,1.32;stroke-dashoffset:0;stroke-width:0.8;"/>
     </g>
     <g id="line2d_2">
      <defs>
       <path d="M 0 0 
L 0 3.5 
" id="m5bd47bf638" style="stroke:#000000;stroke-width:0.8;"/>
      </defs>
      <g>
       <use style="stroke:#000000;stroke-width:0.8;" x="141.9537" xlink:href="#m5bd47bf638" y="273.485354"/>
      </g>
     </g>
     <g id="text_1">
      <!-- 0.40 -->
      <defs>
       <path d="M 31.78125 66.40625 
Q 24.171875 66.40625 20.328125 58.90625 
Q 16.5 51.421875 16.5 36.375 
Q 16.5 21.390625 20.328125 13.890625 
Q 24.171875 6.390625 31.78125 6.390625 
Q 39.453125 6.390625 43.28125 13.890625 
Q 47.125 21.390625 47.125 36.375 
Q 47.125 51.421875 43.28125 58.90625 
Q 39.453125 66.40625 31.78125 66.40625 
z
M 31.78125 74.21875 
Q 44.046875 74.21875 50.515625 64.515625 
Q 56.984375 54.828125 56.984375 36.375 
Q 56.984375 17.96875 50.515625 8.265625 
Q 44.046875 -1.421875 31.78125 -1.421875 
Q 19.53125 -1.421875 13.0625 8.265625 
Q 6.59375 17.96875 6.59375 36.375 
Q 6.59375 54.828125 13.0625 64.515625 
Q 19.53125 74.21875 31.78125 74.21875 
z
" id="DejaVuSans-30"/>
       <path d="M 10.6875 12.40625 
L 21 12.40625 
L 21 0 
L 10.6875 0 
z
" id="DejaVuSans-2e"/>
       <path d="M 37.796875 64.3125 
L 12.890625 25.390625 
L 37.796875 25.390625 
z
M 35.203125 72.90625 
L 47.609375 72.90625 
L 47.609375 25.390625 
L 58.015625 25.390625 
L 58.015625 17.1875 
L 47.609375 17.1875 
L 47.609375 0 
L 37.796875 0 
L 37.796875 17.1875 
L 4.890625 17.1875 
L 4.890625 26.703125 
z
" id="DejaVuSans-34"/>
      </defs>
      <g transform="translate(133.04745 286.564104)scale(0.08 -0.08)">
       <use xlink:href="#DejaVuSans-30"/>
       <use x="63.623047" xlink:href="#DejaVuSans-2e"/>
       <use x="95.410156" xlink:href="#DejaVuSans-34"/>
       <use x="159.033203" xlink:href="#DejaVuSans-30"/>
      </g>
     </g>
    </g>
    <g id="xtick_2">
     <g id="line2d_3">
      <path clip-path="url(#p1e36586926)" d="M 267.209546 273.485354 
L 267.209546 2.834646 
" style="fill:none;stroke:#000000;stroke-dasharray:0.8,1.32;stroke-dashoffset:0;stroke-width:0.8;"/>
     </g>
     <g id="line2d_4">
      <g>
       <use style="stroke:#000000;stroke-width:0.8;" x="267.209546" xlink:href="#m5bd47bf638" y="273.485354"/>
      </g>
     </g>
     <g id="text_2">
      <!-- 0.41 -->
      <defs>
       <path d="M 12.40625 8.296875 
L 28.515625 8.296875 
L 28.515625 63.921875 
L 10.984375 60.40625 
L 10.984375 69.390625 
L 28.421875 72.90625 
L 38.28125 72.90625 
L 38.28125 8.296875 
L 54.390625 8.296875 
L 54.390625 0 
L 12.40625 0 
z
" id="DejaVuSans-31"/>
      </defs>
      <g transform="translate(258.303296 286.564104)scale(0.08 -0.08)">
       <use xlink:href="#DejaVuSans-30"/>
       <use x="63.623047" xlink:href="#DejaVuSans-2e"/>
       <use x="95.410156" xlink:href="#DejaVuSans-34"/>
       <use x="159.033203" xlink:href="#DejaVuSans-31"/>
      </g>
     </g>
    </g>
    <g id="xtick_3">
     <g id="line2d_5">
      <path clip-path="url(#p1e36586926)" d="M 392.465392 273.485354 
L 392.465392 2.834646 
" style="fill:none;stroke:#000000;stroke-dasharray:0.8,1.32;stroke-dashoffset:0;stroke-width:0.8;"/>
     </g>
     <g id="line2d_6">
      <g>
       <use style="stroke:#000000;stroke-width:0.8;" x="392.465392" xlink:href="#m5bd47bf638" y="273.485354"/>
      </g>
     </g>
     <g id="text_3">
      <!-- 0.42 -->
      <defs>
       <path d="M 19.1875 8.296875 
L 53.609375 8.296875 
L 53.609375 0 
L 7.328125 0 
L 7.328125 8.296875 
Q 12.9375 14.109375 22.625 23.890625 
Q 32.328125 33.6875 34.8125 36.53125 
Q 39.546875 41.84375 41.421875 45.53125 
Q 43.3125 49.21875 43.3125 52.78125 
Q 43.3125 58.59375 39.234375 62.25 
Q 35.15625 65.921875 28.609375 65.921875 
Q 23.96875 65.921875 18.8125 64.3125 
Q 13.671875 62.703125 7.8125 59.421875 
L 7.8125 69.390625 
Q 13.765625 71.78125 18.9375 73 
Q 24.125 74.21875 28.421875 74.21875 
Q 39.75 74.21875 46.484375 68.546875 
Q 53.21875 62.890625 53.21875 53.421875 
Q 53.21875 48.921875 51.53125 44.890625 
Q 49.859375 40.875 45.40625 35.40625 
Q 44.1875 33.984375 37.640625 27.21875 
Q 31.109375 20.453125 19.1875 8.296875 
z
" id="DejaVuSans-32"/>
      </defs>
      <g transform="translate(383.559142 286.564104)scale(0.08 -0.08)">
       <use xlink:href="#DejaVuSans-30"/>
       <use x="63.623047" xlink:href="#DejaVuSans-2e"/>
       <use x="95.410156" xlink:href="#DejaVuSans-34"/>
       <use x="159.033203" xlink:href="#DejaVuSans-32"/>
      </g>
     </g>
    </g>
   </g>
   <g id="matplotlib.axis_2">
    <g id="ytick_1">
     <g id="line2d_7">
      <path clip-path="url(#p1e36586926)" d="M 17.574646 273.485354 
L 429.165354 273.485354 
" style="fill:none;stroke:#000000;stroke-dasharray:0.8,1.32;stroke-dashoffset:0;stroke-width:0.8;"/>
     </g>
     <g id="line2d_8">
      <defs>
       <path d="M 0 0 
L -3.5 0 
" id="me528b5b7a7" style="stroke:#000000;stroke-width:0.8;"/>
      </defs>
      <g>
       <use style="stroke:#000000;stroke-width:0.8;" x="17.574646" xlink:href="#me528b5b7a7" y="273.485354"/>
      </g>
     </g>
     <g id="text_4">
      <!-- 0 -->
      <g transform="translate(5.484646 276.524729)scale(0.08 -0.08)">
       <use xlink:href="#DejaVuSans-30"/>
      </g>
     </g>
    </g>
    <g id="ytick_2">
     <g id="line2d_9">
      <path clip-path="url(#p1e36586926)" d="M 17.574646 200.729787 
L 429.165354 200.729787 
" style="fill:none;stroke:#000000;stroke-dasharray:0.8,1.32;stroke-dashoffset:0;stroke-width:0.8;"/>
     </g>
     <g id="line2d_10">
      <g>
       <use style="stroke:#000000;stroke-width:0.8;" x="17.574646" xlink:href="#me528b5b7a7" y="200.729787"/>
      </g>
     </g>
     <g id="text_5">
      <!-- 25 -->
      <defs>
       <path d="M 10.796875 72.90625 
L 49.515625 72.90625 
L 49.515625 64.59375 
L 19.828125 64.59375 
L 19.828125 46.734375 
Q 21.96875 47.46875 24.109375 47.828125 
Q 26.265625 48.1875 28.421875 48.1875 
Q 40.625 48.1875 47.75 41.5 
Q 54.890625 34.8125 54.890625 23.390625 
Q 54.890625 11.625 47.5625 5.09375 
Q 40.234375 -1.421875 26.90625 -1.421875 
Q 22.3125 -1.421875 17.546875 -0.640625 
Q 12.796875 0.140625 7.71875 1.703125 
L 7.71875 11.625 
Q 12.109375 9.234375 16.796875 8.0625 
Q 21.484375 6.890625 26.703125 6.890625 
Q 35.15625 6.890625 40.078125 11.328125 
Q 45.015625 15.765625 45.015625 23.390625 
Q 45.015625 31 40.078125 35.4375 
Q 35.15625 39.890625 26.703125 39.890625 
Q 22.75 39.890625 18.8125 39.015625 
Q 14.890625 38.140625 10.796875 36.28125 
z
" id="DejaVuSans-35"/>
      </defs>
      <g transform="translate(0.394646 203.769162)scale(0.08 -0.08)">
       <use xlink:href="#DejaVuSans-32"/>
       <use x="63.623047" xlink:href="#DejaVuSans-35"/>
      </g>
     </g>
    </g>
    <g id="ytick_3">
     <g id="line2d_11">
      <path clip-path="url(#p1e36586926)" d="M 17.574646 127.974221 
L 429.165354 127.974221 
" style="fill:none;stroke:#000000;stroke-dasharray:0.8,1.32;stroke-dashoffset:0;stroke-width:0.8;"/>
     </g>
     <g id="line2d_12">
      <g>
       <use style="stroke:#000000;stroke-width:0.8;" x="17.574646" xlink:href="#me528b5b7a7" y="127.974221"/>
      </g>
     </g>
     <g id="text_6">
      <!-- 50 -->
      <g transform="translate(0.394646 131.013596)scale(0.08 -0.08)">
       <use xlink:href="#DejaVuSans-35"/>
       <use x="63.623047" xlink:href="#DejaVuSans-30"/>
      </g>
     </g>
    </g>
    <g id="ytick_4">
     <g id="line2d_13">
      <path clip-path="url(#p1e36586926)" d="M 17.574646 55.218654 
L 429.165354 55.218654 
" style="fill:none;stroke:#000000;stroke-dasharray:0.8,1.32;stroke-dashoffset:0;stroke-width:0.8;"/>
     </g>
     <g id="line2d_14">
      <g>
       <use style="stroke:#000000;stroke-width:0.8;" x="17.574646" xlink:href="#me528b5b7a7" y="55.218654"/>
      </g>
     </g>
     <g id="text_7">
      <!-- 75 -->
      <defs>
       <path d="M 8.203125 72.90625 
L 55.078125 72.90625 
L 55.078125 68.703125 
L 28.609375 0 
L 18.3125 0 
L 43.21875 64.59375 
L 8.203125 64.59375 
z
" id="DejaVuSans-37"/>
      </defs>
      <g transform="translate(0.394646 58.258029)scale(0.08 -0.08)">
       <use xlink:href="#DejaVuSans-37"/>
       <use x="63.623047" xlink:href="#DejaVuSans-35"/>
      </g>
     </g>
    </g>
   </g>
   <g id="patch_3">
    <path clip-path="url(#p1e36586926)" d="M 29.223439 270.575132 
L 29.223439 273.485354 
L 41.749024 273.485354 
L 41.749024 270.575132 
L 29.223439 270.575132 
" style="fill:#009afa;stroke:#000000;stroke-linejoin:miter;"/>
   </g>
   <g id="patch_4">
    <path clip-path="url(#p1e36586926)" d="M 41.749024 270.575132 
L 41.749024 273.485354 
L 54.274608 273.485354 
L 54.274608 270.575132 
L 41.749024 270.575132 
" style="fill:#009afa;stroke:#000000;stroke-linejoin:miter;"/>
   </g>
   <g id="patch_5">
    <path clip-path="url(#p1e36586926)" d="M 54.274608 267.664909 
L 54.274608 273.485354 
L 66.800193 273.485354 
L 66.800193 267.664909 
L 54.274608 267.664909 
" style="fill:#009afa;stroke:#000000;stroke-linejoin:miter;"/>
   </g>
   <g id="patch_6">
    <path clip-path="url(#p1e36586926)" d="M 66.800193 261.844464 
L 66.800193 273.485354 
L 79.325778 273.485354 
L 79.325778 261.844464 
L 66.800193 261.844464 
" style="fill:#009afa;stroke:#000000;stroke-linejoin:miter;"/>
   </g>
   <g id="patch_7">
    <path clip-path="url(#p1e36586926)" d="M 79.325778 261.844464 
L 79.325778 273.485354 
L 91.851362 273.485354 
L 91.851362 261.844464 
L 79.325778 261.844464 
" style="fill:#009afa;stroke:#000000;stroke-linejoin:miter;"/>
   </g>
   <g id="patch_8">
    <path clip-path="url(#p1e36586926)" d="M 91.851362 250.203573 
L 91.851362 273.485354 
L 104.376947 273.485354 
L 104.376947 250.203573 
L 91.851362 250.203573 
" style="fill:#009afa;stroke:#000000;stroke-linejoin:miter;"/>
   </g>
   <g id="patch_9">
    <path clip-path="url(#p1e36586926)" d="M 104.376947 238.562682 
L 104.376947 273.485354 
L 116.902531 273.485354 
L 116.902531 238.562682 
L 104.376947 238.562682 
" style="fill:#009afa;stroke:#000000;stroke-linejoin:miter;"/>
   </g>
   <g id="patch_10">
    <path clip-path="url(#p1e36586926)" d="M 116.902531 206.550233 
L 116.902531 273.485354 
L 129.428116 273.485354 
L 129.428116 206.550233 
L 116.902531 206.550233 
" style="fill:#009afa;stroke:#000000;stroke-linejoin:miter;"/>
   </g>
   <g id="patch_11">
    <path clip-path="url(#p1e36586926)" d="M 129.428116 191.999119 
L 129.428116 273.485354 
L 141.9537 273.485354 
L 141.9537 191.999119 
L 129.428116 191.999119 
" style="fill:#009afa;stroke:#000000;stroke-linejoin:miter;"/>
   </g>
   <g id="patch_12">
    <path clip-path="url(#p1e36586926)" d="M 141.9537 136.704889 
L 141.9537 273.485354 
L 154.479285 273.485354 
L 154.479285 136.704889 
L 141.9537 136.704889 
" style="fill:#009afa;stroke:#000000;stroke-linejoin:miter;"/>
   </g>
   <g id="patch_13">
    <path clip-path="url(#p1e36586926)" d="M 154.479285 145.435557 
L 154.479285 273.485354 
L 167.004869 273.485354 
L 167.004869 145.435557 
L 154.479285 145.435557 
" style="fill:#009afa;stroke:#000000;stroke-linejoin:miter;"/>
   </g>
   <g id="patch_14">
    <path clip-path="url(#p1e36586926)" d="M 167.004869 130.884443 
L 167.004869 273.485354 
L 179.530454 273.485354 
L 179.530454 130.884443 
L 167.004869 130.884443 
" style="fill:#009afa;stroke:#000000;stroke-linejoin:miter;"/>
   </g>
   <g id="patch_15">
    <path clip-path="url(#p1e36586926)" d="M 179.530454 34.847095 
L 179.530454 273.485354 
L 192.056039 273.485354 
L 192.056039 34.847095 
L 179.530454 34.847095 
" style="fill:#009afa;stroke:#000000;stroke-linejoin:miter;"/>
   </g>
   <g id="patch_16">
    <path clip-path="url(#p1e36586926)" d="M 192.056039 14.475536 
L 192.056039 273.485354 
L 204.581623 273.485354 
L 204.581623 14.475536 
L 192.056039 14.475536 
" style="fill:#009afa;stroke:#000000;stroke-linejoin:miter;"/>
   </g>
   <g id="patch_17">
    <path clip-path="url(#p1e36586926)" d="M 204.581623 84.320881 
L 204.581623 273.485354 
L 217.107208 273.485354 
L 217.107208 84.320881 
L 204.581623 84.320881 
" style="fill:#009afa;stroke:#000000;stroke-linejoin:miter;"/>
   </g>
   <g id="patch_18">
    <path clip-path="url(#p1e36586926)" d="M 217.107208 2.834646 
L 217.107208 273.485354 
L 229.632792 273.485354 
L 229.632792 2.834646 
L 217.107208 2.834646 
" style="fill:#009afa;stroke:#000000;stroke-linejoin:miter;"/>
   </g>
   <g id="patch_19">
    <path clip-path="url(#p1e36586926)" d="M 229.632792 5.744868 
L 229.632792 273.485354 
L 242.158377 273.485354 
L 242.158377 5.744868 
L 229.632792 5.744868 
" style="fill:#009afa;stroke:#000000;stroke-linejoin:miter;"/>
   </g>
   <g id="patch_20">
    <path clip-path="url(#p1e36586926)" d="M 242.158377 8.655091 
L 242.158377 273.485354 
L 254.683961 273.485354 
L 254.683961 8.655091 
L 242.158377 8.655091 
" style="fill:#009afa;stroke:#000000;stroke-linejoin:miter;"/>
   </g>
   <g id="patch_21">
    <path clip-path="url(#p1e36586926)" d="M 254.683961 66.859544 
L 254.683961 273.485354 
L 267.209546 273.485354 
L 267.209546 66.859544 
L 254.683961 66.859544 
" style="fill:#009afa;stroke:#000000;stroke-linejoin:miter;"/>
   </g>
   <g id="patch_22">
    <path clip-path="url(#p1e36586926)" d="M 267.209546 110.512885 
L 267.209546 273.485354 
L 279.735131 273.485354 
L 279.735131 110.512885 
L 267.209546 110.512885 
" style="fill:#009afa;stroke:#000000;stroke-linejoin:miter;"/>
   </g>
   <g id="patch_23">
    <path clip-path="url(#p1e36586926)" d="M 279.735131 145.435557 
L 279.735131 273.485354 
L 292.260715 273.485354 
L 292.260715 145.435557 
L 279.735131 145.435557 
" style="fill:#009afa;stroke:#000000;stroke-linejoin:miter;"/>
   </g>
   <g id="patch_24">
    <path clip-path="url(#p1e36586926)" d="M 292.260715 177.448006 
L 292.260715 273.485354 
L 304.7863 273.485354 
L 304.7863 177.448006 
L 292.260715 177.448006 
" style="fill:#009afa;stroke:#000000;stroke-linejoin:miter;"/>
   </g>
   <g id="patch_25">
    <path clip-path="url(#p1e36586926)" d="M 304.7863 229.832014 
L 304.7863 273.485354 
L 317.311884 273.485354 
L 317.311884 229.832014 
L 304.7863 229.832014 
" style="fill:#009afa;stroke:#000000;stroke-linejoin:miter;"/>
   </g>
   <g id="patch_26">
    <path clip-path="url(#p1e36586926)" d="M 317.311884 224.011569 
L 317.311884 273.485354 
L 329.837469 273.485354 
L 329.837469 224.011569 
L 317.311884 224.011569 
" style="fill:#009afa;stroke:#000000;stroke-linejoin:miter;"/>
   </g>
   <g id="patch_27">
    <path clip-path="url(#p1e36586926)" d="M 329.837469 241.472905 
L 329.837469 273.485354 
L 342.363053 273.485354 
L 342.363053 241.472905 
L 329.837469 241.472905 
" style="fill:#009afa;stroke:#000000;stroke-linejoin:miter;"/>
   </g>
   <g id="patch_28">
    <path clip-path="url(#p1e36586926)" d="M 342.363053 256.024018 
L 342.363053 273.485354 
L 354.888638 273.485354 
L 354.888638 256.024018 
L 342.363053 256.024018 
" style="fill:#009afa;stroke:#000000;stroke-linejoin:miter;"/>
   </g>
   <g id="patch_29">
    <path clip-path="url(#p1e36586926)" d="M 354.888638 267.664909 
L 354.888638 273.485354 
L 367.414222 273.485354 
L 367.414222 267.664909 
L 354.888638 267.664909 
" style="fill:#009afa;stroke:#000000;stroke-linejoin:miter;"/>
   </g>
   <g id="patch_30">
    <path clip-path="url(#p1e36586926)" d="M 367.414222 250.203573 
L 367.414222 273.485354 
L 379.939807 273.485354 
L 379.939807 250.203573 
L 367.414222 250.203573 
" style="fill:#009afa;stroke:#000000;stroke-linejoin:miter;"/>
   </g>
   <g id="patch_31">
    <path clip-path="url(#p1e36586926)" d="M 379.939807 270.575132 
L 379.939807 273.485354 
L 392.465392 273.485354 
L 392.465392 270.575132 
L 379.939807 270.575132 
" style="fill:#009afa;stroke:#000000;stroke-linejoin:miter;"/>
   </g>
   <g id="patch_32">
    <path clip-path="url(#p1e36586926)" d="M 392.465392 273.485354 
L 392.465392 273.485354 
L 404.990976 273.485354 
L 404.990976 273.485354 
L 392.465392 273.485354 
" style="fill:#009afa;stroke:#000000;stroke-linejoin:miter;"/>
   </g>
   <g id="patch_33">
    <path clip-path="url(#p1e36586926)" d="M 404.990976 270.575132 
L 404.990976 273.485354 
L 417.516561 273.485354 
L 417.516561 270.575132 
L 404.990976 270.575132 
" style="fill:#009afa;stroke:#000000;stroke-linejoin:miter;"/>
   </g>
   <g id="patch_34">
    <path d="M 17.574646 273.485354 
L 17.574646 2.834646 
" style="fill:none;stroke:#000000;stroke-linecap:square;stroke-linejoin:miter;stroke-width:0.8;"/>
   </g>
   <g id="patch_35">
    <path d="M 429.165354 273.485354 
L 429.165354 2.834646 
" style="fill:none;stroke:#000000;stroke-linecap:square;stroke-linejoin:miter;stroke-width:0.8;"/>
   </g>
   <g id="patch_36">
    <path d="M 17.574646 273.485354 
L 429.165354 273.485354 
" style="fill:none;stroke:#000000;stroke-linecap:square;stroke-linejoin:miter;stroke-width:0.8;"/>
   </g>
   <g id="patch_37">
    <path d="M 17.574646 2.834646 
L 429.165354 2.834646 
" style="fill:none;stroke:#000000;stroke-linecap:square;stroke-linejoin:miter;stroke-width:0.8;"/>
   </g>
   <g id="legend_1">
    <g id="patch_38">
     <path d="M 388.140354 20.977146 
L 423.565354 20.977146 
Q 425.165354 20.977146 425.165354 19.377146 
L 425.165354 8.434646 
Q 425.165354 6.834646 423.565354 6.834646 
L 388.140354 6.834646 
Q 386.540354 6.834646 386.540354 8.434646 
L 386.540354 19.377146 
Q 386.540354 20.977146 388.140354 20.977146 
z
" style="fill:#ffffff;opacity:0.8;stroke:#000000;stroke-linejoin:miter;"/>
    </g>
    <g id="line2d_15">
     <path d="M 389.740354 13.313396 
L 405.740354 13.313396 
" style="fill:none;stroke:#009afa;stroke-linecap:square;stroke-width:4;"/>
    </g>
    <g id="line2d_16"/>
    <g id="text_8">
     <!-- y1 -->
     <defs>
      <path d="M 32.171875 -5.078125 
Q 28.375 -14.84375 24.75 -17.8125 
Q 21.140625 -20.796875 15.09375 -20.796875 
L 7.90625 -20.796875 
L 7.90625 -13.28125 
L 13.1875 -13.28125 
Q 16.890625 -13.28125 18.9375 -11.515625 
Q 21 -9.765625 23.484375 -3.21875 
L 25.09375 0.875 
L 2.984375 54.6875 
L 12.5 54.6875 
L 29.59375 11.921875 
L 46.6875 54.6875 
L 56.203125 54.6875 
z
" id="DejaVuSans-79"/>
     </defs>
     <g transform="translate(412.140354 16.113396)scale(0.08 -0.08)">
      <use xlink:href="#DejaVuSans-79"/>
      <use x="59.179688" xlink:href="#DejaVuSans-31"/>
     </g>
    </g>
   </g>
  </g>
 </g>
 <defs>
  <clipPath id="p1e36586926">
   <rect height="270.650709" width="411.590709" x="17.574646" y="2.834646"/>
  </clipPath>
 </defs>
</svg>
