<?xml version="1.0" encoding="utf-8" standalone="no"?>
<!DOCTYPE svg PUBLIC "-//W3C//DTD SVG 1.1//EN"
  "http://www.w3.org/Graphics/SVG/1.1/DTD/svg11.dtd">
<!-- Created with matplotlib (http://matplotlib.org/) -->
<svg height="288pt" version="1.1" viewBox="0 0 432 288" width="432pt" xmlns="http://www.w3.org/2000/svg" xmlns:xlink="http://www.w3.org/1999/xlink">
 <defs>
  <style type="text/css">
*{stroke-linecap:butt;stroke-linejoin:round;}
  </style>
 </defs>
 <g id="figure_1">
  <g id="patch_1">
   <path d="M 0 288 
L 432 288 
L 432 0 
L 0 0 
z
" style="fill:#ffffff;"/>
  </g>
  <g id="axes_1">
   <g id="patch_2">
    <path d="M 18.034646 275.905354 
L 429.165354 275.905354 
L 429.165354 2.834646 
L 18.034646 2.834646 
z
" style="fill:#ffffff;"/>
   </g>
   <g id="matplotlib.axis_1">
    <g id="xtick_1">
     <g id="line2d_1">
      <path clip-path="url(#pfa52553bf3)" d="M 115.034279 275.905354 
L 115.034279 2.834646 
" style="fill:none;opacity:0.1;stroke:#000000;stroke-linecap:square;stroke-width:0.5;"/>
     </g>
     <g id="line2d_2">
      <defs>
       <path d="M 0 0 
L 0 -3.5 
" id="m1c971029d8" style="stroke:#000000;stroke-width:0.8;"/>
      </defs>
      <g>
       <use style="stroke:#000000;stroke-width:0.8;" x="115.034279" xlink:href="#m1c971029d8" y="275.905354"/>
      </g>
     </g>
     <g id="text_1">
      <!-- 500 -->
      <defs>
       <path d="M 10.796875 72.90625 
L 49.515625 72.90625 
L 49.515625 64.59375 
L 19.828125 64.59375 
L 19.828125 46.734375 
Q 21.96875 47.46875 24.109375 47.828125 
Q 26.265625 48.1875 28.421875 48.1875 
Q 40.625 48.1875 47.75 41.5 
Q 54.890625 34.8125 54.890625 23.390625 
Q 54.890625 11.625 47.5625 5.09375 
Q 40.234375 -1.421875 26.90625 -1.421875 
Q 22.3125 -1.421875 17.546875 -0.640625 
Q 12.796875 0.140625 7.71875 1.703125 
L 7.71875 11.625 
Q 12.109375 9.234375 16.796875 8.0625 
Q 21.484375 6.890625 26.703125 6.890625 
Q 35.15625 6.890625 40.078125 11.328125 
Q 45.015625 15.765625 45.015625 23.390625 
Q 45.015625 31 40.078125 35.4375 
Q 35.15625 39.890625 26.703125 39.890625 
Q 22.75 39.890625 18.8125 39.015625 
Q 14.890625 38.140625 10.796875 36.28125 
z
" id="DejaVuSans-35"/>
       <path d="M 31.78125 66.40625 
Q 24.171875 66.40625 20.328125 58.90625 
Q 16.5 51.421875 16.5 36.375 
Q 16.5 21.390625 20.328125 13.890625 
Q 24.171875 6.390625 31.78125 6.390625 
Q 39.453125 6.390625 43.28125 13.890625 
Q 47.125 21.390625 47.125 36.375 
Q 47.125 51.421875 43.28125 58.90625 
Q 39.453125 66.40625 31.78125 66.40625 
z
M 31.78125 74.21875 
Q 44.046875 74.21875 50.515625 64.515625 
Q 56.984375 54.828125 56.984375 36.375 
Q 56.984375 17.96875 50.515625 8.265625 
Q 44.046875 -1.421875 31.78125 -1.421875 
Q 19.53125 -1.421875 13.0625 8.265625 
Q 6.59375 17.96875 6.59375 36.375 
Q 6.59375 54.828125 13.0625 64.515625 
Q 19.53125 74.21875 31.78125 74.21875 
z
" id="DejaVuSans-30"/>
      </defs>
      <g transform="translate(107.399279 285.484104)scale(0.08 -0.08)">
       <use xlink:href="#DejaVuSans-35"/>
       <use x="63.623047" xlink:href="#DejaVuSans-30"/>
       <use x="127.246094" xlink:href="#DejaVuSans-30"/>
      </g>
     </g>
    </g>
    <g id="xtick_2">
     <g id="line2d_3">
      <path clip-path="url(#pfa52553bf3)" d="M 212.2283 275.905354 
L 212.2283 2.834646 
" style="fill:none;opacity:0.1;stroke:#000000;stroke-linecap:square;stroke-width:0.5;"/>
     </g>
     <g id="line2d_4">
      <g>
       <use style="stroke:#000000;stroke-width:0.8;" x="212.2283" xlink:href="#m1c971029d8" y="275.905354"/>
      </g>
     </g>
     <g id="text_2">
      <!-- 1000 -->
      <defs>
       <path d="M 12.40625 8.296875 
L 28.515625 8.296875 
L 28.515625 63.921875 
L 10.984375 60.40625 
L 10.984375 69.390625 
L 28.421875 72.90625 
L 38.28125 72.90625 
L 38.28125 8.296875 
L 54.390625 8.296875 
L 54.390625 0 
L 12.40625 0 
z
" id="DejaVuSans-31"/>
      </defs>
      <g transform="translate(202.0483 285.484104)scale(0.08 -0.08)">
       <use xlink:href="#DejaVuSans-31"/>
       <use x="63.623047" xlink:href="#DejaVuSans-30"/>
       <use x="127.246094" xlink:href="#DejaVuSans-30"/>
       <use x="190.869141" xlink:href="#DejaVuSans-30"/>
      </g>
     </g>
    </g>
    <g id="xtick_3">
     <g id="line2d_5">
      <path clip-path="url(#pfa52553bf3)" d="M 309.422321 275.905354 
L 309.422321 2.834646 
" style="fill:none;opacity:0.1;stroke:#000000;stroke-linecap:square;stroke-width:0.5;"/>
     </g>
     <g id="line2d_6">
      <g>
       <use style="stroke:#000000;stroke-width:0.8;" x="309.422321" xlink:href="#m1c971029d8" y="275.905354"/>
      </g>
     </g>
     <g id="text_3">
      <!-- 1500 -->
      <g transform="translate(299.242321 285.484104)scale(0.08 -0.08)">
       <use xlink:href="#DejaVuSans-31"/>
       <use x="63.623047" xlink:href="#DejaVuSans-35"/>
       <use x="127.246094" xlink:href="#DejaVuSans-30"/>
       <use x="190.869141" xlink:href="#DejaVuSans-30"/>
      </g>
     </g>
    </g>
    <g id="xtick_4">
     <g id="line2d_7">
      <path clip-path="url(#pfa52553bf3)" d="M 406.616341 275.905354 
L 406.616341 2.834646 
" style="fill:none;opacity:0.1;stroke:#000000;stroke-linecap:square;stroke-width:0.5;"/>
     </g>
     <g id="line2d_8">
      <g>
       <use style="stroke:#000000;stroke-width:0.8;" x="406.616341" xlink:href="#m1c971029d8" y="275.905354"/>
      </g>
     </g>
     <g id="text_4">
      <!-- 2000 -->
      <defs>
       <path d="M 19.1875 8.296875 
L 53.609375 8.296875 
L 53.609375 0 
L 7.328125 0 
L 7.328125 8.296875 
Q 12.9375 14.109375 22.625 23.890625 
Q 32.328125 33.6875 34.8125 36.53125 
Q 39.546875 41.84375 41.421875 45.53125 
Q 43.3125 49.21875 43.3125 52.78125 
Q 43.3125 58.59375 39.234375 62.25 
Q 35.15625 65.921875 28.609375 65.921875 
Q 23.96875 65.921875 18.8125 64.3125 
Q 13.671875 62.703125 7.8125 59.421875 
L 7.8125 69.390625 
Q 13.765625 71.78125 18.9375 73 
Q 24.125 74.21875 28.421875 74.21875 
Q 39.75 74.21875 46.484375 68.546875 
Q 53.21875 62.890625 53.21875 53.421875 
Q 53.21875 48.921875 51.53125 44.890625 
Q 49.859375 40.875 45.40625 35.40625 
Q 44.1875 33.984375 37.640625 27.21875 
Q 31.109375 20.453125 19.1875 8.296875 
z
" id="DejaVuSans-32"/>
      </defs>
      <g transform="translate(396.436341 285.484104)scale(0.08 -0.08)">
       <use xlink:href="#DejaVuSans-32"/>
       <use x="63.623047" xlink:href="#DejaVuSans-30"/>
       <use x="127.246094" xlink:href="#DejaVuSans-30"/>
       <use x="190.869141" xlink:href="#DejaVuSans-30"/>
      </g>
     </g>
    </g>
   </g>
   <g id="matplotlib.axis_2">
    <g id="ytick_1">
     <g id="line2d_9">
      <path clip-path="url(#pfa52553bf3)" d="M 18.034646 258.751269 
L 429.165354 258.751269 
" style="fill:none;opacity:0.1;stroke:#000000;stroke-linecap:square;stroke-width:0.5;"/>
     </g>
     <g id="line2d_10">
      <defs>
       <path d="M 0 0 
L 3.5 0 
" id="mfd8f6023e9" style="stroke:#000000;stroke-width:0.8;"/>
      </defs>
      <g>
       <use style="stroke:#000000;stroke-width:0.8;" x="18.034646" xlink:href="#mfd8f6023e9" y="258.751269"/>
      </g>
     </g>
     <g id="text_5">
      <!-- -15 -->
      <defs>
       <path d="M 4.890625 31.390625 
L 31.203125 31.390625 
L 31.203125 23.390625 
L 4.890625 23.390625 
z
" id="DejaVuSans-2d"/>
      </defs>
      <g transform="translate(1.468396 261.790644)scale(0.08 -0.08)">
       <use xlink:href="#DejaVuSans-2d"/>
       <use x="36.083984" xlink:href="#DejaVuSans-31"/>
       <use x="99.707031" xlink:href="#DejaVuSans-35"/>
      </g>
     </g>
    </g>
    <g id="ytick_2">
     <g id="line2d_11">
      <path clip-path="url(#pfa52553bf3)" d="M 18.034646 206.177751 
L 429.165354 206.177751 
" style="fill:none;opacity:0.1;stroke:#000000;stroke-linecap:square;stroke-width:0.5;"/>
     </g>
     <g id="line2d_12">
      <g>
       <use style="stroke:#000000;stroke-width:0.8;" x="18.034646" xlink:href="#mfd8f6023e9" y="206.177751"/>
      </g>
     </g>
     <g id="text_6">
      <!-- -10 -->
      <g transform="translate(1.468396 209.217126)scale(0.08 -0.08)">
       <use xlink:href="#DejaVuSans-2d"/>
       <use x="36.083984" xlink:href="#DejaVuSans-31"/>
       <use x="99.707031" xlink:href="#DejaVuSans-30"/>
      </g>
     </g>
    </g>
    <g id="ytick_3">
     <g id="line2d_13">
      <path clip-path="url(#pfa52553bf3)" d="M 18.034646 153.604232 
L 429.165354 153.604232 
" style="fill:none;opacity:0.1;stroke:#000000;stroke-linecap:square;stroke-width:0.5;"/>
     </g>
     <g id="line2d_14">
      <g>
       <use style="stroke:#000000;stroke-width:0.8;" x="18.034646" xlink:href="#mfd8f6023e9" y="153.604232"/>
      </g>
     </g>
     <g id="text_7">
      <!-- -5 -->
      <g transform="translate(6.558396 156.643607)scale(0.08 -0.08)">
       <use xlink:href="#DejaVuSans-2d"/>
       <use x="36.083984" xlink:href="#DejaVuSans-35"/>
      </g>
     </g>
    </g>
    <g id="ytick_4">
     <g id="line2d_15">
      <path clip-path="url(#pfa52553bf3)" d="M 18.034646 101.030714 
L 429.165354 101.030714 
" style="fill:none;opacity:0.1;stroke:#000000;stroke-linecap:square;stroke-width:0.5;"/>
     </g>
     <g id="line2d_16">
      <g>
       <use style="stroke:#000000;stroke-width:0.8;" x="18.034646" xlink:href="#mfd8f6023e9" y="101.030714"/>
      </g>
     </g>
     <g id="text_8">
      <!-- 0 -->
      <g transform="translate(9.444646 104.070089)scale(0.08 -0.08)">
       <use xlink:href="#DejaVuSans-30"/>
      </g>
     </g>
    </g>
    <g id="ytick_5">
     <g id="line2d_17">
      <path clip-path="url(#pfa52553bf3)" d="M 18.034646 48.457196 
L 429.165354 48.457196 
" style="fill:none;opacity:0.1;stroke:#000000;stroke-linecap:square;stroke-width:0.5;"/>
     </g>
     <g id="line2d_18">
      <g>
       <use style="stroke:#000000;stroke-width:0.8;" x="18.034646" xlink:href="#mfd8f6023e9" y="48.457196"/>
      </g>
     </g>
     <g id="text_9">
      <!-- 5 -->
      <g transform="translate(9.444646 51.496571)scale(0.08 -0.08)">
       <use xlink:href="#DejaVuSans-35"/>
      </g>
     </g>
    </g>
   </g>
   <g id="line2d_19">
    <path clip-path="url(#pfa52553bf3)" d="M 18.034646 96.644889 
L 18.229034 92.528662 
L 18.61781 113.089692 
L 18.812198 84.443651 
L 19.006586 109.910041 
L 19.395362 127.572698 
L 19.58975 104.522064 
L 19.784138 115.259161 
L 19.978526 85.055142 
L 20.172914 107.995347 
L 20.367302 67.901183 
L 20.56169 102.092977 
L 20.756078 94.892446 
L 21.339242 128.980559 
L 21.53363 128.81226 
L 21.728018 77.05234 
L 21.922407 111.603689 
L 22.116795 113.765014 
L 22.311183 77.723438 
L 22.699959 126.773749 
L 22.894347 75.94211 
L 23.088735 108.873273 
L 23.283123 110.068921 
L 23.477511 119.343593 
L 23.671899 112.866701 
L 23.866287 99.883013 
L 24.060675 124.361497 
L 24.255063 130.048569 
L 24.449451 131.874456 
L 24.643839 112.215908 
L 24.838227 63.672353 
L 25.032615 120.160421 
L 25.227003 108.838462 
L 25.421391 136.481124 
L 25.615779 72.435919 
L 25.810167 83.619892 
L 26.004555 82.438392 
L 26.198943 82.761442 
L 26.393331 93.33927 
L 26.58772 86.731208 
L 26.782108 126.407308 
L 26.976496 96.435289 
L 27.170884 85.946032 
L 27.365272 87.335165 
L 27.55966 113.310473 
L 27.754048 110.075045 
L 27.948436 102.957875 
L 28.142824 62.617787 
L 28.337212 72.071317 
L 28.5316 98.097503 
L 28.920376 85.111385 
L 29.114764 93.819281 
L 29.309152 110.878687 
L 29.50354 96.860965 
L 29.697928 92.309217 
L 30.086704 89.482757 
L 30.281092 94.474104 
L 30.47548 110.790235 
L 30.669868 111.757717 
L 30.864256 66.467061 
L 31.058644 88.385981 
L 31.253033 89.3646 
L 31.447421 106.944489 
L 31.641809 104.311132 
L 31.836197 128.107855 
L 32.030585 115.472201 
L 32.224973 80.701073 
L 32.419361 81.709728 
L 32.613749 101.634632 
L 32.808137 110.13136 
L 33.196913 86.612906 
L 33.391301 87.399907 
L 33.585689 97.807536 
L 33.780077 82.270474 
L 34.168853 115.961729 
L 34.557629 106.09343 
L 34.752017 85.289988 
L 34.946405 84.160839 
L 35.140793 100.434526 
L 35.335181 95.142918 
L 35.529569 102.587679 
L 35.723957 102.608565 
L 35.918346 112.874919 
L 36.112734 110.011728 
L 36.307122 121.464975 
L 36.50151 118.95737 
L 36.890286 77.497293 
L 37.084674 90.159213 
L 37.279062 88.883996 
L 37.47345 101.423986 
L 37.667838 102.811644 
L 37.862226 90.966039 
L 38.056614 103.188645 
L 38.251002 90.26664 
L 38.639778 128.610738 
L 39.028554 103.883467 
L 39.222942 125.814155 
L 39.41733 88.77105 
L 39.611718 115.803136 
L 39.806106 114.728444 
L 40.000494 89.851762 
L 40.194882 114.982829 
L 40.38927 94.031515 
L 40.583659 57.759056 
L 40.972435 85.511466 
L 41.166823 100.624905 
L 41.361211 86.506729 
L 41.555599 89.183697 
L 41.749987 107.326476 
L 41.944375 107.92884 
L 42.333151 79.299291 
L 42.527539 84.708384 
L 42.721927 108.984716 
L 42.916315 108.285298 
L 43.110703 89.887758 
L 43.305091 86.153665 
L 43.693867 140.808687 
L 43.888255 110.060165 
L 44.277031 90.458885 
L 44.471419 94.364641 
L 44.665807 101.605573 
L 44.860195 88.562398 
L 45.054583 95.593268 
L 45.248972 88.597108 
L 45.44336 92.199159 
L 45.637748 90.111706 
L 45.832136 102.127817 
L 46.026524 91.639627 
L 46.220912 101.93203 
L 46.4153 106.078736 
L 46.609688 102.656007 
L 46.804076 79.877202 
L 46.998464 90.445296 
L 47.192852 82.73436 
L 47.38724 101.553273 
L 47.776016 103.97982 
L 47.970404 117.983745 
L 48.164792 113.44214 
L 48.35918 134.943757 
L 48.553568 93.132259 
L 48.747956 95.373461 
L 48.942344 95.044496 
L 49.136732 95.980152 
L 49.33112 96.360109 
L 49.525508 134.711499 
L 49.719897 127.072571 
L 49.914285 90.287856 
L 50.108673 109.319104 
L 50.497449 89.933111 
L 50.691837 97.674767 
L 50.886225 99.163093 
L 51.080613 105.882835 
L 51.275001 99.351994 
L 51.469389 70.302501 
L 51.663777 91.097583 
L 51.858165 87.125878 
L 52.052553 117.282355 
L 52.441329 107.422336 
L 52.635717 135.10517 
L 53.024493 115.024169 
L 53.218881 79.719677 
L 53.413269 122.730557 
L 53.607657 120.788714 
L 53.802045 124.84725 
L 53.996433 142.024645 
L 54.190821 52.708496 
L 54.38521 115.116907 
L 54.579598 71.664599 
L 54.773986 106.428466 
L 54.968374 97.429135 
L 55.162762 102.223555 
L 55.35715 101.447581 
L 55.551538 90.845989 
L 55.745926 133.491199 
L 56.134702 63.52605 
L 56.32909 75.713264 
L 56.523478 109.909793 
L 56.717866 91.387815 
L 56.912254 97.962845 
L 57.106642 124.863376 
L 57.30103 130.247415 
L 57.689806 115.705089 
L 57.884194 115.513186 
L 58.078582 78.246729 
L 58.467358 93.090698 
L 58.661746 112.837429 
L 58.856134 120.462034 
L 59.050523 139.489463 
L 59.439299 91.049495 
L 59.633687 94.997721 
L 59.828075 78.909344 
L 60.022463 92.449014 
L 60.216851 118.906997 
L 60.411239 116.645496 
L 60.605627 76.340275 
L 60.994403 122.871326 
L 61.188791 125.531107 
L 61.383179 133.770019 
L 61.577567 135.286426 
L 61.771955 133.813936 
L 62.160731 145.016124 
L 62.355119 117.330977 
L 62.549507 15.497401 
L 62.743895 144.215895 
L 62.938283 95.432725 
L 63.132671 131.097341 
L 63.521447 103.136363 
L 63.715836 68.638729 
L 64.104612 86.072819 
L 64.493388 126.153467 
L 64.882164 41.407842 
L 65.076552 102.949559 
L 65.27094 74.370248 
L 65.465328 112.749406 
L 65.659716 86.298297 
L 65.854104 81.013292 
L 66.048492 70.695896 
L 66.24288 134.106238 
L 66.437268 110.668934 
L 66.631656 105.423183 
L 66.826044 89.27137 
L 67.020432 92.146393 
L 67.21482 131.199568 
L 67.409208 73.829322 
L 67.603596 57.312871 
L 67.797984 88.44376 
L 67.992372 99.521387 
L 68.18676 95.217652 
L 68.381149 75.005369 
L 68.575537 96.847008 
L 68.769925 93.573028 
L 68.964313 87.063095 
L 69.158701 89.0572 
L 69.353089 80.848757 
L 69.547477 91.954932 
L 69.741865 92.253396 
L 69.936253 116.901706 
L 70.325029 73.79999 
L 70.519417 82.755085 
L 70.713805 115.082873 
L 70.908193 92.078143 
L 71.102581 85.787875 
L 71.296969 87.645181 
L 71.491357 102.707728 
L 71.685745 84.878884 
L 71.880133 111.272502 
L 72.074521 110.267753 
L 72.268909 120.680636 
L 72.463297 116.0764 
L 72.657685 84.859878 
L 72.852073 106.327625 
L 73.046462 100.080317 
L 73.24085 123.238304 
L 73.435238 86.233829 
L 73.824014 108.07266 
L 74.018402 100.831957 
L 74.407178 138.094178 
L 74.795954 56.917023 
L 75.18473 114.383585 
L 75.379118 76.743601 
L 75.573506 117.664288 
L 75.767894 115.242074 
L 75.962282 107.611304 
L 76.15667 80.437088 
L 76.545446 138.368008 
L 76.739834 122.126585 
L 76.934222 89.935868 
L 77.12861 116.608054 
L 77.322998 109.411939 
L 77.517386 132.313047 
L 77.711775 38.18113 
L 77.906163 84.80599 
L 78.100551 83.882641 
L 78.294939 73.7637 
L 78.489327 90.544441 
L 78.683715 90.822524 
L 79.072491 97.914782 
L 79.266879 115.020597 
L 79.461267 76.309869 
L 79.655655 93.104699 
L 80.044431 102.812824 
L 80.238819 80.408369 
L 80.433207 83.389898 
L 80.627595 112.344305 
L 80.821983 112.299994 
L 81.016371 102.973818 
L 81.210759 77.029024 
L 81.405147 88.276577 
L 81.793923 123.358848 
L 81.988311 112.029563 
L 82.1827 108.540886 
L 82.571476 70.873818 
L 82.765864 108.272364 
L 82.960252 117.608869 
L 83.15464 95.756766 
L 83.349028 99.11345 
L 83.543416 119.001018 
L 83.737804 89.536929 
L 83.932192 114.121495 
L 84.12658 110.137775 
L 84.320968 88.547604 
L 84.515356 86.409377 
L 84.709744 87.311581 
L 84.904132 92.770965 
L 85.09852 94.540135 
L 85.292908 117.1531 
L 85.487296 101.553874 
L 85.681684 118.991471 
L 86.07046 91.029135 
L 86.653624 114.447744 
L 86.848013 77.317201 
L 87.042401 80.75149 
L 87.236789 94.575719 
L 87.431177 90.581549 
L 87.625565 81.122925 
L 87.819953 104.48904 
L 88.014341 86.772429 
L 88.208729 97.941158 
L 88.403117 123.665873 
L 88.791893 77.57458 
L 88.986281 104.096561 
L 89.375057 121.442813 
L 89.569445 109.380709 
L 89.763833 124.40997 
L 89.958221 89.444368 
L 90.346997 130.238513 
L 90.541385 76.945309 
L 90.735773 98.797708 
L 90.930161 143.768635 
L 91.124549 92.513343 
L 91.318937 128.042633 
L 91.513326 66.630566 
L 91.707714 113.7426 
L 91.902102 131.994615 
L 92.290878 81.093861 
L 92.485266 139.808716 
L 92.679654 130.312318 
L 92.874042 80.915624 
L 93.06843 120.765424 
L 93.262818 67.856751 
L 93.457206 133.245281 
L 93.651594 110.244393 
L 93.845982 118.348423 
L 94.04037 57.413834 
L 94.234758 87.939133 
L 94.429146 66.476624 
L 94.623534 129.274385 
L 94.817922 112.363879 
L 95.01231 127.524815 
L 95.206698 127.020534 
L 95.401086 65.500615 
L 95.789862 115.613952 
L 95.98425 68.930789 
L 96.178639 68.830408 
L 96.373027 98.880346 
L 96.567415 97.282333 
L 96.761803 93.925306 
L 96.956191 102.085928 
L 97.344967 129.199794 
L 97.539355 137.224264 
L 97.733743 132.572495 
L 97.928131 124.009631 
L 98.122519 163.448738 
L 98.316907 84.436622 
L 98.511295 90.743904 
L 98.705683 91.0393 
L 98.900071 76.899737 
L 99.094459 140.800379 
L 99.288847 77.571612 
L 99.677623 100.014346 
L 99.872011 142.172765 
L 100.066399 127.267373 
L 100.260787 73.738172 
L 100.455175 65.824391 
L 100.649563 84.068374 
L 100.843952 83.349684 
L 101.03834 123.935531 
L 101.232728 113.790364 
L 101.427116 128.289401 
L 101.621504 123.018767 
L 101.815892 79.675862 
L 102.01028 149.848996 
L 102.204668 80.193389 
L 102.399056 109.459584 
L 102.593444 118.510512 
L 102.787832 141.900178 
L 103.176608 60.66045 
L 103.370996 82.3882 
L 103.565384 139.099704 
L 103.759772 120.128158 
L 103.95416 146.761737 
L 104.148548 155.624039 
L 104.342936 50.047688 
L 104.537324 81.962134 
L 104.731712 173.616157 
L 104.9261 58.626591 
L 105.120488 176.078307 
L 105.314876 146.099728 
L 105.509265 143.57381 
L 105.703653 133.595015 
L 105.898041 104.246137 
L 106.092429 113.738725 
L 106.286817 94.50391 
L 106.481205 167.1258 
L 106.675593 32.564655 
L 107.064369 89.203146 
L 107.258757 57.698679 
L 107.841921 179.4517 
L 108.036309 69.974894 
L 108.230697 140.56618 
L 108.425085 100.752518 
L 108.619473 101.30891 
L 108.813861 107.841611 
L 109.202637 71.009153 
L 109.397025 67.349395 
L 109.591413 106.513428 
L 109.785801 25.060388 
L 109.980189 77.709288 
L 110.174578 88.588527 
L 110.368966 84.297934 
L 110.563354 117.014133 
L 110.757742 69.32592 
L 110.95213 90.52146 
L 111.146518 89.913171 
L 111.340906 110.014066 
L 111.535294 115.128852 
L 111.729682 97.171103 
L 111.92407 55.093346 
L 112.118458 105.617975 
L 112.701622 63.762237 
L 112.89601 135.181099 
L 113.284786 66.730891 
L 113.479174 123.916963 
L 113.673562 101.237131 
L 113.86795 51.159611 
L 114.062338 105.627938 
L 114.256726 91.856277 
L 114.451114 101.246358 
L 114.645503 150.258875 
L 114.839891 120.104777 
L 115.034279 133.603288 
L 115.228667 105.615684 
L 115.423055 137.864724 
L 115.617443 85.964878 
L 115.811831 81.32363 
L 116.006219 130.608744 
L 116.200607 120.804635 
L 116.394995 58.126715 
L 116.589383 137.467875 
L 116.783771 41.961354 
L 116.978159 84.439038 
L 117.172547 84.676058 
L 117.366935 116.943403 
L 117.561323 103.917373 
L 117.755711 76.980205 
L 117.950099 114.208117 
L 118.144487 90.70305 
L 118.338875 142.039387 
L 118.533263 97.639079 
L 118.727651 88.186314 
L 118.922039 96.341169 
L 119.116427 90.836846 
L 119.310816 55.463305 
L 119.505204 65.904731 
L 119.699592 88.635122 
L 119.89398 96.398384 
L 120.088368 62.321225 
L 120.282756 110.385691 
L 120.477144 108.288215 
L 120.671532 80.155154 
L 120.86592 119.543481 
L 121.060308 92.037565 
L 121.254696 102.192162 
L 121.449084 77.122061 
L 121.643472 107.723507 
L 121.83786 106.79889 
L 122.032248 123.455457 
L 122.226636 68.997795 
L 122.421024 113.544035 
L 122.615412 113.676231 
L 122.8098 80.855714 
L 123.004188 117.102734 
L 123.198576 120.711041 
L 123.392964 92.718948 
L 123.587352 115.128243 
L 123.78174 66.820842 
L 123.976129 88.1583 
L 124.170517 88.117616 
L 124.364905 105.377228 
L 124.559293 79.826882 
L 124.753681 121.858211 
L 124.948069 109.196886 
L 125.142457 87.574293 
L 125.336845 104.620176 
L 125.531233 96.122838 
L 125.725621 126.367707 
L 125.920009 82.302383 
L 126.114397 91.417265 
L 126.308785 107.42395 
L 126.503173 69.775712 
L 126.697561 120.45595 
L 126.891949 124.824855 
L 127.280725 104.703258 
L 127.475113 101.213763 
L 127.669501 99.878036 
L 127.863889 130.045666 
L 128.058277 82.306361 
L 128.252665 79.589857 
L 128.447053 99.692643 
L 128.641442 83.966776 
L 128.83583 87.955413 
L 129.030218 104.566195 
L 129.224606 85.500248 
L 129.418994 113.763474 
L 129.613382 112.994933 
L 129.80777 93.345244 
L 130.002158 112.473061 
L 130.196546 102.351477 
L 130.390934 116.648055 
L 130.585322 94.723481 
L 130.77971 114.24872 
L 130.974098 99.881835 
L 131.168486 103.73166 
L 131.362874 80.367217 
L 131.557262 119.759045 
L 131.75165 118.725159 
L 131.946038 107.916352 
L 132.140426 77.80122 
L 132.334814 96.220319 
L 132.529202 125.919946 
L 132.72359 80.185113 
L 132.917978 110.913561 
L 133.112366 85.759806 
L 133.306755 136.55699 
L 133.501143 100.636402 
L 133.695531 87.618658 
L 133.889919 86.050205 
L 134.084307 90.069372 
L 134.278695 102.75006 
L 134.473083 105.441456 
L 134.667471 100.466996 
L 134.861859 81.417226 
L 135.056247 132.619763 
L 135.250635 106.099561 
L 135.445023 95.778005 
L 135.639411 112.361303 
L 135.833799 106.751469 
L 136.028187 106.763977 
L 136.222575 87.998259 
L 136.416963 116.847376 
L 136.611351 115.273435 
L 136.805739 99.828477 
L 137.000127 95.191786 
L 137.194515 118.414262 
L 137.388903 119.962264 
L 137.583291 106.029385 
L 137.777679 114.251437 
L 137.972068 74.753437 
L 138.166456 70.764958 
L 138.360844 87.899627 
L 138.555232 117.574807 
L 138.74962 122.946335 
L 138.944008 88.385932 
L 139.138396 111.002807 
L 139.332784 82.794838 
L 139.72156 144.903643 
L 139.915948 90.043671 
L 140.110336 113.082597 
L 140.304724 94.238285 
L 140.499112 89.273221 
L 140.6935 122.338157 
L 141.082276 105.348957 
L 141.471052 84.376088 
L 141.66544 95.975702 
L 141.859828 97.230514 
L 142.054216 100.613728 
L 142.248604 93.927695 
L 142.442992 61.744521 
L 142.637381 70.736267 
L 142.831769 104.154454 
L 143.026157 101.030714 
L 143.220545 63.340742 
L 143.414933 126.262731 
L 143.803709 70.808647 
L 144.192485 138.768103 
L 144.386873 107.488113 
L 144.581261 112.46969 
L 144.775649 79.63545 
L 144.970037 81.577037 
L 145.164425 91.329905 
L 145.358813 60.067125 
L 145.747589 97.81965 
L 145.941977 97.644387 
L 146.136365 112.480165 
L 146.330753 83.911317 
L 146.525141 90.112819 
L 146.719529 150.124909 
L 146.913917 101.221564 
L 147.302694 78.432525 
L 147.497082 153.577345 
L 147.69147 140.15085 
L 147.885858 111.735509 
L 148.080246 126.743794 
L 148.274634 120.649909 
L 148.469022 66.494661 
L 148.66341 118.166445 
L 148.857798 59.123391 
L 149.052186 116.375017 
L 149.246574 118.595604 
L 149.440962 79.954574 
L 149.63535 88.030758 
L 149.829738 88.387559 
L 150.024126 93.263336 
L 150.218514 92.930046 
L 150.412902 102.539293 
L 150.60729 129.966723 
L 150.801678 82.841393 
L 150.996066 98.002681 
L 151.190454 132.724421 
L 151.384842 76.175892 
L 151.57923 87.219389 
L 151.773619 84.612591 
L 152.356783 102.116846 
L 152.551171 106.894477 
L 152.745559 92.445119 
L 153.134335 127.006833 
L 153.328723 111.998515 
L 153.523111 82.202474 
L 153.717499 107.967517 
L 153.911887 78.37338 
L 154.106275 87.872917 
L 154.300663 106.484509 
L 154.495051 94.496403 
L 154.689439 98.308625 
L 154.883827 88.453777 
L 155.078215 120.865056 
L 155.272603 85.496385 
L 155.466991 87.831216 
L 155.855767 78.279828 
L 156.438932 127.05024 
L 156.63332 86.912871 
L 156.827708 96.253862 
L 157.022096 87.321566 
L 157.216484 103.226216 
L 157.410872 151.213915 
L 157.60526 116.68189 
L 157.799648 134.169076 
L 157.994036 84.882245 
L 158.188424 118.667563 
L 158.382812 62.832518 
L 158.5772 95.149926 
L 158.771588 69.171807 
L 158.965976 95.016258 
L 159.160364 97.099314 
L 159.354752 93.885162 
L 159.54914 104.082553 
L 159.743528 126.511002 
L 159.937916 60.363188 
L 160.132304 80.60311 
L 160.326692 81.801319 
L 160.52108 84.849499 
L 160.715468 97.068956 
L 160.909856 79.401195 
L 161.298633 138.149487 
L 161.493021 116.187166 
L 161.687409 143.681909 
L 161.881797 128.157862 
L 162.076185 161.787158 
L 162.270573 60.14458 
L 162.659349 113.705169 
L 162.853737 78.679745 
L 163.048125 76.175332 
L 163.436901 103.102417 
L 163.631289 92.088065 
L 163.825677 59.740858 
L 164.020065 95.116367 
L 164.214453 69.917146 
L 164.408841 98.014355 
L 164.603229 95.336777 
L 164.797617 109.891303 
L 164.992005 80.579065 
L 165.186393 84.329911 
L 165.380781 82.479187 
L 165.769558 105.846791 
L 165.963946 85.296636 
L 166.158334 96.131952 
L 166.352722 98.960174 
L 166.54711 78.218952 
L 166.741498 109.59962 
L 166.935886 65.912003 
L 167.130274 90.23134 
L 167.324662 128.89038 
L 167.51905 63.710352 
L 167.713438 84.303175 
L 168.102214 132.751482 
L 168.296602 75.130923 
L 168.49099 76.305603 
L 168.685378 64.596942 
L 169.074154 126.990571 
L 169.268542 170.382702 
L 169.46293 68.059905 
L 169.657318 76.194929 
L 169.851706 102.243343 
L 170.046094 108.760499 
L 170.240482 111.140462 
L 170.434871 117.092003 
L 170.629259 109.573109 
L 170.823647 117.178121 
L 171.018035 103.464205 
L 171.212423 99.313166 
L 171.406811 102.883621 
L 171.601199 79.49906 
L 171.795587 107.362648 
L 171.989975 66.887233 
L 172.184363 76.330246 
L 172.573139 115.447029 
L 172.767527 102.249602 
L 172.961915 101.71134 
L 173.350691 118.148324 
L 173.739467 87.613849 
L 173.933855 86.705635 
L 174.128243 124.4648 
L 174.322631 88.49693 
L 174.517019 93.391225 
L 174.905795 123.534365 
L 175.100184 113.23966 
L 175.294572 85.620542 
L 175.48896 124.937717 
L 175.683348 86.199385 
L 175.877736 73.880207 
L 176.266512 124.237934 
L 176.4609 147.008502 
L 176.655288 114.602716 
L 176.849676 147.293641 
L 177.044064 95.83046 
L 177.238452 133.295443 
L 177.627228 53.016649 
L 177.821616 118.574572 
L 178.016004 90.557815 
L 178.210392 105.881186 
L 178.40478 55.905943 
L 178.599168 113.315984 
L 178.793556 123.452891 
L 178.987944 69.680885 
L 179.182332 97.38462 
L 179.37672 96.836177 
L 179.571109 124.870146 
L 179.765497 102.360989 
L 179.959885 102.068096 
L 180.348661 140.516198 
L 180.543049 98.347744 
L 180.737437 101.358265 
L 180.931825 91.145016 
L 181.126213 119.919243 
L 181.320601 109.005973 
L 181.514989 105.200663 
L 181.709377 122.287215 
L 181.903765 119.21807 
L 182.098153 106.043109 
L 182.292541 63.831583 
L 182.486929 108.81595 
L 182.681317 69.406873 
L 182.875705 98.192937 
L 183.070093 100.404448 
L 183.264481 87.861517 
L 183.458869 97.929138 
L 183.653257 86.541318 
L 183.847645 137.950429 
L 184.042033 119.255799 
L 184.236422 111.256287 
L 184.43081 131.937159 
L 184.625198 101.189376 
L 184.819586 91.191492 
L 185.208362 123.292649 
L 185.40275 73.11921 
L 185.597138 92.106981 
L 185.791526 134.968892 
L 185.985914 116.444266 
L 186.180302 136.458997 
L 186.37469 42.58197 
L 186.569078 18.788424 
L 186.763466 93.092388 
L 186.957854 68.712506 
L 187.541018 120.739037 
L 187.929794 15.747853 
L 188.31857 129.334319 
L 188.512958 43.491603 
L 188.707346 108.999248 
L 188.901735 124.006289 
L 189.096123 128.7144 
L 189.290511 67.298356 
L 189.484899 80.239742 
L 189.679287 148.936903 
L 189.873675 77.333824 
L 190.068063 83.534716 
L 190.262451 93.928136 
L 190.456839 64.503627 
L 190.845615 129.715285 
L 191.040003 89.005621 
L 191.428779 83.727885 
L 191.623167 106.473331 
L 191.817555 63.975429 
L 192.206331 122.700717 
L 192.400719 83.90134 
L 192.789495 115.317185 
L 192.983883 64.55598 
L 193.178271 75.079555 
L 193.372659 96.600793 
L 193.567048 88.848336 
L 193.761436 87.322034 
L 193.955824 107.699404 
L 194.150212 83.136959 
L 194.3446 121.815096 
L 194.538988 107.314051 
L 194.733376 64.90823 
L 194.927764 77.724342 
L 195.122152 127.381012 
L 195.31654 88.368101 
L 195.510928 120.906319 
L 195.705316 79.975452 
L 196.094092 130.776455 
L 196.28848 113.690824 
L 196.482868 76.412786 
L 196.677256 124.0724 
L 196.871644 84.841336 
L 197.066032 78.337309 
L 197.26042 114.781153 
L 197.454808 81.868828 
L 197.649196 103.29829 
L 197.843584 103.415918 
L 198.037972 91.004346 
L 198.232361 120.528275 
L 198.426749 109.263496 
L 198.621137 105.333604 
L 198.815525 107.476127 
L 199.009913 85.001032 
L 199.398689 103.323255 
L 199.593077 104.64489 
L 199.787465 117.054963 
L 200.176241 92.264565 
L 200.370629 90.702029 
L 200.565017 91.673268 
L 200.953793 118.977933 
L 201.148181 115.811379 
L 201.342569 144.916347 
L 201.536957 102.665611 
L 201.731345 114.918911 
L 201.925733 81.431465 
L 202.120121 116.850426 
L 202.314509 86.608334 
L 202.703285 94.137083 
L 202.897674 114.742874 
L 203.092062 118.206169 
L 203.28645 82.463925 
L 203.480838 96.987685 
L 203.675226 79.227958 
L 203.869614 111.821617 
L 204.064002 115.046036 
L 204.25839 134.275234 
L 204.452778 120.674714 
L 204.647166 68.807677 
L 204.841554 117.79487 
L 205.035942 84.155019 
L 205.23033 119.823546 
L 205.424718 93.969358 
L 205.619106 115.567036 
L 205.813494 97.525905 
L 206.007882 120.621717 
L 206.20227 65.535973 
L 206.396658 50.286484 
L 206.591046 92.581786 
L 206.785434 76.073426 
L 207.17421 117.033518 
L 207.562987 85.621228 
L 207.951763 124.103292 
L 208.340539 86.853892 
L 208.534927 83.870856 
L 208.729315 108.255707 
L 208.923703 82.305157 
L 209.118091 119.75627 
L 209.312479 111.521444 
L 209.506867 97.156271 
L 209.701255 119.642601 
L 210.090031 72.280823 
L 210.284419 104.85481 
L 210.478807 107.730481 
L 210.673195 100.916096 
L 210.867583 63.591569 
L 211.061971 65.792541 
L 211.256359 86.939105 
L 211.450747 93.450088 
L 211.645135 84.248861 
L 211.839523 110.692937 
L 212.2283 101.230262 
L 212.422688 115.199973 
L 212.617076 96.455795 
L 212.811464 98.597596 
L 213.005852 102.648972 
L 213.20024 98.809836 
L 213.394628 87.963608 
L 213.589016 97.937458 
L 213.783404 123.675378 
L 213.977792 88.79589 
L 214.17218 78.058869 
L 214.366568 80.373239 
L 214.560956 104.219801 
L 214.755344 85.848435 
L 214.949732 114.183285 
L 215.14412 105.094054 
L 215.338508 84.870727 
L 215.532896 92.559119 
L 215.727284 95.554317 
L 215.921672 83.376497 
L 216.11606 123.122821 
L 216.310448 107.295201 
L 216.504836 119.171704 
L 216.893613 92.641666 
L 217.282389 108.557312 
L 217.671165 123.035941 
L 218.059941 82.981625 
L 218.254329 109.168191 
L 218.448717 72.137727 
L 218.643105 94.369252 
L 218.837493 96.032703 
L 219.226269 77.863448 
L 219.420657 91.920463 
L 219.615045 83.674078 
L 219.809433 92.061466 
L 220.003821 91.07382 
L 220.198209 84.521742 
L 220.392597 111.181127 
L 220.586985 90.4437 
L 220.781373 105.826774 
L 220.975761 101.560363 
L 221.170149 122.066842 
L 221.364538 69.976583 
L 221.558926 88.357382 
L 221.753314 84.800437 
L 222.14209 82.036737 
L 222.336478 96.402472 
L 222.530866 64.913074 
L 222.725254 90.11751 
L 222.919642 92.300949 
L 223.11403 105.65321 
L 223.308418 109.253993 
L 223.502806 66.105953 
L 223.891582 128.476519 
L 224.08597 98.396879 
L 224.280358 94.714507 
L 224.474746 109.980756 
L 224.669134 55.773685 
L 224.863522 112.445589 
L 225.05791 113.101707 
L 225.252298 85.66647 
L 225.446686 85.295456 
L 225.641074 83.497627 
L 225.835462 142.405515 
L 226.029851 131.063718 
L 226.224239 85.253086 
L 226.418627 113.17045 
L 226.613015 100.256451 
L 226.807403 62.076675 
L 227.001791 83.987392 
L 227.196179 88.150098 
L 227.390567 113.177749 
L 227.584955 116.656766 
L 227.779343 163.511676 
L 227.973731 80.662755 
L 228.168119 111.667299 
L 228.362507 88.619618 
L 228.556895 92.803511 
L 228.751283 110.104634 
L 228.945671 80.995626 
L 229.140059 77.727123 
L 229.334447 101.177879 
L 229.528835 140.83216 
L 229.723223 57.975423 
L 230.306387 115.049456 
L 230.500775 105.197579 
L 230.695164 119.234968 
L 230.889552 43.097652 
L 231.278328 84.954806 
L 231.472716 75.078585 
L 231.667104 83.799609 
L 231.861492 106.5883 
L 232.05588 74.235198 
L 232.250268 104.854804 
L 232.444656 85.308912 
L 232.639044 94.783179 
L 232.833432 93.112004 
L 233.02782 76.955299 
L 233.222208 128.902303 
L 233.416596 85.502589 
L 233.610984 148.77116 
L 233.805372 91.153467 
L 233.99976 111.494782 
L 234.194148 65.510086 
L 234.582924 157.605771 
L 234.777312 64.057455 
L 234.9717 84.16306 
L 235.166088 86.747704 
L 235.360477 76.77428 
L 235.749253 112.560657 
L 235.943641 83.295352 
L 236.332417 107.859636 
L 236.526805 79.725676 
L 236.721193 91.923869 
L 236.915581 59.685905 
L 237.109969 108.646223 
L 237.304357 86.418168 
L 237.498745 140.106489 
L 237.693133 126.613946 
L 238.081909 80.853827 
L 238.665073 144.860643 
L 238.859461 275.905354 
L 239.053849 213.491696 
L 239.248237 32.317456 
L 239.442625 128.984842 
L 239.637013 84.706837 
L 239.831402 106.240489 
L 240.02579 145.664041 
L 240.220178 82.364025 
L 240.414566 64.059036 
L 240.608954 78.325663 
L 240.803342 122.37089 
L 240.99773 54.260727 
L 241.192118 152.131298 
L 241.580894 74.379787 
L 241.775282 88.06292 
L 241.96967 84.353043 
L 242.164058 90.296257 
L 242.358446 80.875411 
L 242.552834 85.988895 
L 242.94161 102.423347 
L 243.135998 97.284 
L 243.330386 140.546539 
L 243.524774 75.878434 
L 243.719162 77.147404 
L 243.91355 157.930199 
L 244.107938 73.787308 
L 244.302326 112.672213 
L 244.496715 128.657668 
L 244.885491 91.770087 
L 245.079879 54.052554 
L 245.274267 83.477705 
L 245.663043 96.418192 
L 245.857431 116.16255 
L 246.051819 96.71463 
L 246.246207 111.272938 
L 246.440595 99.02772 
L 246.634983 127.692921 
L 246.829371 64.287703 
L 247.023759 141.390159 
L 247.218147 105.218519 
L 247.412535 98.971698 
L 247.606923 98.47266 
L 247.801311 86.314164 
L 247.995699 88.867859 
L 248.384475 105.241183 
L 248.578863 90.086 
L 248.773251 93.1886 
L 248.967639 91.494242 
L 249.162028 86.39322 
L 249.550804 121.865131 
L 249.745192 135.474646 
L 249.93958 83.874578 
L 250.133968 83.878599 
L 250.328356 85.840278 
L 250.522744 110.633951 
L 250.717132 94.188775 
L 250.91152 100.494468 
L 251.105908 92.627043 
L 251.300296 90.44105 
L 251.494684 85.501023 
L 251.689072 92.450147 
L 251.88346 74.547784 
L 252.272236 116.695522 
L 252.466624 111.653734 
L 252.661012 112.726984 
L 252.8554 77.189694 
L 253.049788 93.305752 
L 253.244176 121.800683 
L 253.438564 95.63464 
L 253.632952 87.041935 
L 253.827341 94.170789 
L 254.021729 75.239739 
L 254.216117 100.723804 
L 254.410505 97.366305 
L 254.604893 108.500178 
L 254.799281 65.685284 
L 254.993669 95.164216 
L 255.188057 95.847093 
L 255.382445 80.711654 
L 255.576833 109.770975 
L 255.771221 110.670836 
L 255.965609 85.364297 
L 256.159997 116.286524 
L 256.354385 72.674111 
L 256.743161 95.200504 
L 256.937549 80.88104 
L 257.326325 104.082221 
L 257.520713 105.406911 
L 257.715101 84.332888 
L 257.909489 104.976793 
L 258.103877 111.317962 
L 258.298265 100.157101 
L 258.492654 104.477686 
L 258.687042 67.792254 
L 259.075818 147.15638 
L 259.270206 99.923005 
L 259.658982 108.630528 
L 259.85337 93.873332 
L 260.047758 98.526059 
L 260.242146 95.270596 
L 260.436534 86.919106 
L 260.630922 89.159012 
L 260.82531 130.946776 
L 261.019698 83.698292 
L 261.214086 73.51066 
L 261.408474 131.662118 
L 261.602862 130.221148 
L 261.79725 125.04845 
L 262.186026 84.877642 
L 262.380414 107.324321 
L 262.574802 113.380542 
L 262.76919 89.484501 
L 262.963578 85.635874 
L 263.157967 101.539368 
L 263.352355 94.597005 
L 263.546743 95.694785 
L 263.741131 103.607692 
L 263.935519 99.577073 
L 264.129907 104.620713 
L 264.324295 127.404096 
L 264.713071 77.496034 
L 264.907459 69.813597 
L 265.296235 96.213128 
L 265.490623 88.280713 
L 265.879399 117.859918 
L 266.073787 111.661125 
L 266.462563 86.742535 
L 266.656951 86.620539 
L 266.851339 126.221602 
L 267.045727 104.916684 
L 267.240115 150.763499 
L 267.434503 94.58732 
L 267.628891 172.869713 
L 267.82328 79.763052 
L 268.017668 100.147308 
L 268.212056 106.00534 
L 268.600832 140.39493 
L 268.79522 80.643195 
L 268.989608 137.545046 
L 269.183996 109.862353 
L 269.378384 56.91393 
L 269.572772 128.69419 
L 269.961548 56.707661 
L 270.155936 112.83527 
L 270.544712 64.201849 
L 270.7391 100.213896 
L 270.933488 100.446086 
L 271.127876 99.570564 
L 271.322264 112.624328 
L 271.516652 147.056797 
L 271.905428 58.394119 
L 272.099816 67.370055 
L 272.294205 49.411915 
L 272.488593 70.27521 
L 272.682981 111.11305 
L 273.071757 76.234603 
L 273.266145 105.797558 
L 273.460533 118.077098 
L 273.654921 80.292139 
L 273.849309 90.433976 
L 274.043697 116.248368 
L 274.238085 56.759609 
L 274.432473 121.146601 
L 274.626861 106.779854 
L 274.821249 105.586512 
L 275.015637 126.882049 
L 275.210025 81.241187 
L 275.404413 83.561593 
L 275.598801 93.572607 
L 275.793189 122.693993 
L 275.987577 105.111027 
L 276.181965 112.536646 
L 276.376353 96.239098 
L 276.570741 93.857417 
L 276.765129 84.710761 
L 276.959518 108.093161 
L 277.153906 77.747879 
L 277.542682 101.617062 
L 277.73707 99.751408 
L 277.931458 85.029689 
L 278.125846 116.738881 
L 278.320234 114.582628 
L 278.514622 95.967497 
L 278.70901 99.546436 
L 278.903398 95.747425 
L 279.097786 129.217175 
L 279.292174 60.855093 
L 279.486562 111.986858 
L 279.68095 87.982411 
L 279.875338 106.779186 
L 280.069726 81.337146 
L 280.264114 149.786271 
L 280.458502 107.126046 
L 280.65289 91.42757 
L 280.847278 109.068558 
L 281.041666 86.458856 
L 281.236054 46.900295 
L 281.624831 96.177669 
L 281.819219 93.704954 
L 282.207995 117.374285 
L 282.402383 90.735197 
L 282.596771 93.385481 
L 282.791159 122.641552 
L 282.985547 85.411004 
L 283.179935 112.888199 
L 283.374323 115.55592 
L 283.568711 89.849531 
L 284.151875 127.236532 
L 284.346263 48.196961 
L 284.540651 118.286897 
L 284.735039 95.631811 
L 284.929427 87.291735 
L 285.123815 101.581001 
L 285.318203 103.325957 
L 285.512591 109.285415 
L 285.706979 94.110336 
L 285.901367 120.945587 
L 286.095755 114.75795 
L 286.484532 77.871913 
L 286.67892 106.888527 
L 286.873308 83.87095 
L 287.067696 115.209117 
L 287.262084 74.310629 
L 287.65086 111.493834 
L 287.845248 99.112721 
L 288.039636 114.487008 
L 288.234024 89.401618 
L 288.428412 105.198046 
L 288.6228 92.028015 
L 288.817188 108.562998 
L 289.011576 100.848682 
L 289.205964 131.813017 
L 289.400352 89.068192 
L 289.59474 86.162038 
L 289.789128 90.456906 
L 289.983516 106.142032 
L 290.177904 88.341461 
L 290.372292 99.723196 
L 290.56668 86.408936 
L 290.761068 98.322125 
L 290.955457 89.106241 
L 291.149845 110.647462 
L 291.344233 84.583578 
L 291.733009 109.829819 
L 291.927397 105.568695 
L 292.510561 79.478499 
L 292.899337 132.231785 
L 293.093725 84.598637 
L 293.288113 79.952616 
L 293.482501 84.378652 
L 293.676889 118.024472 
L 294.065665 90.395827 
L 294.260053 122.755057 
L 294.454441 86.455243 
L 294.648829 112.383499 
L 294.843217 114.716732 
L 295.037605 84.556701 
L 295.231993 99.578862 
L 295.426381 97.617265 
L 295.62077 88.158944 
L 295.815158 99.475975 
L 296.009546 120.108057 
L 296.203934 97.488237 
L 296.398322 108.216963 
L 296.59271 83.236188 
L 296.787098 115.569968 
L 296.981486 85.43809 
L 297.175874 108.434592 
L 297.370262 99.930845 
L 297.56465 96.498887 
L 297.759038 96.56209 
L 297.953426 88.987471 
L 298.147814 90.769865 
L 298.342202 94.748485 
L 298.53659 116.367199 
L 298.730978 90.657106 
L 298.925366 110.948771 
L 299.119754 91.400516 
L 299.314142 98.322515 
L 299.50853 99.018656 
L 299.702918 94.786505 
L 299.897306 104.37411 
L 300.091694 104.958396 
L 300.286083 100.743864 
L 300.480471 100.046717 
L 300.674859 107.930314 
L 301.063635 89.967336 
L 301.258023 111.43595 
L 301.452411 89.893326 
L 301.646799 90.818499 
L 301.841187 106.530841 
L 302.035575 88.693747 
L 302.424351 103.79125 
L 302.618739 79.406712 
L 302.813127 120.094632 
L 303.007515 102.431171 
L 303.201903 106.731236 
L 303.396291 115.872432 
L 303.590679 95.69504 
L 303.785067 94.709276 
L 303.979455 101.275202 
L 304.173843 154.647838 
L 304.368231 95.437101 
L 304.757008 112.997303 
L 304.951396 81.995302 
L 305.145784 94.215297 
L 305.340172 127.527995 
L 305.53456 74.616717 
L 305.728948 95.469124 
L 306.117724 100.07547 
L 306.312112 96.635212 
L 306.5065 118.425654 
L 306.700888 114.79326 
L 307.089664 95.459118 
L 307.284052 93.212044 
L 307.47844 100.441476 
L 307.672828 81.268735 
L 307.867216 102.602144 
L 308.061604 91.970657 
L 308.255992 92.005758 
L 308.45038 87.376849 
L 308.644768 109.938739 
L 308.839156 106.303484 
L 309.033544 116.482365 
L 309.227932 94.197325 
L 309.422321 125.974238 
L 309.616709 76.168648 
L 310.005485 119.136162 
L 310.199873 92.496334 
L 310.394261 105.020144 
L 310.588649 102.271493 
L 310.783037 136.845082 
L 310.977425 91.548706 
L 311.171813 107.652685 
L 311.366201 94.749064 
L 311.560589 90.036178 
L 311.754977 99.565509 
L 311.949365 100.318649 
L 312.143753 99.943767 
L 312.338141 83.425424 
L 312.532529 107.460411 
L 312.921305 77.997645 
L 313.115693 94.941345 
L 313.310081 101.631639 
L 313.504469 98.153922 
L 313.698857 109.677206 
L 313.893245 82.899938 
L 314.087634 94.530996 
L 314.282022 85.289719 
L 314.670798 98.876675 
L 314.865186 106.108656 
L 315.059574 86.596127 
L 315.253962 87.991581 
L 315.837126 99.323994 
L 316.031514 91.961975 
L 316.225902 99.123042 
L 316.42029 95.948949 
L 316.614678 89.209939 
L 316.809066 100.778398 
L 317.003454 95.532324 
L 317.197842 77.202826 
L 317.39223 118.778317 
L 317.586618 82.09352 
L 317.781006 101.414947 
L 317.975394 101.381946 
L 318.169782 101.799858 
L 318.36417 103.946633 
L 318.752947 83.762718 
L 318.947335 87.429171 
L 319.141723 87.732573 
L 319.336111 111.149016 
L 319.530499 99.613444 
L 319.724887 105.185781 
L 319.919275 88.307495 
L 320.113663 113.078417 
L 320.502439 85.826204 
L 320.696827 97.968884 
L 320.891215 90.320217 
L 321.085603 87.049648 
L 321.279991 79.061671 
L 321.668767 125.312872 
L 321.863155 86.443932 
L 322.057543 86.709294 
L 322.251931 137.11087 
L 322.446319 88.412358 
L 322.835095 75.013936 
L 323.223871 91.870804 
L 323.41826 112.193887 
L 323.612648 104.200035 
L 323.807036 86.305478 
L 324.001424 124.209871 
L 324.195812 81.711329 
L 324.3902 101.362048 
L 324.584588 89.854593 
L 324.778976 134.061087 
L 324.973364 89.895281 
L 325.167752 87.686933 
L 325.36214 93.316555 
L 325.556528 117.762711 
L 325.750916 69.121781 
L 325.945304 80.449533 
L 326.139692 116.319119 
L 326.33408 86.639524 
L 326.528468 114.71747 
L 326.722856 110.927601 
L 327.111632 87.815884 
L 327.30602 126.488651 
L 327.500408 136.444131 
L 328.083573 65.643005 
L 328.277961 103.378882 
L 328.472349 93.711429 
L 328.666737 99.02486 
L 328.861125 114.13628 
L 329.055513 84.363668 
L 329.249901 85.17356 
L 329.444289 95.665208 
L 329.638677 86.054187 
L 329.833065 98.735974 
L 330.027453 92.063458 
L 330.221841 97.16403 
L 330.416229 109.991593 
L 330.610617 70.914851 
L 330.805005 91.859074 
L 330.999393 85.144415 
L 331.193781 88.575815 
L 331.388169 112.334359 
L 331.582557 110.944854 
L 331.776945 112.893876 
L 331.971333 72.296867 
L 332.165721 117.926927 
L 332.360109 85.703263 
L 332.554497 75.305712 
L 332.748886 81.074645 
L 332.943274 118.262685 
L 333.33205 72.757336 
L 333.526438 86.878471 
L 333.720826 109.540169 
L 333.915214 104.697798 
L 334.109602 93.880671 
L 334.30399 126.027445 
L 334.498378 96.515425 
L 334.692766 152.917155 
L 334.887154 88.027615 
L 335.081542 97.202023 
L 335.27593 93.314158 
L 335.470318 69.725982 
L 335.664706 81.021047 
L 335.859094 75.003869 
L 336.053482 99.559295 
L 336.24787 92.747175 
L 336.442258 99.789726 
L 336.636646 69.683002 
L 336.831034 78.302393 
L 337.025422 102.187975 
L 337.219811 81.207947 
L 337.414199 98.091897 
L 337.608587 74.233216 
L 337.802975 100.446817 
L 337.997363 83.717295 
L 338.191751 93.750516 
L 338.386139 141.092855 
L 338.580527 85.150583 
L 338.774915 122.132628 
L 338.969303 84.245358 
L 339.163691 107.747908 
L 339.358079 73.863046 
L 339.552467 98.772962 
L 339.746855 86.643975 
L 339.941243 83.362695 
L 340.135631 106.57581 
L 340.330019 97.077279 
L 340.524407 155.899451 
L 340.718795 73.439046 
L 340.913183 141.767357 
L 341.107571 64.267041 
L 341.301959 93.797355 
L 341.496347 74.226792 
L 341.690735 106.093427 
L 341.885124 103.330751 
L 342.079512 131.075024 
L 342.2739 61.481645 
L 342.468288 111.387743 
L 342.662676 111.111863 
L 342.857064 87.382101 
L 343.051452 98.301032 
L 343.24584 71.791338 
L 343.440228 86.728187 
L 343.634616 88.270496 
L 343.829004 94.884855 
L 344.023392 93.121824 
L 344.21778 76.52116 
L 344.412168 85.44981 
L 344.606556 87.840121 
L 344.800944 94.35203 
L 344.995332 106.021445 
L 345.18972 84.501603 
L 345.384108 95.900268 
L 345.578496 132.59812 
L 345.772884 89.492998 
L 345.967272 92.592808 
L 346.16166 102.064785 
L 346.356048 128.089393 
L 346.744825 77.071894 
L 346.939213 111.554223 
L 347.133601 85.374271 
L 347.327989 85.802641 
L 347.522377 85.435959 
L 347.911153 112.891974 
L 348.105541 139.938714 
L 348.299929 145.331194 
L 348.494317 98.232212 
L 348.688705 92.220323 
L 348.883093 121.277267 
L 349.077481 192.450231 
L 349.271869 88.478433 
L 349.466257 64.939471 
L 349.660645 83.119347 
L 349.855033 146.872454 
L 350.049421 143.109178 
L 350.438197 34.583596 
L 350.632585 104.511485 
L 350.826973 47.629874 
L 351.021361 104.407341 
L 351.410138 68.725446 
L 351.604526 117.905032 
L 351.798914 95.528609 
L 351.993302 123.026741 
L 352.18769 53.444514 
L 352.382078 91.575775 
L 352.576466 71.820386 
L 352.770854 136.541612 
L 352.965242 91.513882 
L 353.15963 115.256445 
L 353.354018 82.423337 
L 353.548406 136.707438 
L 353.937182 80.896 
L 354.13157 117.1857 
L 354.325958 58.701871 
L 354.714734 125.524063 
L 354.909122 88.764616 
L 355.10351 79.239196 
L 355.492286 87.605607 
L 355.686674 90.120379 
L 355.881063 100.668927 
L 356.075451 89.375972 
L 356.464227 125.480536 
L 356.853003 86.256397 
L 357.241779 103.39605 
L 357.436167 72.450174 
L 358.019331 113.012289 
L 358.213719 112.591236 
L 358.408107 144.5093 
L 358.796883 78.139679 
L 358.991271 73.88676 
L 359.185659 138.952811 
L 359.380047 93.257732 
L 359.574435 123.935688 
L 359.768823 113.74029 
L 359.963211 127.456126 
L 360.157599 59.427576 
L 360.351987 132.192771 
L 360.546376 98.015293 
L 360.740764 93.356865 
L 360.935152 60.81533 
L 361.12954 88.316444 
L 361.323928 75.450852 
L 361.518316 109.02239 
L 361.712704 109.050698 
L 361.907092 101.793915 
L 362.10148 104.982505 
L 362.295868 97.326652 
L 362.490256 81.531597 
L 362.684644 142.460834 
L 362.879032 69.560542 
L 363.07342 92.145728 
L 363.267808 128.999085 
L 363.462196 105.221294 
L 363.850972 121.700161 
L 364.04536 129.82029 
L 364.239748 81.826648 
L 364.434136 115.600913 
L 364.822912 36.621138 
L 365.0173 91.074159 
L 365.211689 99.1381 
L 365.406077 95.035748 
L 365.600465 135.299878 
L 365.794853 66.664278 
L 365.989241 137.657654 
L 366.378017 63.844426 
L 366.572405 126.866644 
L 366.766793 87.18403 
L 366.961181 81.156767 
L 367.349957 113.513341 
L 367.544345 108.788067 
L 367.738733 99.904472 
L 367.933121 74.896432 
L 368.127509 107.700023 
L 368.321897 120.642184 
L 368.516285 92.100927 
L 368.710673 84.570537 
L 368.905061 92.027974 
L 369.099449 91.651638 
L 369.293837 103.78731 
L 369.488225 94.775473 
L 369.682614 99.847444 
L 369.877002 134.861763 
L 370.07139 97.482393 
L 370.265778 86.562702 
L 370.460166 140.853002 
L 370.654554 126.473676 
L 371.04333 55.765101 
L 371.237718 105.311899 
L 371.432106 118.185295 
L 371.626494 141.578365 
L 371.820882 82.79387 
L 372.01527 87.427945 
L 372.209658 88.759392 
L 372.404046 147.646308 
L 372.598434 53.836863 
L 372.98721 126.446706 
L 373.181598 93.328773 
L 373.375986 87.808947 
L 373.570374 89.272975 
L 373.764762 107.451569 
L 373.95915 113.16738 
L 374.153538 137.604814 
L 374.542315 86.422742 
L 374.736703 172.812037 
L 374.931091 134.531851 
L 375.125479 74.101813 
L 375.319867 132.41256 
L 375.514255 60.883285 
L 375.708643 47.593574 
L 375.903031 105.272544 
L 376.097419 75.490168 
L 376.291807 105.220136 
L 376.486195 74.208945 
L 376.874971 125.124066 
L 377.069359 89.657055 
L 377.263747 121.323302 
L 377.458135 113.064323 
L 377.652523 117.156112 
L 377.846911 92.700043 
L 378.041299 131.405069 
L 378.235687 79.789649 
L 378.430075 116.883426 
L 378.624463 82.414206 
L 378.818851 122.947333 
L 379.01324 98.459055 
L 379.402016 115.526662 
L 379.596404 110.03437 
L 379.98518 175.217416 
L 380.373956 39.543376 
L 380.568344 94.021771 
L 380.762732 104.697765 
L 380.95712 102.616431 
L 381.151508 121.499744 
L 381.345896 59.261837 
L 381.734672 100.886576 
L 381.92906 108.970523 
L 382.123448 71.968333 
L 382.317836 129.745659 
L 382.512224 83.399142 
L 382.706612 94.740979 
L 382.901 97.625386 
L 383.095388 107.245844 
L 383.289776 122.562266 
L 383.484164 96.54333 
L 383.872941 124.758142 
L 384.067329 67.125135 
L 384.261717 113.793332 
L 384.650493 58.496508 
L 384.844881 105.783437 
L 385.039269 97.568157 
L 385.428045 117.228653 
L 385.622433 89.276708 
L 386.011209 123.142866 
L 386.205597 102.443386 
L 386.399985 103.078602 
L 386.594373 100.450588 
L 386.983149 113.274718 
L 387.371925 126.499002 
L 387.566313 97.65023 
L 387.760701 148.231668 
L 387.955089 123.348893 
L 388.149477 134.965808 
L 388.343866 128.034941 
L 388.538254 171.019715 
L 388.732642 15.890413 
L 388.92703 139.894244 
L 389.121418 56.574227 
L 389.315806 70.012974 
L 389.510194 128.076205 
L 389.704582 126.420865 
L 389.89897 83.153649 
L 390.093358 146.061943 
L 390.287746 138.724721 
L 390.482134 111.969466 
L 390.676522 171.713872 
L 390.87091 2.834646 
L 391.259686 107.644203 
L 391.454074 69.099703 
L 391.648462 147.548369 
L 391.84285 66.770209 
L 392.037238 75.597159 
L 392.231626 119.6711 
L 392.426014 111.323495 
L 392.620402 114.973578 
L 392.81479 101.316685 
L 393.009179 78.434145 
L 393.203567 105.496571 
L 393.397955 91.377533 
L 393.592343 144.295299 
L 393.786731 121.789202 
L 393.981119 113.660918 
L 394.175507 136.199481 
L 394.369895 75.619468 
L 394.564283 125.476799 
L 394.758671 96.573552 
L 394.953059 143.977266 
L 395.147447 20.166181 
L 395.341835 101.332394 
L 395.536223 89.376073 
L 395.730611 106.929316 
L 396.119387 58.722722 
L 396.313775 101.759914 
L 396.508163 81.714785 
L 396.702551 90.468053 
L 396.896939 112.29369 
L 397.091327 70.377953 
L 397.285715 66.282202 
L 397.480103 84.449231 
L 397.674492 90.048035 
L 397.86888 135.249984 
L 398.063268 88.315165 
L 398.257656 96.035908 
L 398.452044 113.204533 
L 398.84082 97.44689 
L 399.035208 119.47174 
L 399.229596 80.304775 
L 399.423984 86.869333 
L 399.618372 108.397009 
L 399.81276 72.521711 
L 400.007148 110.487385 
L 400.201536 86.603929 
L 400.395924 114.64916 
L 400.590312 90.828177 
L 400.7847 85.28685 
L 400.979088 86.714169 
L 401.173476 114.846365 
L 401.367864 84.246745 
L 401.562252 98.527079 
L 401.75664 91.843738 
L 401.951028 110.120769 
L 402.145417 83.271512 
L 402.339805 88.285358 
L 402.534193 106.889096 
L 402.728581 82.714936 
L 402.922969 81.513108 
L 403.117357 83.273571 
L 403.311745 87.244038 
L 403.506133 95.484513 
L 403.700521 85.357958 
L 403.894909 117.319163 
L 404.089297 105.83232 
L 404.283685 65.397932 
L 404.478073 106.012452 
L 404.672461 108.70627 
L 404.866849 93.481921 
L 405.061237 121.035249 
L 405.255625 104.866032 
L 405.450013 132.235785 
L 405.644401 64.820145 
L 406.033177 120.783077 
L 406.227565 101.737156 
L 406.421953 108.535388 
L 406.616341 92.362268 
L 406.81073 140.736628 
L 407.199506 76.569162 
L 407.588282 97.93565 
L 407.78267 99.44476 
L 407.977058 90.310797 
L 408.365834 114.537979 
L 408.560222 105.86631 
L 408.75461 117.129232 
L 409.143386 96.527056 
L 409.337774 118.70999 
L 409.532162 83.076463 
L 409.72655 93.638371 
L 409.920938 94.825369 
L 410.115326 90.643641 
L 410.309714 99.064493 
L 410.504102 100.670986 
L 410.69849 99.086463 
L 410.892878 76.204042 
L 411.087266 126.52271 
L 411.476043 80.902599 
L 411.670431 82.0333 
L 411.864819 85.069199 
L 412.059207 82.542687 
L 412.253595 100.597529 
L 412.447983 88.966029 
L 412.642371 111.056284 
L 412.836759 81.811246 
L 413.031147 96.562442 
L 413.225535 93.439195 
L 413.419923 128.541595 
L 413.614311 97.990337 
L 413.808699 103.466184 
L 414.003087 102.949436 
L 414.197475 82.836359 
L 414.391863 102.116566 
L 414.586251 79.988613 
L 414.780639 110.205639 
L 414.975027 86.633559 
L 415.558191 121.09245 
L 415.752579 96.420208 
L 415.946967 96.241463 
L 416.141356 109.426274 
L 416.335744 130.38229 
L 416.530132 90.083052 
L 416.72452 83.998409 
L 416.918908 107.667682 
L 417.113296 96.102648 
L 417.307684 98.650531 
L 417.502072 92.012322 
L 417.69646 102.505721 
L 417.890848 89.986392 
L 418.085236 91.840691 
L 418.279624 109.363262 
L 418.474012 102.543352 
L 418.6684 79.651388 
L 418.862788 93.58684 
L 419.057176 99.334981 
L 419.251564 86.886834 
L 419.445952 106.345569 
L 419.64034 110.376767 
L 419.834728 107.298911 
L 420.029116 89.937424 
L 420.223504 83.069238 
L 420.417892 107.66358 
L 420.61228 109.707375 
L 420.806669 92.657994 
L 421.001057 120.467218 
L 421.195445 117.220105 
L 421.389833 95.255628 
L 421.584221 105.079832 
L 421.778609 76.23132 
L 421.972997 102.267754 
L 422.167385 98.511939 
L 422.361773 70.114721 
L 422.556161 114.431341 
L 422.750549 89.268994 
L 422.944937 84.715298 
L 423.139325 107.131825 
L 423.333713 102.511971 
L 423.528101 78.720319 
L 423.722489 87.834059 
L 423.916877 115.539399 
L 424.305653 82.365994 
L 424.500041 118.980578 
L 424.694429 95.133928 
L 424.888817 86.908415 
L 425.277593 114.637714 
L 425.471982 73.796497 
L 425.66637 98.583827 
L 425.860758 101.858881 
L 426.055146 85.872013 
L 426.249534 119.870538 
L 426.443922 74.420182 
L 426.63831 101.204077 
L 427.027086 84.53472 
L 427.221474 155.044944 
L 427.61025 84.703262 
L 427.804638 120.737243 
L 427.999026 135.166269 
L 428.193414 77.889638 
L 428.387802 104.176556 
L 428.58219 70.420633 
L 428.776578 107.58873 
L 428.970966 105.775702 
L 429.165354 89.686496 
L 429.165354 89.686496 
" style="fill:none;stroke:#009afa;stroke-linecap:round;"/>
   </g>
   <g id="patch_3">
    <path d="M 18.034646 275.905354 
L 18.034646 2.834646 
" style="fill:none;stroke:#000000;stroke-linecap:square;stroke-linejoin:miter;stroke-width:0.8;"/>
   </g>
   <g id="patch_4">
    <path d="M 18.034646 275.905354 
L 429.165354 275.905354 
" style="fill:none;stroke:#000000;stroke-linecap:square;stroke-linejoin:miter;stroke-width:0.8;"/>
   </g>
  </g>
 </g>
 <defs>
  <clipPath id="pfa52553bf3">
   <rect height="273.070709" width="411.130709" x="18.034646" y="2.834646"/>
  </clipPath>
 </defs>
</svg>
