<?xml version="1.0" encoding="utf-8"?>
<svg xmlns="http://www.w3.org/2000/svg" xmlns:xlink="http://www.w3.org/1999/xlink" width="600" height="400" viewBox="0 0 600 400">
<defs>
  <clipPath id="clip1500">
    <rect x="0" y="0" width="600" height="400"/>
  </clipPath>
</defs>
<polygon clip-path="url(#clip1500)" points="
0,400 600,400 600,0 0,0 
  " fill="#ffffff" fill-opacity="1"/>
<defs>
  <clipPath id="clip1501">
    <rect x="120" y="0" width="421" height="400"/>
  </clipPath>
</defs>
<polygon clip-path="url(#clip1500)" points="
47.0391,109.202 580.315,109.202 580.315,11.811 47.0391,11.811 
  " fill="#ffffff" fill-opacity="1"/>
<defs>
  <clipPath id="clip1502">
    <rect x="47" y="11" width="534" height="98"/>
  </clipPath>
</defs>
<polyline clip-path="url(#clip1502)" style="stroke:#000000; stroke-width:0.5; stroke-opacity:0.1; fill:none" points="
  61.8939,109.202 61.8939,11.811 
  "/>
<polyline clip-path="url(#clip1502)" style="stroke:#000000; stroke-width:0.5; stroke-opacity:0.1; fill:none" points="
  180.828,109.202 180.828,11.811 
  "/>
<polyline clip-path="url(#clip1502)" style="stroke:#000000; stroke-width:0.5; stroke-opacity:0.1; fill:none" points="
  299.762,109.202 299.762,11.811 
  "/>
<polyline clip-path="url(#clip1502)" style="stroke:#000000; stroke-width:0.5; stroke-opacity:0.1; fill:none" points="
  418.696,109.202 418.696,11.811 
  "/>
<polyline clip-path="url(#clip1502)" style="stroke:#000000; stroke-width:0.5; stroke-opacity:0.1; fill:none" points="
  537.63,109.202 537.63,11.811 
  "/>
<polyline clip-path="url(#clip1502)" style="stroke:#000000; stroke-width:0.5; stroke-opacity:0.1; fill:none" points="
  47.0391,100.674 580.315,100.674 
  "/>
<polyline clip-path="url(#clip1502)" style="stroke:#000000; stroke-width:0.5; stroke-opacity:0.1; fill:none" points="
  47.0391,82.9849 580.315,82.9849 
  "/>
<polyline clip-path="url(#clip1502)" style="stroke:#000000; stroke-width:0.5; stroke-opacity:0.1; fill:none" points="
  47.0391,65.2958 580.315,65.2958 
  "/>
<polyline clip-path="url(#clip1502)" style="stroke:#000000; stroke-width:0.5; stroke-opacity:0.1; fill:none" points="
  47.0391,47.6068 580.315,47.6068 
  "/>
<polyline clip-path="url(#clip1502)" style="stroke:#000000; stroke-width:0.5; stroke-opacity:0.1; fill:none" points="
  47.0391,29.9177 580.315,29.9177 
  "/>
<polyline clip-path="url(#clip1502)" style="stroke:#000000; stroke-width:0.5; stroke-opacity:0.1; fill:none" points="
  47.0391,12.2286 580.315,12.2286 
  "/>
<polyline clip-path="url(#clip1500)" style="stroke:#000000; stroke-width:1; stroke-opacity:1; fill:none" points="
  47.0391,109.202 580.315,109.202 
  "/>
<polyline clip-path="url(#clip1500)" style="stroke:#000000; stroke-width:1; stroke-opacity:1; fill:none" points="
  47.0391,109.202 47.0391,11.811 
  "/>
<polyline clip-path="url(#clip1500)" style="stroke:#000000; stroke-width:1; stroke-opacity:1; fill:none" points="
  61.8939,109.202 61.8939,107.741 
  "/>
<polyline clip-path="url(#clip1500)" style="stroke:#000000; stroke-width:1; stroke-opacity:1; fill:none" points="
  180.828,109.202 180.828,107.741 
  "/>
<polyline clip-path="url(#clip1500)" style="stroke:#000000; stroke-width:1; stroke-opacity:1; fill:none" points="
  299.762,109.202 299.762,107.741 
  "/>
<polyline clip-path="url(#clip1500)" style="stroke:#000000; stroke-width:1; stroke-opacity:1; fill:none" points="
  418.696,109.202 418.696,107.741 
  "/>
<polyline clip-path="url(#clip1500)" style="stroke:#000000; stroke-width:1; stroke-opacity:1; fill:none" points="
  537.63,109.202 537.63,107.741 
  "/>
<polyline clip-path="url(#clip1500)" style="stroke:#000000; stroke-width:1; stroke-opacity:1; fill:none" points="
  47.0391,100.674 55.0382,100.674 
  "/>
<polyline clip-path="url(#clip1500)" style="stroke:#000000; stroke-width:1; stroke-opacity:1; fill:none" points="
  47.0391,82.9849 55.0382,82.9849 
  "/>
<polyline clip-path="url(#clip1500)" style="stroke:#000000; stroke-width:1; stroke-opacity:1; fill:none" points="
  47.0391,65.2958 55.0382,65.2958 
  "/>
<polyline clip-path="url(#clip1500)" style="stroke:#000000; stroke-width:1; stroke-opacity:1; fill:none" points="
  47.0391,47.6068 55.0382,47.6068 
  "/>
<polyline clip-path="url(#clip1500)" style="stroke:#000000; stroke-width:1; stroke-opacity:1; fill:none" points="
  47.0391,29.9177 55.0382,29.9177 
  "/>
<polyline clip-path="url(#clip1500)" style="stroke:#000000; stroke-width:1; stroke-opacity:1; fill:none" points="
  47.0391,12.2286 55.0382,12.2286 
  "/>
<g clip-path="url(#clip1500)">
<text style="fill:#000000; fill-opacity:1; font-family:Arial,Helvetica Neue,Helvetica,sans-serif; font-size:12; text-anchor:middle;" transform="rotate(0, 61.8939, 123.002)" x="61.8939" y="123.002">0</text>
</g>
<g clip-path="url(#clip1500)">
<text style="fill:#000000; fill-opacity:1; font-family:Arial,Helvetica Neue,Helvetica,sans-serif; font-size:12; text-anchor:middle;" transform="rotate(0, 180.828, 123.002)" x="180.828" y="123.002">500</text>
</g>
<g clip-path="url(#clip1500)">
<text style="fill:#000000; fill-opacity:1; font-family:Arial,Helvetica Neue,Helvetica,sans-serif; font-size:12; text-anchor:middle;" transform="rotate(0, 299.762, 123.002)" x="299.762" y="123.002">1000</text>
</g>
<g clip-path="url(#clip1500)">
<text style="fill:#000000; fill-opacity:1; font-family:Arial,Helvetica Neue,Helvetica,sans-serif; font-size:12; text-anchor:middle;" transform="rotate(0, 418.696, 123.002)" x="418.696" y="123.002">1500</text>
</g>
<g clip-path="url(#clip1500)">
<text style="fill:#000000; fill-opacity:1; font-family:Arial,Helvetica Neue,Helvetica,sans-serif; font-size:12; text-anchor:middle;" transform="rotate(0, 537.63, 123.002)" x="537.63" y="123.002">2000</text>
</g>
<g clip-path="url(#clip1500)">
<text style="fill:#000000; fill-opacity:1; font-family:Arial,Helvetica Neue,Helvetica,sans-serif; font-size:12; text-anchor:end;" transform="rotate(0, 41.0391, 105.174)" x="41.0391" y="105.174">-15</text>
</g>
<g clip-path="url(#clip1500)">
<text style="fill:#000000; fill-opacity:1; font-family:Arial,Helvetica Neue,Helvetica,sans-serif; font-size:12; text-anchor:end;" transform="rotate(0, 41.0391, 87.4849)" x="41.0391" y="87.4849">-10</text>
</g>
<g clip-path="url(#clip1500)">
<text style="fill:#000000; fill-opacity:1; font-family:Arial,Helvetica Neue,Helvetica,sans-serif; font-size:12; text-anchor:end;" transform="rotate(0, 41.0391, 69.7958)" x="41.0391" y="69.7958">-5</text>
</g>
<g clip-path="url(#clip1500)">
<text style="fill:#000000; fill-opacity:1; font-family:Arial,Helvetica Neue,Helvetica,sans-serif; font-size:12; text-anchor:end;" transform="rotate(0, 41.0391, 52.1068)" x="41.0391" y="52.1068">0</text>
</g>
<g clip-path="url(#clip1500)">
<text style="fill:#000000; fill-opacity:1; font-family:Arial,Helvetica Neue,Helvetica,sans-serif; font-size:12; text-anchor:end;" transform="rotate(0, 41.0391, 34.4177)" x="41.0391" y="34.4177">5</text>
</g>
<g clip-path="url(#clip1500)">
<text style="fill:#000000; fill-opacity:1; font-family:Arial,Helvetica Neue,Helvetica,sans-serif; font-size:12; text-anchor:end;" transform="rotate(0, 41.0391, 16.7286)" x="41.0391" y="16.7286">10</text>
</g>
<polyline clip-path="url(#clip1502)" style="stroke:#009af9; stroke-width:1; stroke-opacity:1; fill:none" points="
  62.1318,46.1311 62.3697,44.7461 62.6075,47.6726 62.8454,51.6642 63.0833,42.0258 63.3211,50.5943 63.559,53.8806 63.7969,56.5372 64.0348,48.7815 64.2726,52.3941 
  64.5105,42.2316 64.7484,49.9501 64.9862,36.4599 65.2241,47.9642 65.462,45.5415 65.6998,49.6721 65.9377,56.0529 66.1756,57.0109 66.4134,56.9542 66.6513,39.5389 
  66.8892,51.1642 67.127,51.8914 67.3649,39.7647 67.6028,46.5543 67.8406,56.2683 68.0785,39.1654 68.3164,50.2455 68.5542,50.6478 68.7921,53.7684 69.03,51.5891 
  69.2678,47.2206 69.5057,55.4567 69.7436,57.3702 69.9814,57.9845 70.2193,51.3702 70.4572,35.037 70.695,54.0432 70.9329,50.2338 71.1708,59.5345 71.4087,37.9857 
  71.6465,41.7486 71.8844,41.3511 72.1223,41.4598 72.3601,45.0189 72.598,42.7955 72.8359,56.145 73.0737,46.0606 73.3116,42.5313 73.5495,42.9987 73.7873,51.7384 
  74.0252,50.6498 74.2631,48.2552 74.5009,34.6822 74.7388,37.863 74.9767,46.6198 75.2145,44.6766 75.4524,42.2505 75.6903,45.1804 75.9281,50.9202 76.166,46.2038 
  76.4039,44.6723 76.6417,44.1897 76.8796,43.7213 77.1175,45.4007 77.3553,50.8905 77.5932,51.216 77.8311,35.9774 78.069,43.3523 78.3068,43.6815 78.5447,49.5965 
  78.7826,48.7105 79.0204,56.7172 79.2583,52.4658 79.4962,40.7666 79.734,41.1059 79.9719,47.8099 80.2098,50.6688 80.4476,46.913 80.6855,42.7557 80.9234,43.0205 
  81.1612,46.5223 81.3991,41.2946 81.637,47.4054 81.8748,52.6305 82.1127,50.7277 82.3506,49.3102 82.5884,42.3106 82.8263,41.9307 83.0642,47.4062 83.302,45.6257 
  83.5399,48.1306 83.7778,48.1376 84.0156,51.5919 84.2535,50.6285 84.4914,54.4821 84.7293,53.6384 84.9671,46.1418 85.205,39.6886 85.4429,43.9489 85.6807,43.5198 
  85.9186,47.7391 86.1565,48.206 86.3943,44.2204 86.6322,48.3328 86.8701,43.985 87.1079,49.2478 87.3458,56.8864 87.5837,52.0285 87.8215,48.5666 88.0594,55.9455 
  88.2973,43.4818 88.5351,52.5771 88.773,52.2155 89.0109,43.8454 89.2487,52.3011 89.4866,45.2518 89.7245,33.0474 89.9623,39.0432 90.2002,42.3851 90.4381,47.4702 
  90.6759,42.72 90.9138,43.6207 91.1517,49.725 91.3895,49.9277 91.6274,44.5742 91.8653,40.2949 92.1032,42.1149 92.341,50.283 92.5789,50.0477 92.8168,43.8576 
  93.0546,42.6012 93.2925,51.3089 93.5304,60.9906 93.7682,50.6448 94.0061,47.8033 94.244,44.0497 94.4818,45.3639 94.7197,47.8002 94.9576,43.4116 95.1954,45.7773 
  95.4333,43.4233 95.6712,44.6353 95.909,43.9329 96.1469,47.9759 96.3848,44.447 96.6226,47.91 96.8605,49.3052 97.0984,48.1536 97.3362,40.4894 97.5741,44.0451 
  97.812,41.4507 98.0498,47.7826 98.2877,48.1898 98.5256,48.599 98.7635,53.3108 99.0013,51.7827 99.2392,59.0173 99.4771,44.9492 99.7149,45.7033 99.9528,45.5926 
  100.191,45.9074 100.429,46.0353 100.666,58.9391 100.904,56.3689 101.142,43.9922 101.38,50.3955 101.618,47.2878 101.856,43.8728 102.094,46.4776 102.331,46.9784 
  102.569,49.2393 102.807,47.0419 103.045,37.2678 103.283,44.2646 103.521,42.9283 103.759,53.0748 103.997,51.6858 104.234,49.7573 104.472,59.0716 104.71,54.8158 
  104.948,52.315 105.186,40.4364 105.424,54.908 105.662,54.2546 105.899,55.6201 106.137,61.3997 106.375,31.3481 106.613,52.3462 106.851,37.7261 107.089,49.4229 
  107.327,46.395 107.565,48.0081 107.802,47.747 108.04,44.18 108.278,58.5285 108.516,46.7805 108.754,34.9878 108.992,39.0884 109.23,50.5942 109.468,44.3623 
  109.705,46.5745 109.943,55.6256 110.181,57.4371 110.419,54.322 110.657,52.5441 110.895,52.4796 111.133,39.9408 111.37,43.0519 111.608,44.9352 111.846,51.5793 
  112.084,54.1447 112.322,60.5467 112.56,50.5315 112.798,44.2484 113.036,45.5769 113.273,40.1637 113.511,44.7193 113.749,53.6215 113.987,52.8606 114.225,39.2993 
  114.463,46.617 114.701,54.9553 114.938,55.8502 115.176,58.6223 115.414,59.1325 115.652,58.6371 115.89,60.9152 116.128,62.4062 116.366,53.0912 116.604,18.8279 
  116.841,62.137 117.079,45.7232 117.317,57.7231 117.555,53.0913 117.793,48.3152 118.031,36.708 118.269,39.2256 118.506,42.574 118.744,51.8808 118.982,56.0596 
  119.22,41.5232 119.458,27.5458 119.696,48.2524 119.934,38.6365 120.172,51.5497 120.409,42.6498 120.647,40.8716 120.885,37.4002 121.123,58.7355 121.361,50.8497 
  121.599,49.0847 121.837,43.6502 122.074,44.6175 122.312,57.7575 122.55,38.4545 122.788,32.8973 123.026,43.3717 123.264,47.0989 123.502,45.6509 123.74,38.8502 
  123.977,46.1991 124.215,45.0975 124.453,42.9072 124.691,43.5781 124.929,40.8163 125.167,44.5531 125.405,44.6535 125.643,52.9468 125.88,46.8094 126.118,38.4446 
  126.356,41.4577 126.594,52.3348 126.832,44.5945 127.07,42.4781 127.308,43.103 127.545,48.171 127.783,42.1723 128.021,51.0527 128.259,50.7147 128.497,54.2182 
  128.735,52.6691 128.973,42.1659 129.211,49.389 129.448,47.287 129.686,55.0788 129.924,42.6281 130.162,45.6263 130.4,49.9761 130.638,47.5399 130.876,56.2587 
  131.113,60.0773 131.351,44.6188 131.589,32.7641 131.827,41.6261 132.065,52.0995 132.303,39.435 132.541,53.2033 132.779,52.3884 133.016,49.8209 133.254,40.6778 
  133.492,50.1152 133.73,60.1694 133.968,54.7047 134.206,43.8737 134.444,52.848 134.681,50.4267 134.919,58.1321 135.157,26.4602 135.395,42.1477 135.633,41.8371 
  135.871,38.4324 136.109,44.0785 136.347,44.1721 136.584,45.1953 136.822,46.5584 137.06,52.3138 137.298,39.2891 137.536,44.9399 137.774,47.1271 138.012,48.2064 
  138.25,40.6681 138.487,41.6713 138.725,51.4134 138.963,51.3985 139.201,48.2605 139.439,39.5311 139.677,43.3155 139.915,50.6156 140.152,55.1194 140.39,51.3075 
  140.628,50.1337 140.866,42.3907 141.104,37.4601 141.342,50.0433 141.58,53.1847 141.818,45.8323 142.055,46.9617 142.293,53.6531 142.531,43.7395 142.769,52.0113 
  143.007,50.6709 143.245,43.4066 143.483,42.6872 143.72,42.9908 143.958,44.8277 144.196,45.4229 144.434,53.0313 144.672,47.7828 144.91,53.6499 145.148,48.8515 
  145.386,44.2416 145.623,46.5457 145.861,49.6651 146.099,52.1211 146.337,39.628 146.575,40.7835 146.813,45.4349 147.051,44.091 147.288,40.9085 147.526,48.7704 
  147.764,42.8094 148.002,46.5672 148.24,55.2227 148.478,45.1616 148.716,39.7146 148.954,48.6383 149.191,50.9374 149.429,54.4747 149.667,50.4162 149.905,55.473 
  150.143,43.7084 150.381,49.6672 150.619,57.4341 150.857,39.5029 151.094,46.8554 151.332,61.9865 151.57,44.741 151.808,56.6953 152.046,36.0324 152.284,51.8838 
  152.522,58.025 152.759,48.0374 152.997,40.8987 153.235,60.6541 153.473,57.4589 153.711,40.8388 153.949,54.2468 154.187,36.4449 154.425,58.4458 154.662,50.7068 
  154.9,53.4335 155.138,32.9313 155.376,43.2019 155.614,35.9806 155.852,57.1097 156.09,51.4199 156.327,56.521 156.565,56.3514 156.803,35.6522 157.041,43.9829 
  157.279,52.5135 157.517,36.8063 157.755,36.7725 157.993,46.8832 158.23,46.3456 158.468,45.216 158.706,47.9618 158.944,53.9845 159.182,57.0846 159.42,59.7846 
  159.658,58.2194 159.895,55.3383 160.133,68.6081 160.371,42.0234 160.609,44.1456 160.847,44.245 161.085,39.4876 161.323,60.9878 161.561,39.7136 161.798,43.1373 
  162.036,47.2648 162.274,61.4495 162.512,56.4344 162.75,38.4238 162.988,35.7611 163.226,41.8995 163.463,41.6577 163.701,55.3134 163.939,51.8999 164.177,56.7783 
  164.415,55.0049 164.653,40.4216 164.891,64.0323 165.129,40.5958 165.366,50.4428 165.604,53.4881 165.842,61.3578 166.08,48.921 166.318,34.0236 166.556,41.3342 
  166.794,60.4156 167.032,54.0323 167.269,62.9936 167.507,65.9754 167.745,30.4528 167.983,41.1909 168.221,72.0291 168.459,33.3393 168.697,72.8575 168.934,62.7708 
  169.172,61.9209 169.41,58.5634 169.648,48.6886 169.886,51.8825 170.124,45.4107 170.362,69.8453 170.6,24.5704 170.837,33.7088 171.075,43.6272 171.313,33.0271 
  171.551,44.541 171.789,53.3942 172.027,73.9925 172.265,37.1576 172.502,60.909 172.74,47.5132 172.978,47.7004 173.216,49.8984 173.454,41.6365 173.692,37.5056 
  173.93,36.2742 174.168,49.4515 174.405,22.0455 174.643,39.7599 174.881,43.4204 175.119,41.9768 175.357,52.9846 175.595,36.9393 175.833,44.0708 176.07,43.8661 
  176.308,50.6293 176.546,52.3503 176.784,46.3081 177.022,32.1505 177.26,49.1502 177.498,43.3729 177.736,40.4788 177.973,35.0673 178.211,59.0971 178.449,44.7025 
  178.687,36.0661 178.925,55.3071 179.163,47.6762 179.401,30.827 179.639,49.1536 179.876,44.5199 180.114,47.6793 180.352,64.1702 180.59,54.0245 180.828,58.5662 
  181.066,49.1494 181.304,60 181.541,42.5377 181.779,40.976 182.017,57.5587 182.255,54.26 182.493,33.1711 182.731,59.8665 182.969,27.7321 183.207,42.0243 
  183.444,42.104 183.682,52.9608 183.92,48.578 184.158,39.5146 184.396,52.0405 184.634,44.1319 184.872,61.4047 185.109,46.4656 185.347,43.2851 185.585,46.0289 
  185.823,44.1769 186.061,32.275 186.299,35.7881 186.537,43.4361 186.775,46.0481 187.012,34.5824 187.25,50.7544 187.488,50.0486 187.726,40.5829 187.964,53.8356 
  188.202,44.5809 188.44,47.9975 188.677,39.5624 188.915,49.8586 189.153,49.5475 189.391,55.1519 189.629,36.8288 189.867,51.817 190.105,51.8615 190.343,40.8186 
  190.58,53.0144 190.818,54.2285 191.056,44.8101 191.294,52.3501 191.532,36.0964 191.77,43.2757 192.008,43.262 192.246,49.0692 192.483,40.4724 192.721,54.6144 
  192.959,50.3544 193.197,43.0792 193.435,48.8145 193.673,45.9554 193.911,56.1317 194.148,41.3054 194.386,44.3722 194.624,49.7578 194.862,37.0906 195.1,54.1426 
  195.338,55.6126 195.576,50.9661 195.814,48.8424 196.051,47.6683 196.289,47.2189 196.527,57.3692 196.765,41.3067 197.003,40.3927 197.241,47.1565 197.479,41.8654 
  197.716,43.2074 197.954,48.7963 198.192,42.3813 198.43,51.8909 198.668,51.6323 198.906,45.0209 199.144,51.4567 199.382,48.0511 199.619,52.8614 199.857,45.4846 
  200.095,52.0541 200.333,47.2202 200.571,48.5155 200.809,40.6542 201.047,53.9082 201.284,53.5603 201.522,49.9235 201.76,39.7909 201.998,45.9882 202.236,55.9811 
  202.474,40.593 202.712,50.932 202.95,42.4687 203.187,59.56 203.425,47.4741 203.663,43.0941 203.901,42.5664 204.139,43.9187 204.377,48.1853 204.615,49.0908 
  204.852,47.4171 205.09,41.0075 205.328,58.2353 205.566,49.3122 205.804,45.8394 206.042,51.4191 206.28,49.5316 206.518,49.5358 206.755,43.2218 206.993,52.9285 
  207.231,52.3989 207.469,47.2022 207.707,45.6422 207.945,53.4557 208.183,53.9765 208.421,49.2886 208.658,52.055 208.896,38.7654 209.134,37.4234 209.372,43.1886 
  209.61,53.1732 209.848,54.9806 210.086,43.3522 210.323,50.962 210.561,41.471 210.799,52.2358 211.037,62.3684 211.275,43.91 211.513,51.6618 211.751,45.3213 
  211.989,43.6508 212.226,54.7759 212.464,52.3032 212.702,49.0597 212.94,44.8437 213.178,42.0031 213.416,45.9059 213.654,46.3281 213.891,47.4665 214.129,45.2168 
  214.367,34.3884 214.605,37.4138 214.843,48.6578 215.081,47.6068 215.319,34.9255 215.557,56.0964 215.794,46.5681 216.032,37.4381 216.27,49.0587 216.508,60.304 
  216.746,49.7794 216.984,51.4555 217.222,40.408 217.459,41.0613 217.697,44.3428 217.935,33.824 218.173,41.958 218.411,46.5263 218.649,46.4674 218.887,51.4591 
  219.125,41.8467 219.362,43.9333 219.6,64.1252 219.838,47.671 220.076,43.1916 220.314,40.0033 220.552,65.2868 220.79,60.7692 221.028,51.2085 221.265,56.2583 
  221.503,54.2079 221.741,35.9866 221.979,53.3723 222.217,33.5065 222.455,52.7695 222.693,53.5167 222.93,40.5154 223.168,43.2327 223.406,43.3528 223.644,44.9933 
  223.882,44.8812 224.12,48.1143 224.358,57.3427 224.596,41.4867 224.833,46.5879 225.071,58.2705 225.309,39.244 225.547,42.9597 225.785,42.0827 226.023,44.3892 
  226.261,45.3909 226.498,47.9722 226.736,49.5797 226.974,44.718 227.212,50.3088 227.45,56.3468 227.688,51.297 227.926,41.2717 228.164,49.9407 228.401,39.9834 
  228.639,43.1796 228.877,49.4418 229.115,45.4082 229.353,46.6909 229.591,43.3751 229.829,54.2803 230.066,42.38 230.304,43.1656 230.542,41.6986 230.78,39.9519 
  231.018,45.0341 231.256,47.3268 231.494,56.3614 231.732,42.8566 231.969,45.9995 232.207,42.9941 232.445,48.3455 232.683,64.4916 232.921,52.8728 233.159,58.7566 
  233.397,42.1734 233.635,53.5409 233.872,34.7545 234.11,45.6281 234.348,36.8874 234.586,45.5831 234.824,46.284 235.062,45.2025 235.3,48.6336 235.537,56.1799 
  235.775,33.9236 236.013,40.7336 236.251,41.1368 236.489,42.1624 236.727,46.2738 236.965,40.3292 237.203,53.712 237.44,60.0959 237.678,52.7063 237.916,61.9573 
  238.154,56.734 238.392,68.0491 238.63,33.8501 238.868,46.3328 239.105,51.8712 239.343,40.0865 239.581,39.2438 239.819,43.7586 240.057,48.3038 240.295,44.5979 
  240.533,33.7142 240.771,45.6168 241.008,37.1382 241.246,46.5919 241.484,45.691 241.722,50.588 241.96,40.7255 242.198,41.9875 242.436,41.3648 242.673,46.644 
  242.911,49.2272 243.149,42.3128 243.387,45.9585 243.625,46.9101 243.863,39.9314 244.101,50.4899 244.339,35.7906 244.576,43.9732 244.814,56.9805 245.052,35.0498 
  245.29,41.9785 245.528,53.0502 245.766,58.2796 246.004,38.8924 246.242,39.2877 246.479,35.3481 246.717,44.9251 246.955,56.3413 247.193,70.9412 247.431,36.5133 
  247.669,39.2504 247.907,48.0148 248.144,50.2075 248.382,51.0083 248.62,53.0108 248.858,50.481 249.096,53.0398 249.334,48.4255 249.572,47.0289 249.81,48.2302 
  250.047,40.3621 250.285,49.7372 250.523,36.1187 250.761,39.296 250.999,48.5036 251.237,52.4573 251.475,48.0169 251.712,47.8358 251.95,50.2184 252.188,53.3662 
  252.426,47.7927 252.664,43.0925 252.902,42.7869 253.14,55.4915 253.378,43.3896 253.615,45.0363 253.853,49.1633 254.091,55.1784 254.329,51.7146 254.567,42.4218 
  254.805,55.6506 255.043,42.6166 255.28,38.4716 255.518,45.2697 255.756,55.4151 255.994,63.0766 256.232,52.1732 256.47,63.1725 256.708,45.8571 256.946,58.4627 
  257.183,46.2308 257.421,31.4518 257.659,53.5096 257.897,44.083 258.135,49.2388 258.373,32.4239 258.611,51.7403 258.848,55.151 259.086,37.0587 259.324,46.38 
  259.562,46.1954 259.8,55.6278 260.038,48.0543 260.276,47.9558 260.514,56.2966 260.751,60.8922 260.989,46.704 261.227,47.717 261.465,44.2806 261.703,53.9621 
  261.941,50.2901 262.179,49.0098 262.417,54.7588 262.654,53.7261 262.892,49.2932 263.13,35.0906 263.368,50.2262 263.606,36.9665 263.844,46.6519 264.082,47.396 
  264.319,43.1758 264.557,46.5632 264.795,42.7316 265.033,60.0289 265.271,53.7388 265.509,51.0473 265.747,58.0056 265.985,47.6601 266.222,44.2962 266.46,48.9474 
  266.698,55.0971 266.936,38.2156 267.174,44.6042 267.412,59.0257 267.65,52.7928 267.887,59.5271 268.125,27.9409 268.363,19.9352 268.601,44.9358 268.839,36.7329 
  269.077,41.7447 269.315,48.0535 269.553,54.2379 269.79,35.5446 270.028,18.9122 270.266,40.8937 270.504,57.1299 270.742,28.2469 270.98,50.2879 271.218,55.3372 
  271.455,56.9213 271.693,36.2571 271.931,40.6114 272.169,63.7254 272.407,39.6336 272.645,41.72 272.883,45.217 273.121,35.3167 273.358,50.3764 273.596,57.2581 
  273.834,43.5608 274.072,42.847 274.31,41.785 274.548,49.438 274.786,35.139 275.024,45.797 275.261,54.8979 275.499,41.8433 275.737,46.3597 275.975,52.4136 
  276.213,35.3343 276.451,38.8751 276.689,46.1162 276.926,43.5078 277.164,42.9943 277.402,49.8505 277.64,41.5862 277.878,54.5999 278.116,49.7209 278.354,35.4529 
  278.592,39.765 278.829,56.4727 279.067,43.3462 279.305,54.2942 279.543,40.5224 279.781,50.1464 280.019,57.6151 280.257,51.8664 280.494,39.3237 280.732,55.3594 
  280.97,42.1596 281.208,39.9713 281.446,52.2333 281.684,41.1595 281.922,48.3697 282.16,48.4093 282.397,44.2332 282.635,54.167 282.873,50.3768 283.111,49.0545 
  283.349,49.7754 283.587,42.2134 283.825,45.731 284.062,48.3781 284.3,48.8228 284.538,52.9983 284.776,47.4969 285.014,44.6573 285.252,44.1315 285.49,44.4583 
  285.728,48.0829 285.965,53.6453 286.203,52.5799 286.441,62.3727 286.679,48.1568 286.917,52.2796 287.155,41.0123 287.393,52.9295 287.631,42.7542 287.868,43.7896 
  288.106,45.2873 288.344,52.2204 288.582,53.3857 288.82,41.3597 289.058,46.2464 289.296,40.2709 289.533,51.2375 289.771,52.3224 290.009,58.7923 290.247,54.2162 
  290.485,36.7649 290.723,53.2473 290.961,41.9287 291.199,53.9299 291.436,45.2309 291.674,52.4977 291.912,46.4275 292.15,54.1984 292.388,35.6641 292.626,30.5332 
  292.864,44.764 293.101,39.2095 293.339,47.2757 293.577,52.9911 293.815,46.8189 294.053,42.422 294.291,49.0459 294.529,55.3698 294.767,48.2498 295.004,42.8368 
  295.242,41.8331 295.48,50.0377 295.718,41.3063 295.956,53.9072 296.194,51.1365 296.432,46.3031 296.669,53.869 296.907,46.3989 297.145,37.9335 297.383,48.8934 
  297.621,49.861 297.859,47.5682 298.097,35.0099 298.335,35.7504 298.572,42.8654 298.81,45.0562 299.048,41.9603 299.286,50.8577 299.524,49.122 299.762,47.6739 
  300,52.3742 300.237,46.0675 300.475,46.7881 300.713,48.1512 300.951,46.8595 301.189,43.2102 301.427,46.566 301.665,55.2259 301.903,43.4902 302.14,39.8776 
  302.378,40.6563 302.616,48.6798 302.854,42.4985 303.092,52.0321 303.33,48.9739 303.568,42.1695 303.806,44.7564 304.043,45.7641 304.281,41.6668 304.519,55.0399 
  304.757,49.7145 304.995,53.7105 305.233,47.4774 305.471,44.7841 305.708,47.9308 305.946,50.1392 306.184,52.1614 306.422,55.0107 306.66,49.1268 306.898,41.5339 
  307.136,50.3447 307.374,37.8853 307.611,45.3654 307.849,45.9251 308.087,42.4198 308.325,39.8118 308.563,44.5415 308.801,41.7669 309.039,44.5889 309.276,44.2566 
  309.514,42.0521 309.752,51.022 309.99,44.0446 310.228,49.2205 310.466,47.785 310.704,54.6846 310.942,37.1582 311.179,43.3426 311.417,42.1459 311.655,41.7243 
  311.893,41.216 312.131,46.0495 312.369,35.4545 312.607,43.9349 312.844,44.6695 313.082,49.1621 313.32,50.3736 313.558,35.8559 313.796,48.2425 314.034,56.8413 
  314.272,46.7206 314.51,45.4816 314.747,50.6181 314.985,32.3794 315.223,51.4474 315.461,51.6682 315.699,42.4372 315.937,42.3124 316.175,41.7075 316.413,61.5279 
  316.65,57.7118 316.888,42.2982 317.126,51.6913 317.364,47.3462 317.602,34.5001 317.84,41.8723 318.078,43.2729 318.315,51.6938 318.553,52.8643 318.791,68.6293 
  319.029,40.7537 319.267,51.1856 319.505,43.4309 319.743,44.8386 319.981,50.6598 320.218,40.8657 320.456,39.7659 320.694,47.6563 320.932,60.9985 321.17,33.1202 
  321.408,40.9097 321.646,51.5057 321.883,52.3235 322.121,49.0088 322.359,53.7318 322.597,28.1144 322.835,37.7198 323.073,42.1978 323.311,38.8748 323.549,41.8091 
  323.786,49.4767 324.024,38.591 324.262,48.8934 324.5,42.3169 324.738,45.5047 324.976,44.9424 325.214,39.5063 325.451,56.9845 325.689,42.3821 325.927,63.6697 
  326.165,44.2834 326.403,51.1275 326.641,35.6554 326.879,49.2466 327.117,66.6422 327.354,35.1666 327.592,41.9314 327.83,42.801 328.068,39.4454 328.306,45.6314 
  328.544,51.4862 328.782,41.6395 329.02,45.2493 329.257,49.9044 329.495,40.4384 329.733,44.5426 329.971,33.6957 330.209,50.1691 330.447,42.6902 330.685,60.7543 
  330.922,56.2146 331.16,46.1613 331.398,40.818 331.636,46.9974 331.874,50.9397 332.112,62.3539 332.35,106.446 332.588,85.4458 332.825,24.4873 333.063,57.0123 
  333.301,42.1144 333.539,49.3597 333.777,62.6242 334.015,41.3261 334.253,35.1671 334.49,39.9673 334.728,54.7869 334.966,31.8704 335.204,64.8002 335.442,50.7764 
  335.68,38.6397 335.918,43.2436 336.156,41.9953 336.393,43.995 336.631,40.8252 336.869,42.5457 337.107,45.7332 337.345,48.0753 337.583,46.3461 337.821,60.9024 
  338.058,39.1439 338.296,39.5709 338.534,66.7513 338.772,38.4403 339.01,51.5237 339.248,56.9022 339.486,50.0074 339.724,44.4909 339.961,31.8003 340.199,41.7008 
  340.437,43.466 340.675,46.0548 340.913,52.6981 341.151,46.1545 341.389,51.0529 341.626,46.9328 341.864,56.5776 342.102,35.2441 342.34,61.1862 342.578,49.0158 
  342.816,46.914 343.054,46.7461 343.292,42.6552 343.529,43.5144 343.767,46.4233 344.005,49.0234 344.243,43.9243 344.481,44.9682 344.719,44.3981 344.957,42.6818 
  345.195,50.6792 345.432,54.6168 345.67,59.1959 345.908,41.8343 346.146,41.8357 346.384,42.4957 346.622,50.8379 346.86,45.3047 347.097,47.4263 347.335,44.7792 
  347.573,44.0437 347.811,42.3816 348.049,44.7197 348.287,38.6962 348.525,45.0235 348.763,52.8774 349,51.181 349.238,51.5421 349.476,39.5851 349.714,45.0076 
  349.952,54.5951 350.19,45.7912 350.428,42.9 350.665,45.2986 350.903,38.929 351.141,47.5035 351.379,46.3738 351.617,50.12 351.855,35.7143 352.093,45.6329 
  352.331,45.8627 352.568,40.7701 352.806,50.5475 353.044,50.8503 353.282,42.3356 353.52,52.7398 353.758,38.0658 353.996,41.9847 354.233,45.6451 354.471,40.8271 
  354.709,44.9977 354.947,48.6335 355.185,49.0792 355.423,41.9885 355.661,48.9345 355.899,51.068 356.136,47.3128 356.374,48.7665 356.612,36.4232 356.85,47.9111 
  357.088,63.1264 357.326,47.234 357.564,48.8784 357.802,50.1638 358.039,45.1986 358.277,46.764 358.515,45.6687 358.753,42.8587 358.991,43.6124 359.229,57.6724 
  359.467,41.775 359.704,38.3473 359.942,57.9131 360.18,57.4283 360.418,55.6878 360.656,49.823 360.894,42.1718 361.132,49.7243 361.37,51.762 361.607,43.7219 
  361.845,42.427 362.083,47.7779 362.321,45.442 362.559,45.8114 362.797,48.4738 363.035,47.1177 363.272,48.8147 363.51,56.4804 363.748,45.5936 363.986,39.6882 
  364.224,37.1033 364.462,42.6764 364.7,45.9858 364.938,43.3168 365.175,47.874 365.413,53.2692 365.651,51.1835 365.889,46.5504 366.127,42.7993 366.365,42.7583 
  366.603,56.0826 366.84,48.9142 367.078,64.34 367.316,45.4388 367.554,71.7779 367.792,40.451 368.03,47.3095 368.268,49.2805 368.506,54.0165 368.743,60.8514 
  368.981,40.7471 369.219,59.8925 369.457,50.5783 369.695,32.7631 369.933,56.9145 370.171,44.851 370.409,32.6937 370.646,51.5786 370.884,45.1975 371.122,35.2152 
  371.36,47.3319 371.598,47.41 371.836,47.1155 372.074,51.5076 372.311,63.0928 372.549,43.4299 372.787,33.2611 373.025,36.2812 373.263,30.2389 373.501,37.2587 
  373.739,50.9991 373.977,44.9886 374.214,39.2638 374.452,49.2106 374.69,53.3422 374.928,40.629 375.166,44.0413 375.404,52.7269 375.642,32.7111 375.879,54.375 
  376.117,49.5411 376.355,49.1396 376.593,56.3048 376.831,40.9483 377.069,41.729 377.307,45.0974 377.545,54.8957 377.782,48.9796 378.02,51.4781 378.258,45.9946 
  378.496,45.1932 378.734,42.1157 378.972,49.983 379.21,39.7729 379.447,45.2667 379.685,47.804 379.923,47.1763 380.161,42.223 380.399,52.892 380.637,52.1665 
  380.875,45.9032 381.113,47.1073 381.35,45.8291 381.588,57.0905 381.826,34.0891 382.064,51.2931 382.302,43.2165 382.54,49.5409 382.778,40.9806 383.015,64.0112 
  383.253,49.6576 383.491,44.3756 383.729,50.3112 383.967,42.7039 384.205,29.3938 384.443,37.3325 384.681,45.9739 384.918,45.1419 385.156,50.1326 385.394,53.1058 
  385.632,44.1427 385.87,45.0344 386.108,54.878 386.346,42.3513 386.584,51.5964 386.821,52.494 387.059,43.8447 387.297,48.4697 387.535,50.7125 387.773,56.4241 
  388.011,29.8301 388.249,53.4128 388.486,45.7902 388.724,42.9841 388.962,47.7919 389.2,48.379 389.438,50.3842 389.676,45.2783 389.914,54.3074 390.152,52.2255 
  390.389,47.0316 390.627,39.8147 390.865,49.5777 391.103,41.8331 391.341,52.3773 391.579,38.6164 391.817,47.0893 392.054,51.1272 392.292,46.9614 392.53,52.1343 
  392.768,43.694 393.006,49.0089 393.244,44.5777 393.482,50.1411 393.72,47.5455 393.957,57.9639 394.195,43.5818 394.433,42.604 394.671,44.0491 394.909,49.3265 
  395.147,43.3373 395.385,47.1668 395.622,42.6871 395.86,46.6954 396.098,43.5946 396.336,50.8424 396.574,42.0729 396.812,47.3722 397.05,50.5673 397.288,49.1336 
  397.525,46.4648 397.763,43.8356 398.001,40.3552 398.239,48.3542 398.477,58.1048 398.715,42.078 398.953,40.5147 399.191,42.0039 399.428,53.3245 399.666,48.2079 
  399.904,44.0285 400.142,54.9162 400.38,42.7026 400.618,51.4265 400.856,52.2116 401.093,42.0639 401.331,47.1183 401.569,46.4583 401.807,43.2759 402.045,47.0836 
  402.283,54.0256 402.521,46.4148 402.759,50.0247 402.996,41.6195 403.234,52.4987 403.472,42.3604 403.71,50.0979 403.948,47.2367 404.186,46.082 404.424,46.1032 
  404.661,43.5546 404.899,44.1544 405.137,45.493 405.375,52.7669 405.613,44.1164 405.851,50.9438 406.089,44.3665 406.327,46.6955 406.564,46.9298 406.802,45.5058 
  407.04,48.7317 407.278,48.9283 407.516,47.5102 407.754,47.2757 407.992,49.9282 408.229,47.4127 408.467,43.8843 408.705,51.1077 408.943,43.8594 409.181,44.1707 
  409.419,49.4573 409.657,43.4558 409.895,46.8259 410.132,48.5356 410.37,40.3311 410.608,54.0211 410.846,48.078 411.084,49.5248 411.322,52.6004 411.56,45.8115 
  411.798,45.4798 412.035,47.689 412.273,65.647 412.511,45.7247 412.749,49.317 412.987,51.6331 413.225,41.202 413.463,45.3136 413.7,56.5221 413.938,38.7194 
  414.176,45.7355 414.414,46.4988 414.652,47.2853 414.89,46.1278 415.128,53.4595 415.366,52.2373 415.603,47.8645 415.841,45.7321 416.079,44.9761 416.317,47.4085 
  416.555,40.9576 416.793,48.1355 417.031,44.5584 417.268,44.5702 417.506,43.0127 417.744,50.604 417.982,49.3808 418.22,52.8057 418.458,45.3076 418.696,55.9993 
  418.934,39.2416 419.171,44.8984 419.409,53.6986 419.647,44.7352 419.885,48.9491 420.123,48.0242 420.361,59.657 420.599,44.4164 420.836,49.8348 421.074,45.4932 
  421.312,43.9075 421.55,47.1138 421.788,47.3672 422.026,47.241 422.264,41.6832 422.502,49.7701 422.739,45.4016 422.977,39.857 423.215,45.5579 423.453,47.8089 
  423.691,46.6388 423.929,50.516 424.167,41.5064 424.404,45.4198 424.642,42.3105 424.88,45.4789 425.118,46.882 425.356,49.3153 425.594,42.75 425.832,43.2196 
  426.07,44.4986 426.307,46.2198 426.545,47.0325 426.783,44.5555 427.021,46.9649 427.259,45.8969 427.497,43.6295 427.735,47.5219 427.973,45.7567 428.21,39.5895 
  428.448,53.5782 428.686,41.2351 428.924,47.736 429.162,47.7249 429.4,47.8655 429.638,48.5879 429.875,44.7903 430.113,41.7967 430.351,43.0303 430.589,43.1324 
  430.827,51.0112 431.065,47.1299 431.303,49.0048 431.541,43.3259 431.778,51.6604 432.016,47.2537 432.254,42.491 432.492,46.5766 432.73,44.0031 432.968,42.9026 
  433.206,40.215 433.443,47.2439 433.681,55.7768 433.919,42.6988 434.157,42.7881 434.395,59.7464 434.633,43.3611 434.871,40.6817 435.109,38.8531 435.346,41.123 
  435.584,44.5248 435.822,51.3628 436.06,48.6731 436.298,42.6523 436.536,55.4057 436.774,41.1065 437.011,47.7182 437.249,43.8464 437.487,58.7203 437.725,43.8601 
  437.963,43.1171 438.201,45.0112 438.439,53.2365 438.677,36.8706 438.914,40.6819 439.152,52.7507 439.39,42.7646 439.628,52.2118 439.866,50.9367 440.104,47.0601 
  440.342,43.1604 440.58,56.1724 440.817,59.5221 441.055,51.8247 441.293,40.6947 441.531,35.7001 441.769,48.3968 442.007,45.1441 442.245,46.9319 442.482,52.0163 
  442.72,41.9989 442.958,42.2714 443.196,45.8015 443.434,42.5677 443.672,46.8347 443.91,44.5896 444.148,46.3058 444.385,50.6218 444.623,37.4739 444.861,44.5208 
  445.099,42.2616 445.337,43.4161 445.575,51.41 445.813,50.9425 446.05,51.5983 446.288,37.9389 446.526,53.2917 446.764,42.4496 447.002,38.9512 447.24,40.8923 
  447.478,53.4047 447.716,45.3056 447.953,38.0938 448.191,42.845 448.429,50.4699 448.667,48.8406 448.905,45.201 449.143,56.0172 449.381,46.0875 449.618,65.0646 
  449.856,43.2317 450.094,46.3185 450.332,45.0104 450.57,37.0739 450.808,40.8742 451.046,38.8497 451.284,47.1117 451.521,44.8196 451.759,47.1892 451.997,37.0594 
  452.235,39.9595 452.473,47.9961 452.711,40.9371 452.949,46.6179 453.187,38.5904 453.424,47.4103 453.662,41.7814 453.9,45.1572 454.138,61.0862 454.376,42.2637 
  454.614,54.7068 454.852,41.9591 455.089,49.8668 455.327,38.4658 455.565,46.8471 455.803,42.7661 456.041,41.6621 456.279,49.4725 456.517,46.2766 456.755,66.0681 
  456.992,38.3232 457.23,61.3131 457.468,35.2371 457.706,45.173 457.944,38.5882 458.182,49.3102 458.42,48.3806 458.657,57.7156 458.895,34.2999 459.133,51.0915 
  459.371,50.9987 459.609,43.0145 459.847,46.6883 460.085,37.7688 460.323,42.7945 460.56,43.3134 460.798,45.5389 461.036,44.9457 461.274,39.3602 461.512,42.3643 
  461.75,43.1686 461.988,45.3596 462.225,49.286 462.463,42.0453 462.701,45.8805 462.939,58.228 463.177,43.7247 463.415,44.7677 463.653,47.9547 463.891,56.711 
  464.128,49.1784 464.366,39.5455 464.604,51.1475 464.842,42.3389 465.08,42.4831 465.318,42.3597 465.556,46.9291 465.793,51.5976 466.031,60.6979 466.269,62.5122 
  466.507,46.6652 466.745,44.6424 466.983,54.419 467.221,78.3661 467.459,43.3834 467.696,35.4634 467.934,41.5802 468.172,63.0308 468.41,61.7646 468.648,38.7411 
  468.886,25.2497 469.124,48.7779 469.362,29.6393 469.599,48.7429 469.837,41.208 470.075,36.7372 470.313,53.2843 470.551,45.7555 470.789,55.0076 471.027,31.5957 
  471.264,44.4255 471.502,37.7785 471.74,59.5549 471.978,44.4047 472.216,52.3932 472.454,41.3461 472.692,59.6107 472.93,46.5449 473.167,40.8322 473.405,53.0423 
  473.643,33.3646 473.881,45.1827 474.119,55.8479 474.357,43.4797 474.595,40.2747 474.832,42.2281 475.07,43.0897 475.308,43.9358 475.546,47.485 475.784,43.6854 
  476.022,52.0812 476.26,55.8332 476.498,50.0726 476.735,42.6357 476.973,45.9856 477.211,48.4026 477.449,37.9904 477.687,43.0832 477.925,48.4538 478.163,51.6381 
  478.4,51.4964 478.638,62.2357 478.876,50.0563 479.114,39.9048 479.352,38.4738 479.59,60.3662 479.828,44.9914 480.066,55.3134 480.303,51.8831 480.541,56.4979 
  480.779,33.6088 481.017,58.0916 481.255,46.5922 481.493,45.0248 481.731,34.0757 481.969,43.3289 482.206,39.0001 482.444,50.2957 482.682,50.3052 482.92,47.8635 
  483.158,48.9364 483.396,46.3605 483.634,41.046 483.871,61.5465 484.109,37.0182 484.347,44.6173 484.585,57.0171 484.823,49.0167 485.061,52.7022 485.299,54.5613 
  485.537,57.2934 485.774,41.1453 486.012,52.5091 486.25,39.4499 486.488,25.9353 486.726,44.2567 486.964,46.97 487.202,45.5897 487.439,59.1371 487.677,36.0437 
  487.915,59.9304 488.153,49.6 488.391,35.0949 488.629,56.2996 488.867,42.9479 489.105,40.9199 489.342,47.1484 489.58,51.8067 489.818,50.2168 490.056,47.2278 
  490.294,38.8135 490.532,49.8507 490.77,54.2053 491.007,44.6022 491.245,42.0685 491.483,44.5777 491.721,44.451 491.959,48.5342 492.197,45.5021 492.435,47.2086 
  492.673,58.9897 492.91,46.4129 493.148,42.7388 493.386,61.0055 493.624,56.1674 493.862,41.2183 494.1,32.3765 494.338,49.0472 494.576,53.3786 494.813,61.2496 
  495.051,41.4707 495.289,43.0299 495.527,43.4779 495.765,63.2912 496.003,31.7278 496.241,44.6904 496.478,56.1583 496.716,45.0153 496.954,43.1581 497.192,43.6507 
  497.43,49.7671 497.668,51.6903 497.906,59.9126 498.144,49.1835 498.381,42.6917 498.619,71.7585 498.857,58.8787 499.095,38.5462 499.333,58.1656 499.571,34.0986 
  499.809,29.6271 500.046,49.034 500.284,39.0133 500.522,49.0163 500.76,38.5822 500.998,47.5145 501.236,55.7133 501.474,43.7799 501.712,54.4345 501.949,51.6556 
  502.187,53.0324 502.425,44.8038 502.663,57.8266 502.901,40.4599 503.139,52.9406 503.377,41.343 503.614,54.9809 503.852,46.7415 504.09,50.0265 504.328,52.4841 
  504.566,50.6362 504.804,60.0825 505.042,72.5679 505.28,50.8423 505.517,26.9185 505.755,45.2485 505.993,48.8406 506.231,48.1403 506.469,54.4938 506.707,33.5531 
  506.945,40.826 507.182,47.5583 507.42,50.2782 507.658,37.8283 507.896,57.2683 508.134,41.6744 508.372,45.4905 508.61,46.461 508.848,49.6979 509.085,54.8513 
  509.323,46.0969 509.561,51.9698 509.799,55.5902 510.037,36.1988 510.275,51.9009 510.513,41.4081 510.751,33.2956 510.988,49.2059 511.226,46.4417 511.464,49.0901 
  511.702,53.0568 511.94,43.652 512.178,49.8883 512.416,55.0467 512.653,48.0821 512.891,48.2958 513.129,47.4116 513.367,49.173 513.605,51.7264 513.843,54.0798 
  514.081,56.1759 514.319,46.4693 514.556,63.4881 514.794,55.116 515.032,59.0247 515.27,56.6927 515.508,71.1555 515.746,18.9602 515.984,60.6829 516.221,32.6488 
  516.459,37.1704 516.697,56.7066 516.935,56.1496 517.173,41.5918 517.411,62.7581 517.649,60.2894 517.887,51.2872 518.124,71.389 518.362,14.5674 518.6,35.4664 
  518.838,49.832 519.076,36.8631 519.314,63.2582 519.552,36.0793 519.789,39.0493 520.027,53.8786 520.265,51.0699 520.503,52.298 520.741,47.703 520.979,40.0038 
  521.217,49.1094 521.455,44.3588 521.692,62.1637 521.93,54.5912 522.168,51.8564 522.406,59.4398 522.644,39.0568 522.882,55.832 523.12,46.1071 523.358,62.0567 
  523.595,20.3988 523.833,47.7083 524.071,43.6854 524.309,49.5914 524.547,43.1296 524.785,33.3717 525.023,47.8521 525.26,41.1077 525.498,44.0528 525.736,51.3963 
  525.974,37.2932 526.212,35.9152 526.45,42.0277 526.688,43.9115 526.926,59.1203 527.163,43.3284 527.401,45.9262 527.639,51.7028 527.877,48.4929 528.115,46.4009 
  528.353,53.8115 528.591,40.6332 528.828,42.842 529.066,50.0852 529.304,38.0145 529.542,50.7886 529.78,42.7527 530.018,52.1889 530.256,44.174 530.494,42.3095 
  530.731,42.7898 530.969,52.2552 531.207,41.9596 531.445,46.7644 531.683,44.5157 531.921,50.6652 532.159,41.6314 532.396,43.3184 532.634,49.5779 532.872,41.4442 
  533.11,41.0398 533.348,41.6321 533.586,42.968 533.824,45.7407 534.062,42.3334 534.299,53.0872 534.537,49.2223 534.775,35.6176 535.013,49.2829 535.251,50.1893 
  535.489,45.0669 535.727,54.3375 535.965,48.8972 536.202,58.1061 536.44,35.4232 536.678,43.5376 536.916,54.2527 537.154,47.8444 537.392,50.1318 537.63,44.6901 
  537.867,60.9663 538.105,48.9536 538.343,39.3763 538.581,43.7139 538.819,46.5654 539.057,47.0731 539.295,43.9999 539.533,47.5719 539.77,52.1515 540.008,49.2338 
  540.246,53.0233 540.484,49.4073 540.722,46.0914 540.96,53.5552 541.198,41.5658 541.435,45.1195 541.673,45.5189 541.911,44.1119 542.149,46.9452 542.387,47.4857 
  542.625,46.9526 542.863,39.2535 543.101,56.1839 543.338,48.5279 543.576,40.8344 543.814,41.2148 544.052,42.2363 544.29,41.3862 544.528,47.461 544.766,43.5474 
  545.003,50.98 545.241,41.1401 545.479,46.1033 545.717,45.0525 545.955,56.8632 546.193,46.5838 546.431,48.4262 546.669,48.2523 546.906,41.485 547.144,47.9721 
  547.382,40.5269 547.62,50.6938 547.858,42.7626 548.096,47.0483 548.334,51.9758 548.572,54.3568 548.809,46.0555 549.047,45.9953 549.285,50.4316 549.523,57.4825 
  549.761,43.9233 549.999,41.876 550.237,49.8399 550.474,45.9486 550.712,46.8059 550.95,44.5724 551.188,48.103 551.426,43.8907 551.664,44.5146 551.902,50.4104 
  552.14,48.1157 552.377,40.4134 552.615,45.1022 552.853,47.0362 553.091,42.8479 553.329,49.395 553.567,50.7514 553.805,49.7158 554.042,43.8743 554.28,41.5634 
  554.518,49.8385 554.756,50.5261 554.994,44.7896 555.232,54.1464 555.47,53.0539 555.708,45.6636 555.945,48.9691 556.183,39.2627 556.421,48.023 556.659,46.7593 
  556.897,37.2047 557.135,52.1156 557.373,43.6494 557.61,42.1172 557.848,49.6596 558.086,48.1051 558.324,40.1001 558.562,43.1666 558.8,52.4884 559.038,46.8744 
  559.276,41.3268 559.513,53.6462 559.751,45.6227 559.989,42.8551 560.227,47.501 560.465,52.185 560.703,38.4434 560.941,46.7835 561.178,47.8854 561.416,42.5064 
  561.654,53.9457 561.892,38.6533 562.13,47.6651 562.368,44.7906 562.606,42.0565 562.844,65.7806 563.081,53.5437 563.319,42.1132 563.557,54.2373 563.795,59.0921 
  564.033,39.8206 564.271,48.6652 564.509,37.3076 564.747,49.8133 564.984,49.2033 565.222,43.7898 
  "/>
<polygon clip-path="url(#clip1500)" points="
47.0391,242.535 580.315,242.535 580.315,145.144 47.0391,145.144 
  " fill="#ffffff" fill-opacity="1"/>
<defs>
  <clipPath id="clip1503">
    <rect x="47" y="145" width="534" height="98"/>
  </clipPath>
</defs>
<polyline clip-path="url(#clip1503)" style="stroke:#000000; stroke-width:0.5; stroke-opacity:0.1; fill:none" points="
  112.19,242.535 112.19,145.144 
  "/>
<polyline clip-path="url(#clip1503)" style="stroke:#000000; stroke-width:0.5; stroke-opacity:0.1; fill:none" points="
  201.74,242.535 201.74,145.144 
  "/>
<polyline clip-path="url(#clip1503)" style="stroke:#000000; stroke-width:0.5; stroke-opacity:0.1; fill:none" points="
  291.29,242.535 291.29,145.144 
  "/>
<polyline clip-path="url(#clip1503)" style="stroke:#000000; stroke-width:0.5; stroke-opacity:0.1; fill:none" points="
  380.839,242.535 380.839,145.144 
  "/>
<polyline clip-path="url(#clip1503)" style="stroke:#000000; stroke-width:0.5; stroke-opacity:0.1; fill:none" points="
  470.389,242.535 470.389,145.144 
  "/>
<polyline clip-path="url(#clip1503)" style="stroke:#000000; stroke-width:0.5; stroke-opacity:0.1; fill:none" points="
  559.939,242.535 559.939,145.144 
  "/>
<polyline clip-path="url(#clip1503)" style="stroke:#000000; stroke-width:0.5; stroke-opacity:0.1; fill:none" points="
  47.0391,239.779 580.315,239.779 
  "/>
<polyline clip-path="url(#clip1503)" style="stroke:#000000; stroke-width:0.5; stroke-opacity:0.1; fill:none" points="
  47.0391,219.443 580.315,219.443 
  "/>
<polyline clip-path="url(#clip1503)" style="stroke:#000000; stroke-width:0.5; stroke-opacity:0.1; fill:none" points="
  47.0391,199.107 580.315,199.107 
  "/>
<polyline clip-path="url(#clip1503)" style="stroke:#000000; stroke-width:0.5; stroke-opacity:0.1; fill:none" points="
  47.0391,178.77 580.315,178.77 
  "/>
<polyline clip-path="url(#clip1503)" style="stroke:#000000; stroke-width:0.5; stroke-opacity:0.1; fill:none" points="
  47.0391,158.434 580.315,158.434 
  "/>
<polyline clip-path="url(#clip1500)" style="stroke:#000000; stroke-width:1; stroke-opacity:1; fill:none" points="
  47.0391,242.535 580.315,242.535 
  "/>
<polyline clip-path="url(#clip1500)" style="stroke:#000000; stroke-width:1; stroke-opacity:1; fill:none" points="
  47.0391,242.535 47.0391,145.144 
  "/>
<polyline clip-path="url(#clip1500)" style="stroke:#000000; stroke-width:1; stroke-opacity:1; fill:none" points="
  112.19,242.535 112.19,241.074 
  "/>
<polyline clip-path="url(#clip1500)" style="stroke:#000000; stroke-width:1; stroke-opacity:1; fill:none" points="
  201.74,242.535 201.74,241.074 
  "/>
<polyline clip-path="url(#clip1500)" style="stroke:#000000; stroke-width:1; stroke-opacity:1; fill:none" points="
  291.29,242.535 291.29,241.074 
  "/>
<polyline clip-path="url(#clip1500)" style="stroke:#000000; stroke-width:1; stroke-opacity:1; fill:none" points="
  380.839,242.535 380.839,241.074 
  "/>
<polyline clip-path="url(#clip1500)" style="stroke:#000000; stroke-width:1; stroke-opacity:1; fill:none" points="
  470.389,242.535 470.389,241.074 
  "/>
<polyline clip-path="url(#clip1500)" style="stroke:#000000; stroke-width:1; stroke-opacity:1; fill:none" points="
  559.939,242.535 559.939,241.074 
  "/>
<polyline clip-path="url(#clip1500)" style="stroke:#000000; stroke-width:1; stroke-opacity:1; fill:none" points="
  47.0391,239.779 55.0382,239.779 
  "/>
<polyline clip-path="url(#clip1500)" style="stroke:#000000; stroke-width:1; stroke-opacity:1; fill:none" points="
  47.0391,219.443 55.0382,219.443 
  "/>
<polyline clip-path="url(#clip1500)" style="stroke:#000000; stroke-width:1; stroke-opacity:1; fill:none" points="
  47.0391,199.107 55.0382,199.107 
  "/>
<polyline clip-path="url(#clip1500)" style="stroke:#000000; stroke-width:1; stroke-opacity:1; fill:none" points="
  47.0391,178.77 55.0382,178.77 
  "/>
<polyline clip-path="url(#clip1500)" style="stroke:#000000; stroke-width:1; stroke-opacity:1; fill:none" points="
  47.0391,158.434 55.0382,158.434 
  "/>
<g clip-path="url(#clip1500)">
<text style="fill:#000000; fill-opacity:1; font-family:Arial,Helvetica Neue,Helvetica,sans-serif; font-size:12; text-anchor:middle;" transform="rotate(0, 112.19, 256.335)" x="112.19" y="256.335">-15</text>
</g>
<g clip-path="url(#clip1500)">
<text style="fill:#000000; fill-opacity:1; font-family:Arial,Helvetica Neue,Helvetica,sans-serif; font-size:12; text-anchor:middle;" transform="rotate(0, 201.74, 256.335)" x="201.74" y="256.335">-10</text>
</g>
<g clip-path="url(#clip1500)">
<text style="fill:#000000; fill-opacity:1; font-family:Arial,Helvetica Neue,Helvetica,sans-serif; font-size:12; text-anchor:middle;" transform="rotate(0, 291.29, 256.335)" x="291.29" y="256.335">-5</text>
</g>
<g clip-path="url(#clip1500)">
<text style="fill:#000000; fill-opacity:1; font-family:Arial,Helvetica Neue,Helvetica,sans-serif; font-size:12; text-anchor:middle;" transform="rotate(0, 380.839, 256.335)" x="380.839" y="256.335">0</text>
</g>
<g clip-path="url(#clip1500)">
<text style="fill:#000000; fill-opacity:1; font-family:Arial,Helvetica Neue,Helvetica,sans-serif; font-size:12; text-anchor:middle;" transform="rotate(0, 470.389, 256.335)" x="470.389" y="256.335">5</text>
</g>
<g clip-path="url(#clip1500)">
<text style="fill:#000000; fill-opacity:1; font-family:Arial,Helvetica Neue,Helvetica,sans-serif; font-size:12; text-anchor:middle;" transform="rotate(0, 559.939, 256.335)" x="559.939" y="256.335">10</text>
</g>
<g clip-path="url(#clip1500)">
<text style="fill:#000000; fill-opacity:1; font-family:Arial,Helvetica Neue,Helvetica,sans-serif; font-size:12; text-anchor:end;" transform="rotate(0, 41.0391, 244.279)" x="41.0391" y="244.279">0.00</text>
</g>
<g clip-path="url(#clip1500)">
<text style="fill:#000000; fill-opacity:1; font-family:Arial,Helvetica Neue,Helvetica,sans-serif; font-size:12; text-anchor:end;" transform="rotate(0, 41.0391, 223.943)" x="41.0391" y="223.943">0.05</text>
</g>
<g clip-path="url(#clip1500)">
<text style="fill:#000000; fill-opacity:1; font-family:Arial,Helvetica Neue,Helvetica,sans-serif; font-size:12; text-anchor:end;" transform="rotate(0, 41.0391, 203.607)" x="41.0391" y="203.607">0.10</text>
</g>
<g clip-path="url(#clip1500)">
<text style="fill:#000000; fill-opacity:1; font-family:Arial,Helvetica Neue,Helvetica,sans-serif; font-size:12; text-anchor:end;" transform="rotate(0, 41.0391, 183.27)" x="41.0391" y="183.27">0.15</text>
</g>
<g clip-path="url(#clip1500)">
<text style="fill:#000000; fill-opacity:1; font-family:Arial,Helvetica Neue,Helvetica,sans-serif; font-size:12; text-anchor:end;" transform="rotate(0, 41.0391, 162.934)" x="41.0391" y="162.934">0.20</text>
</g>
<polygon clip-path="url(#clip1503)" points="
76.3702,239.395 76.3702,239.779 85.3252,239.779 85.3252,239.395 76.3702,239.395 76.3702,239.395 
  " fill="#009af9" fill-opacity="1"/>
<polyline clip-path="url(#clip1503)" style="stroke:#000000; stroke-width:1; stroke-opacity:1; fill:none" points="
  76.3702,239.395 76.3702,239.779 85.3252,239.779 85.3252,239.395 76.3702,239.395 
  "/>
<polygon clip-path="url(#clip1503)" points="
85.3252,239.779 85.3252,239.779 94.2802,239.779 94.2802,239.779 85.3252,239.779 85.3252,239.779 
  " fill="#009af9" fill-opacity="1"/>
<polyline clip-path="url(#clip1503)" style="stroke:#000000; stroke-width:1; stroke-opacity:1; fill:none" points="
  85.3252,239.779 85.3252,239.779 94.2802,239.779 85.3252,239.779 
  "/>
<polygon clip-path="url(#clip1503)" points="
94.2802,239.779 94.2802,239.779 103.235,239.779 103.235,239.779 94.2802,239.779 94.2802,239.779 
  " fill="#009af9" fill-opacity="1"/>
<polyline clip-path="url(#clip1503)" style="stroke:#000000; stroke-width:1; stroke-opacity:1; fill:none" points="
  94.2802,239.779 94.2802,239.779 103.235,239.779 94.2802,239.779 
  "/>
<polygon clip-path="url(#clip1503)" points="
103.235,239.779 103.235,239.779 112.19,239.779 112.19,239.779 103.235,239.779 103.235,239.779 
  " fill="#009af9" fill-opacity="1"/>
<polyline clip-path="url(#clip1503)" style="stroke:#000000; stroke-width:1; stroke-opacity:1; fill:none" points="
  103.235,239.779 103.235,239.779 112.19,239.779 103.235,239.779 
  "/>
<polygon clip-path="url(#clip1503)" points="
112.19,239.779 112.19,239.779 121.145,239.779 121.145,239.779 112.19,239.779 112.19,239.779 
  " fill="#009af9" fill-opacity="1"/>
<polyline clip-path="url(#clip1503)" style="stroke:#000000; stroke-width:1; stroke-opacity:1; fill:none" points="
  112.19,239.779 112.19,239.779 121.145,239.779 112.19,239.779 
  "/>
<polygon clip-path="url(#clip1503)" points="
121.145,239.779 121.145,239.779 130.1,239.779 130.1,239.779 121.145,239.779 121.145,239.779 
  " fill="#009af9" fill-opacity="1"/>
<polyline clip-path="url(#clip1503)" style="stroke:#000000; stroke-width:1; stroke-opacity:1; fill:none" points="
  121.145,239.779 121.145,239.779 130.1,239.779 121.145,239.779 
  "/>
<polygon clip-path="url(#clip1503)" points="
130.1,239.779 130.1,239.779 139.055,239.779 139.055,239.779 130.1,239.779 130.1,239.779 
  " fill="#009af9" fill-opacity="1"/>
<polyline clip-path="url(#clip1503)" style="stroke:#000000; stroke-width:1; stroke-opacity:1; fill:none" points="
  130.1,239.779 130.1,239.779 139.055,239.779 130.1,239.779 
  "/>
<polygon clip-path="url(#clip1503)" points="
139.055,239.779 139.055,239.779 148.01,239.779 148.01,239.779 139.055,239.779 139.055,239.779 
  " fill="#009af9" fill-opacity="1"/>
<polyline clip-path="url(#clip1503)" style="stroke:#000000; stroke-width:1; stroke-opacity:1; fill:none" points="
  139.055,239.779 139.055,239.779 148.01,239.779 139.055,239.779 
  "/>
<polygon clip-path="url(#clip1503)" points="
148.01,239.779 148.01,239.779 156.965,239.779 156.965,239.779 148.01,239.779 148.01,239.779 
  " fill="#009af9" fill-opacity="1"/>
<polyline clip-path="url(#clip1503)" style="stroke:#000000; stroke-width:1; stroke-opacity:1; fill:none" points="
  148.01,239.779 148.01,239.779 156.965,239.779 148.01,239.779 
  "/>
<polygon clip-path="url(#clip1503)" points="
156.965,239.779 156.965,239.779 165.92,239.779 165.92,239.779 156.965,239.779 156.965,239.779 
  " fill="#009af9" fill-opacity="1"/>
<polyline clip-path="url(#clip1503)" style="stroke:#000000; stroke-width:1; stroke-opacity:1; fill:none" points="
  156.965,239.779 156.965,239.779 165.92,239.779 156.965,239.779 
  "/>
<polygon clip-path="url(#clip1503)" points="
165.92,239.779 165.92,239.779 174.875,239.779 174.875,239.779 165.92,239.779 165.92,239.779 
  " fill="#009af9" fill-opacity="1"/>
<polyline clip-path="url(#clip1503)" style="stroke:#000000; stroke-width:1; stroke-opacity:1; fill:none" points="
  165.92,239.779 165.92,239.779 174.875,239.779 165.92,239.779 
  "/>
<polygon clip-path="url(#clip1503)" points="
174.875,239.779 174.875,239.779 183.83,239.779 183.83,239.779 174.875,239.779 174.875,239.779 
  " fill="#009af9" fill-opacity="1"/>
<polyline clip-path="url(#clip1503)" style="stroke:#000000; stroke-width:1; stroke-opacity:1; fill:none" points="
  174.875,239.779 174.875,239.779 183.83,239.779 174.875,239.779 
  "/>
<polygon clip-path="url(#clip1503)" points="
183.83,239.395 183.83,239.779 192.785,239.779 192.785,239.395 183.83,239.395 183.83,239.395 
  " fill="#009af9" fill-opacity="1"/>
<polyline clip-path="url(#clip1503)" style="stroke:#000000; stroke-width:1; stroke-opacity:1; fill:none" points="
  183.83,239.395 183.83,239.779 192.785,239.779 192.785,239.395 183.83,239.395 
  "/>
<polygon clip-path="url(#clip1503)" points="
192.785,239.779 192.785,239.779 201.74,239.779 201.74,239.779 192.785,239.779 192.785,239.779 
  " fill="#009af9" fill-opacity="1"/>
<polyline clip-path="url(#clip1503)" style="stroke:#000000; stroke-width:1; stroke-opacity:1; fill:none" points="
  192.785,239.779 192.785,239.779 201.74,239.779 192.785,239.779 
  "/>
<polygon clip-path="url(#clip1503)" points="
201.74,239.779 201.74,239.779 210.695,239.779 210.695,239.779 201.74,239.779 201.74,239.779 
  " fill="#009af9" fill-opacity="1"/>
<polyline clip-path="url(#clip1503)" style="stroke:#000000; stroke-width:1; stroke-opacity:1; fill:none" points="
  201.74,239.779 201.74,239.779 210.695,239.779 201.74,239.779 
  "/>
<polygon clip-path="url(#clip1503)" points="
210.695,239.779 210.695,239.779 219.65,239.779 219.65,239.779 210.695,239.779 210.695,239.779 
  " fill="#009af9" fill-opacity="1"/>
<polyline clip-path="url(#clip1503)" style="stroke:#000000; stroke-width:1; stroke-opacity:1; fill:none" points="
  210.695,239.779 210.695,239.779 219.65,239.779 210.695,239.779 
  "/>
<polygon clip-path="url(#clip1503)" points="
219.65,239.395 219.65,239.779 228.605,239.779 228.605,239.395 219.65,239.395 219.65,239.395 
  " fill="#009af9" fill-opacity="1"/>
<polyline clip-path="url(#clip1503)" style="stroke:#000000; stroke-width:1; stroke-opacity:1; fill:none" points="
  219.65,239.395 219.65,239.779 228.605,239.779 228.605,239.395 219.65,239.395 
  "/>
<polygon clip-path="url(#clip1503)" points="
228.605,239.779 228.605,239.779 237.56,239.779 237.56,239.779 228.605,239.779 228.605,239.779 
  " fill="#009af9" fill-opacity="1"/>
<polyline clip-path="url(#clip1503)" style="stroke:#000000; stroke-width:1; stroke-opacity:1; fill:none" points="
  228.605,239.779 228.605,239.779 237.56,239.779 228.605,239.779 
  "/>
<polygon clip-path="url(#clip1503)" points="
237.56,239.779 237.56,239.779 246.515,239.779 246.515,239.779 237.56,239.779 237.56,239.779 
  " fill="#009af9" fill-opacity="1"/>
<polyline clip-path="url(#clip1503)" style="stroke:#000000; stroke-width:1; stroke-opacity:1; fill:none" points="
  237.56,239.779 237.56,239.779 246.515,239.779 237.56,239.779 
  "/>
<polygon clip-path="url(#clip1503)" points="
246.515,238.626 246.515,239.779 255.47,239.779 255.47,238.626 246.515,238.626 246.515,238.626 
  " fill="#009af9" fill-opacity="1"/>
<polyline clip-path="url(#clip1503)" style="stroke:#000000; stroke-width:1; stroke-opacity:1; fill:none" points="
  246.515,238.626 246.515,239.779 255.47,239.779 255.47,238.626 246.515,238.626 
  "/>
<polygon clip-path="url(#clip1503)" points="
255.47,237.472 255.47,239.779 264.425,239.779 264.425,237.472 255.47,237.472 255.47,237.472 
  " fill="#009af9" fill-opacity="1"/>
<polyline clip-path="url(#clip1503)" style="stroke:#000000; stroke-width:1; stroke-opacity:1; fill:none" points="
  255.47,237.472 255.47,239.779 264.425,239.779 264.425,237.472 255.47,237.472 
  "/>
<polygon clip-path="url(#clip1503)" points="
264.425,239.395 264.425,239.779 273.38,239.779 273.38,239.395 264.425,239.395 264.425,239.395 
  " fill="#009af9" fill-opacity="1"/>
<polyline clip-path="url(#clip1503)" style="stroke:#000000; stroke-width:1; stroke-opacity:1; fill:none" points="
  264.425,239.395 264.425,239.779 273.38,239.779 273.38,239.395 264.425,239.395 
  "/>
<polygon clip-path="url(#clip1503)" points="
273.38,238.626 273.38,239.779 282.335,239.779 282.335,238.626 273.38,238.626 273.38,238.626 
  " fill="#009af9" fill-opacity="1"/>
<polyline clip-path="url(#clip1503)" style="stroke:#000000; stroke-width:1; stroke-opacity:1; fill:none" points="
  273.38,238.626 273.38,239.779 282.335,239.779 282.335,238.626 273.38,238.626 
  "/>
<polygon clip-path="url(#clip1503)" points="
282.335,237.472 282.335,239.779 291.29,239.779 291.29,237.472 282.335,237.472 282.335,237.472 
  " fill="#009af9" fill-opacity="1"/>
<polyline clip-path="url(#clip1503)" style="stroke:#000000; stroke-width:1; stroke-opacity:1; fill:none" points="
  282.335,237.472 282.335,239.779 291.29,239.779 291.29,237.472 282.335,237.472 
  "/>
<polygon clip-path="url(#clip1503)" points="
291.29,235.55 291.29,239.779 300.245,239.779 300.245,235.55 291.29,235.55 291.29,235.55 
  " fill="#009af9" fill-opacity="1"/>
<polyline clip-path="url(#clip1503)" style="stroke:#000000; stroke-width:1; stroke-opacity:1; fill:none" points="
  291.29,235.55 291.29,239.779 300.245,239.779 300.245,235.55 291.29,235.55 
  "/>
<polygon clip-path="url(#clip1503)" points="
300.245,230.168 300.245,239.779 309.2,239.779 309.2,230.168 300.245,230.168 300.245,230.168 
  " fill="#009af9" fill-opacity="1"/>
<polyline clip-path="url(#clip1503)" style="stroke:#000000; stroke-width:1; stroke-opacity:1; fill:none" points="
  300.245,230.168 300.245,239.779 309.2,239.779 309.2,230.168 300.245,230.168 
  "/>
<polygon clip-path="url(#clip1503)" points="
309.2,225.94 309.2,239.779 318.155,239.779 318.155,225.94 309.2,225.94 309.2,225.94 
  " fill="#009af9" fill-opacity="1"/>
<polyline clip-path="url(#clip1503)" style="stroke:#000000; stroke-width:1; stroke-opacity:1; fill:none" points="
  309.2,225.94 309.2,239.779 318.155,239.779 318.155,225.94 309.2,225.94 
  "/>
<polygon clip-path="url(#clip1503)" points="
318.155,223.633 318.155,239.779 327.109,239.779 327.109,223.633 318.155,223.633 318.155,223.633 
  " fill="#009af9" fill-opacity="1"/>
<polyline clip-path="url(#clip1503)" style="stroke:#000000; stroke-width:1; stroke-opacity:1; fill:none" points="
  318.155,223.633 318.155,239.779 327.109,239.779 327.109,223.633 318.155,223.633 
  "/>
<polygon clip-path="url(#clip1503)" points="
327.109,216.713 327.109,239.779 336.064,239.779 336.064,216.713 327.109,216.713 327.109,216.713 
  " fill="#009af9" fill-opacity="1"/>
<polyline clip-path="url(#clip1503)" style="stroke:#000000; stroke-width:1; stroke-opacity:1; fill:none" points="
  327.109,216.713 327.109,239.779 336.064,239.779 336.064,216.713 327.109,216.713 
  "/>
<polygon clip-path="url(#clip1503)" points="
336.064,206.718 336.064,239.779 345.019,239.779 345.019,206.718 336.064,206.718 336.064,206.718 
  " fill="#009af9" fill-opacity="1"/>
<polyline clip-path="url(#clip1503)" style="stroke:#000000; stroke-width:1; stroke-opacity:1; fill:none" points="
  336.064,206.718 336.064,239.779 345.019,239.779 345.019,206.718 336.064,206.718 
  "/>
<polygon clip-path="url(#clip1503)" points="
345.019,194.416 345.019,239.779 353.974,239.779 353.974,194.416 345.019,194.416 345.019,194.416 
  " fill="#009af9" fill-opacity="1"/>
<polyline clip-path="url(#clip1503)" style="stroke:#000000; stroke-width:1; stroke-opacity:1; fill:none" points="
  345.019,194.416 345.019,239.779 353.974,239.779 353.974,194.416 345.019,194.416 
  "/>
<polygon clip-path="url(#clip1503)" points="
353.974,179.808 353.974,239.779 362.929,239.779 362.929,179.808 353.974,179.808 353.974,179.808 
  " fill="#009af9" fill-opacity="1"/>
<polyline clip-path="url(#clip1503)" style="stroke:#000000; stroke-width:1; stroke-opacity:1; fill:none" points="
  353.974,179.808 353.974,239.779 362.929,239.779 362.929,179.808 353.974,179.808 
  "/>
<polygon clip-path="url(#clip1503)" points="
362.929,170.966 362.929,239.779 371.884,239.779 371.884,170.966 362.929,170.966 362.929,170.966 
  " fill="#009af9" fill-opacity="1"/>
<polyline clip-path="url(#clip1503)" style="stroke:#000000; stroke-width:1; stroke-opacity:1; fill:none" points="
  362.929,170.966 362.929,239.779 371.884,239.779 371.884,170.966 362.929,170.966 
  "/>
<polygon clip-path="url(#clip1503)" points="
371.884,159.434 371.884,239.779 380.839,239.779 380.839,159.434 371.884,159.434 371.884,159.434 
  " fill="#009af9" fill-opacity="1"/>
<polyline clip-path="url(#clip1503)" style="stroke:#000000; stroke-width:1; stroke-opacity:1; fill:none" points="
  371.884,159.434 371.884,239.779 380.839,239.779 380.839,159.434 371.884,159.434 
  "/>
<polygon clip-path="url(#clip1503)" points="
380.839,154.82 380.839,239.779 389.794,239.779 389.794,154.82 380.839,154.82 380.839,154.82 
  " fill="#009af9" fill-opacity="1"/>
<polyline clip-path="url(#clip1503)" style="stroke:#000000; stroke-width:1; stroke-opacity:1; fill:none" points="
  380.839,154.82 380.839,239.779 389.794,239.779 389.794,154.82 380.839,154.82 
  "/>
<polygon clip-path="url(#clip1503)" points="
389.794,151.745 389.794,239.779 398.749,239.779 398.749,151.745 389.794,151.745 389.794,151.745 
  " fill="#009af9" fill-opacity="1"/>
<polyline clip-path="url(#clip1503)" style="stroke:#000000; stroke-width:1; stroke-opacity:1; fill:none" points="
  389.794,151.745 389.794,239.779 398.749,239.779 398.749,151.745 389.794,151.745 
  "/>
<polygon clip-path="url(#clip1503)" points="
398.749,147.901 398.749,239.779 407.704,239.779 407.704,147.901 398.749,147.901 398.749,147.901 
  " fill="#009af9" fill-opacity="1"/>
<polyline clip-path="url(#clip1503)" style="stroke:#000000; stroke-width:1; stroke-opacity:1; fill:none" points="
  398.749,147.901 398.749,239.779 407.704,239.779 407.704,147.901 398.749,147.901 
  "/>
<polygon clip-path="url(#clip1503)" points="
407.704,168.66 407.704,239.779 416.659,239.779 416.659,168.66 407.704,168.66 407.704,168.66 
  " fill="#009af9" fill-opacity="1"/>
<polyline clip-path="url(#clip1503)" style="stroke:#000000; stroke-width:1; stroke-opacity:1; fill:none" points="
  407.704,168.66 407.704,239.779 416.659,239.779 416.659,168.66 407.704,168.66 
  "/>
<polygon clip-path="url(#clip1503)" points="
416.659,200.952 416.659,239.779 425.614,239.779 425.614,200.952 416.659,200.952 416.659,200.952 
  " fill="#009af9" fill-opacity="1"/>
<polyline clip-path="url(#clip1503)" style="stroke:#000000; stroke-width:1; stroke-opacity:1; fill:none" points="
  416.659,200.952 416.659,239.779 425.614,239.779 425.614,200.952 416.659,200.952 
  "/>
<polygon clip-path="url(#clip1503)" points="
425.614,216.329 425.614,239.779 434.569,239.779 434.569,216.329 425.614,216.329 425.614,216.329 
  " fill="#009af9" fill-opacity="1"/>
<polyline clip-path="url(#clip1503)" style="stroke:#000000; stroke-width:1; stroke-opacity:1; fill:none" points="
  425.614,216.329 425.614,239.779 434.569,239.779 434.569,216.329 425.614,216.329 
  "/>
<polygon clip-path="url(#clip1503)" points="
434.569,219.789 434.569,239.779 443.524,239.779 443.524,219.789 434.569,219.789 434.569,219.789 
  " fill="#009af9" fill-opacity="1"/>
<polyline clip-path="url(#clip1503)" style="stroke:#000000; stroke-width:1; stroke-opacity:1; fill:none" points="
  434.569,219.789 434.569,239.779 443.524,239.779 443.524,219.789 434.569,219.789 
  "/>
<polygon clip-path="url(#clip1503)" points="
443.524,227.862 443.524,239.779 452.479,239.779 452.479,227.862 443.524,227.862 443.524,227.862 
  " fill="#009af9" fill-opacity="1"/>
<polyline clip-path="url(#clip1503)" style="stroke:#000000; stroke-width:1; stroke-opacity:1; fill:none" points="
  443.524,227.862 443.524,239.779 452.479,239.779 452.479,227.862 443.524,227.862 
  "/>
<polygon clip-path="url(#clip1503)" points="
452.479,230.553 452.479,239.779 461.434,239.779 461.434,230.553 452.479,230.553 452.479,230.553 
  " fill="#009af9" fill-opacity="1"/>
<polyline clip-path="url(#clip1503)" style="stroke:#000000; stroke-width:1; stroke-opacity:1; fill:none" points="
  452.479,230.553 452.479,239.779 461.434,239.779 461.434,230.553 452.479,230.553 
  "/>
<polygon clip-path="url(#clip1503)" points="
461.434,237.088 461.434,239.779 470.389,239.779 470.389,237.088 461.434,237.088 461.434,237.088 
  " fill="#009af9" fill-opacity="1"/>
<polyline clip-path="url(#clip1503)" style="stroke:#000000; stroke-width:1; stroke-opacity:1; fill:none" points="
  461.434,237.088 461.434,239.779 470.389,239.779 470.389,237.088 461.434,237.088 
  "/>
<polygon clip-path="url(#clip1503)" points="
470.389,237.857 470.389,239.779 479.344,239.779 479.344,237.857 470.389,237.857 470.389,237.857 
  " fill="#009af9" fill-opacity="1"/>
<polyline clip-path="url(#clip1503)" style="stroke:#000000; stroke-width:1; stroke-opacity:1; fill:none" points="
  470.389,237.857 470.389,239.779 479.344,239.779 479.344,237.857 470.389,237.857 
  "/>
<polygon clip-path="url(#clip1503)" points="
479.344,237.472 479.344,239.779 488.299,239.779 488.299,237.472 479.344,237.472 479.344,237.472 
  " fill="#009af9" fill-opacity="1"/>
<polyline clip-path="url(#clip1503)" style="stroke:#000000; stroke-width:1; stroke-opacity:1; fill:none" points="
  479.344,237.472 479.344,239.779 488.299,239.779 488.299,237.472 479.344,237.472 
  "/>
<polygon clip-path="url(#clip1503)" points="
488.299,239.01 488.299,239.779 497.254,239.779 497.254,239.01 488.299,239.01 488.299,239.01 
  " fill="#009af9" fill-opacity="1"/>
<polyline clip-path="url(#clip1503)" style="stroke:#000000; stroke-width:1; stroke-opacity:1; fill:none" points="
  488.299,239.01 488.299,239.779 497.254,239.779 497.254,239.01 488.299,239.01 
  "/>
<polygon clip-path="url(#clip1503)" points="
497.254,239.01 497.254,239.779 506.209,239.779 506.209,239.01 497.254,239.01 497.254,239.01 
  " fill="#009af9" fill-opacity="1"/>
<polyline clip-path="url(#clip1503)" style="stroke:#000000; stroke-width:1; stroke-opacity:1; fill:none" points="
  497.254,239.01 497.254,239.779 506.209,239.779 506.209,239.01 497.254,239.01 
  "/>
<polygon clip-path="url(#clip1503)" points="
506.209,239.395 506.209,239.779 515.164,239.779 515.164,239.395 506.209,239.395 506.209,239.395 
  " fill="#009af9" fill-opacity="1"/>
<polyline clip-path="url(#clip1503)" style="stroke:#000000; stroke-width:1; stroke-opacity:1; fill:none" points="
  506.209,239.395 506.209,239.779 515.164,239.779 515.164,239.395 506.209,239.395 
  "/>
<polygon clip-path="url(#clip1503)" points="
515.164,239.01 515.164,239.779 524.119,239.779 524.119,239.01 515.164,239.01 515.164,239.01 
  " fill="#009af9" fill-opacity="1"/>
<polyline clip-path="url(#clip1503)" style="stroke:#000000; stroke-width:1; stroke-opacity:1; fill:none" points="
  515.164,239.01 515.164,239.779 524.119,239.779 524.119,239.01 515.164,239.01 
  "/>
<polygon clip-path="url(#clip1503)" points="
524.119,238.626 524.119,239.779 533.074,239.779 533.074,238.626 524.119,238.626 524.119,238.626 
  " fill="#009af9" fill-opacity="1"/>
<polyline clip-path="url(#clip1503)" style="stroke:#000000; stroke-width:1; stroke-opacity:1; fill:none" points="
  524.119,238.626 524.119,239.779 533.074,239.779 533.074,238.626 524.119,238.626 
  "/>
<polygon clip-path="url(#clip1503)" points="
533.074,239.779 533.074,239.779 542.029,239.779 542.029,239.779 533.074,239.779 533.074,239.779 
  " fill="#009af9" fill-opacity="1"/>
<polyline clip-path="url(#clip1503)" style="stroke:#000000; stroke-width:1; stroke-opacity:1; fill:none" points="
  533.074,239.779 533.074,239.779 542.029,239.779 533.074,239.779 
  "/>
<polygon clip-path="url(#clip1503)" points="
542.029,239.395 542.029,239.779 550.984,239.779 550.984,239.395 542.029,239.395 542.029,239.395 
  " fill="#009af9" fill-opacity="1"/>
<polyline clip-path="url(#clip1503)" style="stroke:#000000; stroke-width:1; stroke-opacity:1; fill:none" points="
  542.029,239.395 542.029,239.779 550.984,239.779 550.984,239.395 542.029,239.395 
  "/>
<polyline clip-path="url(#clip1503)" style="stroke:#e26f46; stroke-width:1; stroke-opacity:1; fill:none" points="
  247.236,239.69 248.576,239.677 260.971,239.451 273.365,238.836 280.813,238.094 288.261,236.89 294.559,235.364 300.856,233.225 304.277,231.755 307.697,230.039 
  311.118,228.058 314.538,225.794 317.691,223.446 320.845,220.843 323.998,217.984 327.151,214.876 333.913,207.443 340.674,199.177 348.508,189.096 356.342,179.299 
  359.823,175.298 363.303,171.64 366.784,168.413 370.265,165.695 373.318,163.785 376.37,162.357 379.422,161.439 382.475,161.051 385.803,161.241 389.131,162.064 
  392.459,163.502 395.786,165.519 399.134,168.085 402.482,171.13 405.83,174.584 409.177,178.371 416.58,187.532 423.983,197.079 431.026,205.83 438.069,213.753 
  441.731,217.436 445.393,220.785 449.055,223.79 452.717,226.452 458.881,230.186 465.046,233.064 472.573,235.596 480.099,237.28 487.175,238.296 494.25,238.931 
  505.585,239.458 516.92,239.668 518.664,239.686 
  "/>
<polygon clip-path="url(#clip1500)" points="
47.0391,375.869 580.315,375.869 580.315,278.478 47.0391,278.478 
  " fill="#ffffff" fill-opacity="1"/>
<defs>
  <clipPath id="clip1504">
    <rect x="47" y="278" width="534" height="98"/>
  </clipPath>
</defs>
<polyline clip-path="url(#clip1504)" style="stroke:#000000; stroke-width:0.5; stroke-opacity:0.1; fill:none" points="
  93.7356,375.869 93.7356,278.478 
  "/>
<polyline clip-path="url(#clip1504)" style="stroke:#000000; stroke-width:0.5; stroke-opacity:0.1; fill:none" points="
  190.594,375.869 190.594,278.478 
  "/>
<polyline clip-path="url(#clip1504)" style="stroke:#000000; stroke-width:0.5; stroke-opacity:0.1; fill:none" points="
  287.453,375.869 287.453,278.478 
  "/>
<polyline clip-path="url(#clip1504)" style="stroke:#000000; stroke-width:0.5; stroke-opacity:0.1; fill:none" points="
  384.311,375.869 384.311,278.478 
  "/>
<polyline clip-path="url(#clip1504)" style="stroke:#000000; stroke-width:0.5; stroke-opacity:0.1; fill:none" points="
  481.17,375.869 481.17,278.478 
  "/>
<polyline clip-path="url(#clip1504)" style="stroke:#000000; stroke-width:0.5; stroke-opacity:0.1; fill:none" points="
  578.028,375.869 578.028,278.478 
  "/>
<polyline clip-path="url(#clip1504)" style="stroke:#000000; stroke-width:0.5; stroke-opacity:0.1; fill:none" points="
  47.0391,373.112 580.315,373.112 
  "/>
<polyline clip-path="url(#clip1504)" style="stroke:#000000; stroke-width:0.5; stroke-opacity:0.1; fill:none" points="
  47.0391,351.873 580.315,351.873 
  "/>
<polyline clip-path="url(#clip1504)" style="stroke:#000000; stroke-width:0.5; stroke-opacity:0.1; fill:none" points="
  47.0391,330.634 580.315,330.634 
  "/>
<polyline clip-path="url(#clip1504)" style="stroke:#000000; stroke-width:0.5; stroke-opacity:0.1; fill:none" points="
  47.0391,309.395 580.315,309.395 
  "/>
<polyline clip-path="url(#clip1504)" style="stroke:#000000; stroke-width:0.5; stroke-opacity:0.1; fill:none" points="
  47.0391,288.156 580.315,288.156 
  "/>
<polyline clip-path="url(#clip1500)" style="stroke:#000000; stroke-width:1; stroke-opacity:1; fill:none" points="
  47.0391,375.869 580.315,375.869 
  "/>
<polyline clip-path="url(#clip1500)" style="stroke:#000000; stroke-width:1; stroke-opacity:1; fill:none" points="
  47.0391,375.869 47.0391,278.478 
  "/>
<polyline clip-path="url(#clip1500)" style="stroke:#000000; stroke-width:1; stroke-opacity:1; fill:none" points="
  93.7356,375.869 93.7356,374.408 
  "/>
<polyline clip-path="url(#clip1500)" style="stroke:#000000; stroke-width:1; stroke-opacity:1; fill:none" points="
  190.594,375.869 190.594,374.408 
  "/>
<polyline clip-path="url(#clip1500)" style="stroke:#000000; stroke-width:1; stroke-opacity:1; fill:none" points="
  287.453,375.869 287.453,374.408 
  "/>
<polyline clip-path="url(#clip1500)" style="stroke:#000000; stroke-width:1; stroke-opacity:1; fill:none" points="
  384.311,375.869 384.311,374.408 
  "/>
<polyline clip-path="url(#clip1500)" style="stroke:#000000; stroke-width:1; stroke-opacity:1; fill:none" points="
  481.17,375.869 481.17,374.408 
  "/>
<polyline clip-path="url(#clip1500)" style="stroke:#000000; stroke-width:1; stroke-opacity:1; fill:none" points="
  578.028,375.869 578.028,374.408 
  "/>
<polyline clip-path="url(#clip1500)" style="stroke:#000000; stroke-width:1; stroke-opacity:1; fill:none" points="
  47.0391,373.112 55.0382,373.112 
  "/>
<polyline clip-path="url(#clip1500)" style="stroke:#000000; stroke-width:1; stroke-opacity:1; fill:none" points="
  47.0391,351.873 55.0382,351.873 
  "/>
<polyline clip-path="url(#clip1500)" style="stroke:#000000; stroke-width:1; stroke-opacity:1; fill:none" points="
  47.0391,330.634 55.0382,330.634 
  "/>
<polyline clip-path="url(#clip1500)" style="stroke:#000000; stroke-width:1; stroke-opacity:1; fill:none" points="
  47.0391,309.395 55.0382,309.395 
  "/>
<polyline clip-path="url(#clip1500)" style="stroke:#000000; stroke-width:1; stroke-opacity:1; fill:none" points="
  47.0391,288.156 55.0382,288.156 
  "/>
<g clip-path="url(#clip1500)">
<text style="fill:#000000; fill-opacity:1; font-family:Arial,Helvetica Neue,Helvetica,sans-serif; font-size:12; text-anchor:middle;" transform="rotate(0, 93.7356, 389.669)" x="93.7356" y="389.669">-15</text>
</g>
<g clip-path="url(#clip1500)">
<text style="fill:#000000; fill-opacity:1; font-family:Arial,Helvetica Neue,Helvetica,sans-serif; font-size:12; text-anchor:middle;" transform="rotate(0, 190.594, 389.669)" x="190.594" y="389.669">-10</text>
</g>
<g clip-path="url(#clip1500)">
<text style="fill:#000000; fill-opacity:1; font-family:Arial,Helvetica Neue,Helvetica,sans-serif; font-size:12; text-anchor:middle;" transform="rotate(0, 287.453, 389.669)" x="287.453" y="389.669">-5</text>
</g>
<g clip-path="url(#clip1500)">
<text style="fill:#000000; fill-opacity:1; font-family:Arial,Helvetica Neue,Helvetica,sans-serif; font-size:12; text-anchor:middle;" transform="rotate(0, 384.311, 389.669)" x="384.311" y="389.669">0</text>
</g>
<g clip-path="url(#clip1500)">
<text style="fill:#000000; fill-opacity:1; font-family:Arial,Helvetica Neue,Helvetica,sans-serif; font-size:12; text-anchor:middle;" transform="rotate(0, 481.17, 389.669)" x="481.17" y="389.669">5</text>
</g>
<g clip-path="url(#clip1500)">
<text style="fill:#000000; fill-opacity:1; font-family:Arial,Helvetica Neue,Helvetica,sans-serif; font-size:12; text-anchor:middle;" transform="rotate(0, 578.028, 389.669)" x="578.028" y="389.669">10</text>
</g>
<g clip-path="url(#clip1500)">
<text style="fill:#000000; fill-opacity:1; font-family:Arial,Helvetica Neue,Helvetica,sans-serif; font-size:12; text-anchor:end;" transform="rotate(0, 41.0391, 377.612)" x="41.0391" y="377.612">0.00</text>
</g>
<g clip-path="url(#clip1500)">
<text style="fill:#000000; fill-opacity:1; font-family:Arial,Helvetica Neue,Helvetica,sans-serif; font-size:12; text-anchor:end;" transform="rotate(0, 41.0391, 356.373)" x="41.0391" y="356.373">0.05</text>
</g>
<g clip-path="url(#clip1500)">
<text style="fill:#000000; fill-opacity:1; font-family:Arial,Helvetica Neue,Helvetica,sans-serif; font-size:12; text-anchor:end;" transform="rotate(0, 41.0391, 335.134)" x="41.0391" y="335.134">0.10</text>
</g>
<g clip-path="url(#clip1500)">
<text style="fill:#000000; fill-opacity:1; font-family:Arial,Helvetica Neue,Helvetica,sans-serif; font-size:12; text-anchor:end;" transform="rotate(0, 41.0391, 313.895)" x="41.0391" y="313.895">0.15</text>
</g>
<g clip-path="url(#clip1500)">
<text style="fill:#000000; fill-opacity:1; font-family:Arial,Helvetica Neue,Helvetica,sans-serif; font-size:12; text-anchor:end;" transform="rotate(0, 41.0391, 292.656)" x="41.0391" y="292.656">0.20</text>
</g>
<polygon clip-path="url(#clip1504)" points="
62.1318,372.891 64.727,372.906 67.3223,372.944 69.9175,372.993 72.5128,373.038 75.108,373.072 77.7033,373.094 80.2985,373.105 82.8937,373.11 85.489,373.111 
  88.0842,373.112 90.6795,373.112 93.2747,373.112 95.8699,373.112 98.4652,373.112 101.06,373.112 103.656,373.112 106.251,373.112 108.846,373.112 111.441,373.112 
  114.037,373.112 116.632,373.112 119.227,373.112 121.822,373.112 124.418,373.112 127.013,373.112 129.608,373.112 132.203,373.112 134.799,373.112 137.394,373.112 
  139.989,373.112 142.584,373.112 145.18,373.112 147.775,373.112 150.37,373.112 152.965,373.112 155.56,373.11 158.156,373.107 160.751,373.098 163.346,373.08 
  165.941,373.05 168.537,373.008 171.132,372.959 173.727,372.915 176.322,372.892 178.918,372.898 181.513,372.93 184.108,372.978 186.703,373.025 189.299,373.063 
  191.894,373.088 194.489,373.1 197.084,373.102 199.68,373.096 202.275,373.078 204.87,373.048 207.465,373.005 210.061,372.956 212.656,372.913 215.251,372.891 
  217.846,372.898 220.441,372.928 223.037,372.967 225.632,372.994 228.227,372.993 230.822,372.949 233.418,372.856 236.013,372.708 238.608,372.507 241.203,372.258 
  243.799,371.98 246.394,371.71 248.989,371.497 251.584,371.388 254.18,371.403 256.775,371.522 259.37,371.691 261.965,371.846 264.561,371.946 267.156,371.976 
  269.751,371.939 272.346,371.837 274.942,371.66 277.537,371.396 280.132,371.037 282.727,370.584 285.323,370.031 287.918,369.362 290.513,368.554 293.108,367.596 
  295.703,366.505 298.299,365.315 300.894,364.068 303.489,362.801 306.084,361.549 308.68,360.35 311.275,359.234 313.87,358.201 316.465,357.204 319.061,356.148 
  319.061,373.112 316.465,373.112 313.87,373.112 311.275,373.112 308.68,373.112 306.084,373.112 303.489,373.112 300.894,373.112 298.299,373.112 295.703,373.112 
  293.108,373.112 290.513,373.112 287.918,373.112 285.323,373.112 282.727,373.112 280.132,373.112 277.537,373.112 274.942,373.112 272.346,373.112 269.751,373.112 
  267.156,373.112 264.561,373.112 261.965,373.112 259.37,373.112 256.775,373.112 254.18,373.112 251.584,373.112 248.989,373.112 246.394,373.112 243.799,373.112 
  241.203,373.112 238.608,373.112 236.013,373.112 233.418,373.112 230.822,373.112 228.227,373.112 225.632,373.112 223.037,373.112 220.441,373.112 217.846,373.112 
  215.251,373.112 212.656,373.112 210.061,373.112 207.465,373.112 204.87,373.112 202.275,373.112 199.68,373.112 197.084,373.112 194.489,373.112 191.894,373.112 
  189.299,373.112 186.703,373.112 184.108,373.112 181.513,373.112 178.918,373.112 176.322,373.112 173.727,373.112 171.132,373.112 168.537,373.112 165.941,373.112 
  163.346,373.112 160.751,373.112 158.156,373.112 155.56,373.112 152.965,373.112 150.37,373.112 147.775,373.112 145.18,373.112 142.584,373.112 139.989,373.112 
  137.394,373.112 134.799,373.112 132.203,373.112 129.608,373.112 127.013,373.112 124.418,373.112 121.822,373.112 119.227,373.112 116.632,373.112 114.037,373.112 
  111.441,373.112 108.846,373.112 106.251,373.112 103.656,373.112 101.06,373.112 98.4652,373.112 95.8699,373.112 93.2747,373.112 90.6795,373.112 88.0842,373.112 
  85.489,373.112 82.8937,373.112 80.2985,373.112 77.7033,373.112 75.108,373.112 72.5128,373.112 69.9175,373.112 67.3223,373.112 64.727,373.112 62.1318,373.112 
  
  " fill="#ffa500" fill-opacity="0.5"/>
<polyline clip-path="url(#clip1504)" style="stroke:#ffa500; stroke-width:1; stroke-opacity:1; fill:none" points="
  62.1318,372.891 64.727,372.906 67.3223,372.944 69.9175,372.993 72.5128,373.038 75.108,373.072 77.7033,373.094 80.2985,373.105 82.8937,373.11 85.489,373.111 
  88.0842,373.112 90.6795,373.112 93.2747,373.112 95.8699,373.112 98.4652,373.112 101.06,373.112 103.656,373.112 106.251,373.112 108.846,373.112 111.441,373.112 
  114.037,373.112 116.632,373.112 119.227,373.112 121.822,373.112 124.418,373.112 127.013,373.112 129.608,373.112 132.203,373.112 134.799,373.112 137.394,373.112 
  139.989,373.112 142.584,373.112 145.18,373.112 147.775,373.112 150.37,373.112 152.965,373.112 155.56,373.11 158.156,373.107 160.751,373.098 163.346,373.08 
  165.941,373.05 168.537,373.008 171.132,372.959 173.727,372.915 176.322,372.892 178.918,372.898 181.513,372.93 184.108,372.978 186.703,373.025 189.299,373.063 
  191.894,373.088 194.489,373.1 197.084,373.102 199.68,373.096 202.275,373.078 204.87,373.048 207.465,373.005 210.061,372.956 212.656,372.913 215.251,372.891 
  217.846,372.898 220.441,372.928 223.037,372.967 225.632,372.994 228.227,372.993 230.822,372.949 233.418,372.856 236.013,372.708 238.608,372.507 241.203,372.258 
  243.799,371.98 246.394,371.71 248.989,371.497 251.584,371.388 254.18,371.403 256.775,371.522 259.37,371.691 261.965,371.846 264.561,371.946 267.156,371.976 
  269.751,371.939 272.346,371.837 274.942,371.66 277.537,371.396 280.132,371.037 282.727,370.584 285.323,370.031 287.918,369.362 290.513,368.554 293.108,367.596 
  295.703,366.505 298.299,365.315 300.894,364.068 303.489,362.801 306.084,361.549 308.68,360.35 311.275,359.234 313.87,358.201 316.465,357.204 319.061,356.148 
  
  "/>
<polygon clip-path="url(#clip1504)" points="
319.061,356.148 320.367,355.556 321.674,354.905 322.98,354.181 324.287,353.376 325.593,352.483 326.9,351.504 328.207,350.445 329.513,349.316 330.82,348.134 
  332.126,346.916 333.433,345.679 334.739,344.433 336.046,343.184 337.353,341.929 338.659,340.654 339.966,339.341 341.272,337.969 342.579,336.517 343.885,334.965 
  345.192,333.304 346.499,331.531 347.805,329.651 349.112,327.679 350.418,325.635 351.725,323.547 353.031,321.442 354.338,319.35 355.645,317.298 356.951,315.31 
  358.258,313.404 359.564,311.591 360.871,309.874 362.177,308.246 363.484,306.7 364.791,305.22 366.097,303.793 367.404,302.408 368.71,301.057 370.017,299.735 
  371.323,298.44 372.63,297.174 373.937,295.936 375.243,294.727 376.55,293.545 377.856,292.389 379.163,291.262 380.469,290.166 381.776,289.11 383.083,288.106 
  384.389,287.165 385.696,286.299 387.002,285.516 388.309,284.82 389.615,284.208 390.922,283.673 392.229,283.206 393.535,282.796 394.842,282.434 396.148,282.113 
  397.455,281.831 398.761,281.589 400.068,281.398 401.375,281.271 402.681,281.234 403.988,281.32 405.294,281.571 406.601,282.039 407.907,282.778 409.214,283.845 
  410.521,285.287 411.827,287.139 413.134,289.417 414.44,292.112 415.747,295.192 417.053,298.601 418.36,302.264 419.667,306.095 420.973,310.003 422.28,313.904 
  423.586,317.723 424.893,321.399 426.199,324.893 427.506,328.177 428.813,331.239 430.119,334.075 431.426,336.685 432.732,339.07 434.039,341.232 435.345,343.17 
  436.652,344.887 437.959,346.391 439.265,347.693 440.572,348.814 441.878,349.781 443.185,350.629 444.491,351.394 445.798,352.115 447.105,352.824 448.411,353.547 
  448.411,373.112 447.105,373.112 445.798,373.112 444.491,373.112 443.185,373.112 441.878,373.112 440.572,373.112 439.265,373.112 437.959,373.112 436.652,373.112 
  435.345,373.112 434.039,373.112 432.732,373.112 431.426,373.112 430.119,373.112 428.813,373.112 427.506,373.112 426.199,373.112 424.893,373.112 423.586,373.112 
  422.28,373.112 420.973,373.112 419.667,373.112 418.36,373.112 417.053,373.112 415.747,373.112 414.44,373.112 413.134,373.112 411.827,373.112 410.521,373.112 
  409.214,373.112 407.907,373.112 406.601,373.112 405.294,373.112 403.988,373.112 402.681,373.112 401.375,373.112 400.068,373.112 398.761,373.112 397.455,373.112 
  396.148,373.112 394.842,373.112 393.535,373.112 392.229,373.112 390.922,373.112 389.615,373.112 388.309,373.112 387.002,373.112 385.696,373.112 384.389,373.112 
  383.083,373.112 381.776,373.112 380.469,373.112 379.163,373.112 377.856,373.112 376.55,373.112 375.243,373.112 373.937,373.112 372.63,373.112 371.323,373.112 
  370.017,373.112 368.71,373.112 367.404,373.112 366.097,373.112 364.791,373.112 363.484,373.112 362.177,373.112 360.871,373.112 359.564,373.112 358.258,373.112 
  356.951,373.112 355.645,373.112 354.338,373.112 353.031,373.112 351.725,373.112 350.418,373.112 349.112,373.112 347.805,373.112 346.499,373.112 345.192,373.112 
  343.885,373.112 342.579,373.112 341.272,373.112 339.966,373.112 338.659,373.112 337.353,373.112 336.046,373.112 334.739,373.112 333.433,373.112 332.126,373.112 
  330.82,373.112 329.513,373.112 328.207,373.112 326.9,373.112 325.593,373.112 324.287,373.112 322.98,373.112 321.674,373.112 320.367,373.112 319.061,373.112 
  
  " fill="#008000" fill-opacity="0.5"/>
<polyline clip-path="url(#clip1504)" style="stroke:#008000; stroke-width:1; stroke-opacity:1; fill:none" points="
  319.061,356.148 320.367,355.556 321.674,354.905 322.98,354.181 324.287,353.376 325.593,352.483 326.9,351.504 328.207,350.445 329.513,349.316 330.82,348.134 
  332.126,346.916 333.433,345.679 334.739,344.433 336.046,343.184 337.353,341.929 338.659,340.654 339.966,339.341 341.272,337.969 342.579,336.517 343.885,334.965 
  345.192,333.304 346.499,331.531 347.805,329.651 349.112,327.679 350.418,325.635 351.725,323.547 353.031,321.442 354.338,319.35 355.645,317.298 356.951,315.31 
  358.258,313.404 359.564,311.591 360.871,309.874 362.177,308.246 363.484,306.7 364.791,305.22 366.097,303.793 367.404,302.408 368.71,301.057 370.017,299.735 
  371.323,298.44 372.63,297.174 373.937,295.936 375.243,294.727 376.55,293.545 377.856,292.389 379.163,291.262 380.469,290.166 381.776,289.11 383.083,288.106 
  384.389,287.165 385.696,286.299 387.002,285.516 388.309,284.82 389.615,284.208 390.922,283.673 392.229,283.206 393.535,282.796 394.842,282.434 396.148,282.113 
  397.455,281.831 398.761,281.589 400.068,281.398 401.375,281.271 402.681,281.234 403.988,281.32 405.294,281.571 406.601,282.039 407.907,282.778 409.214,283.845 
  410.521,285.287 411.827,287.139 413.134,289.417 414.44,292.112 415.747,295.192 417.053,298.601 418.36,302.264 419.667,306.095 420.973,310.003 422.28,313.904 
  423.586,317.723 424.893,321.399 426.199,324.893 427.506,328.177 428.813,331.239 430.119,334.075 431.426,336.685 432.732,339.07 434.039,341.232 435.345,343.17 
  436.652,344.887 437.959,346.391 439.265,347.693 440.572,348.814 441.878,349.781 443.185,350.629 444.491,351.394 445.798,352.115 447.105,352.824 448.411,353.547 
  
  "/>
<polygon clip-path="url(#clip1504)" points="
448.411,353.547 449.591,354.228 450.771,354.939 451.951,355.68 453.131,356.442 454.311,357.215 455.491,357.987 456.671,358.746 457.85,359.484 459.03,360.197 
  460.21,360.885 461.39,361.552 462.57,362.202 463.75,362.845 464.93,363.483 466.11,364.121 467.29,364.759 468.47,365.391 469.65,366.013 470.829,366.615 
  472.009,367.188 473.189,367.724 474.369,368.218 475.549,368.663 476.729,369.059 477.909,369.407 479.089,369.708 480.269,369.967 481.449,370.188 482.629,370.374 
  483.808,370.531 484.988,370.663 486.168,370.772 487.348,370.864 488.528,370.942 489.708,371.01 490.888,371.071 492.068,371.129 493.248,371.187 494.428,371.246 
  495.608,371.308 496.787,371.372 497.967,371.439 499.147,371.507 500.327,371.576 501.507,371.644 502.687,371.711 503.867,371.777 505.047,371.843 506.227,371.909 
  507.407,371.977 508.587,372.047 509.766,372.12 510.946,372.194 512.126,372.269 513.306,372.343 514.486,372.414 515.666,372.478 516.846,372.535 518.026,372.581 
  519.206,372.615 520.386,372.638 521.566,372.647 522.745,372.645 523.925,372.631 525.105,372.606 526.285,372.572 527.465,372.529 528.645,372.479 529.825,372.423 
  531.005,372.364 532.185,372.304 533.365,372.246 534.545,372.194 535.724,372.15 536.904,372.12 538.084,372.105 539.264,372.108 540.444,372.13 541.624,372.171 
  542.804,372.229 543.984,372.301 545.164,372.383 546.344,372.471 547.524,372.56 548.704,372.646 549.883,372.724 551.063,372.792 552.243,372.847 553.423,372.889 
  554.603,372.918 555.783,372.935 556.963,372.94 558.143,372.938 559.323,372.93 560.503,372.918 561.683,372.907 562.862,372.897 564.042,372.89 565.222,372.889 
  565.222,373.112 564.042,373.112 562.862,373.112 561.683,373.112 560.503,373.112 559.323,373.112 558.143,373.112 556.963,373.112 555.783,373.112 554.603,373.112 
  553.423,373.112 552.243,373.112 551.063,373.112 549.883,373.112 548.704,373.112 547.524,373.112 546.344,373.112 545.164,373.112 543.984,373.112 542.804,373.112 
  541.624,373.112 540.444,373.112 539.264,373.112 538.084,373.112 536.904,373.112 535.724,373.112 534.545,373.112 533.365,373.112 532.185,373.112 531.005,373.112 
  529.825,373.112 528.645,373.112 527.465,373.112 526.285,373.112 525.105,373.112 523.925,373.112 522.745,373.112 521.566,373.112 520.386,373.112 519.206,373.112 
  518.026,373.112 516.846,373.112 515.666,373.112 514.486,373.112 513.306,373.112 512.126,373.112 510.946,373.112 509.766,373.112 508.587,373.112 507.407,373.112 
  506.227,373.112 505.047,373.112 503.867,373.112 502.687,373.112 501.507,373.112 500.327,373.112 499.147,373.112 497.967,373.112 496.787,373.112 495.608,373.112 
  494.428,373.112 493.248,373.112 492.068,373.112 490.888,373.112 489.708,373.112 488.528,373.112 487.348,373.112 486.168,373.112 484.988,373.112 483.808,373.112 
  482.629,373.112 481.449,373.112 480.269,373.112 479.089,373.112 477.909,373.112 476.729,373.112 475.549,373.112 474.369,373.112 473.189,373.112 472.009,373.112 
  470.829,373.112 469.65,373.112 468.47,373.112 467.29,373.112 466.11,373.112 464.93,373.112 463.75,373.112 462.57,373.112 461.39,373.112 460.21,373.112 
  459.03,373.112 457.85,373.112 456.671,373.112 455.491,373.112 454.311,373.112 453.131,373.112 451.951,373.112 450.771,373.112 449.591,373.112 448.411,373.112 
  
  " fill="#ffa500" fill-opacity="0.5"/>
<polyline clip-path="url(#clip1504)" style="stroke:#ffa500; stroke-width:1; stroke-opacity:1; fill:none" points="
  448.411,353.547 449.591,354.228 450.771,354.939 451.951,355.68 453.131,356.442 454.311,357.215 455.491,357.987 456.671,358.746 457.85,359.484 459.03,360.197 
  460.21,360.885 461.39,361.552 462.57,362.202 463.75,362.845 464.93,363.483 466.11,364.121 467.29,364.759 468.47,365.391 469.65,366.013 470.829,366.615 
  472.009,367.188 473.189,367.724 474.369,368.218 475.549,368.663 476.729,369.059 477.909,369.407 479.089,369.708 480.269,369.967 481.449,370.188 482.629,370.374 
  483.808,370.531 484.988,370.663 486.168,370.772 487.348,370.864 488.528,370.942 489.708,371.01 490.888,371.071 492.068,371.129 493.248,371.187 494.428,371.246 
  495.608,371.308 496.787,371.372 497.967,371.439 499.147,371.507 500.327,371.576 501.507,371.644 502.687,371.711 503.867,371.777 505.047,371.843 506.227,371.909 
  507.407,371.977 508.587,372.047 509.766,372.12 510.946,372.194 512.126,372.269 513.306,372.343 514.486,372.414 515.666,372.478 516.846,372.535 518.026,372.581 
  519.206,372.615 520.386,372.638 521.566,372.647 522.745,372.645 523.925,372.631 525.105,372.606 526.285,372.572 527.465,372.529 528.645,372.479 529.825,372.423 
  531.005,372.364 532.185,372.304 533.365,372.246 534.545,372.194 535.724,372.15 536.904,372.12 538.084,372.105 539.264,372.108 540.444,372.13 541.624,372.171 
  542.804,372.229 543.984,372.301 545.164,372.383 546.344,372.471 547.524,372.56 548.704,372.646 549.883,372.724 551.063,372.792 552.243,372.847 553.423,372.889 
  554.603,372.918 555.783,372.935 556.963,372.94 558.143,372.938 559.323,372.93 560.503,372.918 561.683,372.907 562.862,372.897 564.042,372.89 565.222,372.889 
  
  "/>
<polyline clip-path="url(#clip1504)" style="stroke:#0000ff; stroke-width:1; stroke-opacity:1; fill:none" points="
  386.813,373.112 386.813,285.625 
  "/>
<polyline clip-path="url(#clip1504)" style="stroke:#000000; stroke-width:1; stroke-opacity:1; fill:none" points="
  389.277,373.112 389.277,284.359 
  "/>
<polygon clip-path="url(#clip1500)" points="
376.566,390.078 562.315,390.078 562.315,299.358 376.566,299.358 
  " fill="#ffffff" fill-opacity="1"/>
<polyline clip-path="url(#clip1500)" style="stroke:#000000; stroke-width:1; stroke-opacity:1; fill:none" points="
  376.566,390.078 562.315,390.078 562.315,299.358 376.566,299.358 376.566,390.078 
  "/>
<polygon clip-path="url(#clip1500)" points="
382.566,320.526 418.566,320.526 418.566,308.43 382.566,308.43 382.566,320.526 
  " fill="#ffa500" fill-opacity="0.5"/>
<polyline clip-path="url(#clip1500)" style="stroke:#ffa500; stroke-width:1; stroke-opacity:1; fill:none" points="
  382.566,308.43 418.566,308.43 
  "/>
<g clip-path="url(#clip1500)">
<text style="fill:#000000; fill-opacity:1; font-family:Arial,Helvetica Neue,Helvetica,sans-serif; font-size:12; text-anchor:start;" transform="rotate(0, 424.566, 318.978)" x="424.566" y="318.978">q05</text>
</g>
<polygon clip-path="url(#clip1500)" points="
382.566,335.646 418.566,335.646 418.566,323.55 382.566,323.55 382.566,335.646 
  " fill="#008000" fill-opacity="0.5"/>
<polyline clip-path="url(#clip1500)" style="stroke:#008000; stroke-width:1; stroke-opacity:1; fill:none" points="
  382.566,323.55 418.566,323.55 
  "/>
<g clip-path="url(#clip1500)">
<text style="fill:#000000; fill-opacity:1; font-family:Arial,Helvetica Neue,Helvetica,sans-serif; font-size:12; text-anchor:start;" transform="rotate(0, 424.566, 334.098)" x="424.566" y="334.098">90% acceptance region</text>
</g>
<polygon clip-path="url(#clip1500)" points="
382.566,350.766 418.566,350.766 418.566,338.67 382.566,338.67 382.566,350.766 
  " fill="#ffa500" fill-opacity="0.5"/>
<polyline clip-path="url(#clip1500)" style="stroke:#ffa500; stroke-width:1; stroke-opacity:1; fill:none" points="
  382.566,338.67 418.566,338.67 
  "/>
<g clip-path="url(#clip1500)">
<text style="fill:#000000; fill-opacity:1; font-family:Arial,Helvetica Neue,Helvetica,sans-serif; font-size:12; text-anchor:start;" transform="rotate(0, 424.566, 349.218)" x="424.566" y="349.218">q95</text>
</g>
<polyline clip-path="url(#clip1500)" style="stroke:#0000ff; stroke-width:1; stroke-opacity:1; fill:none" points="
  382.566,359.838 418.566,359.838 
  "/>
<g clip-path="url(#clip1500)">
<text style="fill:#000000; fill-opacity:1; font-family:Arial,Helvetica Neue,Helvetica,sans-serif; font-size:12; text-anchor:start;" transform="rotate(0, 424.566, 364.338)" x="424.566" y="364.338">mean</text>
</g>
<polyline clip-path="url(#clip1500)" style="stroke:#000000; stroke-width:1; stroke-opacity:1; fill:none" points="
  382.566,374.958 418.566,374.958 
  "/>
<g clip-path="url(#clip1500)">
<text style="fill:#000000; fill-opacity:1; font-family:Arial,Helvetica Neue,Helvetica,sans-serif; font-size:12; text-anchor:start;" transform="rotate(0, 424.566, 379.458)" x="424.566" y="379.458">median</text>
</g>
</svg>
