<?xml version="1.0" encoding="utf-8"?>
<svg xmlns="http://www.w3.org/2000/svg" xmlns:xlink="http://www.w3.org/1999/xlink" width="600" height="400" viewBox="0 0 600 400">
<defs>
  <clipPath id="clip00">
    <rect x="0" y="0" width="600" height="400"/>
  </clipPath>
</defs>
<polygon clip-path="url(#clip00)" points="
0,400 600,400 600,0 0,0 
  " fill="#ffffff" fill-opacity="1"/>
<defs>
  <clipPath id="clip01">
    <rect x="120" y="0" width="421" height="400"/>
  </clipPath>
</defs>
<polygon clip-path="url(#clip00)" points="
35.5169,375.813 580.315,375.813 580.315,11.811 35.5169,11.811 
  " fill="#ffffff" fill-opacity="1"/>
<defs>
  <clipPath id="clip02">
    <rect x="35" y="11" width="546" height="365"/>
  </clipPath>
</defs>
<polyline clip-path="url(#clip02)" style="stroke:#000000; stroke-width:0.5; stroke-opacity:0.1; fill:none" points="
  205.124,370.353 205.124,17.2711 
  "/>
<polyline clip-path="url(#clip02)" style="stroke:#000000; stroke-width:0.5; stroke-opacity:0.1; fill:none" points="
  376.444,370.353 376.444,17.2711 
  "/>
<polyline clip-path="url(#clip02)" style="stroke:#000000; stroke-width:0.5; stroke-opacity:0.1; fill:none" points="
  547.764,370.353 547.764,17.2711 
  "/>
<polyline clip-path="url(#clip02)" style="stroke:#000000; stroke-width:0.5; stroke-opacity:0.1; fill:none" points="
  43.6889,375.813 572.143,375.813 
  "/>
<polyline clip-path="url(#clip02)" style="stroke:#000000; stroke-width:0.5; stroke-opacity:0.1; fill:none" points="
  43.6889,307.776 572.143,307.776 
  "/>
<polyline clip-path="url(#clip02)" style="stroke:#000000; stroke-width:0.5; stroke-opacity:0.1; fill:none" points="
  43.6889,239.738 572.143,239.738 
  "/>
<polyline clip-path="url(#clip02)" style="stroke:#000000; stroke-width:0.5; stroke-opacity:0.1; fill:none" points="
  43.6889,171.7 572.143,171.7 
  "/>
<polyline clip-path="url(#clip02)" style="stroke:#000000; stroke-width:0.5; stroke-opacity:0.1; fill:none" points="
  43.6889,103.662 572.143,103.662 
  "/>
<polyline clip-path="url(#clip02)" style="stroke:#000000; stroke-width:0.5; stroke-opacity:0.1; fill:none" points="
  43.6889,35.6243 572.143,35.6243 
  "/>
<polyline clip-path="url(#clip00)" style="stroke:#000000; stroke-width:1; stroke-opacity:1; fill:none" points="
  35.5169,375.813 580.315,375.813 
  "/>
<polyline clip-path="url(#clip00)" style="stroke:#000000; stroke-width:1; stroke-opacity:1; fill:none" points="
  205.124,375.813 205.124,370.353 
  "/>
<polyline clip-path="url(#clip00)" style="stroke:#000000; stroke-width:1; stroke-opacity:1; fill:none" points="
  376.444,375.813 376.444,370.353 
  "/>
<polyline clip-path="url(#clip00)" style="stroke:#000000; stroke-width:1; stroke-opacity:1; fill:none" points="
  547.764,375.813 547.764,370.353 
  "/>
<polyline clip-path="url(#clip00)" style="stroke:#000000; stroke-width:1; stroke-opacity:1; fill:none" points="
  35.5169,375.813 35.5169,11.811 
  "/>
<polyline clip-path="url(#clip00)" style="stroke:#000000; stroke-width:1; stroke-opacity:1; fill:none" points="
  35.5169,375.813 43.6889,375.813 
  "/>
<polyline clip-path="url(#clip00)" style="stroke:#000000; stroke-width:1; stroke-opacity:1; fill:none" points="
  35.5169,307.776 43.6889,307.776 
  "/>
<polyline clip-path="url(#clip00)" style="stroke:#000000; stroke-width:1; stroke-opacity:1; fill:none" points="
  35.5169,239.738 43.6889,239.738 
  "/>
<polyline clip-path="url(#clip00)" style="stroke:#000000; stroke-width:1; stroke-opacity:1; fill:none" points="
  35.5169,171.7 43.6889,171.7 
  "/>
<polyline clip-path="url(#clip00)" style="stroke:#000000; stroke-width:1; stroke-opacity:1; fill:none" points="
  35.5169,103.662 43.6889,103.662 
  "/>
<polyline clip-path="url(#clip00)" style="stroke:#000000; stroke-width:1; stroke-opacity:1; fill:none" points="
  35.5169,35.6243 43.6889,35.6243 
  "/>
<g clip-path="url(#clip00)">
<text style="fill:#000000; fill-opacity:1; font-family:Arial,Helvetica Neue,Helvetica,sans-serif; font-size:12; text-anchor:middle;" transform="rotate(0, 205.124, 389.613)" x="205.124" y="389.613">1.5</text>
</g>
<g clip-path="url(#clip00)">
<text style="fill:#000000; fill-opacity:1; font-family:Arial,Helvetica Neue,Helvetica,sans-serif; font-size:12; text-anchor:middle;" transform="rotate(0, 376.444, 389.613)" x="376.444" y="389.613">2.0</text>
</g>
<g clip-path="url(#clip00)">
<text style="fill:#000000; fill-opacity:1; font-family:Arial,Helvetica Neue,Helvetica,sans-serif; font-size:12; text-anchor:middle;" transform="rotate(0, 547.764, 389.613)" x="547.764" y="389.613">2.5</text>
</g>
<g clip-path="url(#clip00)">
<text style="fill:#000000; fill-opacity:1; font-family:Arial,Helvetica Neue,Helvetica,sans-serif; font-size:12; text-anchor:end;" transform="rotate(0, 29.5169, 380.313)" x="29.5169" y="380.313">0</text>
</g>
<g clip-path="url(#clip00)">
<text style="fill:#000000; fill-opacity:1; font-family:Arial,Helvetica Neue,Helvetica,sans-serif; font-size:12; text-anchor:end;" transform="rotate(0, 29.5169, 312.276)" x="29.5169" y="312.276">20</text>
</g>
<g clip-path="url(#clip00)">
<text style="fill:#000000; fill-opacity:1; font-family:Arial,Helvetica Neue,Helvetica,sans-serif; font-size:12; text-anchor:end;" transform="rotate(0, 29.5169, 244.238)" x="29.5169" y="244.238">40</text>
</g>
<g clip-path="url(#clip00)">
<text style="fill:#000000; fill-opacity:1; font-family:Arial,Helvetica Neue,Helvetica,sans-serif; font-size:12; text-anchor:end;" transform="rotate(0, 29.5169, 176.2)" x="29.5169" y="176.2">60</text>
</g>
<g clip-path="url(#clip00)">
<text style="fill:#000000; fill-opacity:1; font-family:Arial,Helvetica Neue,Helvetica,sans-serif; font-size:12; text-anchor:end;" transform="rotate(0, 29.5169, 108.162)" x="29.5169" y="108.162">80</text>
</g>
<g clip-path="url(#clip00)">
<text style="fill:#000000; fill-opacity:1; font-family:Arial,Helvetica Neue,Helvetica,sans-serif; font-size:12; text-anchor:end;" transform="rotate(0, 29.5169, 40.1243)" x="29.5169" y="40.1243">100</text>
</g>
<polygon clip-path="url(#clip02)" points="
50.9357,372.412 50.9357,375.813 68.0677,375.813 68.0677,372.412 50.9357,372.412 50.9357,372.412 
  " fill="#009af9" fill-opacity="1"/>
<polyline clip-path="url(#clip02)" style="stroke:#000000; stroke-width:1; stroke-opacity:1; fill:none" points="
  50.9357,372.412 50.9357,375.813 68.0677,375.813 68.0677,372.412 50.9357,372.412 
  "/>
<polygon clip-path="url(#clip02)" points="
68.0677,372.412 68.0677,375.813 85.1998,375.813 85.1998,372.412 68.0677,372.412 68.0677,372.412 
  " fill="#009af9" fill-opacity="1"/>
<polyline clip-path="url(#clip02)" style="stroke:#000000; stroke-width:1; stroke-opacity:1; fill:none" points="
  68.0677,372.412 68.0677,375.813 85.1998,375.813 85.1998,372.412 68.0677,372.412 
  "/>
<polygon clip-path="url(#clip02)" points="
85.1998,375.813 85.1998,375.813 102.332,375.813 102.332,375.813 85.1998,375.813 85.1998,375.813 
  " fill="#009af9" fill-opacity="1"/>
<polyline clip-path="url(#clip02)" style="stroke:#000000; stroke-width:1; stroke-opacity:1; fill:none" points="
  85.1998,375.813 85.1998,375.813 102.332,375.813 85.1998,375.813 
  "/>
<polygon clip-path="url(#clip02)" points="
102.332,372.412 102.332,375.813 119.464,375.813 119.464,372.412 102.332,372.412 102.332,372.412 
  " fill="#009af9" fill-opacity="1"/>
<polyline clip-path="url(#clip02)" style="stroke:#000000; stroke-width:1; stroke-opacity:1; fill:none" points="
  102.332,372.412 102.332,375.813 119.464,375.813 119.464,372.412 102.332,372.412 
  "/>
<polygon clip-path="url(#clip02)" points="
119.464,375.813 119.464,375.813 136.596,375.813 136.596,375.813 119.464,375.813 119.464,375.813 
  " fill="#009af9" fill-opacity="1"/>
<polyline clip-path="url(#clip02)" style="stroke:#000000; stroke-width:1; stroke-opacity:1; fill:none" points="
  119.464,375.813 119.464,375.813 136.596,375.813 119.464,375.813 
  "/>
<polygon clip-path="url(#clip02)" points="
136.596,369.01 136.596,375.813 153.728,375.813 153.728,369.01 136.596,369.01 136.596,369.01 
  " fill="#009af9" fill-opacity="1"/>
<polyline clip-path="url(#clip02)" style="stroke:#000000; stroke-width:1; stroke-opacity:1; fill:none" points="
  136.596,369.01 136.596,375.813 153.728,375.813 153.728,369.01 136.596,369.01 
  "/>
<polygon clip-path="url(#clip02)" points="
153.728,352 153.728,375.813 170.86,375.813 170.86,352 153.728,352 153.728,352 
  " fill="#009af9" fill-opacity="1"/>
<polyline clip-path="url(#clip02)" style="stroke:#000000; stroke-width:1; stroke-opacity:1; fill:none" points="
  153.728,352 153.728,375.813 170.86,375.813 170.86,352 153.728,352 
  "/>
<polygon clip-path="url(#clip02)" points="
170.86,358.804 170.86,375.813 187.992,375.813 187.992,358.804 170.86,358.804 170.86,358.804 
  " fill="#009af9" fill-opacity="1"/>
<polyline clip-path="url(#clip02)" style="stroke:#000000; stroke-width:1; stroke-opacity:1; fill:none" points="
  170.86,358.804 170.86,375.813 187.992,375.813 187.992,358.804 170.86,358.804 
  "/>
<polygon clip-path="url(#clip02)" points="
187.992,331.589 187.992,375.813 205.124,375.813 205.124,331.589 187.992,331.589 187.992,331.589 
  " fill="#009af9" fill-opacity="1"/>
<polyline clip-path="url(#clip02)" style="stroke:#000000; stroke-width:1; stroke-opacity:1; fill:none" points="
  187.992,331.589 187.992,375.813 205.124,375.813 205.124,331.589 187.992,331.589 
  "/>
<polygon clip-path="url(#clip02)" points="
205.124,311.178 205.124,375.813 222.256,375.813 222.256,311.178 205.124,311.178 205.124,311.178 
  " fill="#009af9" fill-opacity="1"/>
<polyline clip-path="url(#clip02)" style="stroke:#000000; stroke-width:1; stroke-opacity:1; fill:none" points="
  205.124,311.178 205.124,375.813 222.256,375.813 222.256,311.178 205.124,311.178 
  "/>
<polygon clip-path="url(#clip02)" points="
222.256,307.776 222.256,375.813 239.388,375.813 239.388,307.776 222.256,307.776 222.256,307.776 
  " fill="#009af9" fill-opacity="1"/>
<polyline clip-path="url(#clip02)" style="stroke:#000000; stroke-width:1; stroke-opacity:1; fill:none" points="
  222.256,307.776 222.256,375.813 239.388,375.813 239.388,307.776 222.256,307.776 
  "/>
<polygon clip-path="url(#clip02)" points="
239.388,277.159 239.388,375.813 256.52,375.813 256.52,277.159 239.388,277.159 239.388,277.159 
  " fill="#009af9" fill-opacity="1"/>
<polyline clip-path="url(#clip02)" style="stroke:#000000; stroke-width:1; stroke-opacity:1; fill:none" points="
  239.388,277.159 239.388,375.813 256.52,375.813 256.52,277.159 239.388,277.159 
  "/>
<polygon clip-path="url(#clip02)" points="
256.52,236.336 256.52,375.813 273.652,375.813 273.652,236.336 256.52,236.336 256.52,236.336 
  " fill="#009af9" fill-opacity="1"/>
<polyline clip-path="url(#clip02)" style="stroke:#000000; stroke-width:1; stroke-opacity:1; fill:none" points="
  256.52,236.336 256.52,375.813 273.652,375.813 273.652,236.336 256.52,236.336 
  "/>
<polygon clip-path="url(#clip02)" points="
273.652,141.083 273.652,375.813 290.784,375.813 290.784,141.083 273.652,141.083 273.652,141.083 
  " fill="#009af9" fill-opacity="1"/>
<polyline clip-path="url(#clip02)" style="stroke:#000000; stroke-width:1; stroke-opacity:1; fill:none" points="
  273.652,141.083 273.652,375.813 290.784,375.813 290.784,141.083 273.652,141.083 
  "/>
<polygon clip-path="url(#clip02)" points="
290.784,134.279 290.784,375.813 307.916,375.813 307.916,134.279 290.784,134.279 290.784,134.279 
  " fill="#009af9" fill-opacity="1"/>
<polyline clip-path="url(#clip02)" style="stroke:#000000; stroke-width:1; stroke-opacity:1; fill:none" points="
  290.784,134.279 290.784,375.813 307.916,375.813 307.916,134.279 290.784,134.279 
  "/>
<polygon clip-path="url(#clip02)" points="
307.916,86.6526 307.916,375.813 325.048,375.813 325.048,86.6526 307.916,86.6526 307.916,86.6526 
  " fill="#009af9" fill-opacity="1"/>
<polyline clip-path="url(#clip02)" style="stroke:#000000; stroke-width:1; stroke-opacity:1; fill:none" points="
  307.916,86.6526 307.916,375.813 325.048,375.813 325.048,86.6526 307.916,86.6526 
  "/>
<polygon clip-path="url(#clip02)" points="
325.048,49.2318 325.048,375.813 342.18,375.813 342.18,49.2318 325.048,49.2318 325.048,49.2318 
  " fill="#009af9" fill-opacity="1"/>
<polyline clip-path="url(#clip02)" style="stroke:#000000; stroke-width:1; stroke-opacity:1; fill:none" points="
  325.048,49.2318 325.048,375.813 342.18,375.813 342.18,49.2318 325.048,49.2318 
  "/>
<polygon clip-path="url(#clip02)" points="
342.18,11.811 342.18,375.813 359.312,375.813 359.312,11.811 342.18,11.811 342.18,11.811 
  " fill="#009af9" fill-opacity="1"/>
<polyline clip-path="url(#clip02)" style="stroke:#000000; stroke-width:1; stroke-opacity:1; fill:none" points="
  342.18,11.811 342.18,375.813 359.312,375.813 359.312,11.811 342.18,11.811 
  "/>
<polygon clip-path="url(#clip02)" points="
359.312,42.4281 359.312,375.813 376.444,375.813 376.444,42.4281 359.312,42.4281 359.312,42.4281 
  " fill="#009af9" fill-opacity="1"/>
<polyline clip-path="url(#clip02)" style="stroke:#000000; stroke-width:1; stroke-opacity:1; fill:none" points="
  359.312,42.4281 359.312,375.813 376.444,375.813 376.444,42.4281 359.312,42.4281 
  "/>
<polygon clip-path="url(#clip02)" points="
376.444,28.8205 376.444,375.813 393.576,375.813 393.576,28.8205 376.444,28.8205 376.444,28.8205 
  " fill="#009af9" fill-opacity="1"/>
<polyline clip-path="url(#clip02)" style="stroke:#000000; stroke-width:1; stroke-opacity:1; fill:none" points="
  376.444,28.8205 376.444,375.813 393.576,375.813 393.576,28.8205 376.444,28.8205 
  "/>
<polygon clip-path="url(#clip02)" points="
393.576,171.7 393.576,375.813 410.708,375.813 410.708,171.7 393.576,171.7 393.576,171.7 
  " fill="#009af9" fill-opacity="1"/>
<polyline clip-path="url(#clip02)" style="stroke:#000000; stroke-width:1; stroke-opacity:1; fill:none" points="
  393.576,171.7 393.576,375.813 410.708,375.813 410.708,171.7 393.576,171.7 
  "/>
<polygon clip-path="url(#clip02)" points="
410.708,202.317 410.708,375.813 427.84,375.813 427.84,202.317 410.708,202.317 410.708,202.317 
  " fill="#009af9" fill-opacity="1"/>
<polyline clip-path="url(#clip02)" style="stroke:#000000; stroke-width:1; stroke-opacity:1; fill:none" points="
  410.708,202.317 410.708,375.813 427.84,375.813 427.84,202.317 410.708,202.317 
  "/>
<polygon clip-path="url(#clip02)" points="
427.84,185.308 427.84,375.813 444.972,375.813 444.972,185.308 427.84,185.308 427.84,185.308 
  " fill="#009af9" fill-opacity="1"/>
<polyline clip-path="url(#clip02)" style="stroke:#000000; stroke-width:1; stroke-opacity:1; fill:none" points="
  427.84,185.308 427.84,375.813 444.972,375.813 444.972,185.308 427.84,185.308 
  "/>
<polygon clip-path="url(#clip02)" points="
444.972,300.972 444.972,375.813 462.104,375.813 462.104,300.972 444.972,300.972 444.972,300.972 
  " fill="#009af9" fill-opacity="1"/>
<polyline clip-path="url(#clip02)" style="stroke:#000000; stroke-width:1; stroke-opacity:1; fill:none" points="
  444.972,300.972 444.972,375.813 462.104,375.813 462.104,300.972 444.972,300.972 
  "/>
<polygon clip-path="url(#clip02)" points="
462.104,341.795 462.104,375.813 479.236,375.813 479.236,341.795 462.104,341.795 462.104,341.795 
  " fill="#009af9" fill-opacity="1"/>
<polyline clip-path="url(#clip02)" style="stroke:#000000; stroke-width:1; stroke-opacity:1; fill:none" points="
  462.104,341.795 462.104,375.813 479.236,375.813 479.236,341.795 462.104,341.795 
  "/>
<polygon clip-path="url(#clip02)" points="
479.236,338.393 479.236,375.813 496.368,375.813 496.368,338.393 479.236,338.393 479.236,338.393 
  " fill="#009af9" fill-opacity="1"/>
<polyline clip-path="url(#clip02)" style="stroke:#000000; stroke-width:1; stroke-opacity:1; fill:none" points="
  479.236,338.393 479.236,375.813 496.368,375.813 496.368,338.393 479.236,338.393 
  "/>
<polygon clip-path="url(#clip02)" points="
496.368,341.795 496.368,375.813 513.5,375.813 513.5,341.795 496.368,341.795 496.368,341.795 
  " fill="#009af9" fill-opacity="1"/>
<polyline clip-path="url(#clip02)" style="stroke:#000000; stroke-width:1; stroke-opacity:1; fill:none" points="
  496.368,341.795 496.368,375.813 513.5,375.813 513.5,341.795 496.368,341.795 
  "/>
<polygon clip-path="url(#clip02)" points="
513.5,348.598 513.5,375.813 530.632,375.813 530.632,348.598 513.5,348.598 513.5,348.598 
  " fill="#009af9" fill-opacity="1"/>
<polyline clip-path="url(#clip02)" style="stroke:#000000; stroke-width:1; stroke-opacity:1; fill:none" points="
  513.5,348.598 513.5,375.813 530.632,375.813 530.632,348.598 513.5,348.598 
  "/>
<polygon clip-path="url(#clip02)" points="
530.632,365.608 530.632,375.813 547.764,375.813 547.764,365.608 530.632,365.608 530.632,365.608 
  " fill="#009af9" fill-opacity="1"/>
<polyline clip-path="url(#clip02)" style="stroke:#000000; stroke-width:1; stroke-opacity:1; fill:none" points="
  530.632,365.608 530.632,375.813 547.764,375.813 547.764,365.608 530.632,365.608 
  "/>
<polygon clip-path="url(#clip02)" points="
547.764,369.01 547.764,375.813 564.896,375.813 564.896,369.01 547.764,369.01 547.764,369.01 
  " fill="#009af9" fill-opacity="1"/>
<polyline clip-path="url(#clip02)" style="stroke:#000000; stroke-width:1; stroke-opacity:1; fill:none" points="
  547.764,369.01 547.764,375.813 564.896,375.813 564.896,369.01 547.764,369.01 
  "/>
<polygon clip-path="url(#clip00)" points="
489.799,62.931 562.315,62.931 562.315,32.691 489.799,32.691 
  " fill="#ffffff" fill-opacity="1"/>
<polyline clip-path="url(#clip00)" style="stroke:#000000; stroke-width:1; stroke-opacity:1; fill:none" points="
  489.799,62.931 562.315,62.931 562.315,32.691 489.799,32.691 489.799,62.931 
  "/>
<polygon clip-path="url(#clip00)" points="
495.799,53.859 531.799,53.859 531.799,41.763 495.799,41.763 495.799,53.859 
  " fill="#009af9" fill-opacity="1"/>
<polyline clip-path="url(#clip00)" style="stroke:#000000; stroke-width:1; stroke-opacity:1; fill:none" points="
  495.799,53.859 531.799,53.859 531.799,41.763 495.799,41.763 495.799,53.859 
  "/>
<g clip-path="url(#clip00)">
<text style="fill:#000000; fill-opacity:1; font-family:Arial,Helvetica Neue,Helvetica,sans-serif; font-size:12; text-anchor:start;" transform="rotate(0, 537.799, 52.311)" x="537.799" y="52.311">y1</text>
</g>
</svg>
