<?xml version="1.0" encoding="utf-8"?>
<svg xmlns="http://www.w3.org/2000/svg" xmlns:xlink="http://www.w3.org/1999/xlink" width="600" height="400" viewBox="0 0 600 400">
<defs>
  <clipPath id="clip00">
    <rect x="0" y="0" width="600" height="400"/>
  </clipPath>
</defs>
<polygon clip-path="url(#clip00)" points="
0,400 600,400 600,0 0,0 
  " fill="#ffffff" fill-opacity="1"/>
<defs>
  <clipPath id="clip01">
    <rect x="120" y="0" width="421" height="400"/>
  </clipPath>
</defs>
<polygon clip-path="url(#clip00)" points="
28.9273,375.813 580.315,375.813 580.315,11.811 28.9273,11.811 
  " fill="#ffffff" fill-opacity="1"/>
<defs>
  <clipPath id="clip02">
    <rect x="28" y="11" width="552" height="365"/>
  </clipPath>
</defs>
<polyline clip-path="url(#clip02)" style="stroke:#000000; stroke-width:0.5; stroke-opacity:0.1; fill:none" points="
  154.873,370.353 154.873,17.2711 
  "/>
<polyline clip-path="url(#clip02)" style="stroke:#000000; stroke-width:0.5; stroke-opacity:0.1; fill:none" points="
  312.503,370.353 312.503,17.2711 
  "/>
<polyline clip-path="url(#clip02)" style="stroke:#000000; stroke-width:0.5; stroke-opacity:0.1; fill:none" points="
  470.132,370.353 470.132,17.2711 
  "/>
<polyline clip-path="url(#clip02)" style="stroke:#000000; stroke-width:0.5; stroke-opacity:0.1; fill:none" points="
  37.1981,375.813 572.044,375.813 
  "/>
<polyline clip-path="url(#clip02)" style="stroke:#000000; stroke-width:0.5; stroke-opacity:0.1; fill:none" points="
  37.1981,281.021 572.044,281.021 
  "/>
<polyline clip-path="url(#clip02)" style="stroke:#000000; stroke-width:0.5; stroke-opacity:0.1; fill:none" points="
  37.1981,186.229 572.044,186.229 
  "/>
<polyline clip-path="url(#clip02)" style="stroke:#000000; stroke-width:0.5; stroke-opacity:0.1; fill:none" points="
  37.1981,91.4366 572.044,91.4366 
  "/>
<polyline clip-path="url(#clip00)" style="stroke:#000000; stroke-width:1; stroke-opacity:1; fill:none" points="
  28.9273,375.813 580.315,375.813 
  "/>
<polyline clip-path="url(#clip00)" style="stroke:#000000; stroke-width:1; stroke-opacity:1; fill:none" points="
  154.873,375.813 154.873,370.353 
  "/>
<polyline clip-path="url(#clip00)" style="stroke:#000000; stroke-width:1; stroke-opacity:1; fill:none" points="
  312.503,375.813 312.503,370.353 
  "/>
<polyline clip-path="url(#clip00)" style="stroke:#000000; stroke-width:1; stroke-opacity:1; fill:none" points="
  470.132,375.813 470.132,370.353 
  "/>
<polyline clip-path="url(#clip00)" style="stroke:#000000; stroke-width:1; stroke-opacity:1; fill:none" points="
  28.9273,375.813 28.9273,11.811 
  "/>
<polyline clip-path="url(#clip00)" style="stroke:#000000; stroke-width:1; stroke-opacity:1; fill:none" points="
  28.9273,375.813 37.1981,375.813 
  "/>
<polyline clip-path="url(#clip00)" style="stroke:#000000; stroke-width:1; stroke-opacity:1; fill:none" points="
  28.9273,281.021 37.1981,281.021 
  "/>
<polyline clip-path="url(#clip00)" style="stroke:#000000; stroke-width:1; stroke-opacity:1; fill:none" points="
  28.9273,186.229 37.1981,186.229 
  "/>
<polyline clip-path="url(#clip00)" style="stroke:#000000; stroke-width:1; stroke-opacity:1; fill:none" points="
  28.9273,91.4366 37.1981,91.4366 
  "/>
<g clip-path="url(#clip00)">
<text style="fill:#000000; fill-opacity:1; font-family:Arial,Helvetica Neue,Helvetica,sans-serif; font-size:12; text-anchor:middle;" transform="rotate(0, 154.873, 389.613)" x="154.873" y="389.613">0.8</text>
</g>
<g clip-path="url(#clip00)">
<text style="fill:#000000; fill-opacity:1; font-family:Arial,Helvetica Neue,Helvetica,sans-serif; font-size:12; text-anchor:middle;" transform="rotate(0, 312.503, 389.613)" x="312.503" y="389.613">1.0</text>
</g>
<g clip-path="url(#clip00)">
<text style="fill:#000000; fill-opacity:1; font-family:Arial,Helvetica Neue,Helvetica,sans-serif; font-size:12; text-anchor:middle;" transform="rotate(0, 470.132, 389.613)" x="470.132" y="389.613">1.2</text>
</g>
<g clip-path="url(#clip00)">
<text style="fill:#000000; fill-opacity:1; font-family:Arial,Helvetica Neue,Helvetica,sans-serif; font-size:12; text-anchor:end;" transform="rotate(0, 22.9273, 380.313)" x="22.9273" y="380.313">0</text>
</g>
<g clip-path="url(#clip00)">
<text style="fill:#000000; fill-opacity:1; font-family:Arial,Helvetica Neue,Helvetica,sans-serif; font-size:12; text-anchor:end;" transform="rotate(0, 22.9273, 285.521)" x="22.9273" y="285.521">25</text>
</g>
<g clip-path="url(#clip00)">
<text style="fill:#000000; fill-opacity:1; font-family:Arial,Helvetica Neue,Helvetica,sans-serif; font-size:12; text-anchor:end;" transform="rotate(0, 22.9273, 190.729)" x="22.9273" y="190.729">50</text>
</g>
<g clip-path="url(#clip00)">
<text style="fill:#000000; fill-opacity:1; font-family:Arial,Helvetica Neue,Helvetica,sans-serif; font-size:12; text-anchor:end;" transform="rotate(0, 22.9273, 95.9366)" x="22.9273" y="95.9366">75</text>
</g>
<polygon clip-path="url(#clip02)" points="
44.5326,372.022 44.5326,375.813 60.2955,375.813 60.2955,372.022 44.5326,372.022 44.5326,372.022 
  " fill="#009af9" fill-opacity="1"/>
<polyline clip-path="url(#clip02)" style="stroke:#000000; stroke-width:1; stroke-opacity:1; fill:none" points="
  44.5326,372.022 44.5326,375.813 60.2955,375.813 60.2955,372.022 44.5326,372.022 
  "/>
<polygon clip-path="url(#clip02)" points="
60.2955,375.813 60.2955,375.813 76.0585,375.813 76.0585,375.813 60.2955,375.813 60.2955,375.813 
  " fill="#009af9" fill-opacity="1"/>
<polyline clip-path="url(#clip02)" style="stroke:#000000; stroke-width:1; stroke-opacity:1; fill:none" points="
  60.2955,375.813 60.2955,375.813 76.0585,375.813 60.2955,375.813 
  "/>
<polygon clip-path="url(#clip02)" points="
76.0585,372.022 76.0585,375.813 91.8214,375.813 91.8214,372.022 76.0585,372.022 76.0585,372.022 
  " fill="#009af9" fill-opacity="1"/>
<polyline clip-path="url(#clip02)" style="stroke:#000000; stroke-width:1; stroke-opacity:1; fill:none" points="
  76.0585,372.022 76.0585,375.813 91.8214,375.813 91.8214,372.022 76.0585,372.022 
  "/>
<polygon clip-path="url(#clip02)" points="
91.8214,364.438 91.8214,375.813 107.584,375.813 107.584,364.438 91.8214,364.438 91.8214,364.438 
  " fill="#009af9" fill-opacity="1"/>
<polyline clip-path="url(#clip02)" style="stroke:#000000; stroke-width:1; stroke-opacity:1; fill:none" points="
  91.8214,364.438 91.8214,375.813 107.584,375.813 107.584,364.438 91.8214,364.438 
  "/>
<polygon clip-path="url(#clip02)" points="
107.584,368.23 107.584,375.813 123.347,375.813 123.347,368.23 107.584,368.23 107.584,368.23 
  " fill="#009af9" fill-opacity="1"/>
<polyline clip-path="url(#clip02)" style="stroke:#000000; stroke-width:1; stroke-opacity:1; fill:none" points="
  107.584,368.23 107.584,375.813 123.347,375.813 123.347,368.23 107.584,368.23 
  "/>
<polygon clip-path="url(#clip02)" points="
123.347,353.063 123.347,375.813 139.11,375.813 139.11,353.063 123.347,353.063 123.347,353.063 
  " fill="#009af9" fill-opacity="1"/>
<polyline clip-path="url(#clip02)" style="stroke:#000000; stroke-width:1; stroke-opacity:1; fill:none" points="
  123.347,353.063 123.347,375.813 139.11,375.813 139.11,353.063 123.347,353.063 
  "/>
<polygon clip-path="url(#clip02)" points="
139.11,341.688 139.11,375.813 154.873,375.813 154.873,341.688 139.11,341.688 139.11,341.688 
  " fill="#009af9" fill-opacity="1"/>
<polyline clip-path="url(#clip02)" style="stroke:#000000; stroke-width:1; stroke-opacity:1; fill:none" points="
  139.11,341.688 139.11,375.813 154.873,375.813 154.873,341.688 139.11,341.688 
  "/>
<polygon clip-path="url(#clip02)" points="
154.873,337.897 154.873,375.813 170.636,375.813 170.636,337.897 154.873,337.897 154.873,337.897 
  " fill="#009af9" fill-opacity="1"/>
<polyline clip-path="url(#clip02)" style="stroke:#000000; stroke-width:1; stroke-opacity:1; fill:none" points="
  154.873,337.897 154.873,375.813 170.636,375.813 170.636,337.897 154.873,337.897 
  "/>
<polygon clip-path="url(#clip02)" points="
170.636,303.771 170.636,375.813 186.399,375.813 186.399,303.771 170.636,303.771 170.636,303.771 
  " fill="#009af9" fill-opacity="1"/>
<polyline clip-path="url(#clip02)" style="stroke:#000000; stroke-width:1; stroke-opacity:1; fill:none" points="
  170.636,303.771 170.636,375.813 186.399,375.813 186.399,303.771 170.636,303.771 
  "/>
<polygon clip-path="url(#clip02)" points="
186.399,315.146 186.399,375.813 202.162,375.813 202.162,315.146 186.399,315.146 186.399,315.146 
  " fill="#009af9" fill-opacity="1"/>
<polyline clip-path="url(#clip02)" style="stroke:#000000; stroke-width:1; stroke-opacity:1; fill:none" points="
  186.399,315.146 186.399,375.813 202.162,375.813 202.162,315.146 186.399,315.146 
  "/>
<polygon clip-path="url(#clip02)" points="
202.162,246.896 202.162,375.813 217.925,375.813 217.925,246.896 202.162,246.896 202.162,246.896 
  " fill="#009af9" fill-opacity="1"/>
<polyline clip-path="url(#clip02)" style="stroke:#000000; stroke-width:1; stroke-opacity:1; fill:none" points="
  202.162,246.896 202.162,375.813 217.925,375.813 217.925,246.896 202.162,246.896 
  "/>
<polygon clip-path="url(#clip02)" points="
217.925,231.729 217.925,375.813 233.688,375.813 233.688,231.729 217.925,231.729 217.925,231.729 
  " fill="#009af9" fill-opacity="1"/>
<polyline clip-path="url(#clip02)" style="stroke:#000000; stroke-width:1; stroke-opacity:1; fill:none" points="
  217.925,231.729 217.925,375.813 233.688,375.813 233.688,231.729 217.925,231.729 
  "/>
<polygon clip-path="url(#clip02)" points="
233.688,208.979 233.688,375.813 249.451,375.813 249.451,208.979 233.688,208.979 233.688,208.979 
  " fill="#009af9" fill-opacity="1"/>
<polyline clip-path="url(#clip02)" style="stroke:#000000; stroke-width:1; stroke-opacity:1; fill:none" points="
  233.688,208.979 233.688,375.813 249.451,375.813 249.451,208.979 233.688,208.979 
  "/>
<polygon clip-path="url(#clip02)" points="
249.451,152.104 249.451,375.813 265.214,375.813 265.214,152.104 249.451,152.104 249.451,152.104 
  " fill="#009af9" fill-opacity="1"/>
<polyline clip-path="url(#clip02)" style="stroke:#000000; stroke-width:1; stroke-opacity:1; fill:none" points="
  249.451,152.104 249.451,375.813 265.214,375.813 265.214,152.104 249.451,152.104 
  "/>
<polygon clip-path="url(#clip02)" points="
265.214,155.895 265.214,375.813 280.977,375.813 280.977,155.895 265.214,155.895 265.214,155.895 
  " fill="#009af9" fill-opacity="1"/>
<polyline clip-path="url(#clip02)" style="stroke:#000000; stroke-width:1; stroke-opacity:1; fill:none" points="
  265.214,155.895 265.214,375.813 280.977,375.813 280.977,155.895 265.214,155.895 
  "/>
<polygon clip-path="url(#clip02)" points="
280.977,99.0199 280.977,375.813 296.74,375.813 296.74,99.0199 280.977,99.0199 280.977,99.0199 
  " fill="#009af9" fill-opacity="1"/>
<polyline clip-path="url(#clip02)" style="stroke:#000000; stroke-width:1; stroke-opacity:1; fill:none" points="
  280.977,99.0199 280.977,375.813 296.74,375.813 296.74,99.0199 280.977,99.0199 
  "/>
<polygon clip-path="url(#clip02)" points="
296.74,83.8532 296.74,375.813 312.503,375.813 312.503,83.8532 296.74,83.8532 296.74,83.8532 
  " fill="#009af9" fill-opacity="1"/>
<polyline clip-path="url(#clip02)" style="stroke:#000000; stroke-width:1; stroke-opacity:1; fill:none" points="
  296.74,83.8532 296.74,375.813 312.503,375.813 312.503,83.8532 296.74,83.8532 
  "/>
<polygon clip-path="url(#clip02)" points="
312.503,53.5196 312.503,375.813 328.266,375.813 328.266,53.5196 312.503,53.5196 312.503,53.5196 
  " fill="#009af9" fill-opacity="1"/>
<polyline clip-path="url(#clip02)" style="stroke:#000000; stroke-width:1; stroke-opacity:1; fill:none" points="
  312.503,53.5196 312.503,375.813 328.266,375.813 328.266,53.5196 312.503,53.5196 
  "/>
<polygon clip-path="url(#clip02)" points="
328.266,11.811 328.266,375.813 344.028,375.813 344.028,11.811 328.266,11.811 328.266,11.811 
  " fill="#009af9" fill-opacity="1"/>
<polyline clip-path="url(#clip02)" style="stroke:#000000; stroke-width:1; stroke-opacity:1; fill:none" points="
  328.266,11.811 328.266,375.813 344.028,375.813 344.028,11.811 328.266,11.811 
  "/>
<polygon clip-path="url(#clip02)" points="
344.028,38.3529 344.028,375.813 359.791,375.813 359.791,38.3529 344.028,38.3529 344.028,38.3529 
  " fill="#009af9" fill-opacity="1"/>
<polyline clip-path="url(#clip02)" style="stroke:#000000; stroke-width:1; stroke-opacity:1; fill:none" points="
  344.028,38.3529 344.028,375.813 359.791,375.813 359.791,38.3529 344.028,38.3529 
  "/>
<polygon clip-path="url(#clip02)" points="
359.791,114.187 359.791,375.813 375.554,375.813 375.554,114.187 359.791,114.187 359.791,114.187 
  " fill="#009af9" fill-opacity="1"/>
<polyline clip-path="url(#clip02)" style="stroke:#000000; stroke-width:1; stroke-opacity:1; fill:none" points="
  359.791,114.187 359.791,375.813 375.554,375.813 375.554,114.187 359.791,114.187 
  "/>
<polygon clip-path="url(#clip02)" points="
375.554,140.729 375.554,375.813 391.317,375.813 391.317,140.729 375.554,140.729 375.554,140.729 
  " fill="#009af9" fill-opacity="1"/>
<polyline clip-path="url(#clip02)" style="stroke:#000000; stroke-width:1; stroke-opacity:1; fill:none" points="
  375.554,140.729 375.554,375.813 391.317,375.813 391.317,140.729 375.554,140.729 
  "/>
<polygon clip-path="url(#clip02)" points="
391.317,208.979 391.317,375.813 407.08,375.813 407.08,208.979 391.317,208.979 391.317,208.979 
  " fill="#009af9" fill-opacity="1"/>
<polyline clip-path="url(#clip02)" style="stroke:#000000; stroke-width:1; stroke-opacity:1; fill:none" points="
  391.317,208.979 391.317,375.813 407.08,375.813 407.08,208.979 391.317,208.979 
  "/>
<polygon clip-path="url(#clip02)" points="
407.08,299.98 407.08,375.813 422.843,375.813 422.843,299.98 407.08,299.98 407.08,299.98 
  " fill="#009af9" fill-opacity="1"/>
<polyline clip-path="url(#clip02)" style="stroke:#000000; stroke-width:1; stroke-opacity:1; fill:none" points="
  407.08,299.98 407.08,375.813 422.843,375.813 422.843,299.98 407.08,299.98 
  "/>
<polygon clip-path="url(#clip02)" points="
422.843,269.646 422.843,375.813 438.606,375.813 438.606,269.646 422.843,269.646 422.843,269.646 
  " fill="#009af9" fill-opacity="1"/>
<polyline clip-path="url(#clip02)" style="stroke:#000000; stroke-width:1; stroke-opacity:1; fill:none" points="
  422.843,269.646 422.843,375.813 438.606,375.813 438.606,269.646 422.843,269.646 
  "/>
<polygon clip-path="url(#clip02)" points="
438.606,307.563 438.606,375.813 454.369,375.813 454.369,307.563 438.606,307.563 438.606,307.563 
  " fill="#009af9" fill-opacity="1"/>
<polyline clip-path="url(#clip02)" style="stroke:#000000; stroke-width:1; stroke-opacity:1; fill:none" points="
  438.606,307.563 438.606,375.813 454.369,375.813 454.369,307.563 438.606,307.563 
  "/>
<polygon clip-path="url(#clip02)" points="
454.369,341.688 454.369,375.813 470.132,375.813 470.132,341.688 454.369,341.688 454.369,341.688 
  " fill="#009af9" fill-opacity="1"/>
<polyline clip-path="url(#clip02)" style="stroke:#000000; stroke-width:1; stroke-opacity:1; fill:none" points="
  454.369,341.688 454.369,375.813 470.132,375.813 470.132,341.688 454.369,341.688 
  "/>
<polygon clip-path="url(#clip02)" points="
470.132,337.897 470.132,375.813 485.895,375.813 485.895,337.897 470.132,337.897 470.132,337.897 
  " fill="#009af9" fill-opacity="1"/>
<polyline clip-path="url(#clip02)" style="stroke:#000000; stroke-width:1; stroke-opacity:1; fill:none" points="
  470.132,337.897 470.132,375.813 485.895,375.813 485.895,337.897 470.132,337.897 
  "/>
<polygon clip-path="url(#clip02)" points="
485.895,353.063 485.895,375.813 501.658,375.813 501.658,353.063 485.895,353.063 485.895,353.063 
  " fill="#009af9" fill-opacity="1"/>
<polyline clip-path="url(#clip02)" style="stroke:#000000; stroke-width:1; stroke-opacity:1; fill:none" points="
  485.895,353.063 485.895,375.813 501.658,375.813 501.658,353.063 485.895,353.063 
  "/>
<polygon clip-path="url(#clip02)" points="
501.658,364.438 501.658,375.813 517.421,375.813 517.421,364.438 501.658,364.438 501.658,364.438 
  " fill="#009af9" fill-opacity="1"/>
<polyline clip-path="url(#clip02)" style="stroke:#000000; stroke-width:1; stroke-opacity:1; fill:none" points="
  501.658,364.438 501.658,375.813 517.421,375.813 517.421,364.438 501.658,364.438 
  "/>
<polygon clip-path="url(#clip02)" points="
517.421,353.063 517.421,375.813 533.184,375.813 533.184,353.063 517.421,353.063 517.421,353.063 
  " fill="#009af9" fill-opacity="1"/>
<polyline clip-path="url(#clip02)" style="stroke:#000000; stroke-width:1; stroke-opacity:1; fill:none" points="
  517.421,353.063 517.421,375.813 533.184,375.813 533.184,353.063 517.421,353.063 
  "/>
<polygon clip-path="url(#clip02)" points="
533.184,364.438 533.184,375.813 548.947,375.813 548.947,364.438 533.184,364.438 533.184,364.438 
  " fill="#009af9" fill-opacity="1"/>
<polyline clip-path="url(#clip02)" style="stroke:#000000; stroke-width:1; stroke-opacity:1; fill:none" points="
  533.184,364.438 533.184,375.813 548.947,375.813 548.947,364.438 533.184,364.438 
  "/>
<polygon clip-path="url(#clip02)" points="
548.947,368.23 548.947,375.813 564.71,375.813 564.71,368.23 548.947,368.23 548.947,368.23 
  " fill="#009af9" fill-opacity="1"/>
<polyline clip-path="url(#clip02)" style="stroke:#000000; stroke-width:1; stroke-opacity:1; fill:none" points="
  548.947,368.23 548.947,375.813 564.71,375.813 564.71,368.23 548.947,368.23 
  "/>
<polygon clip-path="url(#clip00)" points="
489.799,62.931 562.315,62.931 562.315,32.691 489.799,32.691 
  " fill="#ffffff" fill-opacity="1"/>
<polyline clip-path="url(#clip00)" style="stroke:#000000; stroke-width:1; stroke-opacity:1; fill:none" points="
  489.799,62.931 562.315,62.931 562.315,32.691 489.799,32.691 489.799,62.931 
  "/>
<polygon clip-path="url(#clip00)" points="
495.799,53.859 531.799,53.859 531.799,41.763 495.799,41.763 495.799,53.859 
  " fill="#009af9" fill-opacity="1"/>
<polyline clip-path="url(#clip00)" style="stroke:#000000; stroke-width:1; stroke-opacity:1; fill:none" points="
  495.799,53.859 531.799,53.859 531.799,41.763 495.799,41.763 495.799,53.859 
  "/>
<g clip-path="url(#clip00)">
<text style="fill:#000000; fill-opacity:1; font-family:Arial,Helvetica Neue,Helvetica,sans-serif; font-size:12; text-anchor:start;" transform="rotate(0, 537.799, 52.311)" x="537.799" y="52.311">y1</text>
</g>
</svg>
