<?xml version="1.0" encoding="utf-8"?>
<svg xmlns="http://www.w3.org/2000/svg" xmlns:xlink="http://www.w3.org/1999/xlink" width="600" height="400" viewBox="0 0 600 400">
<defs>
  <clipPath id="clip00">
    <rect x="0" y="0" width="600" height="400"/>
  </clipPath>
</defs>
<polygon clip-path="url(#clip00)" points="
0,400 600,400 600,0 0,0 
  " fill="#ffffff" fill-opacity="1"/>
<defs>
  <clipPath id="clip01">
    <rect x="120" y="0" width="421" height="400"/>
  </clipPath>
</defs>
<polygon clip-path="url(#clip00)" points="
35.5169,375.813 580.315,375.813 580.315,11.811 35.5169,11.811 
  " fill="#ffffff" fill-opacity="1"/>
<defs>
  <clipPath id="clip02">
    <rect x="35" y="11" width="546" height="365"/>
  </clipPath>
</defs>
<polyline clip-path="url(#clip02)" style="stroke:#000000; stroke-width:0.5; stroke-opacity:0.1; fill:none" points="
  159.958,370.353 159.958,17.2711 
  "/>
<polyline clip-path="url(#clip02)" style="stroke:#000000; stroke-width:0.5; stroke-opacity:0.1; fill:none" points="
  315.703,370.353 315.703,17.2711 
  "/>
<polyline clip-path="url(#clip02)" style="stroke:#000000; stroke-width:0.5; stroke-opacity:0.1; fill:none" points="
  471.449,370.353 471.449,17.2711 
  "/>
<polyline clip-path="url(#clip02)" style="stroke:#000000; stroke-width:0.5; stroke-opacity:0.1; fill:none" points="
  43.6889,375.813 572.143,375.813 
  "/>
<polyline clip-path="url(#clip02)" style="stroke:#000000; stroke-width:0.5; stroke-opacity:0.1; fill:none" points="
  43.6889,308.406 572.143,308.406 
  "/>
<polyline clip-path="url(#clip02)" style="stroke:#000000; stroke-width:0.5; stroke-opacity:0.1; fill:none" points="
  43.6889,240.998 572.143,240.998 
  "/>
<polyline clip-path="url(#clip02)" style="stroke:#000000; stroke-width:0.5; stroke-opacity:0.1; fill:none" points="
  43.6889,173.59 572.143,173.59 
  "/>
<polyline clip-path="url(#clip02)" style="stroke:#000000; stroke-width:0.5; stroke-opacity:0.1; fill:none" points="
  43.6889,106.182 572.143,106.182 
  "/>
<polyline clip-path="url(#clip02)" style="stroke:#000000; stroke-width:0.5; stroke-opacity:0.1; fill:none" points="
  43.6889,38.7742 572.143,38.7742 
  "/>
<polyline clip-path="url(#clip00)" style="stroke:#000000; stroke-width:1; stroke-opacity:1; fill:none" points="
  35.5169,375.813 580.315,375.813 
  "/>
<polyline clip-path="url(#clip00)" style="stroke:#000000; stroke-width:1; stroke-opacity:1; fill:none" points="
  159.958,375.813 159.958,370.353 
  "/>
<polyline clip-path="url(#clip00)" style="stroke:#000000; stroke-width:1; stroke-opacity:1; fill:none" points="
  315.703,375.813 315.703,370.353 
  "/>
<polyline clip-path="url(#clip00)" style="stroke:#000000; stroke-width:1; stroke-opacity:1; fill:none" points="
  471.449,375.813 471.449,370.353 
  "/>
<polyline clip-path="url(#clip00)" style="stroke:#000000; stroke-width:1; stroke-opacity:1; fill:none" points="
  35.5169,375.813 35.5169,11.811 
  "/>
<polyline clip-path="url(#clip00)" style="stroke:#000000; stroke-width:1; stroke-opacity:1; fill:none" points="
  35.5169,375.813 43.6889,375.813 
  "/>
<polyline clip-path="url(#clip00)" style="stroke:#000000; stroke-width:1; stroke-opacity:1; fill:none" points="
  35.5169,308.406 43.6889,308.406 
  "/>
<polyline clip-path="url(#clip00)" style="stroke:#000000; stroke-width:1; stroke-opacity:1; fill:none" points="
  35.5169,240.998 43.6889,240.998 
  "/>
<polyline clip-path="url(#clip00)" style="stroke:#000000; stroke-width:1; stroke-opacity:1; fill:none" points="
  35.5169,173.59 43.6889,173.59 
  "/>
<polyline clip-path="url(#clip00)" style="stroke:#000000; stroke-width:1; stroke-opacity:1; fill:none" points="
  35.5169,106.182 43.6889,106.182 
  "/>
<polyline clip-path="url(#clip00)" style="stroke:#000000; stroke-width:1; stroke-opacity:1; fill:none" points="
  35.5169,38.7742 43.6889,38.7742 
  "/>
<g clip-path="url(#clip00)">
<text style="fill:#000000; fill-opacity:1; font-family:Arial,Helvetica Neue,Helvetica,sans-serif; font-size:12; text-anchor:middle;" transform="rotate(0, 159.958, 389.613)" x="159.958" y="389.613">0</text>
</g>
<g clip-path="url(#clip00)">
<text style="fill:#000000; fill-opacity:1; font-family:Arial,Helvetica Neue,Helvetica,sans-serif; font-size:12; text-anchor:middle;" transform="rotate(0, 315.703, 389.613)" x="315.703" y="389.613">1</text>
</g>
<g clip-path="url(#clip00)">
<text style="fill:#000000; fill-opacity:1; font-family:Arial,Helvetica Neue,Helvetica,sans-serif; font-size:12; text-anchor:middle;" transform="rotate(0, 471.449, 389.613)" x="471.449" y="389.613">2</text>
</g>
<g clip-path="url(#clip00)">
<text style="fill:#000000; fill-opacity:1; font-family:Arial,Helvetica Neue,Helvetica,sans-serif; font-size:12; text-anchor:end;" transform="rotate(0, 29.5169, 380.313)" x="29.5169" y="380.313">0</text>
</g>
<g clip-path="url(#clip00)">
<text style="fill:#000000; fill-opacity:1; font-family:Arial,Helvetica Neue,Helvetica,sans-serif; font-size:12; text-anchor:end;" transform="rotate(0, 29.5169, 312.906)" x="29.5169" y="312.906">20</text>
</g>
<g clip-path="url(#clip00)">
<text style="fill:#000000; fill-opacity:1; font-family:Arial,Helvetica Neue,Helvetica,sans-serif; font-size:12; text-anchor:end;" transform="rotate(0, 29.5169, 245.498)" x="29.5169" y="245.498">40</text>
</g>
<g clip-path="url(#clip00)">
<text style="fill:#000000; fill-opacity:1; font-family:Arial,Helvetica Neue,Helvetica,sans-serif; font-size:12; text-anchor:end;" transform="rotate(0, 29.5169, 178.09)" x="29.5169" y="178.09">60</text>
</g>
<g clip-path="url(#clip00)">
<text style="fill:#000000; fill-opacity:1; font-family:Arial,Helvetica Neue,Helvetica,sans-serif; font-size:12; text-anchor:end;" transform="rotate(0, 29.5169, 110.682)" x="29.5169" y="110.682">80</text>
</g>
<g clip-path="url(#clip00)">
<text style="fill:#000000; fill-opacity:1; font-family:Arial,Helvetica Neue,Helvetica,sans-serif; font-size:12; text-anchor:end;" transform="rotate(0, 29.5169, 43.2742)" x="29.5169" y="43.2742">100</text>
</g>
<polygon clip-path="url(#clip02)" points="
50.9357,369.073 50.9357,375.813 66.5103,375.813 66.5103,369.073 50.9357,369.073 50.9357,369.073 
  " fill="#009af9" fill-opacity="1"/>
<polyline clip-path="url(#clip02)" style="stroke:#000000; stroke-width:1; stroke-opacity:1; fill:none" points="
  50.9357,369.073 50.9357,375.813 66.5103,375.813 66.5103,369.073 50.9357,369.073 
  "/>
<polygon clip-path="url(#clip02)" points="
66.5103,375.813 66.5103,375.813 82.0848,375.813 82.0848,375.813 66.5103,375.813 66.5103,375.813 
  " fill="#009af9" fill-opacity="1"/>
<polyline clip-path="url(#clip02)" style="stroke:#000000; stroke-width:1; stroke-opacity:1; fill:none" points="
  66.5103,375.813 66.5103,375.813 82.0848,375.813 66.5103,375.813 
  "/>
<polygon clip-path="url(#clip02)" points="
82.0848,375.813 82.0848,375.813 97.6594,375.813 97.6594,375.813 82.0848,375.813 82.0848,375.813 
  " fill="#009af9" fill-opacity="1"/>
<polyline clip-path="url(#clip02)" style="stroke:#000000; stroke-width:1; stroke-opacity:1; fill:none" points="
  82.0848,375.813 82.0848,375.813 97.6594,375.813 82.0848,375.813 
  "/>
<polygon clip-path="url(#clip02)" points="
97.6594,369.073 97.6594,375.813 113.234,375.813 113.234,369.073 97.6594,369.073 97.6594,369.073 
  " fill="#009af9" fill-opacity="1"/>
<polyline clip-path="url(#clip02)" style="stroke:#000000; stroke-width:1; stroke-opacity:1; fill:none" points="
  97.6594,369.073 97.6594,375.813 113.234,375.813 113.234,369.073 97.6594,369.073 
  "/>
<polygon clip-path="url(#clip02)" points="
113.234,372.443 113.234,375.813 128.809,375.813 128.809,372.443 113.234,372.443 113.234,372.443 
  " fill="#009af9" fill-opacity="1"/>
<polyline clip-path="url(#clip02)" style="stroke:#000000; stroke-width:1; stroke-opacity:1; fill:none" points="
  113.234,372.443 113.234,375.813 128.809,375.813 128.809,372.443 113.234,372.443 
  "/>
<polygon clip-path="url(#clip02)" points="
128.809,372.443 128.809,375.813 144.383,375.813 144.383,372.443 128.809,372.443 128.809,372.443 
  " fill="#009af9" fill-opacity="1"/>
<polyline clip-path="url(#clip02)" style="stroke:#000000; stroke-width:1; stroke-opacity:1; fill:none" points="
  128.809,372.443 128.809,375.813 144.383,375.813 144.383,372.443 128.809,372.443 
  "/>
<polygon clip-path="url(#clip02)" points="
144.383,372.443 144.383,375.813 159.958,375.813 159.958,372.443 144.383,372.443 144.383,372.443 
  " fill="#009af9" fill-opacity="1"/>
<polyline clip-path="url(#clip02)" style="stroke:#000000; stroke-width:1; stroke-opacity:1; fill:none" points="
  144.383,372.443 144.383,375.813 159.958,375.813 159.958,372.443 144.383,372.443 
  "/>
<polygon clip-path="url(#clip02)" points="
159.958,348.85 159.958,375.813 175.532,375.813 175.532,348.85 159.958,348.85 159.958,348.85 
  " fill="#009af9" fill-opacity="1"/>
<polyline clip-path="url(#clip02)" style="stroke:#000000; stroke-width:1; stroke-opacity:1; fill:none" points="
  159.958,348.85 159.958,375.813 175.532,375.813 175.532,348.85 159.958,348.85 
  "/>
<polygon clip-path="url(#clip02)" points="
175.532,328.628 175.532,375.813 191.107,375.813 191.107,328.628 175.532,328.628 175.532,328.628 
  " fill="#009af9" fill-opacity="1"/>
<polyline clip-path="url(#clip02)" style="stroke:#000000; stroke-width:1; stroke-opacity:1; fill:none" points="
  175.532,328.628 175.532,375.813 191.107,375.813 191.107,328.628 175.532,328.628 
  "/>
<polygon clip-path="url(#clip02)" points="
191.107,318.517 191.107,375.813 206.681,375.813 206.681,318.517 191.107,318.517 191.107,318.517 
  " fill="#009af9" fill-opacity="1"/>
<polyline clip-path="url(#clip02)" style="stroke:#000000; stroke-width:1; stroke-opacity:1; fill:none" points="
  191.107,318.517 191.107,375.813 206.681,375.813 206.681,318.517 191.107,318.517 
  "/>
<polygon clip-path="url(#clip02)" points="
206.681,267.961 206.681,375.813 222.256,375.813 222.256,267.961 206.681,267.961 206.681,267.961 
  " fill="#009af9" fill-opacity="1"/>
<polyline clip-path="url(#clip02)" style="stroke:#000000; stroke-width:1; stroke-opacity:1; fill:none" points="
  206.681,267.961 206.681,375.813 222.256,375.813 222.256,267.961 206.681,267.961 
  "/>
<polygon clip-path="url(#clip02)" points="
222.256,240.998 222.256,375.813 237.83,375.813 237.83,240.998 222.256,240.998 222.256,240.998 
  " fill="#009af9" fill-opacity="1"/>
<polyline clip-path="url(#clip02)" style="stroke:#000000; stroke-width:1; stroke-opacity:1; fill:none" points="
  222.256,240.998 222.256,375.813 237.83,375.813 237.83,240.998 222.256,240.998 
  "/>
<polygon clip-path="url(#clip02)" points="
237.83,224.146 237.83,375.813 253.405,375.813 253.405,224.146 237.83,224.146 237.83,224.146 
  " fill="#009af9" fill-opacity="1"/>
<polyline clip-path="url(#clip02)" style="stroke:#000000; stroke-width:1; stroke-opacity:1; fill:none" points="
  237.83,224.146 237.83,375.813 253.405,375.813 253.405,224.146 237.83,224.146 
  "/>
<polygon clip-path="url(#clip02)" points="
253.405,126.404 253.405,375.813 268.98,375.813 268.98,126.404 253.405,126.404 253.405,126.404 
  " fill="#009af9" fill-opacity="1"/>
<polyline clip-path="url(#clip02)" style="stroke:#000000; stroke-width:1; stroke-opacity:1; fill:none" points="
  253.405,126.404 253.405,375.813 268.98,375.813 268.98,126.404 253.405,126.404 
  "/>
<polygon clip-path="url(#clip02)" points="
268.98,109.552 268.98,375.813 284.554,375.813 284.554,109.552 268.98,109.552 268.98,109.552 
  " fill="#009af9" fill-opacity="1"/>
<polyline clip-path="url(#clip02)" style="stroke:#000000; stroke-width:1; stroke-opacity:1; fill:none" points="
  268.98,109.552 268.98,375.813 284.554,375.813 284.554,109.552 268.98,109.552 
  "/>
<polygon clip-path="url(#clip02)" points="
284.554,170.219 284.554,375.813 300.129,375.813 300.129,170.219 284.554,170.219 284.554,170.219 
  " fill="#009af9" fill-opacity="1"/>
<polyline clip-path="url(#clip02)" style="stroke:#000000; stroke-width:1; stroke-opacity:1; fill:none" points="
  284.554,170.219 284.554,375.813 300.129,375.813 300.129,170.219 284.554,170.219 
  "/>
<polygon clip-path="url(#clip02)" points="
300.129,69.1077 300.129,375.813 315.703,375.813 315.703,69.1077 300.129,69.1077 300.129,69.1077 
  " fill="#009af9" fill-opacity="1"/>
<polyline clip-path="url(#clip02)" style="stroke:#000000; stroke-width:1; stroke-opacity:1; fill:none" points="
  300.129,69.1077 300.129,375.813 315.703,375.813 315.703,69.1077 300.129,69.1077 
  "/>
<polygon clip-path="url(#clip02)" points="
315.703,11.811 315.703,375.813 331.278,375.813 331.278,11.811 315.703,11.811 315.703,11.811 
  " fill="#009af9" fill-opacity="1"/>
<polyline clip-path="url(#clip02)" style="stroke:#000000; stroke-width:1; stroke-opacity:1; fill:none" points="
  315.703,11.811 315.703,375.813 331.278,375.813 331.278,11.811 315.703,11.811 
  "/>
<polygon clip-path="url(#clip02)" points="
331.278,99.4412 331.278,375.813 346.852,375.813 346.852,99.4412 331.278,99.4412 331.278,99.4412 
  " fill="#009af9" fill-opacity="1"/>
<polyline clip-path="url(#clip02)" style="stroke:#000000; stroke-width:1; stroke-opacity:1; fill:none" points="
  331.278,99.4412 331.278,375.813 346.852,375.813 346.852,99.4412 331.278,99.4412 
  "/>
<polygon clip-path="url(#clip02)" points="
346.852,116.293 346.852,375.813 362.427,375.813 362.427,116.293 346.852,116.293 346.852,116.293 
  " fill="#009af9" fill-opacity="1"/>
<polyline clip-path="url(#clip02)" style="stroke:#000000; stroke-width:1; stroke-opacity:1; fill:none" points="
  346.852,116.293 346.852,375.813 362.427,375.813 362.427,116.293 346.852,116.293 
  "/>
<polygon clip-path="url(#clip02)" points="
362.427,106.182 362.427,375.813 378.001,375.813 378.001,106.182 362.427,106.182 362.427,106.182 
  " fill="#009af9" fill-opacity="1"/>
<polyline clip-path="url(#clip02)" style="stroke:#000000; stroke-width:1; stroke-opacity:1; fill:none" points="
  362.427,106.182 362.427,375.813 378.001,375.813 378.001,106.182 362.427,106.182 
  "/>
<polygon clip-path="url(#clip02)" points="
378.001,149.997 378.001,375.813 393.576,375.813 393.576,149.997 378.001,149.997 378.001,149.997 
  " fill="#009af9" fill-opacity="1"/>
<polyline clip-path="url(#clip02)" style="stroke:#000000; stroke-width:1; stroke-opacity:1; fill:none" points="
  378.001,149.997 378.001,375.813 393.576,375.813 393.576,149.997 378.001,149.997 
  "/>
<polygon clip-path="url(#clip02)" points="
393.576,240.998 393.576,375.813 409.151,375.813 409.151,240.998 393.576,240.998 393.576,240.998 
  " fill="#009af9" fill-opacity="1"/>
<polyline clip-path="url(#clip02)" style="stroke:#000000; stroke-width:1; stroke-opacity:1; fill:none" points="
  393.576,240.998 393.576,375.813 409.151,375.813 409.151,240.998 393.576,240.998 
  "/>
<polygon clip-path="url(#clip02)" points="
409.151,288.183 409.151,375.813 424.725,375.813 424.725,288.183 409.151,288.183 409.151,288.183 
  " fill="#009af9" fill-opacity="1"/>
<polyline clip-path="url(#clip02)" style="stroke:#000000; stroke-width:1; stroke-opacity:1; fill:none" points="
  409.151,288.183 409.151,375.813 424.725,375.813 424.725,288.183 409.151,288.183 
  "/>
<polygon clip-path="url(#clip02)" points="
424.725,311.776 424.725,375.813 440.3,375.813 440.3,311.776 424.725,311.776 424.725,311.776 
  " fill="#009af9" fill-opacity="1"/>
<polyline clip-path="url(#clip02)" style="stroke:#000000; stroke-width:1; stroke-opacity:1; fill:none" points="
  424.725,311.776 424.725,375.813 440.3,375.813 440.3,311.776 424.725,311.776 
  "/>
<polygon clip-path="url(#clip02)" points="
440.3,335.369 440.3,375.813 455.874,375.813 455.874,335.369 440.3,335.369 440.3,335.369 
  " fill="#009af9" fill-opacity="1"/>
<polyline clip-path="url(#clip02)" style="stroke:#000000; stroke-width:1; stroke-opacity:1; fill:none" points="
  440.3,335.369 440.3,375.813 455.874,375.813 455.874,335.369 440.3,335.369 
  "/>
<polygon clip-path="url(#clip02)" points="
455.874,345.48 455.874,375.813 471.449,375.813 471.449,345.48 455.874,345.48 455.874,345.48 
  " fill="#009af9" fill-opacity="1"/>
<polyline clip-path="url(#clip02)" style="stroke:#000000; stroke-width:1; stroke-opacity:1; fill:none" points="
  455.874,345.48 455.874,375.813 471.449,375.813 471.449,345.48 455.874,345.48 
  "/>
<polygon clip-path="url(#clip02)" points="
471.449,362.332 471.449,375.813 487.023,375.813 487.023,362.332 471.449,362.332 471.449,362.332 
  " fill="#009af9" fill-opacity="1"/>
<polyline clip-path="url(#clip02)" style="stroke:#000000; stroke-width:1; stroke-opacity:1; fill:none" points="
  471.449,362.332 471.449,375.813 487.023,375.813 487.023,362.332 471.449,362.332 
  "/>
<polygon clip-path="url(#clip02)" points="
487.023,375.813 487.023,375.813 502.598,375.813 502.598,375.813 487.023,375.813 487.023,375.813 
  " fill="#009af9" fill-opacity="1"/>
<polyline clip-path="url(#clip02)" style="stroke:#000000; stroke-width:1; stroke-opacity:1; fill:none" points="
  487.023,375.813 487.023,375.813 502.598,375.813 487.023,375.813 
  "/>
<polygon clip-path="url(#clip02)" points="
502.598,358.961 502.598,375.813 518.172,375.813 518.172,358.961 502.598,358.961 502.598,358.961 
  " fill="#009af9" fill-opacity="1"/>
<polyline clip-path="url(#clip02)" style="stroke:#000000; stroke-width:1; stroke-opacity:1; fill:none" points="
  502.598,358.961 502.598,375.813 518.172,375.813 518.172,358.961 502.598,358.961 
  "/>
<polygon clip-path="url(#clip02)" points="
518.172,372.443 518.172,375.813 533.747,375.813 533.747,372.443 518.172,372.443 518.172,372.443 
  " fill="#009af9" fill-opacity="1"/>
<polyline clip-path="url(#clip02)" style="stroke:#000000; stroke-width:1; stroke-opacity:1; fill:none" points="
  518.172,372.443 518.172,375.813 533.747,375.813 533.747,372.443 518.172,372.443 
  "/>
<polygon clip-path="url(#clip02)" points="
533.747,372.443 533.747,375.813 549.322,375.813 549.322,372.443 533.747,372.443 533.747,372.443 
  " fill="#009af9" fill-opacity="1"/>
<polyline clip-path="url(#clip02)" style="stroke:#000000; stroke-width:1; stroke-opacity:1; fill:none" points="
  533.747,372.443 533.747,375.813 549.322,375.813 549.322,372.443 533.747,372.443 
  "/>
<polygon clip-path="url(#clip02)" points="
549.322,372.443 549.322,375.813 564.896,375.813 564.896,372.443 549.322,372.443 549.322,372.443 
  " fill="#009af9" fill-opacity="1"/>
<polyline clip-path="url(#clip02)" style="stroke:#000000; stroke-width:1; stroke-opacity:1; fill:none" points="
  549.322,372.443 549.322,375.813 564.896,375.813 564.896,372.443 549.322,372.443 
  "/>
<polygon clip-path="url(#clip00)" points="
489.799,62.931 562.315,62.931 562.315,32.691 489.799,32.691 
  " fill="#ffffff" fill-opacity="1"/>
<polyline clip-path="url(#clip00)" style="stroke:#000000; stroke-width:1; stroke-opacity:1; fill:none" points="
  489.799,62.931 562.315,62.931 562.315,32.691 489.799,32.691 489.799,62.931 
  "/>
<polygon clip-path="url(#clip00)" points="
495.799,53.859 531.799,53.859 531.799,41.763 495.799,41.763 495.799,53.859 
  " fill="#009af9" fill-opacity="1"/>
<polyline clip-path="url(#clip00)" style="stroke:#000000; stroke-width:1; stroke-opacity:1; fill:none" points="
  495.799,53.859 531.799,53.859 531.799,41.763 495.799,41.763 495.799,53.859 
  "/>
<g clip-path="url(#clip00)">
<text style="fill:#000000; fill-opacity:1; font-family:Arial,Helvetica Neue,Helvetica,sans-serif; font-size:12; text-anchor:start;" transform="rotate(0, 537.799, 52.311)" x="537.799" y="52.311">y1</text>
</g>
</svg>
