<?xml version="1.0" encoding="utf-8"?>
<svg xmlns="http://www.w3.org/2000/svg" xmlns:xlink="http://www.w3.org/1999/xlink" width="600" height="400" viewBox="0 0 600 400">
<defs>
  <clipPath id="clip00">
    <rect x="0" y="0" width="600" height="400"/>
  </clipPath>
</defs>
<polygon clip-path="url(#clip00)" points="
0,400 600,400 600,0 0,0 
  " fill="#ffffff" fill-opacity="1"/>
<defs>
  <clipPath id="clip01">
    <rect x="120" y="0" width="421" height="400"/>
  </clipPath>
</defs>
<polygon clip-path="url(#clip00)" points="
35.5169,375.813 580.315,375.813 580.315,11.811 35.5169,11.811 
  " fill="#ffffff" fill-opacity="1"/>
<defs>
  <clipPath id="clip02">
    <rect x="35" y="11" width="546" height="365"/>
  </clipPath>
</defs>
<polyline clip-path="url(#clip02)" style="stroke:#000000; stroke-width:0.5; stroke-opacity:0.1; fill:none" points="
  85.1998,370.353 85.1998,17.2711 
  "/>
<polyline clip-path="url(#clip02)" style="stroke:#000000; stroke-width:0.5; stroke-opacity:0.1; fill:none" points="
  256.52,370.353 256.52,17.2711 
  "/>
<polyline clip-path="url(#clip02)" style="stroke:#000000; stroke-width:0.5; stroke-opacity:0.1; fill:none" points="
  427.84,370.353 427.84,17.2711 
  "/>
<polyline clip-path="url(#clip02)" style="stroke:#000000; stroke-width:0.5; stroke-opacity:0.1; fill:none" points="
  43.6889,375.813 572.143,375.813 
  "/>
<polyline clip-path="url(#clip02)" style="stroke:#000000; stroke-width:0.5; stroke-opacity:0.1; fill:none" points="
  43.6889,315.146 572.143,315.146 
  "/>
<polyline clip-path="url(#clip02)" style="stroke:#000000; stroke-width:0.5; stroke-opacity:0.1; fill:none" points="
  43.6889,254.479 572.143,254.479 
  "/>
<polyline clip-path="url(#clip02)" style="stroke:#000000; stroke-width:0.5; stroke-opacity:0.1; fill:none" points="
  43.6889,193.812 572.143,193.812 
  "/>
<polyline clip-path="url(#clip02)" style="stroke:#000000; stroke-width:0.5; stroke-opacity:0.1; fill:none" points="
  43.6889,133.145 572.143,133.145 
  "/>
<polyline clip-path="url(#clip02)" style="stroke:#000000; stroke-width:0.5; stroke-opacity:0.1; fill:none" points="
  43.6889,72.4781 572.143,72.4781 
  "/>
<polyline clip-path="url(#clip02)" style="stroke:#000000; stroke-width:0.5; stroke-opacity:0.1; fill:none" points="
  43.6889,11.811 572.143,11.811 
  "/>
<polyline clip-path="url(#clip00)" style="stroke:#000000; stroke-width:1; stroke-opacity:1; fill:none" points="
  35.5169,375.813 580.315,375.813 
  "/>
<polyline clip-path="url(#clip00)" style="stroke:#000000; stroke-width:1; stroke-opacity:1; fill:none" points="
  85.1998,375.813 85.1998,370.353 
  "/>
<polyline clip-path="url(#clip00)" style="stroke:#000000; stroke-width:1; stroke-opacity:1; fill:none" points="
  256.52,375.813 256.52,370.353 
  "/>
<polyline clip-path="url(#clip00)" style="stroke:#000000; stroke-width:1; stroke-opacity:1; fill:none" points="
  427.84,375.813 427.84,370.353 
  "/>
<polyline clip-path="url(#clip00)" style="stroke:#000000; stroke-width:1; stroke-opacity:1; fill:none" points="
  35.5169,375.813 35.5169,11.811 
  "/>
<polyline clip-path="url(#clip00)" style="stroke:#000000; stroke-width:1; stroke-opacity:1; fill:none" points="
  35.5169,375.813 43.6889,375.813 
  "/>
<polyline clip-path="url(#clip00)" style="stroke:#000000; stroke-width:1; stroke-opacity:1; fill:none" points="
  35.5169,315.146 43.6889,315.146 
  "/>
<polyline clip-path="url(#clip00)" style="stroke:#000000; stroke-width:1; stroke-opacity:1; fill:none" points="
  35.5169,254.479 43.6889,254.479 
  "/>
<polyline clip-path="url(#clip00)" style="stroke:#000000; stroke-width:1; stroke-opacity:1; fill:none" points="
  35.5169,193.812 43.6889,193.812 
  "/>
<polyline clip-path="url(#clip00)" style="stroke:#000000; stroke-width:1; stroke-opacity:1; fill:none" points="
  35.5169,133.145 43.6889,133.145 
  "/>
<polyline clip-path="url(#clip00)" style="stroke:#000000; stroke-width:1; stroke-opacity:1; fill:none" points="
  35.5169,72.4781 43.6889,72.4781 
  "/>
<polyline clip-path="url(#clip00)" style="stroke:#000000; stroke-width:1; stroke-opacity:1; fill:none" points="
  35.5169,11.811 43.6889,11.811 
  "/>
<g clip-path="url(#clip00)">
<text style="fill:#000000; fill-opacity:1; font-family:Arial,Helvetica Neue,Helvetica,sans-serif; font-size:12; text-anchor:middle;" transform="rotate(0, 85.1998, 389.613)" x="85.1998" y="389.613">-0.2</text>
</g>
<g clip-path="url(#clip00)">
<text style="fill:#000000; fill-opacity:1; font-family:Arial,Helvetica Neue,Helvetica,sans-serif; font-size:12; text-anchor:middle;" transform="rotate(0, 256.52, 389.613)" x="256.52" y="389.613">-0.1</text>
</g>
<g clip-path="url(#clip00)">
<text style="fill:#000000; fill-opacity:1; font-family:Arial,Helvetica Neue,Helvetica,sans-serif; font-size:12; text-anchor:middle;" transform="rotate(0, 427.84, 389.613)" x="427.84" y="389.613">0.0</text>
</g>
<g clip-path="url(#clip00)">
<text style="fill:#000000; fill-opacity:1; font-family:Arial,Helvetica Neue,Helvetica,sans-serif; font-size:12; text-anchor:end;" transform="rotate(0, 29.5169, 380.313)" x="29.5169" y="380.313">0</text>
</g>
<g clip-path="url(#clip00)">
<text style="fill:#000000; fill-opacity:1; font-family:Arial,Helvetica Neue,Helvetica,sans-serif; font-size:12; text-anchor:end;" transform="rotate(0, 29.5169, 319.646)" x="29.5169" y="319.646">20</text>
</g>
<g clip-path="url(#clip00)">
<text style="fill:#000000; fill-opacity:1; font-family:Arial,Helvetica Neue,Helvetica,sans-serif; font-size:12; text-anchor:end;" transform="rotate(0, 29.5169, 258.979)" x="29.5169" y="258.979">40</text>
</g>
<g clip-path="url(#clip00)">
<text style="fill:#000000; fill-opacity:1; font-family:Arial,Helvetica Neue,Helvetica,sans-serif; font-size:12; text-anchor:end;" transform="rotate(0, 29.5169, 198.312)" x="29.5169" y="198.312">60</text>
</g>
<g clip-path="url(#clip00)">
<text style="fill:#000000; fill-opacity:1; font-family:Arial,Helvetica Neue,Helvetica,sans-serif; font-size:12; text-anchor:end;" transform="rotate(0, 29.5169, 137.645)" x="29.5169" y="137.645">80</text>
</g>
<g clip-path="url(#clip00)">
<text style="fill:#000000; fill-opacity:1; font-family:Arial,Helvetica Neue,Helvetica,sans-serif; font-size:12; text-anchor:end;" transform="rotate(0, 29.5169, 76.9781)" x="29.5169" y="76.9781">100</text>
</g>
<g clip-path="url(#clip00)">
<text style="fill:#000000; fill-opacity:1; font-family:Arial,Helvetica Neue,Helvetica,sans-serif; font-size:12; text-anchor:end;" transform="rotate(0, 29.5169, 16.311)" x="29.5169" y="16.311">120</text>
</g>
<polygon clip-path="url(#clip02)" points="
50.9357,372.78 50.9357,375.813 68.0677,375.813 68.0677,372.78 50.9357,372.78 50.9357,372.78 
  " fill="#009af9" fill-opacity="1"/>
<polyline clip-path="url(#clip02)" style="stroke:#000000; stroke-width:1; stroke-opacity:1; fill:none" points="
  50.9357,372.78 50.9357,375.813 68.0677,375.813 68.0677,372.78 50.9357,372.78 
  "/>
<polygon clip-path="url(#clip02)" points="
68.0677,375.813 68.0677,375.813 85.1998,375.813 85.1998,375.813 68.0677,375.813 68.0677,375.813 
  " fill="#009af9" fill-opacity="1"/>
<polyline clip-path="url(#clip02)" style="stroke:#000000; stroke-width:1; stroke-opacity:1; fill:none" points="
  68.0677,375.813 68.0677,375.813 85.1998,375.813 68.0677,375.813 
  "/>
<polygon clip-path="url(#clip02)" points="
85.1998,375.813 85.1998,375.813 102.332,375.813 102.332,375.813 85.1998,375.813 85.1998,375.813 
  " fill="#009af9" fill-opacity="1"/>
<polyline clip-path="url(#clip02)" style="stroke:#000000; stroke-width:1; stroke-opacity:1; fill:none" points="
  85.1998,375.813 85.1998,375.813 102.332,375.813 85.1998,375.813 
  "/>
<polygon clip-path="url(#clip02)" points="
102.332,375.813 102.332,375.813 119.464,375.813 119.464,375.813 102.332,375.813 102.332,375.813 
  " fill="#009af9" fill-opacity="1"/>
<polyline clip-path="url(#clip02)" style="stroke:#000000; stroke-width:1; stroke-opacity:1; fill:none" points="
  102.332,375.813 102.332,375.813 119.464,375.813 102.332,375.813 
  "/>
<polygon clip-path="url(#clip02)" points="
119.464,375.813 119.464,375.813 136.596,375.813 136.596,375.813 119.464,375.813 119.464,375.813 
  " fill="#009af9" fill-opacity="1"/>
<polyline clip-path="url(#clip02)" style="stroke:#000000; stroke-width:1; stroke-opacity:1; fill:none" points="
  119.464,375.813 119.464,375.813 136.596,375.813 119.464,375.813 
  "/>
<polygon clip-path="url(#clip02)" points="
136.596,366.713 136.596,375.813 153.728,375.813 153.728,366.713 136.596,366.713 136.596,366.713 
  " fill="#009af9" fill-opacity="1"/>
<polyline clip-path="url(#clip02)" style="stroke:#000000; stroke-width:1; stroke-opacity:1; fill:none" points="
  136.596,366.713 136.596,375.813 153.728,375.813 153.728,366.713 136.596,366.713 
  "/>
<polygon clip-path="url(#clip02)" points="
153.728,369.747 153.728,375.813 170.86,375.813 170.86,369.747 153.728,369.747 153.728,369.747 
  " fill="#009af9" fill-opacity="1"/>
<polyline clip-path="url(#clip02)" style="stroke:#000000; stroke-width:1; stroke-opacity:1; fill:none" points="
  153.728,369.747 153.728,375.813 170.86,375.813 170.86,369.747 153.728,369.747 
  "/>
<polygon clip-path="url(#clip02)" points="
170.86,360.647 170.86,375.813 187.992,375.813 187.992,360.647 170.86,360.647 170.86,360.647 
  " fill="#009af9" fill-opacity="1"/>
<polyline clip-path="url(#clip02)" style="stroke:#000000; stroke-width:1; stroke-opacity:1; fill:none" points="
  170.86,360.647 170.86,375.813 187.992,375.813 187.992,360.647 170.86,360.647 
  "/>
<polygon clip-path="url(#clip02)" points="
187.992,357.613 187.992,375.813 205.124,375.813 205.124,357.613 187.992,357.613 187.992,357.613 
  " fill="#009af9" fill-opacity="1"/>
<polyline clip-path="url(#clip02)" style="stroke:#000000; stroke-width:1; stroke-opacity:1; fill:none" points="
  187.992,357.613 187.992,375.813 205.124,375.813 205.124,357.613 187.992,357.613 
  "/>
<polygon clip-path="url(#clip02)" points="
205.124,336.38 205.124,375.813 222.256,375.813 222.256,336.38 205.124,336.38 205.124,336.38 
  " fill="#009af9" fill-opacity="1"/>
<polyline clip-path="url(#clip02)" style="stroke:#000000; stroke-width:1; stroke-opacity:1; fill:none" points="
  205.124,336.38 205.124,375.813 222.256,375.813 222.256,336.38 205.124,336.38 
  "/>
<polygon clip-path="url(#clip02)" points="
222.256,357.613 222.256,375.813 239.388,375.813 239.388,357.613 222.256,357.613 222.256,357.613 
  " fill="#009af9" fill-opacity="1"/>
<polyline clip-path="url(#clip02)" style="stroke:#000000; stroke-width:1; stroke-opacity:1; fill:none" points="
  222.256,357.613 222.256,375.813 239.388,375.813 239.388,357.613 222.256,357.613 
  "/>
<polygon clip-path="url(#clip02)" points="
239.388,348.513 239.388,375.813 256.52,375.813 256.52,348.513 239.388,348.513 239.388,348.513 
  " fill="#009af9" fill-opacity="1"/>
<polyline clip-path="url(#clip02)" style="stroke:#000000; stroke-width:1; stroke-opacity:1; fill:none" points="
  239.388,348.513 239.388,375.813 256.52,375.813 256.52,348.513 239.388,348.513 
  "/>
<polygon clip-path="url(#clip02)" points="
256.52,318.18 256.52,375.813 273.652,375.813 273.652,318.18 256.52,318.18 256.52,318.18 
  " fill="#009af9" fill-opacity="1"/>
<polyline clip-path="url(#clip02)" style="stroke:#000000; stroke-width:1; stroke-opacity:1; fill:none" points="
  256.52,318.18 256.52,375.813 273.652,375.813 273.652,318.18 256.52,318.18 
  "/>
<polygon clip-path="url(#clip02)" points="
273.652,315.146 273.652,375.813 290.784,375.813 290.784,315.146 273.652,315.146 273.652,315.146 
  " fill="#009af9" fill-opacity="1"/>
<polyline clip-path="url(#clip02)" style="stroke:#000000; stroke-width:1; stroke-opacity:1; fill:none" points="
  273.652,315.146 273.652,375.813 290.784,375.813 290.784,315.146 273.652,315.146 
  "/>
<polygon clip-path="url(#clip02)" points="
290.784,296.946 290.784,375.813 307.916,375.813 307.916,296.946 290.784,296.946 290.784,296.946 
  " fill="#009af9" fill-opacity="1"/>
<polyline clip-path="url(#clip02)" style="stroke:#000000; stroke-width:1; stroke-opacity:1; fill:none" points="
  290.784,296.946 290.784,375.813 307.916,375.813 307.916,296.946 290.784,296.946 
  "/>
<polygon clip-path="url(#clip02)" points="
307.916,293.913 307.916,375.813 325.048,375.813 325.048,293.913 307.916,293.913 307.916,293.913 
  " fill="#009af9" fill-opacity="1"/>
<polyline clip-path="url(#clip02)" style="stroke:#000000; stroke-width:1; stroke-opacity:1; fill:none" points="
  307.916,293.913 307.916,375.813 325.048,375.813 325.048,293.913 307.916,293.913 
  "/>
<polygon clip-path="url(#clip02)" points="
325.048,230.212 325.048,375.813 342.18,375.813 342.18,230.212 325.048,230.212 325.048,230.212 
  " fill="#009af9" fill-opacity="1"/>
<polyline clip-path="url(#clip02)" style="stroke:#000000; stroke-width:1; stroke-opacity:1; fill:none" points="
  325.048,230.212 325.048,375.813 342.18,375.813 342.18,230.212 325.048,230.212 
  "/>
<polygon clip-path="url(#clip02)" points="
342.18,139.212 342.18,375.813 359.312,375.813 359.312,139.212 342.18,139.212 342.18,139.212 
  " fill="#009af9" fill-opacity="1"/>
<polyline clip-path="url(#clip02)" style="stroke:#000000; stroke-width:1; stroke-opacity:1; fill:none" points="
  342.18,139.212 342.18,375.813 359.312,375.813 359.312,139.212 342.18,139.212 
  "/>
<polygon clip-path="url(#clip02)" points="
359.312,127.078 359.312,375.813 376.444,375.813 376.444,127.078 359.312,127.078 359.312,127.078 
  " fill="#009af9" fill-opacity="1"/>
<polyline clip-path="url(#clip02)" style="stroke:#000000; stroke-width:1; stroke-opacity:1; fill:none" points="
  359.312,127.078 359.312,375.813 376.444,375.813 376.444,127.078 359.312,127.078 
  "/>
<polygon clip-path="url(#clip02)" points="
376.444,78.5448 376.444,375.813 393.576,375.813 393.576,78.5448 376.444,78.5448 376.444,78.5448 
  " fill="#009af9" fill-opacity="1"/>
<polyline clip-path="url(#clip02)" style="stroke:#000000; stroke-width:1; stroke-opacity:1; fill:none" points="
  376.444,78.5448 376.444,375.813 393.576,375.813 393.576,78.5448 376.444,78.5448 
  "/>
<polygon clip-path="url(#clip02)" points="
393.576,39.1112 393.576,375.813 410.708,375.813 410.708,39.1112 393.576,39.1112 393.576,39.1112 
  " fill="#009af9" fill-opacity="1"/>
<polyline clip-path="url(#clip02)" style="stroke:#000000; stroke-width:1; stroke-opacity:1; fill:none" points="
  393.576,39.1112 393.576,375.813 410.708,375.813 410.708,39.1112 393.576,39.1112 
  "/>
<polygon clip-path="url(#clip02)" points="
410.708,11.811 410.708,375.813 427.84,375.813 427.84,11.811 410.708,11.811 410.708,11.811 
  " fill="#009af9" fill-opacity="1"/>
<polyline clip-path="url(#clip02)" style="stroke:#000000; stroke-width:1; stroke-opacity:1; fill:none" points="
  410.708,11.811 410.708,375.813 427.84,375.813 427.84,11.811 410.708,11.811 
  "/>
<polygon clip-path="url(#clip02)" points="
427.84,36.0779 427.84,375.813 444.972,375.813 444.972,36.0779 427.84,36.0779 427.84,36.0779 
  " fill="#009af9" fill-opacity="1"/>
<polyline clip-path="url(#clip02)" style="stroke:#000000; stroke-width:1; stroke-opacity:1; fill:none" points="
  427.84,36.0779 427.84,375.813 444.972,375.813 444.972,36.0779 427.84,36.0779 
  "/>
<polygon clip-path="url(#clip02)" points="
444.972,130.112 444.972,375.813 462.104,375.813 462.104,130.112 444.972,130.112 444.972,130.112 
  " fill="#009af9" fill-opacity="1"/>
<polyline clip-path="url(#clip02)" style="stroke:#000000; stroke-width:1; stroke-opacity:1; fill:none" points="
  444.972,130.112 444.972,375.813 462.104,375.813 462.104,130.112 444.972,130.112 
  "/>
<polygon clip-path="url(#clip02)" points="
462.104,196.846 462.104,375.813 479.236,375.813 479.236,196.846 462.104,196.846 462.104,196.846 
  " fill="#009af9" fill-opacity="1"/>
<polyline clip-path="url(#clip02)" style="stroke:#000000; stroke-width:1; stroke-opacity:1; fill:none" points="
  462.104,196.846 462.104,375.813 479.236,375.813 479.236,196.846 462.104,196.846 
  "/>
<polygon clip-path="url(#clip02)" points="
479.236,260.546 479.236,375.813 496.368,375.813 496.368,260.546 479.236,260.546 479.236,260.546 
  " fill="#009af9" fill-opacity="1"/>
<polyline clip-path="url(#clip02)" style="stroke:#000000; stroke-width:1; stroke-opacity:1; fill:none" points="
  479.236,260.546 479.236,375.813 496.368,375.813 496.368,260.546 479.236,260.546 
  "/>
<polygon clip-path="url(#clip02)" points="
496.368,321.213 496.368,375.813 513.5,375.813 513.5,321.213 496.368,321.213 496.368,321.213 
  " fill="#009af9" fill-opacity="1"/>
<polyline clip-path="url(#clip02)" style="stroke:#000000; stroke-width:1; stroke-opacity:1; fill:none" points="
  496.368,321.213 496.368,375.813 513.5,375.813 513.5,321.213 496.368,321.213 
  "/>
<polygon clip-path="url(#clip02)" points="
513.5,336.38 513.5,375.813 530.632,375.813 530.632,336.38 513.5,336.38 513.5,336.38 
  " fill="#009af9" fill-opacity="1"/>
<polyline clip-path="url(#clip02)" style="stroke:#000000; stroke-width:1; stroke-opacity:1; fill:none" points="
  513.5,336.38 513.5,375.813 530.632,375.813 530.632,336.38 513.5,336.38 
  "/>
<polygon clip-path="url(#clip02)" points="
530.632,366.713 530.632,375.813 547.764,375.813 547.764,366.713 530.632,366.713 530.632,366.713 
  " fill="#009af9" fill-opacity="1"/>
<polyline clip-path="url(#clip02)" style="stroke:#000000; stroke-width:1; stroke-opacity:1; fill:none" points="
  530.632,366.713 530.632,375.813 547.764,375.813 547.764,366.713 530.632,366.713 
  "/>
<polygon clip-path="url(#clip02)" points="
547.764,369.747 547.764,375.813 564.896,375.813 564.896,369.747 547.764,369.747 547.764,369.747 
  " fill="#009af9" fill-opacity="1"/>
<polyline clip-path="url(#clip02)" style="stroke:#000000; stroke-width:1; stroke-opacity:1; fill:none" points="
  547.764,369.747 547.764,375.813 564.896,375.813 564.896,369.747 547.764,369.747 
  "/>
<polygon clip-path="url(#clip00)" points="
489.799,62.931 562.315,62.931 562.315,32.691 489.799,32.691 
  " fill="#ffffff" fill-opacity="1"/>
<polyline clip-path="url(#clip00)" style="stroke:#000000; stroke-width:1; stroke-opacity:1; fill:none" points="
  489.799,62.931 562.315,62.931 562.315,32.691 489.799,32.691 489.799,62.931 
  "/>
<polygon clip-path="url(#clip00)" points="
495.799,53.859 531.799,53.859 531.799,41.763 495.799,41.763 495.799,53.859 
  " fill="#009af9" fill-opacity="1"/>
<polyline clip-path="url(#clip00)" style="stroke:#000000; stroke-width:1; stroke-opacity:1; fill:none" points="
  495.799,53.859 531.799,53.859 531.799,41.763 495.799,41.763 495.799,53.859 
  "/>
<g clip-path="url(#clip00)">
<text style="fill:#000000; fill-opacity:1; font-family:Arial,Helvetica Neue,Helvetica,sans-serif; font-size:12; text-anchor:start;" transform="rotate(0, 537.799, 52.311)" x="537.799" y="52.311">y1</text>
</g>
</svg>
