<?xml version="1.0" encoding="utf-8"?>
<svg xmlns="http://www.w3.org/2000/svg" xmlns:xlink="http://www.w3.org/1999/xlink" width="600" height="400" viewBox="0 0 600 400">
<defs>
  <clipPath id="clip1200">
    <rect x="0" y="0" width="600" height="400"/>
  </clipPath>
</defs>
<polygon clip-path="url(#clip1200)" points="
0,400 600,400 600,0 0,0 
  " fill="#ffffff" fill-opacity="1"/>
<defs>
  <clipPath id="clip1201">
    <rect x="120" y="0" width="421" height="400"/>
  </clipPath>
</defs>
<polygon clip-path="url(#clip1200)" points="
32.2221,375.813 580.315,375.813 580.315,11.811 32.2221,11.811 
  " fill="#ffffff" fill-opacity="1"/>
<defs>
  <clipPath id="clip1202">
    <rect x="32" y="11" width="549" height="365"/>
  </clipPath>
</defs>
<polyline clip-path="url(#clip1202)" style="stroke:#000000; stroke-width:0.5; stroke-opacity:0.1; fill:none" points="
  132.189,375.813 132.189,11.811 
  "/>
<polyline clip-path="url(#clip1202)" style="stroke:#000000; stroke-width:0.5; stroke-opacity:0.1; fill:none" points="
  235.602,375.813 235.602,11.811 
  "/>
<polyline clip-path="url(#clip1202)" style="stroke:#000000; stroke-width:0.5; stroke-opacity:0.1; fill:none" points="
  339.016,375.813 339.016,11.811 
  "/>
<polyline clip-path="url(#clip1202)" style="stroke:#000000; stroke-width:0.5; stroke-opacity:0.1; fill:none" points="
  442.43,375.813 442.43,11.811 
  "/>
<polyline clip-path="url(#clip1202)" style="stroke:#000000; stroke-width:0.5; stroke-opacity:0.1; fill:none" points="
  545.844,375.813 545.844,11.811 
  "/>
<polyline clip-path="url(#clip1202)" style="stroke:#000000; stroke-width:0.5; stroke-opacity:0.1; fill:none" points="
  32.2221,296.703 580.315,296.703 
  "/>
<polyline clip-path="url(#clip1202)" style="stroke:#000000; stroke-width:0.5; stroke-opacity:0.1; fill:none" points="
  32.2221,212.71 580.315,212.71 
  "/>
<polyline clip-path="url(#clip1202)" style="stroke:#000000; stroke-width:0.5; stroke-opacity:0.1; fill:none" points="
  32.2221,128.717 580.315,128.717 
  "/>
<polyline clip-path="url(#clip1202)" style="stroke:#000000; stroke-width:0.5; stroke-opacity:0.1; fill:none" points="
  32.2221,44.7241 580.315,44.7241 
  "/>
<polyline clip-path="url(#clip1200)" style="stroke:#000000; stroke-width:1; stroke-opacity:1; fill:none" points="
  32.2221,375.813 580.315,375.813 
  "/>
<polyline clip-path="url(#clip1200)" style="stroke:#000000; stroke-width:1; stroke-opacity:1; fill:none" points="
  32.2221,375.813 32.2221,11.811 
  "/>
<polyline clip-path="url(#clip1200)" style="stroke:#000000; stroke-width:1; stroke-opacity:1; fill:none" points="
  132.189,375.813 132.189,370.353 
  "/>
<polyline clip-path="url(#clip1200)" style="stroke:#000000; stroke-width:1; stroke-opacity:1; fill:none" points="
  235.602,375.813 235.602,370.353 
  "/>
<polyline clip-path="url(#clip1200)" style="stroke:#000000; stroke-width:1; stroke-opacity:1; fill:none" points="
  339.016,375.813 339.016,370.353 
  "/>
<polyline clip-path="url(#clip1200)" style="stroke:#000000; stroke-width:1; stroke-opacity:1; fill:none" points="
  442.43,375.813 442.43,370.353 
  "/>
<polyline clip-path="url(#clip1200)" style="stroke:#000000; stroke-width:1; stroke-opacity:1; fill:none" points="
  545.844,375.813 545.844,370.353 
  "/>
<polyline clip-path="url(#clip1200)" style="stroke:#000000; stroke-width:1; stroke-opacity:1; fill:none" points="
  32.2221,296.703 40.4435,296.703 
  "/>
<polyline clip-path="url(#clip1200)" style="stroke:#000000; stroke-width:1; stroke-opacity:1; fill:none" points="
  32.2221,212.71 40.4435,212.71 
  "/>
<polyline clip-path="url(#clip1200)" style="stroke:#000000; stroke-width:1; stroke-opacity:1; fill:none" points="
  32.2221,128.717 40.4435,128.717 
  "/>
<polyline clip-path="url(#clip1200)" style="stroke:#000000; stroke-width:1; stroke-opacity:1; fill:none" points="
  32.2221,44.7241 40.4435,44.7241 
  "/>
<g clip-path="url(#clip1200)">
<text style="fill:#000000; fill-opacity:1; font-family:Arial,Helvetica Neue,Helvetica,sans-serif; font-size:12; text-anchor:middle;" transform="rotate(0, 132.189, 389.613)" x="132.189" y="389.613">30</text>
</g>
<g clip-path="url(#clip1200)">
<text style="fill:#000000; fill-opacity:1; font-family:Arial,Helvetica Neue,Helvetica,sans-serif; font-size:12; text-anchor:middle;" transform="rotate(0, 235.602, 389.613)" x="235.602" y="389.613">60</text>
</g>
<g clip-path="url(#clip1200)">
<text style="fill:#000000; fill-opacity:1; font-family:Arial,Helvetica Neue,Helvetica,sans-serif; font-size:12; text-anchor:middle;" transform="rotate(0, 339.016, 389.613)" x="339.016" y="389.613">90</text>
</g>
<g clip-path="url(#clip1200)">
<text style="fill:#000000; fill-opacity:1; font-family:Arial,Helvetica Neue,Helvetica,sans-serif; font-size:12; text-anchor:middle;" transform="rotate(0, 442.43, 389.613)" x="442.43" y="389.613">120</text>
</g>
<g clip-path="url(#clip1200)">
<text style="fill:#000000; fill-opacity:1; font-family:Arial,Helvetica Neue,Helvetica,sans-serif; font-size:12; text-anchor:middle;" transform="rotate(0, 545.844, 389.613)" x="545.844" y="389.613">150</text>
</g>
<g clip-path="url(#clip1200)">
<text style="fill:#000000; fill-opacity:1; font-family:Arial,Helvetica Neue,Helvetica,sans-serif; font-size:12; text-anchor:end;" transform="rotate(0, 26.2221, 301.203)" x="26.2221" y="301.203">0.5</text>
</g>
<g clip-path="url(#clip1200)">
<text style="fill:#000000; fill-opacity:1; font-family:Arial,Helvetica Neue,Helvetica,sans-serif; font-size:12; text-anchor:end;" transform="rotate(0, 26.2221, 217.21)" x="26.2221" y="217.21">1.0</text>
</g>
<g clip-path="url(#clip1200)">
<text style="fill:#000000; fill-opacity:1; font-family:Arial,Helvetica Neue,Helvetica,sans-serif; font-size:12; text-anchor:end;" transform="rotate(0, 26.2221, 133.217)" x="26.2221" y="133.217">1.5</text>
</g>
<g clip-path="url(#clip1200)">
<text style="fill:#000000; fill-opacity:1; font-family:Arial,Helvetica Neue,Helvetica,sans-serif; font-size:12; text-anchor:end;" transform="rotate(0, 26.2221, 49.2241)" x="26.2221" y="49.2241">2.0</text>
</g>
<polyline clip-path="url(#clip1202)" style="stroke:#009af9; stroke-width:1; stroke-opacity:1; fill:none" points="
  32.2221,211.198 35.6692,218.51 39.1164,211.093 42.5635,204.777 46.0106,196.648 49.4577,202.828 52.9049,202.431 56.352,207.415 59.7991,209.55 63.2462,213.469 
  66.6934,206.094 70.1405,213.186 73.5876,219.125 77.0347,213.804 80.4819,220.39 83.929,224.3 87.3761,229.603 90.8232,225.49 94.2704,224.781 97.7175,227.287 
  101.165,215.676 104.612,201.428 108.059,193.892 111.506,179.553 114.953,187.961 118.4,184.333 121.847,195.593 125.294,200.64 128.742,203.485 132.189,213.045 
  135.636,202.774 139.083,203.081 142.53,209.396 145.977,212.586 149.424,215.72 152.871,215.622 156.319,208.246 159.766,204.469 163.213,212.49 166.66,210.423 
  170.107,218.075 173.554,195.86 177.001,197.864 180.448,201.83 183.896,204.756 187.343,201.828 190.79,203.456 194.237,195.419 197.684,199.626 201.131,204.392 
  204.578,210.877 208.025,210.285 211.473,224.211 214.92,223.143 218.367,233.856 221.814,230.778 225.261,226.185 228.708,232.744 232.155,228.45 235.602,231.533 
  239.05,244.134 242.497,237.432 245.944,241.695 249.391,243.485 252.838,245.384 256.285,233.787 259.732,230.079 263.179,224.322 266.627,220.595 270.074,209.393 
  273.521,202.593 276.968,196.698 280.415,202.514 283.862,206.737 287.309,202.959 290.756,193.11 294.204,211.915 297.651,195.841 301.098,203.012 304.545,218.335 
  307.992,213.652 311.439,207.189 314.886,210.225 318.333,227.435 321.781,222.548 325.228,232.695 328.675,237.075 332.122,235.825 335.569,223.362 339.016,226.651 
  342.463,221.269 345.91,214.804 349.358,211.571 352.805,207.205 356.252,209.501 359.699,213.673 363.146,214.779 366.593,215.734 370.04,223.914 373.487,213.288 
  376.935,214.557 380.382,200.284 383.829,204.661 387.276,194.316 390.723,208.931 394.17,211.431 397.617,198.438 401.064,199.713 404.512,200.174 407.959,204.536 
  411.406,201.02 414.853,191.577 418.3,180.487 421.747,184.536 425.194,191.489 428.641,190.319 432.089,191.007 435.536,199.937 438.983,196.243 442.43,203.683 
  445.877,215.514 449.324,211.933 452.771,199.511 456.218,196.051 459.666,190.61 463.113,202.186 466.56,210.05 470.007,210.14 473.454,214.073 476.901,217.54 
  480.348,213.058 483.795,222.182 487.243,210.596 490.69,207.54 494.137,211.961 497.584,213.125 501.031,211.605 504.478,211.362 507.925,212.761 511.372,213.491 
  514.82,207.126 518.267,209.357 521.714,211.443 525.161,217.232 528.608,218.428 532.055,216.713 535.502,223.886 538.949,223.133 542.397,207.834 545.844,211.347 
  549.291,203.284 552.738,187.58 556.185,190.164 559.632,198.757 563.079,206.286 566.526,203.993 569.974,214.834 573.421,208.547 576.868,213.838 580.315,215.568 
  
  "/>
<polyline clip-path="url(#clip1202)" style="stroke:#e26f46; stroke-width:1; stroke-opacity:1; fill:none" points="
  32.2221,250.854 35.6692,251.605 39.1164,251.075 42.5635,250.397 46.0106,249.638 49.4577,249.73 52.9049,249.508 56.352,249.898 59.7991,249.926 63.2462,250.4 
  66.6934,249.676 70.1405,250.519 73.5876,251.192 77.0347,250.778 80.4819,251.537 83.929,252.194 87.3761,252.872 90.8232,252.676 94.2704,252.894 97.7175,253.65 
  101.165,252.687 104.612,251.396 108.059,250.28 111.506,249.014 114.953,248.675 118.4,248.12 121.847,248.612 125.294,248.859 128.742,248.722 132.189,249.712 
  135.636,248.936 139.083,248.889 142.53,249.438 145.977,249.626 149.424,249.787 152.871,250.01 156.319,249.658 159.766,249.477 163.213,250.096 166.66,249.991 
  170.107,250.784 173.554,248.929 177.001,248.562 180.448,248.754 183.896,248.877 187.343,248.419 190.79,248.279 194.237,247.421 197.684,247.591 201.131,247.978 
  204.578,248.689 208.025,248.785 211.473,250.194 214.92,250.485 218.367,251.793 221.814,252.201 225.261,252.445 228.708,253.444 232.155,253.535 235.602,254.3 
  239.05,256.015 242.497,256.034 245.944,256.947 249.391,257.776 252.838,258.741 256.285,258.059 259.732,257.874 263.179,257.552 266.627,257.062 270.074,255.884 
  273.521,255.03 276.968,253.959 280.415,253.919 283.862,253.939 287.309,253.266 290.756,251.709 294.204,252.951 297.651,251.425 301.098,251.733 304.545,253.068 
  307.992,252.556 311.439,251.961 314.886,252.204 318.333,254.068 321.781,253.81 325.228,254.762 328.675,255.553 332.122,255.96 335.569,255.236 339.016,255.813 
  342.463,255.54 345.91,255.112 349.358,254.435 352.805,253.639 356.252,253.879 359.699,254.118 363.146,254.235 366.593,254.421 370.04,254.9 373.487,254.054 
  376.935,254.221 380.382,252.638 383.829,252.845 387.276,251.756 390.723,252.379 394.17,252.375 397.617,250.939 401.064,250.657 404.512,250.228 407.959,250.552 
  411.406,250.32 414.853,249.398 418.3,247.57 421.747,247.444 425.194,247.698 428.641,246.943 432.089,246.662 435.536,247.304 438.983,246.807 442.43,247.341 
  445.877,248.371 449.324,248.234 452.771,247.533 456.218,247.068 459.666,246.317 463.113,247.103 466.56,247.769 470.007,247.879 473.454,248.332 476.901,248.81 
  480.348,248.582 483.795,249.47 487.243,248.798 490.69,248.328 494.137,248.912 497.584,249.218 501.031,249.248 504.478,249.493 507.925,249.637 511.372,249.908 
  514.82,249.529 518.267,249.795 521.714,249.911 525.161,250.613 528.608,251.021 532.055,250.966 535.502,251.823 538.949,252.084 542.397,251.005 545.844,250.973 
  549.291,250.299 552.738,248.639 556.185,248.385 559.632,248.837 563.079,249.311 566.526,248.861 569.974,249.904 573.421,249.738 576.868,250.078 580.315,250.162 
  
  "/>
<polyline clip-path="url(#clip1202)" style="stroke:#3da44d; stroke-width:1; stroke-opacity:1; fill:none" points="
  32.2221,324.42 35.6692,326.343 39.1164,324.093 42.5635,322.743 46.0106,320.035 49.4577,322.795 52.9049,322.977 56.352,324.114 59.7991,325.347 63.2462,326.033 
  66.6934,324.502 70.1405,325.435 73.5876,326.981 77.0347,325.84 80.4819,327.48 83.929,328.243 87.3761,330.219 90.8232,329.585 94.2704,329.255 97.7175,328.819 
  101.165,325.834 104.612,321.713 108.059,320.56 111.506,314.85 114.953,319.535 118.4,317.717 121.847,321.021 125.294,322.296 128.742,324.29 132.189,326.149 
  135.636,322.963 139.083,322.983 142.53,324.526 145.977,326.075 149.424,327.943 152.871,327.577 156.319,324.655 159.766,322.828 163.213,325.32 166.66,324.687 
  170.107,326.702 173.554,320.31 177.001,322.334 180.448,323.341 183.896,324.321 187.343,324.173 190.79,325.479 194.237,323.686 197.684,324.849 201.131,325.821 
  204.578,326.976 208.025,326.55 211.473,330.348 214.92,329.763 218.367,332.953 221.814,331.119 225.261,328.518 228.708,330.214 232.155,328.421 235.602,328.673 
  239.05,332.242 242.497,329.538 245.944,330.65 249.391,330.554 252.838,330.029 256.285,326.109 259.732,325.185 263.179,322.915 266.627,322.529 270.074,319.349 
  273.521,317.116 276.968,316.202 280.415,318.622 283.862,320.203 287.309,319.6 290.756,318.642 294.204,324.341 297.651,319.605 301.098,321.609 304.545,325.609 
  307.992,324.909 311.439,322.965 314.886,323.461 318.333,327.362 321.781,326.039 325.228,330.01 328.675,331.346 332.122,330.479 335.569,325.991 339.016,326.378 
  342.463,324.294 345.91,321.608 349.358,322.027 352.805,321.945 356.252,321.572 359.699,322.859 363.146,322.837 366.593,322.487 370.04,326.331 373.487,322.914 
  376.935,322.749 380.382,319.454 383.829,320.206 387.276,316.811 390.723,322.683 394.17,324.061 397.617,321.225 401.064,322.146 404.512,323.349 407.959,323.924 
  411.406,321.934 414.853,318.723 418.3,318.194 421.747,319.06 425.194,320.594 428.641,322.02 432.089,322.48 435.536,324.365 438.983,323.74 442.43,325.653 
  445.877,329.053 449.324,328.103 452.771,323.404 456.218,322.718 459.666,321.797 463.113,324.862 466.56,327.073 470.007,327.139 473.454,328.29 476.901,329.325 
  480.348,328.258 483.795,331.22 487.243,327.565 490.69,327.865 494.137,328.412 497.584,328.312 501.031,327.649 504.478,326.776 507.925,327.399 511.372,327.122 
  514.82,324.852 518.267,325.103 521.714,326.104 525.161,327.294 528.608,327.036 532.055,326.814 535.502,328.719 538.949,328.176 542.397,323.116 545.844,325.464 
  549.291,322.902 552.738,319.094 556.185,320.129 559.632,322.331 563.079,324.571 566.526,324.875 569.974,327.402 573.421,324.348 576.868,326.539 580.315,327.814 
  
  "/>
<polyline clip-path="url(#clip1202)" style="stroke:#c271d2; stroke-width:1; stroke-opacity:1; fill:none" points="
  32.2221,374.895 35.6692,375.142 39.1164,374.861 42.5635,374.643 46.0106,374.384 49.4577,374.643 52.9049,374.653 56.352,374.844 59.7991,374.921 63.2462,375.051 
  66.6934,374.787 70.1405,375.036 73.5876,375.224 77.0347,375.014 80.4819,375.225 83.929,375.327 87.3761,375.469 90.8232,375.27 94.2704,375.202 97.7175,375.251 
  101.165,374.791 104.612,374.274 108.059,374.053 111.506,373.622 114.953,374.044 118.4,374.005 121.847,374.477 125.294,374.689 128.742,374.808 132.189,375.137 
  135.636,374.779 139.083,374.805 142.53,375.028 145.977,375.127 149.424,375.215 152.871,375.187 156.319,374.916 159.766,374.789 163.213,375.071 166.66,374.988 
  170.107,375.239 173.554,374.461 177.001,374.573 180.448,374.74 183.896,374.856 187.343,374.767 190.79,374.838 194.237,374.582 197.684,374.757 201.131,374.932 
  204.578,375.148 208.025,375.114 211.473,375.559 214.92,375.473 218.367,375.786 221.814,375.611 225.261,375.392 228.708,375.572 232.155,375.359 235.602,375.419 
  239.05,375.813 242.497,375.484 245.944,375.573 249.391,375.563 252.838,375.555 256.285,375.025 259.732,374.834 263.179,374.577 266.627,374.421 270.074,373.988 
  273.521,373.776 276.968,373.63 280.415,373.952 283.862,374.177 287.309,374.081 290.756,373.775 294.204,374.555 297.651,373.983 301.098,374.316 304.545,374.904 
  307.992,374.722 311.439,374.491 314.886,374.623 318.333,375.247 321.781,375.028 325.228,375.366 328.675,375.468 332.122,375.354 335.569,374.827 339.016,374.929 
  342.463,374.695 345.91,374.441 349.358,374.335 352.805,374.197 356.252,374.324 359.699,374.509 363.146,374.562 366.593,374.605 370.04,374.912 373.487,374.493 
  376.935,374.553 380.382,374.035 383.829,374.26 387.276,373.928 390.723,374.537 394.17,374.645 397.617,374.19 401.064,374.292 404.512,374.356 407.959,374.55 
  411.406,374.452 414.853,374.162 418.3,373.855 421.747,374.101 425.194,374.417 428.641,374.433 432.089,374.508 435.536,374.845 438.983,374.741 442.43,375.007 
  445.877,375.389 449.324,375.241 452.771,374.817 456.218,374.723 459.666,374.577 463.113,374.991 466.56,375.248 470.007,375.233 473.454,375.341 476.901,375.426 
  480.348,375.244 483.795,375.519 487.243,375.091 490.69,374.977 494.137,375.119 497.584,375.141 501.031,375.071 504.478,375.05 507.925,375.085 511.372,375.093 
  514.82,374.863 518.267,374.942 521.714,375.009 525.161,375.194 528.608,375.208 532.055,375.122 535.502,375.344 538.949,375.276 542.397,374.708 545.844,374.841 
  549.291,374.561 552.738,374.046 556.185,374.219 559.632,374.577 563.079,374.861 566.526,374.79 569.974,375.164 573.421,374.932 576.868,375.108 580.315,375.149 
  
  "/>
<polyline clip-path="url(#clip1202)" style="stroke:#ac8d18; stroke-width:1; stroke-opacity:1; fill:none" points="
  32.2221,41.7024 35.6692,44.8535 39.1164,43.4493 42.5635,39.0427 46.0106,39.212 49.4577,34.9445 52.9049,33.0811 56.352,36.0105 59.7991,32.6773 63.2462,36.3782 
  66.6934,30.9879 70.1405,39.5243 73.5876,42.1529 77.0347,38.2766 80.4819,41.6517 83.929,45.1052 87.3761,43.7955 90.8232,38.918 94.2704,39.5615 97.7175,47.866 
  101.165,42.1528 104.612,38.6192 108.059,31.071 111.506,36.8744 114.953,26.0142 118.4,29.7681 121.847,31.5805 125.294,33.6878 128.742,27.0938 132.189,34.7697 
  135.636,33.8347 139.083,34.3137 142.53,37.4502 145.977,34.2944 149.424,28.7106 152.871,30.9303 156.319,34.3521 159.766,37.9412 163.213,38.8165 166.66,38.5307 
  170.107,41.7107 173.554,36.1847 177.001,28.1044 180.448,29.6946 183.896,29.4408 187.343,24.5254 190.79,19.422 194.237,14.9152 197.684,15.7781 201.131,19.0907 
  204.578,24.905 208.025,26.4716 211.473,30.8829 214.92,32.5415 218.367,34.5311 221.814,40.3474 225.261,47.4065 228.708,50.8336 232.155,52.8988 235.602,57.9792 
  239.05,63.4623 242.497,65.4955 245.944,68.0737 249.391,72.6847 252.838,80.0883 256.285,77.7952 259.732,75.3246 263.179,76.1168 266.627,70.9221 270.074,66.431 
  273.521,65.4295 276.968,59.6015 280.415,57.6241 283.862,57.0363 287.309,53.2694 290.756,40.4589 294.204,43.609 297.651,40.1262 301.098,42.2342 304.545,48.97 
  307.992,43.6807 311.439,42.4304 314.886,45.4679 318.333,57.2688 321.781,55.0373 325.228,52.0495 328.675,53.1364 332.122,55.9934 335.569,56.9982 339.016,61.5058 
  342.463,62.5601 345.91,64.7085 349.358,56.2505 352.805,48.3387 356.252,54.8067 359.699,55.6704 363.146,57.9487 366.593,61.7335 370.04,56.1095 373.487,54.612 
  376.935,58.0059 380.382,49.1326 383.829,53.154 387.276,52.3349 390.723,47.4563 394.17,44.3131 397.617,35.7636 401.064,32.7895 404.512,26.3965 407.959,31.4547 
  411.406,36.551 414.853,37.2319 418.3,20.1625 421.747,22.4912 425.194,26.3737 428.641,15.5189 432.089,13.9639 435.536,19.5356 438.983,16.1991 442.43,18.7506 
  445.877,20.7071 449.324,19.5465 452.771,24.7549 456.218,22.255 459.666,17.4596 463.113,20.8576 466.56,22.5309 470.007,22.2799 473.454,22.8493 476.901,23.2356 
  480.348,20.8886 483.795,20.1085 487.243,20.3622 490.69,11.811 494.137,17.4636 497.584,20.6596 501.031,21.9338 504.478,27.2344 507.925,26.0561 511.372,29.4227 
  514.82,30.8731 518.267,33.8149 521.714,31.7519 525.161,36.1775 528.608,40.3396 532.055,38.1633 535.502,41.1377 538.949,43.0351 542.397,42.8058 545.844,35.5987 
  549.291,35.1961 552.738,27.8592 556.185,26.6284 559.632,29.8426 563.079,30.9446 566.526,24.4139 569.974,30.4128 573.421,36.8403 576.868,33.9236 580.315,29.2483 
  
  "/>
<polygon clip-path="url(#clip1200)" points="
493.758,123.411 562.315,123.411 562.315,32.691 493.758,32.691 
  " fill="#ffffff" fill-opacity="1"/>
<polyline clip-path="url(#clip1200)" style="stroke:#000000; stroke-width:1; stroke-opacity:1; fill:none" points="
  493.758,123.411 562.315,123.411 562.315,32.691 493.758,32.691 493.758,123.411 
  "/>
<polyline clip-path="url(#clip1200)" style="stroke:#009af9; stroke-width:1; stroke-opacity:1; fill:none" points="
  499.758,47.811 535.758,47.811 
  "/>
<g clip-path="url(#clip1200)">
<text style="fill:#000000; fill-opacity:1; font-family:Arial,Helvetica Neue,Helvetica,sans-serif; font-size:12; text-anchor:start;" transform="rotate(0, 541.758, 52.311)" x="541.758" y="52.311">y</text>
</g>
<polyline clip-path="url(#clip1200)" style="stroke:#e26f46; stroke-width:1; stroke-opacity:1; fill:none" points="
  499.758,62.931 535.758,62.931 
  "/>
<g clip-path="url(#clip1200)">
<text style="fill:#000000; fill-opacity:1; font-family:Arial,Helvetica Neue,Helvetica,sans-serif; font-size:12; text-anchor:start;" transform="rotate(0, 541.758, 67.431)" x="541.758" y="67.431">c</text>
</g>
<polyline clip-path="url(#clip1200)" style="stroke:#3da44d; stroke-width:1; stroke-opacity:1; fill:none" points="
  499.758,78.051 535.758,78.051 
  "/>
<g clip-path="url(#clip1200)">
<text style="fill:#000000; fill-opacity:1; font-family:Arial,Helvetica Neue,Helvetica,sans-serif; font-size:12; text-anchor:start;" transform="rotate(0, 541.758, 82.551)" x="541.758" y="82.551">n</text>
</g>
<polyline clip-path="url(#clip1200)" style="stroke:#c271d2; stroke-width:1; stroke-opacity:1; fill:none" points="
  499.758,93.171 535.758,93.171 
  "/>
<g clip-path="url(#clip1200)">
<text style="fill:#000000; fill-opacity:1; font-family:Arial,Helvetica Neue,Helvetica,sans-serif; font-size:12; text-anchor:start;" transform="rotate(0, 541.758, 97.671)" x="541.758" y="97.671">r</text>
</g>
<polyline clip-path="url(#clip1200)" style="stroke:#ac8d18; stroke-width:1; stroke-opacity:1; fill:none" points="
  499.758,108.291 535.758,108.291 
  "/>
<g clip-path="url(#clip1200)">
<text style="fill:#000000; fill-opacity:1; font-family:Arial,Helvetica Neue,Helvetica,sans-serif; font-size:12; text-anchor:start;" transform="rotate(0, 541.758, 112.791)" x="541.758" y="112.791">w</text>
</g>
</svg>
